<?xml version="1.0" encoding="utf-8"?>
<!-- Generator: Adobe Illustrator 25.1.0, SVG Export Plug-In . SVG Version: 6.00 Build 0)  -->
<svg version="1.1" id="Layer_1" xmlns="http://www.w3.org/2000/svg" xmlns:xlink="http://www.w3.org/1999/xlink" x="0px" y="0px"
	 viewBox="0 0 120.4 47.9" style="enable-background:new 0 0 120.4 47.9;" xml:space="preserve">
<style type="text/css">
	.st0{fill:#232931;}
	.st1{fill:#0FCFA2;}
</style>
<g id="Group_55" transform="translate(-2475.559 -6150.352)">
	<g id="Group_51" transform="translate(2475.559 6150.352)">
		<g>
			<rect x="7.3" y="2.9" class="st0" width="17" height="1.8"/>
			<rect x="31" y="2.9" class="st0" width="17" height="1.8"/>
			<rect x="64.6" y="11.2" class="st0" width="17" height="1.8"/>
			<rect x="89.2" y="11.2" class="st0" width="17" height="1.8"/>
			<rect x="58.3" y="2.9" class="st0" width="47.9" height="1.8"/>
			<rect x="7.3" y="11.2" class="st0" width="47.9" height="1.8"/>
			<rect x="7.3" y="19.2" class="st0" width="57.9" height="1.8"/>
			<rect x="72.6" y="19.2" class="st0" width="33.6" height="1.8"/>
			<rect x="7.3" y="27.1" class="st0" width="17" height="1.8"/>
			<rect x="31" y="27.1" class="st0" width="17" height="1.8"/>
			<rect x="64.6" y="35.2" class="st0" width="17" height="1.8"/>
			<rect x="89.2" y="35.2" class="st0" width="17" height="1.8"/>
			<rect x="54.3" y="27.1" class="st0" width="51.9" height="1.8"/>
			<rect x="7.3" y="35.2" class="st0" width="47.9" height="1.8"/>
			<rect x="7.3" y="43.4" class="st0" width="47.9" height="1.8"/>
			<rect x="72.6" y="43.4" class="st0" width="33.6" height="1.8"/>
		</g>
		<g id="Path_221">
			<path class="st1" d="M3.4,6.8L0,3.4L3.4,0l0.7,0.7L1.4,3.4l2.7,2.7L3.4,6.8z"/>
		</g>
		<g id="Path_222">
			<path class="st1" d="M117,47.9l-0.7-0.7l2.7-2.7l-2.7-2.7l0.7-0.7l3.4,3.4L117,47.9z"/>
		</g>
		<g id="Rectangle_72">
			<rect x="109.4" y="43.9" transform="matrix(0.2901 -0.957 0.957 0.2901 37.651 139.5391)" class="st0" width="7" height="1"/>
		</g>
	</g>
</g>
</svg>
