<?xml version="1.0" encoding="utf-8"?>
<!-- Generator: Adobe Illustrator 25.1.0, SVG Export Plug-In . SVG Version: 6.00 Build 0)  -->
<svg version="1.1" id="Layer_1" xmlns="http://www.w3.org/2000/svg" xmlns:xlink="http://www.w3.org/1999/xlink" x="0px" y="0px"
	 viewBox="0 0 361 331.6" style="enable-background:new 0 0 361 331.6;" xml:space="preserve">
<style type="text/css">
	.st0{fill:#EEEEEE;}
	.st1{fill:#393E46;}
	.st2{fill:#4ECCA3;}
</style>
<g id="Group_73" transform="translate(-249.64 91.304)">
	<circle id="Ellipse_36" class="st0" cx="440.9" cy="136.6" r="103.6"/>
	<rect x="248.9" y="78" class="st1" width="173.4" height="3.1"/>
	<rect x="248.9" y="108.8" class="st1" width="338.7" height="3.1"/>
	<path class="st1" d="M486.7,10.8C485.4,4.6,479.9,0,473.3,0c-7.4,0-13.5,5.9-13.7,13.3c-46.8,10.6-81.9,52.6-81.9,102.6
		c0,28.1,10.9,54.5,30.8,74.4c19.9,19.9,46.3,30.8,74.4,30.8h0c57.9-0.1,105.1-47.3,105.2-105.2C588.1,59.2,542.9,12.8,486.7,10.8z
		 M482.9,218c-56.3,0-102.1-45.8-102.1-102.1c0-48.4,33.8-89,79.1-99.5c1.3,6.2,6.8,10.9,13.4,10.9c7.5,0,13.5-6,13.7-13.4
		c54.3,2.2,98,47.1,98,102C585,172.2,539.2,218,482.9,218z"/>
	<circle id="Ellipse_38" class="st2" cx="379.1" cy="108.6" r="8.9"/>
	<circle id="Ellipse_39" class="st2" cx="590.4" cy="108.7" r="20.2"/>
	<path class="st1" d="M355-89.3h-62.3v3.1H355c5.7,0,10.4,4.7,10.4,10.4s-4.7,10.4-10.4,10.4h-92.8c-5.7,0-10.4-4.7-10.4-10.4
		s4.7-10.4,10.4-10.4h4.5v-3.1h-4.5c-7.4,0-13.5,6.1-13.5,13.5s6.1,13.5,13.5,13.5H355c7.4,0,13.5-6.1,13.5-13.5
		S362.4-89.3,355-89.3z"/>
	<path class="st1" d="M355-50.7h-62.3v3.1H355c5.7,0,10.4,4.7,10.4,10.4c0,5.7-4.7,10.4-10.4,10.4h-92.8c-5.7,0-10.4-4.7-10.4-10.4
		c0-5.7,4.7-10.4,10.4-10.4h4.5v-3.1h-4.5c-7.4,0-13.5,6.1-13.5,13.5c0,7.4,6.1,13.5,13.5,13.5H355c7.4,0,13.5-6.1,13.5-13.5
		C368.5-44.6,362.4-50.7,355-50.7z"/>
	<path class="st1" d="M355-12h-62.3v3.1H355c5.7,0,10.4,4.7,10.4,10.4c0,5.7-4.7,10.4-10.4,10.4h-92.8c-5.7,0-10.4-4.7-10.4-10.4
		c0-5.7,4.7-10.4,10.4-10.4h4.5V-12h-4.5c-7.4,0-13.5,6.1-13.5,13.5c0,7.4,6.1,13.5,13.5,13.5H355c7.4,0,13.5-6.1,13.5-13.5
		C368.5-6,362.4-12,355-12z"/>
	<path id="be0e5baf-e5ec-4f16-9492-7d4921bb2c9b" class="st2" d="M272.5-91.3c-1.8,0-3.3,1.5-3.3,3.4c0,1.8,1.5,3.2,3.3,3.3h14.6
		c1.8,0,3.3-1.5,3.4-3.3c0-1.8-1.4-3.3-3.3-3.4H272.5z"/>
	<path id="f5faaf73-4e1d-4e3d-a937-9f255bff3911" class="st1" d="M272.5-52.1c-1.8,0-3.3,1.5-3.3,3.4c0,1.8,1.5,3.2,3.3,3.3h14.6
		c1.8,0,3.3-1.5,3.4-3.3c0-1.8-1.4-3.3-3.3-3.4H272.5z"/>
	<path id="bdcbecaa-58f8-42a6-983f-c76dd899917c" class="st2" d="M272.5-14c-1.8,0-3.3,1.5-3.3,3.4c0,1.8,1.5,3.2,3.3,3.3h14.6
		c1.8,0,3.3-1.5,3.4-3.3c0-1.8-1.4-3.3-3.3-3.4H272.5z"/>
	<path id="bbcd49d7-9efc-41e7-bbf8-c6009cf796dd" class="st0" d="M266.7-79.2c-1.8,0-3.3,1.5-3.3,3.4c0,1.8,1.5,3.2,3.3,3.3h83.5
		c1.8,0,3.4-1.4,3.4-3.3c0-1.8-1.4-3.4-3.3-3.4H266.7z"/>
	<path id="b24c44c6-9087-448d-956a-9230903e4c37" class="st0" d="M266.7-40.5c-1.8,0-3.3,1.5-3.3,3.4c0,1.8,1.5,3.2,3.3,3.3h83.5
		c1.8,0,3.4-1.4,3.4-3.3c0-1.8-1.4-3.4-3.3-3.4H266.7z"/>
	<path id="f49c9183-be6f-4e21-8191-a3b3cb38d75e" class="st0" d="M266.7-1.9c-1.8,0-3.3,1.5-3.3,3.4c0,1.8,1.5,3.2,3.3,3.3h83.5
		c1.8,0,3.4-1.4,3.4-3.3s-1.4-3.4-3.3-3.4H266.7z"/>
</g>
</svg>
