<svg id="Layer_1" data-name="Layer 1" xmlns="http://www.w3.org/2000/svg" viewBox="0 0 107.71 57.99"><defs><style>.cls-1{fill:#0fcfa2;}.cls-2{fill:#232931;}.cls-3{fill:#3f3d56;stroke:#20252b;}.cls-4{fill:none;stroke:#0fcfa2;stroke-width:2px;}</style></defs><g id="Group_47" data-name="Group 47"><g id="Group_36" data-name="Group 36"><path id="Path_64" data-name="Path 64" class="cls-1" d="M25.17,38.42H.07v-5a40,40,0,0,1,13.1,0A39,39,0,0,1,25.17,38.42Z" transform="translate(0 -0.02)"/><path id="Path_214" data-name="Path 214" class="cls-1" d="M25.17,5.58H.07v-5a40,40,0,0,1,13.1,0A39,39,0,0,1,25.17,5.58Z" transform="translate(0 -0.02)"/><path id="Path_65" data-name="Path 65" class="cls-2" d="M0,37.45V58H81.52V37.45Zm31.79,17.1H5.31v-2.9H31.79Zm44.42-5.38H5.31v-2.9h70.9Zm0-5.38H5.31v-2.9h70.9Z" transform="translate(0 -0.02)"/><path id="Path_67" data-name="Path 67" class="cls-2" d="M0,4.62V25.18H81.52V4.62Zm31.79,17.1H5.31v-2.9H31.79ZM47.1,16.35H5.31v-2.9H47.1ZM76.2,11H5.3V8.07H76.2Z" transform="translate(0 -0.02)"/><path id="Path_70" data-name="Path 70" class="cls-3" d="M104.62,20.62H93V9h7.86v.27H93.31v11h11V14.83h.27Z" transform="translate(0 -0.02)"/><path id="Path_72" data-name="Path 72" class="cls-3" d="M104.62,53.45H93V41.87h7.86v.27H93.31v11h11V47.66h.27Z" transform="translate(0 -0.02)"/><path id="Path_216" data-name="Path 216" class="cls-4" d="M96.65,14.14,98.91,17,107,8.84" transform="translate(0 -0.02)"/></g></g></svg>