<svg xmlns="http://www.w3.org/2000/svg" width="376.369" height="149.723" viewBox="0 0 376.369 149.723"><defs><style>.a,.c{fill:#232931;}.a{stroke:#232931;}.b{fill:#0fcfa2;}</style></defs><g transform="translate(-2475.559 -6150.352)"><g transform="translate(2475.559 6150.352)"><rect class="a" width="53.482" height="2.71" transform="translate(26.199 11.441)"/><rect class="a" width="53.484" height="2.71" transform="translate(97.509 11.441)"/><rect class="a" width="53.484" height="2.71" transform="translate(201.135 36.507)"/><rect class="a" width="53.484" height="2.71" transform="translate(273.559 36.507)"/><rect class="a" width="157.107" height="2.71" transform="translate(169.936 11.441)"/><rect class="a" width="157.107" height="2.71" transform="translate(26.199 36.507)"/><rect class="a" width="157.107" height="2.71" transform="translate(26.199 61.576)"/><rect class="a" width="109.197" height="2.71" transform="translate(217.848 61.576)"/><rect class="a" width="53.482" height="2.71" transform="translate(26.199 86.216)"/><rect class="a" width="53.484" height="2.71" transform="translate(97.509 86.216)"/><rect class="a" width="53.484" height="2.71" transform="translate(201.135 111.283)"/><rect class="a" width="53.484" height="2.71" transform="translate(273.559 111.283)"/><rect class="a" width="157.107" height="2.71" transform="translate(169.936 86.216)"/><rect class="a" width="157.107" height="2.71" transform="translate(26.199 111.283)"/><rect class="a" width="157.107" height="2.71" transform="translate(26.199 136.35)"/><rect class="a" width="109.197" height="2.71" transform="translate(217.848 136.35)"/><path class="b" d="M172.907,34.577,161.467,23.137l11.441-11.442,2.289,2.289-9.152,9.153,9.152,9.152Z" transform="translate(-161.467 -11.695)"/><path class="b" d="M360.528,142.143l-2.288-2.289,9.151-9.153-9.151-9.152,2.288-2.289,11.441,11.44Z" transform="translate(4.4 7.579)"/><rect class="c" width="23.36" height="3.237" transform="translate(346.108 148.652) rotate(-73.139)"/></g></g></svg>