<svg xmlns="http://www.w3.org/2000/svg" width="342.5" height="200.75" viewBox="0 0 342.5 200.75"><defs><style>.a,.b,.c,.e{fill:#4ecca3;}.a,.c,.e{stroke:#0fcfa2;}.a{stroke-width:2px;}.d{fill:#232931;}.e{stroke-width:0.5px;}</style></defs><g transform="translate(-190.52 275.64)"><g transform="translate(191.02 -274.639)"><path class="a" d="M461.888,292.915A67.974,67.974,0,0,0,434.4,281.56a69.816,69.816,0,0,0-30.338,1.424A68.042,68.042,0,0,0,389.9,288.59a82.322,82.322,0,0,0-12.595,8.575c-4,3.2-7.869,6.549-12.045,9.565a71.571,71.571,0,0,1-41.984,13.5q-1.891,0-3.78-.1a.488.488,0,1,1,0-.975,70.849,70.849,0,0,0,43.4-11.983c4.328-2.958,8.28-6.339,12.314-9.615a94.668,94.668,0,0,1,12.365-8.819,70.5,70.5,0,0,1,72.12,1.5c1,.636,1.98,1.3,2.942,1.985C463.183,292.611,462.424,293.3,461.888,292.915Z" transform="translate(-131.898 -279.552)"/><ellipse class="b" cx="11.071" cy="10.933" rx="11.071" ry="10.933" transform="translate(319.859 0.38)"/><ellipse class="b" cx="11.071" cy="10.933" rx="11.071" ry="10.933" transform="translate(50.715 152.343)"/><path class="c" d="M655.86,392.422H836.5a3.772,3.772,0,0,0,3.791-3.744V295.853a3.772,3.772,0,0,0-3.791-3.743H655.86a3.772,3.772,0,0,0-3.791,3.743v92.825A3.772,3.772,0,0,0,655.86,392.422ZM836.5,293.607a2.263,2.263,0,0,1,2.275,2.246v92.825a2.263,2.263,0,0,1-2.275,2.246H655.86a2.263,2.263,0,0,1-2.274-2.246V295.853a2.263,2.263,0,0,1,2.274-2.246Z" transform="translate(-652.07 -291.43)"/><ellipse class="d" cx="15.441" cy="15.25" rx="15.441" ry="15.25" transform="translate(138.698 18.315)"/><path class="b" d="M830.09,318.883a2.542,2.542,0,1,1,0,5.083H732.824a2.542,2.542,0,1,1,0-5.083Z" transform="translate(-711.612 -295.485)"/><path class="b" d="M785.029,336.856a2.542,2.542,0,1,1,0,5.083H732.824a2.542,2.542,0,1,1,0-5.083Z" transform="translate(-666.551 -298.209)"/><path class="b" d="M820.7,365.589c1.958,0,3.551,1.14,3.551,2.542s-1.593,2.541-3.551,2.541H677.37c-1.957,0-3.551-1.14-3.551-2.541s1.594-2.542,3.551-2.542Z" transform="translate(-654.718 -302.564)"/><path class="b" d="M820.7,383.562c1.958,0,3.551,1.14,3.551,2.542s-1.593,2.541-3.551,2.541H677.37c-1.957,0-3.551-1.14-3.551-2.541s1.594-2.542,3.551-2.542Z" transform="translate(-654.718 -305.286)"/><path class="e" d="M775.724,493.3c-10.191-4.366-21.569-.56-31.174,3.465-4.947,2.072-9.841,4.284-14.961,5.921a86.146,86.146,0,0,1-13.191,3.087,94.37,94.37,0,0,1-27.1.164,95.5,95.5,0,0,1-26.149-7.51,88.522,88.522,0,0,1-22.632-14.613q-1.286-1.147-2.522-2.347c-.981-.949.525-2.437,1.506-1.488a85.934,85.934,0,0,0,22.079,15.392,93.319,93.319,0,0,0,25.65,8.138,91.7,91.7,0,0,0,27.03.461A85.978,85.978,0,0,0,727.5,501.13a141.174,141.174,0,0,0,14.607-5.6c9.7-4.112,20.468-8.139,31.121-5.3a26.287,26.287,0,0,1,3.574,1.26C778.053,492.022,776.97,493.836,775.724,493.3Z" transform="translate(-576.776 -319.846)"/><path class="d" d="M535.662,517.722H621L600.92,483.366a4.127,4.127,0,0,0-7.1,0l-8.58,14.676-14.588-24.955a5.167,5.167,0,0,0-8.894,0Z" transform="translate(-332.776 -318.465)"/><path class="c" d="M528.578,515.843h90.975a3.773,3.773,0,0,0,3.791-3.744V461.953a3.771,3.771,0,0,0-3.79-3.743H528.578a3.771,3.771,0,0,0-3.791,3.743V512.1A3.772,3.772,0,0,0,528.578,515.843Zm90.975-56.137a2.264,2.264,0,0,1,2.275,2.246V512.1a2.263,2.263,0,0,1-2.274,2.246H528.578A2.264,2.264,0,0,1,526.3,512.1V461.953a2.264,2.264,0,0,1,2.275-2.246Z" transform="translate(-325.772 -316.595)"/></g></g></svg>