<svg xmlns="http://www.w3.org/2000/svg" width="363.158" height="265.521" viewBox="0 0 363.158 265.521">
  <g id="Group_72" data-name="Group 72" transform="translate(-79.2 -38.124)">
    <path id="Path_269" data-name="Path 269" d="M227.435,314.088a44.989,44.989,0,0,1,15.635-8.146c15.945-4.562,32.44-.146,48.392,4.124,8.612,2.305,17.517,4.69,26.3,5.671,14.073,1.574,27.19-.622,37.933-6.35,12.074-6.437,20.77-17.516,23.263-29.633a34.427,34.427,0,0,0,.628-4.648c.111-1.885,2.092-12.138,22.613-16.923l.6.769c-16.514,3.776-21.8,11.882-22.232,16.1a47.374,47.374,0,0,1-.653,4.9c-2.552,12.4-11.434,23.724-23.761,30.3-10.917,5.821-24.231,8.055-38.5,6.459-8.855-.99-17.8-3.384-26.443-5.7-16.552-4.431-32.185-8.616-47.871-4.129A44.9,44.9,0,0,0,227.8,385.232l-.607.766a45.652,45.652,0,0,1,.246-71.91Z" transform="translate(-66.871 -112.618)" fill="#232931"/>
    <ellipse id="Ellipse_34" data-name="Ellipse 34" cx="135.974" cy="6.347" rx="135.974" ry="6.347" transform="translate(79.2 271.91)" fill="#232931"/>
    <ellipse id="Ellipse_35" data-name="Ellipse 35" cx="48.335" cy="6.347" rx="48.335" ry="6.347" transform="translate(161.712 290.951)" fill="#232931"/>
    <path id="Path_270" data-name="Path 270" d="M161.567,490.7l-.524-.2c-.115-.043-11.576-4.434-16.944-14.39s-2.739-21.944-2.713-22.063l.124-.546.523.2c.115.043,11.575,4.434,16.944,14.39s2.74,21.944,2.713,22.063Zm-16.608-15.05c4.539,8.418,13.595,12.733,15.89,13.718.436-2.459,1.8-12.4-2.73-20.814s-13.594-12.73-15.89-13.718C141.792,457.3,140.425,467.246,144.959,475.655Z" transform="translate(-31.484 -212.579)" fill="#232931"/>
    <path id="Path_271" data-name="Path 271" d="M133.432,488.405c9.648,5.8,13.364,17.334,13.364,17.334s-11.927,2.118-21.575-3.686-13.364-17.334-13.364-17.334S123.784,482.6,133.432,488.405Z" transform="translate(-16.713 -228.358)" fill="#4ecca3"/>
    <path id="Path_272" data-name="Path 272" d="M507,164.419H730.214c42.285,0,76.563-24.1,76.563-66.386h0c0-42.285-34.279-59.909-76.563-59.909H660.126C575.557,38.124,507,79.849,507,164.419Z" transform="translate(-364.42)" fill="#232931"/>
    <path id="Path_273" data-name="Path 273" d="M743.94,164.913H558.169v-.488c0-33.212,12.94-60.575,37.421-79.13C618.2,68.16,649.378,59.1,685.763,59.1H743.94c18.555,0,34.191,4.077,45.219,11.79,12.49,8.736,18.822,21.665,18.822,38.427,0,16.847-6.5,31.056-18.794,41.093C777.733,159.763,761.664,164.913,743.94,164.913Zm-184.793-.976H743.94c37.721,0,63.064-21.949,63.064-54.616,0-31.294-22.986-49.241-63.064-49.241H685.763C624.682,60.079,559.425,87.378,559.146,163.936Z" transform="translate(-390.606 -10.736)" fill="#4ecca3"/>
    <rect id="Rectangle_99" data-name="Rectangle 99" width="26.365" height="6.347" transform="translate(237.298 81.01)" fill="#4ecca3"/>
    <rect id="Rectangle_100" data-name="Rectangle 100" width="9.276" height="6.347" transform="translate(345.687 81.01)" fill="#4ecca3"/>
    <rect id="Rectangle_101" data-name="Rectangle 101" width="9.276" height="6.347" transform="translate(364.24 81.01)" fill="#4ecca3"/>
    <rect id="Rectangle_102" data-name="Rectangle 102" width="62.982" height="6.347" transform="translate(272.939 81.01)" fill="#4ecca3"/>
    <rect id="Rectangle_103" data-name="Rectangle 103" width="26.365" height="6.347" transform="translate(204.098 122.022)" fill="#4ecca3"/>
    <rect id="Rectangle_104" data-name="Rectangle 104" width="9.276" height="6.347" transform="translate(312.487 122.022)" fill="#4ecca3"/>
    <rect id="Rectangle_105" data-name="Rectangle 105" width="9.276" height="6.347" transform="translate(331.04 122.022)" fill="#4ecca3"/>
    <rect id="Rectangle_106" data-name="Rectangle 106" width="62.982" height="6.347" transform="translate(239.739 122.022)" fill="#4ecca3"/>
    <rect id="Rectangle_107" data-name="Rectangle 107" width="26.365" height="6.347" transform="translate(312.975 95.169)" fill="#4ecca3"/>
    <rect id="Rectangle_108" data-name="Rectangle 108" width="26.365" height="6.347" transform="translate(348.616 95.169)" fill="#4ecca3"/>
    <rect id="Rectangle_109" data-name="Rectangle 109" width="9.276" height="6.347" transform="translate(384.257 95.169)" fill="#4ecca3"/>
    <rect id="Rectangle_110" data-name="Rectangle 110" width="9.276" height="6.347" transform="translate(204.098 95.169)" fill="#4ecca3"/>
    <rect id="Rectangle_111" data-name="Rectangle 111" width="9.276" height="6.347" transform="translate(222.651 95.169)" fill="#4ecca3"/>
    <rect id="Rectangle_112" data-name="Rectangle 112" width="62.982" height="6.347" transform="translate(241.204 95.169)" fill="#4ecca3"/>
    <rect id="Rectangle_113" data-name="Rectangle 113" width="26.365" height="6.347" transform="translate(258.292 108.839)" fill="#4ecca3"/>
    <rect id="Rectangle_114" data-name="Rectangle 114" width="26.365" height="6.347" transform="translate(222.651 108.839)" fill="#4ecca3"/>
    <rect id="Rectangle_115" data-name="Rectangle 115" width="9.276" height="6.347" transform="translate(204.098 108.839)" fill="#4ecca3"/>
    <rect id="Rectangle_116" data-name="Rectangle 116" width="9.276" height="6.347" transform="translate(384.257 108.839)" fill="#4ecca3"/>
    <rect id="Rectangle_117" data-name="Rectangle 117" width="9.276" height="6.347" transform="translate(365.704 108.839)" fill="#4ecca3"/>
    <rect id="Rectangle_118" data-name="Rectangle 118" width="62.982" height="6.347" transform="translate(293.445 108.839)" fill="#4ecca3"/>
    <rect id="Rectangle_119" data-name="Rectangle 119" width="9.276" height="7.324" transform="translate(153.412 268.981)" fill="#4ecca3"/>
  </g>
</svg>
