<svg xmlns="http://www.w3.org/2000/svg" width="227.825" height="346.828" viewBox="0 0 227.825 346.828">
  <g id="Group_71" data-name="Group 71" transform="translate(-1541.518 -693.285)">
    <g id="Group_66" data-name="Group 66" transform="translate(1600.518 693.285)">
      <path id="Path_242" data-name="Path 242" d="M847.923,693.54s-57.582,34.728,48.543,88.174c0,0,23.373-43.41-2.468-78.794a34.847,34.847,0,0,0-45.215-9.908Z" transform="translate(-891.328 -537.936)" fill="#4ecca3"/>
      <path id="Path_243" data-name="Path 243" d="M851.43,693.55s49.266,37.69,47.879,88.906" transform="translate(-894.17 -538.678)" fill="none" stroke="#3f3d56" stroke-miterlimit="10" stroke-width="1"/>
      <path id="Path_246" data-name="Path 246" d="M913.164,823.7s3.411-13.425,2.945-21.2c-.9-15.046-6.105-30.741-6.6-32.753-3.64-14.937-14.553-68.245,3.65-106.48a96.735,96.735,0,0,0,7.822-60.689,162.682,162.682,0,0,0-8.673-28.48" transform="translate(-842.795 -532.901)" fill="none" stroke="#3f3d56" stroke-miterlimit="10" stroke-width="2"/>
      <path id="Path_247" data-name="Path 247" d="M924.928,538.416c0,7.507-13.619,29.272-13.619,29.272s-13.619-21.765-13.619-29.272a13.619,13.619,0,0,1,27.178,0Z" transform="translate(-842.055 -525.698)" fill="#4ecca3"/>
      <path id="Path_248" data-name="Path 248" d="M951.3,585.939c-4.077,6.3-27.314,17.185-27.314,17.185s.426-25.655,4.5-31.953A13.619,13.619,0,0,1,951.3,585.948Z" transform="translate(-845.969 -531.649)" fill="#4ecca3"/>
      <path id="Path_249" data-name="Path 249" d="M949.291,668.517c-6.7,3.4-32.251,1.047-32.251,1.047s13.312-21.935,20.02-25.314a13.619,13.619,0,0,1,12.24,24.267Z" transform="translate(-844.935 -543.179)" fill="#4ecca3"/>
      <path id="Path_250" data-name="Path 250" d="M934.3,731.706c-6.035,4.46-31.613,6.477-31.613,6.477s9.414-23.833,15.449-28.336a13.619,13.619,0,0,1,16.172,21.85Z" transform="translate(-842.799 -552.778)" fill="#4ecca3"/>
      <path id="Path_251" data-name="Path 251" d="M889.848,607.405c5.379,5.226,30.464,10.648,30.464,10.648s-6.145-24.914-11.525-30.14a13.619,13.619,0,0,0-18.939,19.492Z" transform="translate(-840.367 -534.474)" fill="#4ecca3"/>
      <path id="Path_252" data-name="Path 252" d="M872.3,680.657c6.7,3.4,32.251,1.047,32.251,1.047s-13.312-21.935-20.02-25.314a13.619,13.619,0,1,0-12.24,24.267Z" transform="translate(-837.04 -544.867)" fill="#4ecca3"/>
      <path id="Path_253" data-name="Path 253" d="M866.261,754.858c6.035,4.46,31.613,6.477,31.613,6.477S888.459,737.5,882.425,733a13.619,13.619,0,1,0-16.172,21.85Z" transform="translate(-836.45 -556.072)" fill="#4ecca3"/>
      <path id="Path_254" data-name="Path 254" d="M924.928,538.416c0,7.507-13.619,29.272-13.619,29.272s-13.619-21.765-13.619-29.272a13.619,13.619,0,0,1,27.178,0Z" transform="translate(-842.055 -525.698)" opacity="0.25"/>
      <path id="Path_255" data-name="Path 255" d="M951.3,585.939c-4.077,6.3-27.314,17.185-27.314,17.185s.426-25.655,4.5-31.953A13.619,13.619,0,0,1,951.3,585.948Z" transform="translate(-845.969 -531.649)" opacity="0.25"/>
      <path id="Path_256" data-name="Path 256" d="M949.291,668.517c-6.7,3.4-32.251,1.047-32.251,1.047s13.312-21.935,20.02-25.314a13.619,13.619,0,0,1,12.24,24.267Z" transform="translate(-844.935 -543.179)" opacity="0.25"/>
      <path id="Path_257" data-name="Path 257" d="M934.3,731.706c-6.035,4.46-31.613,6.477-31.613,6.477s9.414-23.833,15.449-28.336a13.619,13.619,0,0,1,16.172,21.85Z" transform="translate(-842.799 -552.778)" opacity="0.25"/>
      <path id="Path_258" data-name="Path 258" d="M889.848,607.405c5.379,5.226,30.464,10.648,30.464,10.648s-6.145-24.914-11.525-30.14a13.619,13.619,0,0,0-18.939,19.492Z" transform="translate(-840.367 -534.474)" opacity="0.25"/>
      <path id="Path_259" data-name="Path 259" d="M872.3,680.657c6.7,3.4,32.251,1.047,32.251,1.047s-13.312-21.935-20.02-25.314a13.619,13.619,0,1,0-12.24,24.267Z" transform="translate(-837.04 -544.867)" opacity="0.25"/>
      <path id="Path_260" data-name="Path 260" d="M866.261,754.858c6.035,4.46,31.613,6.477,31.613,6.477S888.459,737.5,882.425,733a13.619,13.619,0,1,0-16.172,21.85Z" transform="translate(-836.45 -556.072)" opacity="0.25"/>
      <g id="Group_67" data-name="Group 67" transform="translate(0 40.042)">
        <path id="Path_261" data-name="Path 261" d="M964.527,846.826c.023-.643-6.407-18.627-4.241-35.064,1.969-15.15,9.177-19.4,9.564-36.691-.827-22.24-8.988-25.523-11.682-43.011-2.882-21.771-14.572-50.1,4-82.5a68.247,68.247,0,0,0,7.822-50.422A118.742,118.742,0,0,0,961.4,575.47" transform="translate(-850.087 -540.076)" fill="none" stroke="#3f3d56" stroke-miterlimit="10" stroke-width="2"/>
        <path id="Path_262" data-name="Path 262" d="M973.968,537.625c0,6.237-13.619,24.32-13.619,24.32s-13.619-18.083-13.619-24.32c.474-5.946,6.417-10.567,13.589-10.567s13.115,4.621,13.589,10.567Z" transform="translate(-849.353 -525.9)" fill="#4ecca3"/>
        <path id="Path_263" data-name="Path 263" d="M1000.34,583.872c-4.077,5.233-27.34,14.25-27.34,14.25s.426-21.315,4.5-26.548c4.287-4.78,12.3-5.977,18.325-2.736s7.985,9.808,4.487,15.013Z" transform="translate(-853.262 -537.601)" fill="#4ecca3"/>
        <path id="Path_264" data-name="Path 264" d="M998.361,665.6c-6.7,2.829-32.251.87-32.251.87s13.313-18.224,20.02-21.032c6.6-2.313,14.23.017,17.455,5.333S1004.526,662.57,998.361,665.6Z" transform="translate(-852.237 -560.303)" fill="#4ecca3"/>
        <path id="Path_265" data-name="Path 265" d="M983.343,729.009c-6.035,3.706-31.613,5.382-31.613,5.382s9.414-19.8,15.449-23.542c6.036-3.244,14.067-2.032,18.344,2.769s3.326,11.537-2.172,15.385Z" transform="translate(-850.097 -579.185)" fill="#4ecca3"/>
        <path id="Path_266" data-name="Path 266" d="M938.888,604.929c5.379,4.342,30.464,8.847,30.464,8.847s-6.146-20.7-11.525-25.041a15.692,15.692,0,0,0-18.588.737c-5,4.272-5.15,11.032-.351,15.458Z" transform="translate(-847.665 -543.171)" fill="#4ecca3"/>
        <path id="Path_267" data-name="Path 267" d="M921.608,677.878c6.7,2.829,32.251.87,32.251.87s-13.338-18.224-20.011-21.032c-6.6-2.33-14.252,0-17.483,5.319S915.427,674.851,921.608,677.878Z" transform="translate(-844.616 -563.894)" fill="#4ecca3"/>
        <path id="Path_268" data-name="Path 268" d="M915.291,751.988c6.035,3.706,31.613,5.382,31.613,5.382s-9.414-19.8-15.449-23.542a15.856,15.856,0,0,0-13.94-1.816c-4.691,1.6-7.926,5.229-8.395,9.423s1.906,8.258,6.163,10.546Z" transform="translate(-843.747 -585.666)" fill="#4ecca3"/>
      </g>
    </g>
    <ellipse id="Ellipse_33" data-name="Ellipse 33" cx="103.882" cy="13.152" rx="103.882" ry="13.152" transform="translate(1561.579 931.327)" fill="#393e46"/>
  </g>
</svg>
