<svg width="1858" height="1858" viewBox="0 0 1858 1858" fill="none" xmlns="http://www.w3.org/2000/svg">
  <circle cx="929" cy="929" r="188" fill="#7087FF" />
  <circle cx="929" cy="188" r="184.5" fill="white" stroke="#7087FF" stroke-width="7" />
  <path
    d="M931.475 435.525C930.108 434.158 927.892 434.158 926.525 435.525L904.251 457.799C902.884 459.166 902.884 461.382 904.251 462.749C905.618 464.116 907.834 464.116 909.201 462.749L929 442.95L948.799 462.749C950.166 464.116 952.382 464.116 953.749 462.749C955.116 461.382 955.116 459.166 953.749 457.799L931.475 435.525ZM932.5 679L932.5 438L925.5 438L925.5 679L932.5 679Z"
    fill="#7087FF" />
  <circle cx="1452.97" cy="405.034" r="184.5" transform="rotate(45 1452.97 405.034)" fill="white" stroke="#7087FF"
    stroke-width="7" />
  <path
    d="M1102.28 752.224C1102.28 754.157 1103.84 755.724 1105.78 755.724L1137.28 755.724C1139.21 755.724 1140.78 754.157 1140.78 752.224C1140.78 750.291 1139.21 748.724 1137.28 748.724L1109.28 748.724L1109.28 720.724C1109.28 718.791 1107.71 717.224 1105.78 717.224C1103.84 717.224 1102.28 718.791 1102.28 720.724L1102.28 752.224ZM1279.69 581.811C1279.69 579.878 1278.12 578.311 1276.19 578.311L1244.69 578.311C1242.76 578.311 1241.19 579.878 1241.19 581.811C1241.19 583.744 1242.76 585.311 1244.69 585.311L1272.69 585.311L1272.69 613.311C1272.69 615.244 1274.26 616.811 1276.19 616.811C1278.12 616.811 1279.69 615.244 1279.69 613.311L1279.69 581.811ZM1108.25 754.699L1278.66 584.286L1273.71 579.336L1103.3 749.749L1108.25 754.699Z"
    fill="#7087FF" />
  <circle cx="1670" cy="929" r="184.5" transform="rotate(90 1670 929)" fill="white" stroke="#7087FF" stroke-width="7" />
  <path
    d="M1176.53 926.525C1175.16 927.892 1175.16 930.108 1176.53 931.475L1198.8 953.749C1200.17 955.116 1202.38 955.116 1203.75 953.749C1205.12 952.382 1205.12 950.166 1203.75 948.799L1183.95 929L1203.75 909.201C1205.12 907.834 1205.12 905.618 1203.75 904.251C1202.38 902.884 1200.17 902.884 1198.8 904.251L1176.53 926.525ZM1422.47 931.475C1423.84 930.108 1423.84 927.892 1422.47 926.525L1400.2 904.251C1398.83 902.884 1396.62 902.884 1395.25 904.251C1393.88 905.618 1393.88 907.834 1395.25 909.201L1415.05 929L1395.25 948.799C1393.88 950.166 1393.88 952.382 1395.25 953.749C1396.62 955.116 1398.83 955.116 1400.2 953.749L1422.47 931.475ZM1179 932.5H1420V925.5H1179V932.5Z"
    fill="#7087FF" />
  <circle cx="929" cy="1670" r="184.5" fill="white" stroke="#7087FF" stroke-width="7" />
  <path
    d="M931.475 1176.53C930.108 1175.16 927.892 1175.16 926.525 1176.53L904.251 1198.8C902.884 1200.17 902.884 1202.38 904.251 1203.75C905.618 1205.12 907.834 1205.12 909.201 1203.75L929 1183.95L948.799 1203.75C950.166 1205.12 952.382 1205.12 953.749 1203.75C955.116 1202.38 955.116 1200.17 953.749 1198.8L931.475 1176.53ZM925.5 1179L925.5 1420L932.5 1420L932.5 1179L925.5 1179Z"
    fill="#7087FF" />
  <circle cx="405.034" cy="1452.97" r="184.5" transform="rotate(45 405.034 1452.97)" fill="white" stroke="#7087FF"
    stroke-width="7" />
  <path
    d="M578.31 1276.19C578.31 1278.12 579.877 1279.69 581.81 1279.69L613.31 1279.69C615.243 1279.69 616.81 1278.12 616.81 1276.19C616.81 1274.26 615.243 1272.69 613.31 1272.69L585.31 1272.69L585.31 1244.69C585.31 1242.76 583.743 1241.19 581.81 1241.19C579.877 1241.19 578.31 1242.76 578.31 1244.69L578.31 1276.19ZM749.748 1103.3L579.336 1273.72L584.285 1278.66L754.698 1108.25L749.748 1103.3Z"
    fill="#7087FF" />
  <circle cx="188" cy="929" r="184.5" transform="rotate(90 188 929)" fill="white" stroke="#7087FF" stroke-width="7" />
  <path
    d="M435.525 926.525C434.158 927.892 434.158 930.108 435.525 931.475L457.799 953.749C459.166 955.116 461.382 955.116 462.749 953.749C464.116 952.382 464.116 950.166 462.749 948.799L442.95 929L462.749 909.201C464.116 907.834 464.116 905.618 462.749 904.251C461.382 902.884 459.166 902.884 457.799 904.251L435.525 926.525ZM679 925.5L438 925.5L438 932.5L679 932.5L679 925.5Z"
    fill="#7087FF" />
</svg>