<svg xmlns="http://www.w3.org/2000/svg" viewBox="0 0 63.521 34.962">
  <defs>
    <style>
      .cls-1 {
        fill: #eee;
      }
    </style>
  </defs>
  <path id="Path_69" data-name="Path 69" class="cls-1" d="M372.7,324.244a10.336,10.336,0,0,0,6.557-3.665,10.2,10.2,0,0,0,2.142-6.331,9.683,9.683,0,0,0-3.213-7.461q-3.213-2.945-9.139-2.939h-9.425L348.1,331.11l-9.77-27.31H331.68L318.4,338.762h6.354l10.234-28.036,5.533,15.874-7.366-.06-1.63,5.093h10.745l2.511,7.128H350.8l13.554-30.095,4.534.012c2.178,0,3.808.464,4.879,1.5a5.138,5.138,0,0,1,1.725,4.034,5.765,5.765,0,0,1-1.606,4.344,6.786,6.786,0,0,1-4.879,1.559h-5.569l11.5,18.635h6.985Z" transform="translate(-318.4 -303.8)"/>
</svg>
