<svg xmlns="http://www.w3.org/2000/svg" width="1100" height="928.216" viewBox="0 0 1100 928.216"><defs><style>.a{fill:#4ecca3;}.b{fill:#232931;}.c{fill:none;stroke:#393e46;stroke-width:9px;}</style></defs><g transform="translate(-84.685 28.605)"><rect class="a" width="962.293" height="734.04" transform="matrix(0.999, 0.035, -0.035, 0.999, 167.581, 51.498)"/><path class="b" d="M109.979,168.634a43.991,43.991,0,0,0,18.147-3.849,48.842,48.842,0,0,0,15.214-10.631,51.426,51.426,0,0,0,10.448-15.764,50.04,50.04,0,0,0,0-38.493,51.426,51.426,0,0,0-10.448-15.764A48.842,48.842,0,0,0,128.126,73.5a43.99,43.99,0,0,0-18.147-3.849H95.315v98.981ZM22,3.666h87.983q26.762,0,49.124,8.8a115.071,115.071,0,0,1,38.309,24.2,107.382,107.382,0,0,1,24.745,36.66,118.657,118.657,0,0,1,8.8,45.825,118.261,118.261,0,0,1-8.8,46.008,107.815,107.815,0,0,1-24.745,36.476,115.07,115.07,0,0,1-38.309,24.2q-22.362,8.8-49.124,8.8H22ZM333.6,234.622H260.284V3.666H333.6ZM480.242,109.979H599.386V234.622H553.561l-9.165-22a65.505,65.505,0,0,1-16.13,12.831,92.515,92.515,0,0,1-21.079,8.982q-12.648,3.849-30.611,3.849a103.194,103.194,0,0,1-43.258-9.348,119.645,119.645,0,0,1-36.293-25.478A120.961,120.961,0,0,1,372.1,165.7a118.088,118.088,0,0,1-9.165-46.558,116.479,116.479,0,0,1,9.348-46.374,118.287,118.287,0,0,1,25.662-37.943A121.9,121.9,0,0,1,483.908,0a141.376,141.376,0,0,1,32.627,3.483,120.26,120.26,0,0,1,26.028,9.165,98.708,98.708,0,0,1,19.8,12.831,111.733,111.733,0,0,1,14.664,14.847,108.769,108.769,0,0,1,20.53,40.326l-73.319,7.332a44.567,44.567,0,0,0-9.9-9.165,71.738,71.738,0,0,0-12.648-6.232,48.829,48.829,0,0,0-17.78-2.933A43.99,43.99,0,0,0,465.761,73.5a48.842,48.842,0,0,0-15.214,10.631A51.428,51.428,0,0,0,440.1,99.9a50.04,50.04,0,0,0,0,38.493,51.428,51.428,0,0,0,10.448,15.764,48.842,48.842,0,0,0,15.214,10.631,43.99,43.99,0,0,0,18.146,3.849,50.489,50.489,0,0,0,15.58-2.2,53.616,53.616,0,0,0,11.548-5.132,49.152,49.152,0,0,0,9.531-7.332H480.242ZM705.7,234.622H632.379V3.666H705.7Zm157.637,0H790.016V73.319H729.527V3.666h194.3V73.319H863.335ZM120.977,314.78l-14.664,54.99h29.328ZM89.816,428.425l-11,40.326H0L76.985,237.795h87.983l76.985,230.956H163.136l-11-40.326Zm166.8-190.63h73.319V399.1h98.981v69.653h-172.3ZM524.233,468.751H450.914V237.795h73.319Zm29.328-164.969a60.073,60.073,0,0,1,6.049-26.212,67.719,67.719,0,0,1,17.413-22.362,85.209,85.209,0,0,1,27.678-15.4q16.314-5.682,36.843-5.682,22.729,0,40.509,6.049t29.878,16.5a71.138,71.138,0,0,1,24.929,54.44l-71.486,7.332q0-8.432-4.766-13.381a16.886,16.886,0,0,0-20.9-2.383,7.757,7.757,0,0,0-3.666,6.6q0,5.5,7.7,8.615a190.414,190.414,0,0,0,19.43,6.415q11.731,3.3,25.112,7.882A103.083,103.083,0,0,1,713.4,344.841a65.8,65.8,0,0,1,19.43,21.079q7.7,13.014,7.7,33.177a63.312,63.312,0,0,1-6.416,27.678,71.452,71.452,0,0,1-18.147,23.462q-11.731,10.081-28.778,16.13t-38.309,6.049q-23.462,0-41.792-6.415t-30.977-17.413a76.046,76.046,0,0,1-19.43-25.662,73.343,73.343,0,0,1-6.782-31.161l71.486-7.332q0,9.532,5.865,15.764a18.892,18.892,0,0,0,14.3,6.232q8.432,0,12.464-3.666a11.871,11.871,0,0,0,4.033-9.165q0-5.5-7.7-8.615a190.393,190.393,0,0,0-19.43-6.415q-11.731-3.3-25.112-7.882a103.088,103.088,0,0,1-25.112-12.648,65.8,65.8,0,0,1-19.43-21.079Q553.561,323.945,553.561,303.782Zm212.626-65.987H945.819v62.321H839.506v22h97.148v58.655H839.506v25.662H949.485v62.321h-183.3ZM115.478,633.226H95.315V702.88H22V471.924H129.775q20.163,0,36.476,6.232A84.144,84.144,0,0,1,194.113,495.2a74.371,74.371,0,0,1,17.78,25.478,80.695,80.695,0,0,1,6.232,31.894q0,16.5-5.682,28.411A74.007,74.007,0,0,1,199.8,600.233a65.55,65.55,0,0,1-18.33,14.664l51.324,87.983H152.138Zm6.965-64.154q8.432,0,13.564-4.766a15.973,15.973,0,0,0,0-23.462q-5.132-4.766-13.564-4.766H95.315v32.994ZM322.605,702.88H249.286V471.924h73.319ZM579.223,471.924V702.88H509.569L432.584,592.9V702.88H359.265V471.924h69.653L505.9,581.9V471.924ZM725.861,578.237H845.005V702.88H799.181l-9.165-22a65.51,65.51,0,0,1-16.13,12.831,92.514,92.514,0,0,1-21.079,8.982q-12.648,3.849-30.611,3.849a103.194,103.194,0,0,1-43.258-9.348,119.646,119.646,0,0,1-36.293-25.478,120.964,120.964,0,0,1-24.929-37.759A118.089,118.089,0,0,1,608.55,587.4a116.478,116.478,0,0,1,9.348-46.375,118.287,118.287,0,0,1,25.662-37.943,121.9,121.9,0,0,1,85.967-34.827,141.379,141.379,0,0,1,32.627,3.483,120.264,120.264,0,0,1,26.028,9.165,98.7,98.7,0,0,1,19.8,12.831,111.738,111.738,0,0,1,14.664,14.847,108.769,108.769,0,0,1,20.529,40.326l-73.32,7.332a44.56,44.56,0,0,0-9.9-9.165,71.731,71.731,0,0,0-12.648-6.232,48.83,48.83,0,0,0-17.78-2.933,43.99,43.99,0,0,0-18.147,3.849,48.839,48.839,0,0,0-15.214,10.631,51.427,51.427,0,0,0-10.448,15.764,50.042,50.042,0,0,0,0,38.493,51.428,51.428,0,0,0,10.448,15.764,48.843,48.843,0,0,0,15.214,10.631,43.991,43.991,0,0,0,18.147,3.849,50.489,50.489,0,0,0,15.58-2.2,53.615,53.615,0,0,0,11.548-5.132,49.152,49.152,0,0,0,9.531-7.332H725.861Z" transform="matrix(0.966, -0.259, 0.259, 0.966, 84.685, 217.14)"/><path class="c" d="M0,58,58,0" transform="translate(839.271 779.333)"/><path class="c" d="M0,76,76,0" transform="translate(861.271 779.333)"/></g></svg>