<svg width="101" height="41" viewBox="0 0 101 41" fill="none" xmlns="http://www.w3.org/2000/svg">
<g clip-path="url(#clip0_2926_1451)">
<path d="M34.5935 12.2371V33.7116C34.5935 36.7142 32.6441 40.0164 28.3128 40.0164H22.5527V34.8267H26.9705C27.9669 34.8267 28.7902 34.0113 28.7902 32.982V16.6116C28.7902 16.055 28.3578 15.625 27.7939 15.625H25.6282V10.4352H32.817C33.8134 10.4352 34.5935 11.2505 34.5935 12.2371ZM31.2153 5.58978C32.6873 5.58978 34.0296 4.30348 34.0296 2.80311C34.0296 1.21709 32.6873 0.0146484 31.2153 0.0146484C29.6136 0.0146484 28.2695 1.21531 28.2695 2.80311C28.2695 4.30348 29.6118 5.58978 31.2153 5.58978Z" fill="black"/>
<path d="M48.2006 27.2032C50.8419 27.2032 52.186 25.7028 52.7914 24.3291H58.4217C57.8596 26.6876 55.5642 31.8774 48.2006 31.8774C40.4479 31.8774 37.5039 25.9598 37.5039 20.8984C37.5039 15.8371 40.4065 9.91943 48.2006 9.91943C55.9948 9.91943 59.2883 15.7086 58.8109 22.1847H42.9162C43.0892 23.9438 44.3017 27.2032 48.2006 27.2032ZM43.091 18.8414L53.3121 18.8842C52.9661 17.0824 51.4923 14.5954 48.2006 14.5954C44.9089 14.5954 43.4802 16.9967 43.091 18.8414Z" fill="black"/>
<path d="M78.0221 10.4351V15.6248C71.6981 15.6248 69.8802 20.3418 69.8802 24.4166V31.3637H64.0769V16.3973C64.0769 15.9263 63.8174 15.6248 63.2967 15.6248H60.7852V10.4351H66.4533C67.6226 10.4351 68.4388 11.0363 68.4388 12.2798C68.4388 12.8917 68.4748 15.1128 68.4748 15.1128H69.0334C70.2891 10.6527 72.3575 10.4368 78.0221 10.4368V10.4351Z" fill="black"/>
<path d="M9.26228 15.2415V10.3354C7.65156 11.0758 6.80475 12.7385 6.3291 14.0605H5.81382C5.81382 14.0605 6.3291 11.8322 6.3291 8.96172V1.37598H0.484375V31.3729H6.3291V31.1588C6.3291 29.5299 5.81382 27.8155 5.81382 27.8155H6.3291C6.79935 29.125 7.63534 30.7431 9.26228 31.4835V26.5934C7.57408 26.1046 6.3291 23.9834 6.3291 20.9166C6.3291 17.8498 7.5921 15.7339 9.26228 15.2415Z" fill="black"/>
<path d="M13.1298 9.94661C11.1876 9.94661 10.0021 11.1276 9.25977 12.4425V17.3022C9.90658 15.9267 10.9335 15.131 12.0866 15.131C13.4307 15.131 14.6054 16.2122 15.2036 18.0355V10.4622C14.5874 10.1286 13.8974 9.94482 13.1298 9.94482V9.94661ZM12.0884 26.7005C10.9245 26.7005 9.90297 25.912 9.26157 24.5436V29.4194C10.0075 30.7236 11.2182 31.8868 13.2415 31.8868C13.964 31.8868 14.6198 31.7155 15.2054 31.4051V23.8157C14.6108 25.6283 13.4469 26.7005 12.0884 26.7005Z" fill="black"/>
<path d="M15.2465 9.94629H15.2051V15.3412C16.6681 15.9817 17.7419 18.0298 17.7419 20.9164C17.7419 23.8029 16.6807 25.8599 15.2051 26.4933V31.8846C15.2555 31.8846 15.306 31.8864 15.3564 31.8864C19.5544 31.8864 21.4192 26.1008 21.4192 20.9164C21.4192 15.7319 19.5526 9.94629 15.2465 9.94629Z" fill="black"/>
<path d="M21.2188 11.8965V29.9456C22.8835 27.8119 23.6529 24.2331 23.6529 20.9023C23.6529 17.5715 22.8925 14.0338 21.2188 11.8965Z" fill="black"/>
<path d="M97.1973 26.604V31.3709L100.484 31.4031L97.1973 26.604ZM97.1973 10.4316V16.0978L100.484 10.4316H97.1973Z" fill="black"/>
<path d="M91.244 18.931V11.8894L86.9236 19.3092H86.3092V1.34033H81.0176V31.3604H86.3092V24.499H86.9794L91.244 30.7306V24.2046L89.8297 22.1405V21.368L91.244 18.931Z" fill="black"/>
<path d="M95.1701 16.1102V16.1067L92.118 21.3678V22.1403L96.0817 27.926V27.9474L97.1988 29.578V31.4031L95.1701 31.3834V31.3709L93.9611 31.3602L91.2441 27.389V15.8177L94.3809 10.4316H96.0817V10.4441H97.1988V12.6117L95.1701 16.1102Z" fill="black"/>
</g>
<defs>
<clipPath id="clip0_2926_1451">
<rect width="100" height="40" fill="white" transform="translate(0.484375 0.0146484)"/>
</clipPath>
</defs>
</svg>
