<svg width="1948" height="1948" viewBox="0 0 1948 1948" fill="none" xmlns="http://www.w3.org/2000/svg">
<g clip-path="url(#clip0_2926_1435)">
<path d="M0 0H1948V1948H0V0Z" fill="white"/>
<g clip-path="url(#clip1_2926_1435)">
<path d="M842.704 908.317V676.443C767.341 711.435 727.721 790.019 705.466 852.498H681.356C681.356 852.498 705.466 747.186 705.466 611.519V253H432V1670.72H705.466V1660.6C705.466 1583.62 681.356 1502.59 681.356 1502.59H705.466C727.468 1564.48 766.582 1640.95 842.704 1675.94V1444.83C763.716 1421.73 705.466 1321.47 705.466 1176.53C705.466 1031.59 764.559 931.588 842.704 908.317Z" fill="black"/>
<path d="M1023.7 658.062C932.821 658.062 877.352 713.88 842.621 776.022V1005.7C872.884 940.694 920.935 903.089 974.886 903.089C1037.77 903.089 1092.74 954.185 1120.72 1040.36V682.43C1091.89 666.662 1059.61 657.978 1023.7 657.978V658.062ZM974.97 1449.89C920.513 1449.89 872.716 1412.62 842.705 1347.95V1578.39C877.605 1640.02 934.254 1695 1028.92 1695C1062.73 1695 1093.41 1686.91 1120.81 1672.23V1313.55C1092.99 1399.21 1038.53 1449.89 974.97 1449.89Z" fill="black"/>
<path d="M1122.66 658.062H1120.72V913.038C1189.17 943.308 1239.42 1040.11 1239.42 1176.53C1239.42 1312.96 1189.76 1410.18 1120.72 1440.11V1694.92C1123.08 1694.92 1125.44 1695 1127.8 1695C1324.22 1695 1411.47 1421.56 1411.47 1176.53C1411.47 931.504 1324.14 658.062 1122.66 658.062Z" fill="black"/>
<path d="M1402.11 750.221V1603.26C1480 1502.42 1516 1333.28 1516 1175.86C1516 1018.44 1480.43 851.234 1402.11 750.221Z" fill="black"/>
</g>
</g>
<defs>
<clipPath id="clip0_2926_1435">
<rect width="1948" height="1948" fill="white"/>
</clipPath>
<clipPath id="clip1_2926_1435">
<rect width="1084" height="1442" fill="white" transform="translate(432 253)"/>
</clipPath>
</defs>
</svg>
