<svg xmlns="http://www.w3.org/2000/svg" fill="none" viewBox="0 0 1948 1948">
  <path fill="#fff" d="M0 0h1948v1948H0z"/>
  <path fill="#0F2040" d="M1049.7 935.2a360.7 360.7 0 0 1 89 70.1c22.6 24.6 43 55.6 61.4 92.9 18.4 37.2 27.7 83 27.7 137.3.2 46-9.8 91.4-29.5 133.1a338.6 338.6 0 0 1-83.3 110.8 425.1 425.1 0 0 1-125.8 76.7 419.8 419.8 0 0 1-157.3 28.9H326.7V363h495.5c47.7-.3 95 9 138.9 27a363.5 363.5 0 0 1 113.7 73.4 344.7 344.7 0 0 1 76 107.5 315 315 0 0 1 27.5 131.2 236 236 0 0 1-20.8 101.9 358 358 0 0 1-44 72.5 277.6 277.6 0 0 1-63.9 58.7ZM514.5 867h307.8c50.3 0 92.5-16.5 126.8-49.3 34.2-32.9 51.2-71.4 51.2-115.5 0-44.1-17.2-82.7-51.7-115.5a177 177 0 0 0-126.3-49.3H514.4V867h.1Zm317.6 543.7a218 218 0 0 0 148.5-57.4 193.8 193.8 0 0 0 43.5-61 187.8 187.8 0 0 0 0-151.6 193.9 193.9 0 0 0-43.5-61.1 209.7 209.7 0 0 0-66.3-41.7 216 216 0 0 0-82.2-15.6H514.4v388.4H832Z"/>
  <path fill="#7087FF" d="M1464.2 1585c86.4 0 156.4-70.4 156.4-157.3s-70-157.3-156.4-157.3a156.9 156.9 0 0 0-156.5 157.3 157 157 0 0 0 156.5 157.3Z"/>
</svg>
