<svg width="63" height="42" viewBox="0 0 63 42" fill="none" xmlns="http://www.w3.org/2000/svg">
<path d="M11.0413 14.2441H4.60054L3.4681 17.6061H0L6.21073 0.831787H9.39572L15.6595 17.6061H12.1914L11.0413 14.2441ZM10.0681 11.413L7.82092 4.81302H7.76783L5.53834 11.413H10.0681Z" fill="black"/>
<path d="M26.967 6.06897L22.455 17.6057H19.5531L15.0233 6.06897H18.2791L21.004 13.8191H21.0217L23.6936 6.06897H26.967Z" fill="black"/>
<path d="M30.1009 8.63486H28.8977V6.06917H30.1009V4.0874C30.1009 1.39786 31.4457 0 33.746 0C35.1438 0 36.2055 0.495443 36.7186 0.84933L36.0993 3.25577C35.4446 2.91957 34.8076 2.76032 34.383 2.76032C33.6575 2.76032 33.1974 3.18499 33.1974 4.29973V6.06917H35.7808V8.61716H33.1974V21.6225H30.1009V8.63486Z" fill="black"/>
<path d="M48.6624 6.06906V17.6058H45.7252V16.2079H45.6544C44.8758 17.2165 43.6903 17.7827 42.204 17.7827C39.019 17.7827 36.701 15.4117 36.701 11.8551C36.701 8.35163 39.0367 5.87442 42.1332 5.87442C43.4957 5.87442 44.6812 6.36986 45.5128 7.36075H45.5836V6.06906H48.6624ZM45.7252 11.8905C45.7252 10.0503 44.5043 8.65244 42.8233 8.65244C41.1777 8.65244 39.8506 9.90874 39.8506 11.8905C39.8506 13.7484 41.0715 15.0401 42.8056 15.0401C44.3981 15.0224 45.7252 13.7838 45.7252 11.8905Z" fill="black"/>
<path d="M55.027 0.212219H51.9305V21.6224H55.027V0.212219Z" fill="black"/>
<path d="M61.5267 0.212219H58.4302V21.6224H61.5267V0.212219Z" fill="black"/>
<path d="M14.4561 20.2601V37.0344H11.0588L3.64488 25.9046H3.5918V37.0344H0.282944V20.2601H3.5918L11.0765 31.6022H11.0942V20.2601H14.4561Z" fill="black"/>
<path d="M15.8896 31.2658C15.8896 27.8154 18.3491 25.3205 22.0119 25.3205C25.6038 25.3205 28.1518 27.7269 28.1518 31.2658C28.1518 34.8047 25.6038 37.2111 22.0119 37.2111C18.3491 37.2111 15.8896 34.7162 15.8896 31.2658ZM25.0199 31.2658C25.0199 29.3725 23.7459 28.0808 22.0119 28.0808C20.2247 28.0808 19.0038 29.4433 19.0038 31.2658C19.0038 33.0529 20.2601 34.4508 22.0119 34.4508C23.6928 34.4508 25.0199 33.1414 25.0199 31.2658Z" fill="black"/>
<path d="M36.9118 25.3382V28.7001C36.611 28.6824 36.2748 28.6824 36.1156 28.6824C34.2046 28.6824 33.1606 29.9741 33.1606 31.6905V37.0519H30.0641V25.5151H33.1606V27.2138H33.1783C34.0454 25.9929 35.3017 25.3205 36.6818 25.3205C36.7703 25.3205 36.8765 25.3205 36.9118 25.3382Z" fill="black"/>
<path d="M49.8621 25.4974V35.7071C49.8621 39.2991 48.2872 41.9001 43.8637 41.9001C42.0411 41.9001 40.484 41.4932 39.1216 40.75L39.847 38.1312C40.9795 38.7682 42.1119 39.2106 43.5805 39.2106C45.757 39.2106 46.8717 38.0604 46.8717 36.6272V35.4771H46.8009C46.0047 36.3441 44.8369 36.8218 43.439 36.8218C40.254 36.8218 37.936 34.5039 37.936 31.1596C37.936 27.7623 40.1832 25.3205 43.2797 25.3205C44.5714 25.3205 45.81 25.7629 46.7301 26.683H46.8009V25.4974H49.8621ZM46.9071 31.0358C46.9071 29.2663 45.6331 28.1339 44.0052 28.1339C42.2889 28.1339 41.0679 29.3194 41.0679 31.0712C41.0679 32.8937 42.3419 34.0438 44.0052 34.0438C45.7039 34.0261 46.9071 32.7698 46.9071 31.0358Z" fill="black"/>
<path d="M62.9371 32.2567H54.8331C55.2046 33.6192 56.3017 34.4862 57.788 34.4862C59.0089 34.5039 59.9114 33.973 60.5483 33.1945L62.5478 35.0524C61.5569 36.3087 59.876 37.2288 57.558 37.2288C54.1784 37.2288 51.6304 34.8578 51.6304 31.2481C51.6304 27.7446 54.0722 25.3205 57.3457 25.3205C60.7253 25.3205 62.9902 27.78 62.9902 31.1596C63.0079 31.5312 63.0079 32.0621 62.9371 32.2567ZM54.8508 30.0449H59.929C59.6282 28.8417 58.7966 28.0454 57.4518 28.0454C56.1955 28.0277 55.2047 28.7178 54.8508 30.0449Z" fill="black"/>
</svg>
