<svg width="101" height="28" viewBox="0 0 101 28" fill="none" xmlns="http://www.w3.org/2000/svg">
<path d="M41.9305 6.47181H37.8535C37.7715 6.47181 37.7315 6.51681 37.7315 6.60581V19.7038C37.7315 19.7858 37.7715 19.8258 37.8535 19.8258H41.9305C43.6225 19.8258 44.9335 19.2688 45.8615 18.1538C46.7885 17.0388 47.2525 15.4318 47.2525 13.3318C47.2525 11.2328 46.7805 9.56481 45.8365 8.32681C44.8925 7.09081 43.5905 6.47181 41.9305 6.47181ZM35.3505 4.4698C35.3505 4.38881 35.3905 4.34781 35.4725 4.34781H41.8745C44.4005 4.36481 46.3255 5.18581 47.6485 6.81381C48.9715 8.44181 49.6335 10.6148 49.6335 13.3318C49.6335 16.0508 48.9755 18.1658 47.6595 19.6798C46.3455 21.1938 44.4165 21.9508 41.8745 21.9508H35.4725C35.3905 21.9508 35.3505 21.9098 35.3505 21.8278V4.4698Z" fill="black"/>
<path d="M55.1507 9.42589V21.8279C55.1507 21.9099 55.1097 21.9499 55.0277 21.9499H52.8927C52.8117 21.9499 52.7707 21.9099 52.7707 21.8279V9.42589C52.7707 9.34489 52.8117 9.30389 52.8927 9.30389H55.0277C55.1097 9.30389 55.1507 9.34489 55.1507 9.42589ZM55.4067 4.46989V7.09389C55.4067 7.17589 55.3617 7.22089 55.2727 7.22889H52.6487C52.5667 7.22889 52.5257 7.18389 52.5257 7.09389V4.46989C52.5257 4.38889 52.5667 4.34789 52.6487 4.34789H55.2727C55.3617 4.34789 55.4067 4.38889 55.4067 4.46989Z" fill="black"/>
<path d="M60.2777 15.6213C60.2777 16.9413 60.6187 18.0133 61.3007 18.8353C61.9837 19.6593 62.8977 20.0703 64.0437 20.0703C65.1887 20.0703 66.0787 19.6633 66.7127 18.8483C67.3457 18.0333 67.6627 16.9573 67.6627 15.6213C67.6627 14.2853 67.3457 13.2093 66.7127 12.3943C66.0787 11.5793 65.1887 11.1713 64.0437 11.1713C62.8977 11.1713 61.9837 11.5793 61.3007 12.3943C60.6187 13.2253 60.2777 14.3013 60.2777 15.6213ZM64.1167 25.0263C65.3357 25.0263 66.2327 24.6803 66.8097 23.9883C67.3867 23.2953 67.6707 22.4563 67.6627 21.4703V20.7983C67.6627 20.7493 67.6337 20.7123 67.5777 20.6883C67.5207 20.6633 67.4677 20.6843 67.4197 20.7493C67.2157 21.0273 66.7607 21.3373 66.0537 21.6803C65.3477 22.0233 64.6117 22.1943 63.8487 22.1943C62.1297 22.1943 60.7077 21.5833 59.5837 20.3613C58.4597 19.1393 57.8977 17.5503 57.8977 15.5953C57.8977 13.6403 58.4347 12.0613 59.5087 10.8613C60.5827 9.66033 62.0277 9.05633 63.8417 9.04733C64.4447 9.04733 65.0997 9.18933 65.8077 9.47233C66.5157 9.75633 67.0527 10.0793 67.4197 10.4443C67.5327 10.5573 67.6137 10.5493 67.6627 10.4193L67.9197 9.42533C67.9517 9.34433 67.9927 9.30433 68.0417 9.30433H69.9217C70.0027 9.30433 70.0437 9.34533 70.0437 9.42633V21.4743C70.0437 23.1593 69.4987 24.5263 68.4087 25.5763C67.3187 26.6253 65.9567 27.1503 64.3237 27.1503C62.6907 27.1503 61.3397 26.7843 60.2717 26.0523C59.2037 25.3193 58.6207 24.4443 58.5237 23.4273C58.5237 23.3463 58.5637 23.3053 58.6457 23.3053H60.8257C60.8747 23.3053 60.9147 23.3463 60.9477 23.4273C61.0777 23.8093 61.4107 24.1723 61.9467 24.5143C62.4837 24.8553 63.2067 25.0263 64.1167 25.0263Z" fill="black"/>
<path d="M74.4988 15.6213C74.4988 16.9413 74.8398 18.0133 75.5218 18.8353C76.2048 19.6593 77.1188 20.0703 78.2648 20.0703C79.4098 20.0703 80.3038 19.6633 80.9458 18.8483C81.5798 18.0333 81.8918 16.9573 81.8838 15.6213C81.8838 14.2853 81.5708 13.2093 80.9458 12.3943C80.3198 11.5793 79.4308 11.1713 78.2768 11.1713C77.1228 11.1713 76.2048 11.5793 75.5218 12.3943C74.8398 13.2253 74.4988 14.3013 74.4988 15.6213ZM84.1428 21.9503H82.2628C82.2138 21.9503 82.1728 21.9103 82.1408 21.8283L81.8838 20.8273C81.8348 20.6813 81.7538 20.6643 81.6408 20.7783C81.2908 21.1283 80.7578 21.4543 80.0418 21.7553C79.3258 22.0563 78.6658 22.2023 78.0638 22.1943C76.2488 22.1943 74.8048 21.5923 73.7298 20.3873C72.6558 19.1823 72.1188 17.5933 72.1188 15.6213C72.1188 13.6493 72.6558 12.0623 73.7298 10.8613C74.8038 9.66033 76.2488 9.05633 78.0628 9.04733C78.8288 9.04733 79.5568 9.21733 80.2488 9.55733C80.9398 9.89733 81.4038 10.2003 81.6408 10.4673C81.7058 10.5323 81.7618 10.5523 81.8108 10.5283C81.8598 10.5043 81.8838 10.4673 81.8838 10.4193V4.47033C81.8838 4.38933 81.9288 4.34833 82.0188 4.34833H84.1428C84.2238 4.34833 84.2648 4.38933 84.2648 4.47033V21.8283C84.2648 21.9103 84.2238 21.9503 84.1428 21.9503Z" fill="black"/>
<path d="M90.4046 9.42589V21.8279C90.4046 21.9099 90.3636 21.9499 90.2816 21.9499H88.1466C88.0656 21.9499 88.0246 21.9099 88.0246 21.8279V9.42589C88.0246 9.34489 88.0656 9.30389 88.1466 9.30389H90.2816C90.3636 9.30389 90.4046 9.34489 90.4046 9.42589ZM90.6606 4.46989V7.09389C90.6606 7.17589 90.6156 7.22089 90.5266 7.22889H87.9026C87.8206 7.22889 87.7796 7.18389 87.7796 7.09389V4.46989C87.7796 4.38889 87.8206 4.34789 87.9026 4.34789H90.5266C90.6156 4.34789 90.6606 4.38889 90.6606 4.46989Z" fill="black"/>
<path d="M100.866 11.1716H99.596C98.595 11.1716 97.794 11.5426 97.192 12.2826C96.589 13.0236 96.292 13.9146 96.301 14.9556V21.8286C96.301 21.9096 96.256 21.9506 96.166 21.9506H94.042C93.961 21.9506 93.92 21.9096 93.92 21.8286V9.42562C93.92 9.34462 93.961 9.30362 94.042 9.30362H95.922C95.971 9.30362 96.012 9.34462 96.044 9.42562L96.301 10.5486C96.349 10.6956 96.439 10.7036 96.569 10.5736C97.586 9.55662 98.595 9.04762 99.596 9.04762H100.866C100.947 9.04762 100.992 9.08862 101 9.16962V11.0496C100.992 11.1306 100.947 11.1716 100.866 11.1716Z" fill="black"/>
<path d="M13.9246 21.7848C7.89959 22.7658 2.78659 17.6528 3.76759 11.6278C4.36259 7.98083 7.30359 5.03983 10.9506 4.44584C16.9756 3.46483 22.0886 8.57784 21.1066 14.6018C20.5126 18.2488 17.5706 21.1898 13.9246 21.7848ZM12.7386 0.749836H0.571594C0.295594 0.749836 0.0715942 0.972836 0.0715942 1.24984V24.9808C0.0715942 25.2578 0.295594 25.4808 0.571594 25.4808H12.7386C19.4246 25.3308 24.8026 19.8508 24.8026 13.1148C24.8026 6.37984 19.4246 0.899836 12.7386 0.749836Z" fill="black"/>
</svg>
