<svg width="64" height="45" viewBox="0 0 64 45" fill="none" xmlns="http://www.w3.org/2000/svg">
<path d="M61.2175 22.5308C60.8305 22.2131 60.4115 21.9366 59.9672 21.7058L59.8467 21.6457L59.9519 21.5552C60.5848 20.9667 61.0806 20.2463 61.4041 19.445C61.7277 18.6437 61.8712 17.781 61.8243 16.9181C61.8203 14.6612 61.0499 12.9772 59.5132 11.9117C58.2175 10.9956 56.4263 10.5478 54.0338 10.552L47.1727 10.5644C46.982 10.5673 46.7999 10.6445 46.6653 10.7796C46.5306 10.9148 46.4541 11.0971 46.4519 11.2879L46.4923 33.7826C46.4927 33.9741 46.5691 34.1576 46.7048 34.2928C46.8405 34.428 47.0243 34.5038 47.2158 34.5035L55.055 34.4894C57.5225 34.485 59.5078 33.9546 60.9353 32.9139C61.7542 32.3213 62.4058 31.5269 62.827 30.608C63.2932 29.5729 63.5225 28.4467 63.4983 27.3117C63.504 26.3943 63.3018 25.4875 62.9068 24.6594C62.5118 23.8314 61.9342 23.1036 61.2176 22.5308H61.2175ZM48.6815 12.8039L54.038 12.7943C55.9339 12.7909 57.3338 13.1043 58.2377 13.7345C58.8101 14.1398 59.594 14.9209 59.5975 16.9221C59.604 20.503 56.7758 20.7939 55.9181 20.7954L48.6958 20.8084L48.6815 12.8039ZM55.051 32.2625L48.7164 32.2739L48.6999 23.0352L55.9222 23.0223C59.0518 23.0166 61.2517 24.7877 61.2563 27.3158C61.2585 28.5346 61.2651 32.2514 55.051 32.2625Z" fill="black"/>
<path d="M15.7321 14.187C14.7228 12.9604 13.4228 12.0058 11.9504 11.41C10.6072 10.8878 9.17716 10.6249 7.73603 10.6352L1.22096 10.6469C1.02782 10.6507 0.843936 10.7303 0.709033 10.8686C0.574131 11.0068 0.499047 11.1926 0.500009 11.3858L0.540434 33.8652C0.540829 34.0567 0.617277 34.2403 0.752969 34.3754C0.88866 34.5106 1.07249 34.5864 1.26402 34.5861L7.77903 34.5743C9.22088 34.587 10.6514 34.3187 11.9906 33.7843C13.463 33.1941 14.761 32.2389 15.7623 31.0085C18.0594 28.1758 18.399 24.609 18.3957 22.7282C18.3927 21.1339 18.1297 17.1163 15.7321 14.187V14.187ZM14.0295 29.5972C13.2609 30.4965 12.2994 31.2108 11.2165 31.687C10.1336 32.1631 8.95726 32.3889 7.77503 32.3474L2.77959 32.3564L2.74465 12.8864L7.74003 12.8774C8.92251 12.828 10.1008 13.0477 11.186 13.5201C12.2711 13.9925 13.2348 14.7051 14.0044 15.6043C15.9949 18.0385 16.1518 21.6793 16.1537 22.7322C16.1566 24.3125 15.8911 27.3068 14.0295 29.5972H14.0295Z" fill="black"/>
<path d="M41.0616 0.900146L41.121 33.9428C41.124 34.0866 41.0803 34.2274 40.9963 34.3441C40.9124 34.4609 40.7929 34.5472 40.6556 34.5902C40.5893 34.6197 40.5177 34.6353 40.4451 34.6361C40.3362 34.6362 40.2288 34.6104 40.1319 34.5607C40.035 34.5111 39.9513 34.439 39.8878 34.3505L25.1236 15.6145L25.1751 44.2329L22.9331 44.2369L22.8736 11.1193C22.8736 10.9741 22.9203 10.8328 23.0068 10.7162C23.0933 10.5997 23.215 10.514 23.354 10.472C23.421 10.4461 23.493 10.4357 23.5646 10.4415C23.672 10.44 23.7783 10.4636 23.875 10.5104C23.9717 10.5571 24.0562 10.6258 24.1218 10.7108L38.8859 29.4623L38.8346 0.904142L41.0616 0.900146Z" fill="black"/>
</svg>
