<svg width="34" height="40" viewBox="0 0 34 40" fill="none" xmlns="http://www.w3.org/2000/svg">
<path d="M22.7913 10.7413V38.3676H2.07159V6.13696C2.07159 4.91581 2.5567 3.74467 3.42018 2.88118C4.28367 2.01769 5.45481 1.53259 6.67596 1.53259" stroke="black" stroke-width="3" stroke-miterlimit="10" stroke-linecap="square"/>
<path d="M2.07159 22.2523C2.07159 21.0311 2.5567 19.86 3.42018 18.9965C4.28367 18.133 5.45481 17.6479 6.67596 17.6479" stroke="black" stroke-width="3" stroke-miterlimit="10" stroke-linecap="square"/>
<path d="M32 10.7413H11.2803V6.13696C11.2803 4.91581 10.7952 3.74467 9.93175 2.88118C9.06826 2.01769 7.89712 1.53259 6.67596 1.53259H27.3956C28.6168 1.53259 29.7879 2.01769 30.6514 2.88118C31.5149 3.74467 32 4.91581 32 6.13696V10.7413Z" stroke="black" stroke-width="3" stroke-miterlimit="10" stroke-linecap="square"/>
<path d="M32 26.8566H11.2803V22.2523C11.2803 21.0311 10.7952 19.86 9.93175 18.9965C9.06826 18.133 7.89712 17.6479 6.67596 17.6479H27.3956C28.6168 17.6479 29.7879 18.133 30.6514 18.9965C31.5149 19.86 32 21.0311 32 22.2523V26.8566Z" stroke="black" stroke-width="3" stroke-miterlimit="10" stroke-linecap="square"/>
</svg>
