<svg width="113" height="44" viewBox="0 0 113 44" fill="none" xmlns="http://www.w3.org/2000/svg">
<path d="M7.88758 18.8621C8.90515 18.929 9.92328 18.74 10.849 18.3123C11.7748 17.8846 12.5787 17.2319 13.1873 16.4137L13.2958 18.4901H15.6822V9.50234H8.42995V12.0592H12.8619V12.3846C12.8619 15.4839 10.274 16.3827 8.213 16.3827C5.16024 16.4137 3.09925 14.0427 3.09925 9.82776C3.09925 5.61278 5.29971 3.39682 8.24399 3.39682C9.26572 3.33277 10.2772 3.63205 11.0996 4.24174C11.9219 4.85143 12.5023 5.73227 12.7379 6.72851H15.6357C15.3647 5.0204 14.4631 3.47597 13.109 2.40013C11.7549 1.32429 10.0466 0.795242 8.32147 0.917427C3.17673 0.917427 0 4.45057 0 9.82776C0 15.2049 2.95978 18.8621 7.88758 18.8621Z" fill="black"/>
<path d="M21.4003 11.7647C21.4003 9.19233 22.4385 8.46401 24.2206 8.46401C24.6545 8.46401 25.1039 8.46401 25.5843 8.46401V5.72118C25.3366 5.70579 25.0882 5.70579 24.8405 5.72118C24.0984 5.72832 23.3743 5.95016 22.7556 6.35988C22.1369 6.76961 21.65 7.34971 21.3538 8.03012V5.69019H18.5955V18.5521H21.4313L21.4003 11.7647Z" fill="black"/>
<path d="M30.3106 1.22742H27.4593V4.09422H30.3106V1.22742Z" fill="black"/>
<path d="M30.3106 5.69019H27.4593V18.5521H30.3106V5.69019Z" fill="black"/>
<path d="M38.1362 18.8621C38.8939 18.8968 39.6473 18.7301 40.3197 18.379C40.992 18.0278 41.5593 17.5048 41.9638 16.8631V18.5522H44.7996V1.22742H41.9638V7.42591C41.5612 6.78136 40.9948 6.25525 40.3223 5.90131C39.6498 5.54738 38.8954 5.37831 38.1362 5.4114C35.037 5.4114 32.5421 8.01476 32.5421 12.1213C32.5421 16.2278 35.099 18.8621 38.1362 18.8621ZM38.7406 7.72034C40.6001 7.72034 42.0568 9.16149 42.0568 12.1213C42.0568 15.081 40.6001 16.5532 38.7406 16.5532C36.881 16.5532 35.4864 14.8486 35.4864 12.1213C35.4864 9.39393 36.8655 7.72034 38.7406 7.72034Z" fill="black"/>
<path d="M0.790314 21.8528V39.1776H3.64162V37.4885C4.03878 38.1335 4.60242 38.6595 5.27324 39.0113C5.94407 39.3631 6.69729 39.5276 7.45369 39.4875C10.5529 39.4875 13.0478 36.8841 13.0478 32.7466C13.0478 28.6091 10.491 26.0368 7.45369 26.0368C6.69604 25.9999 5.94242 26.1675 5.27176 26.5219C4.60109 26.8763 4.03806 27.4046 3.64162 28.0513V21.8528H0.790314ZM6.83384 28.3612C8.72438 28.3612 10.088 30.0503 10.088 32.7466C10.088 35.443 8.72438 37.1785 6.83384 37.1785C4.9433 37.1785 3.51765 35.7219 3.51765 32.7466C3.51765 29.7714 4.97429 28.3612 6.83384 28.3612Z" fill="black"/>
<path d="M15.2948 26.3312V39.1776H18.1306V32.4367C18.1306 29.8643 19.1688 29.1515 20.9509 29.1515C21.3848 29.1515 21.8342 29.1515 22.3146 29.1515V26.3467H21.5707C20.8274 26.3571 20.1029 26.582 19.4844 26.9943C18.8658 27.4067 18.3796 27.989 18.0841 28.6711V26.3312H15.2948Z" fill="black"/>
<path d="M31.9377 37.442C31.9689 38.0258 32.0466 38.6061 32.1702 39.1776H34.7735C34.5105 37.7309 34.3859 36.2624 34.4016 34.7921C34.4016 33.6144 34.4016 32.1113 34.4016 31.4604C34.4016 27.3539 32.0617 25.9438 28.9779 25.9438C25.8942 25.9438 23.7402 27.7413 23.5543 30.3602H26.3436C26.3437 30.0328 26.4129 29.7091 26.5468 29.4102C26.6807 29.1114 26.8762 28.8443 27.1205 28.6263C27.3648 28.4083 27.6525 28.2444 27.9645 28.1453C28.2766 28.0462 28.6061 28.0142 28.9314 28.0513C30.3416 28.0513 31.5968 28.7176 31.5968 30.9181V31.1505C26.9479 31.6309 22.9499 32.4367 22.9499 35.6444C22.9499 37.9844 24.9024 39.4875 27.7072 39.4875C28.5305 39.5531 29.3564 39.3981 30.0999 39.0386C30.8435 38.6791 31.4778 38.128 31.9377 37.442ZM28.3271 37.3645C26.8859 37.3645 25.9562 36.6982 25.9562 35.5669C25.9562 34.0948 27.6143 33.5214 31.6743 33.134V34.1103C31.7233 34.5578 31.6696 35.0105 31.5173 35.4341C31.365 35.8577 31.118 36.2409 30.7953 36.5547C30.4726 36.8685 30.0825 37.1045 29.6548 37.2449C29.2271 37.3852 28.773 37.4261 28.3271 37.3645Z" fill="black"/>
<path d="M40.1507 28.1133V26.3312H37.3149V39.1776H40.1507V32.3438C40.1507 30.0348 40.972 28.3613 43.1415 28.3613C45.3109 28.3613 45.5899 30.0503 45.5899 31.8014V39.1776H48.4257V31.1041C48.4257 28.0048 47.155 26.0368 44.0558 26.0368C43.2761 25.9854 42.4976 26.1525 41.8077 26.5193C41.1179 26.8862 40.544 27.4382 40.1507 28.1133Z" fill="black"/>
<path d="M56.2978 39.4875C57.056 39.5254 57.8106 39.3601 58.4835 39.0087C59.1564 38.6572 59.7233 38.1324 60.1254 37.4885V39.1776H62.9612V21.8528H60.1254V28.0513C59.724 27.4056 59.1578 26.8786 58.485 26.5245C57.8122 26.1704 57.0573 26.0021 56.2978 26.0368C53.1985 26.0368 50.7037 28.6401 50.7037 32.7466C50.7037 36.8531 53.2605 39.4875 56.2978 39.4875ZM56.9176 28.3612C58.7772 28.3612 60.2338 29.7869 60.2338 32.7466C60.2338 35.7064 58.7772 37.1786 56.9176 37.1786C55.0581 37.1786 53.6634 35.474 53.6634 32.7466C53.6634 30.0193 55.0271 28.3612 56.9176 28.3612Z" fill="black"/>
<path d="M69.0202 21.8528H66.1689V24.7196H69.0202V21.8528Z" fill="black"/>
<path d="M69.0202 26.3312H66.1689V39.193H69.0202V26.3312Z" fill="black"/>
<path d="M75.0637 32.3438C75.0637 30.0348 75.8695 28.3612 78.039 28.3612C80.2085 28.3612 80.4874 30.0503 80.4874 31.8014V39.1776H83.3232V31.1041C83.3232 28.0048 82.068 26.0368 78.9533 26.0368C78.1757 25.9847 77.399 26.1516 76.7115 26.5187C76.024 26.8857 75.4531 27.4382 75.0637 28.1133V26.3312H72.2124V39.1776H75.0637V32.3438Z" fill="black"/>
<path d="M91.1178 38.9761C91.8755 39.0129 92.6291 38.8453 93.2998 38.4909C93.9704 38.1365 94.5334 37.6083 94.9299 36.9616V38.5112C94.987 39.2873 94.7613 40.0579 94.2945 40.6807C93.9686 41.0227 93.5688 41.2857 93.1256 41.4495C92.6825 41.6133 92.2077 41.6737 91.7377 41.6259C90.0331 41.6259 89.2428 41.1146 88.9793 39.9213H86.159C86.5929 42.7417 88.8399 43.8729 91.6602 43.8729C93.3318 44.0264 94.998 43.5266 96.3091 42.4782C96.8707 41.872 97.2989 41.1546 97.5658 40.3725C97.8328 39.5904 97.9325 38.7609 97.8587 37.9378V26.3312H94.9299V28.0512C94.5334 27.4045 93.9704 26.8763 93.2998 26.5219C92.6291 26.1675 91.8755 25.9999 91.1178 26.0367C88.0186 26.0367 85.5237 28.4696 85.5237 32.4987C85.5237 36.5277 88.0806 38.9761 91.1178 38.9761ZM91.7377 28.3147C93.5972 28.3147 95.0539 29.6164 95.0539 32.4987C95.0539 35.381 93.5972 36.7291 91.7377 36.7291C89.8781 36.7291 88.4835 35.1795 88.4835 32.4987C88.4835 29.8178 89.8781 28.3147 91.7377 28.3147Z" fill="black"/>
<path d="M103.267 31.8014H104.042V26.8271H105.948V26.1453H101.361V26.8271H103.267V31.8014Z" fill="black"/>
<path d="M107.373 28.4697C107.373 28.3302 107.373 28.1288 107.373 27.8344C107.373 27.5399 107.373 27.354 107.373 27.2145V27.0285L109.016 31.8014H109.775L111.325 27.0285C111.325 27.3385 111.325 27.6329 111.325 27.8963V31.8014H112.053V26.1453H110.968L109.341 30.9336L107.792 26.1453H106.707V31.8014H107.435L107.373 28.4697Z" fill="black"/>
</svg>
