<svg width="121" height="34" viewBox="0 0 121 34" fill="none" xmlns="http://www.w3.org/2000/svg">
<path d="M0.343536 7.97159V27.3002C5.17477 26.6162 8.79418 22.6386 8.79418 17.6675C8.79418 12.6963 5.17477 8.65559 0.343536 7.97159ZM11.6111 33.9002V0.900146C15.2252 5.47057 16.7754 11.4042 16.7754 17.6675C16.7754 23.9307 15.2252 29.3298 11.6111 33.9002ZM31.7987 32.9573V1.84301C24.7005 3.4508 19.5922 10.1165 19.5922 17.6675C19.5922 25.2184 24.7005 31.3495 31.7987 32.9573Z" fill="black"/>
<path d="M59.0286 25.4144V22.5859H49.1808V7.50012H46.3526V25.4144H59.0286ZM61.5694 21.6339C61.5694 23.8996 63.3286 25.7806 66.2379 25.7806C68.791 25.7806 70.3079 24.4885 70.9313 23.4748C70.9313 24.5183 71.0262 25.0623 71.0858 25.4201H73.9585C73.8989 25.0623 73.5994 24.3283 73.5994 23.0762V15.8645C73.5994 13.0622 71.9496 10.636 67.6741 10.636C64.5868 10.636 62.1436 12.534 61.8464 15.2766L64.5182 15.9027C64.6966 14.2332 65.7952 13.0109 67.7544 13.0109C69.9219 13.0109 70.8421 14.1736 70.8421 15.5748C70.8421 16.0816 70.6046 16.5287 69.7435 16.648L65.8839 17.2144C63.4201 17.5721 61.5694 19.0701 61.5694 21.6339ZM66.7154 23.5047C65.2905 23.5047 64.3999 22.4911 64.3999 21.4179C64.3999 20.1359 65.2905 19.4503 66.4778 19.2714L70.8421 18.6155V19.2714C70.8421 22.4016 69.0013 23.5047 66.7154 23.5047ZM81.0942 31.55L90.4838 11.2677H87.6669L83.2068 20.7001L78.7538 11.2677H75.9299L81.7575 23.8326L78.2773 31.55H81.0942ZM94.4476 16.766C94.5664 14.9176 96.0523 13.1601 98.3978 13.1601C100.921 13.1601 102.288 14.7089 102.348 16.766H94.4476ZM102.707 20.3718C102.172 21.9817 101.072 23.2565 98.757 23.2565C96.3523 23.2565 94.5072 21.4933 94.4476 18.9295H105.14C105.17 18.7506 105.2 18.4963 105.2 18.1385C105.2 13.6668 102.792 10.636 98.3978 10.636C94.8053 10.636 91.5133 13.6966 91.5133 18.1982C91.5133 23.0575 94.9269 25.7806 98.757 25.7806C102.082 25.7806 104.309 23.8624 105.111 21.3284L102.707 20.3718ZM116.775 10.9966C116.626 10.9667 116.305 10.8163 115.614 10.8163C114.159 10.8163 112.18 11.3137 111.141 13.5198V10.8154L108.324 10.8001V25.3965H111.141V18.1922C111.141 14.7666 113.106 13.8159 115.451 13.8159C115.837 13.8159 116.359 13.8216 116.775 13.8812V10.9966ZM116.775 23.293C116.775 24.4556 117.73 25.3965 118.887 25.3965C120.045 25.3965 121 24.4556 121 23.293C121 22.1304 120.045 21.1716 118.887 21.1716C117.73 21.1716 116.775 22.1304 116.775 23.293Z" fill="black"/>
</svg>
