<svg width="1119" height="1119" viewBox="0 0 1119 1119" fill="none" xmlns="http://www.w3.org/2000/svg">
<g clip-path="url(#clip0_943_320)">
<rect width="1119" height="1119" fill="#90F494"/>
<rect x="-5" y="-6" width="156" height="156" fill="#90F494"/>
<path d="M495.223 832.077C332.643 832.077 200.846 702.011 200.846 541.567C200.846 381.123 332.643 251.058 495.223 251.058L495.223 832.077Z" fill="#2A3BCC"/>
<path fill-rule="evenodd" clip-rule="evenodd" d="M933.901 533.17H537.661V507.283H933.901V533.17Z" fill="#0F2040"/>
<path fill-rule="evenodd" clip-rule="evenodd" d="M921.373 672.931H537.661V647.044H921.373V672.931Z" fill="#0F2040"/>
<path fill-rule="evenodd" clip-rule="evenodd" d="M842.499 439.68H537.661V413.793H842.499V439.68Z" fill="#0F2040"/>
<path fill-rule="evenodd" clip-rule="evenodd" d="M842.499 754.435H537.661V728.548H842.499V754.435Z" fill="#0F2040"/>
<path fill-rule="evenodd" clip-rule="evenodd" d="M842.499 362.744H537.661V336.857H842.499V362.744Z" fill="#0F2040"/>
<path fill-rule="evenodd" clip-rule="evenodd" d="M900.055 362.744H863.816V336.857H900.055V362.744Z" fill="#0F2040"/>
<path fill-rule="evenodd" clip-rule="evenodd" d="M708.2 828.024H671.96V802.137H708.2V828.024Z" fill="#0F2040"/>
<path fill-rule="evenodd" clip-rule="evenodd" d="M622.93 282.011H537.661V256.124H622.93V282.011Z" fill="#0F2040"/>
<path fill-rule="evenodd" clip-rule="evenodd" d="M648.511 828.024H537.661V802.137H648.511V828.024Z" fill="#0F2040"/>
</g>
<defs>
<clipPath id="clip0_943_320">
<rect width="1119" height="1119" fill="white"/>
</clipPath>
</defs>
</svg>
