<svg width="100" height="41" viewBox="0 0 100 41" fill="none" xmlns="http://www.w3.org/2000/svg">
<g clip-path="url(#clip0_622_2312)">
<path d="M18.6903 15.2194C19.5361 15.714 20.2984 16.3443 20.9519 17.0844C21.5254 17.7389 22.0464 18.5626 22.5128 19.5537C22.9793 20.5447 23.2153 21.7626 23.2171 23.2074C23.2207 24.429 22.9666 25.6376 22.4675 26.7477C21.9647 27.8671 21.2459 28.8711 20.3511 29.6949C19.4399 30.5428 18.3744 31.2233 17.1529 31.7346C15.9313 32.246 14.599 32.5026 13.156 32.5026H0.317871V0.000164124H12.9092C14.1217 -0.0072735 15.3214 0.238168 16.4377 0.717894C17.5123 1.17531 18.4942 1.83912 19.3274 2.67027C20.1441 3.48841 20.7994 4.45902 21.2586 5.53004C21.7287 6.62894 21.9683 7.81896 21.9592 9.02014C21.9592 10.0447 21.7832 10.9483 21.4292 11.7293C21.0753 12.5102 20.7032 13.1536 20.3111 13.6575C19.8537 14.2618 19.3056 14.7899 18.6884 15.2194H18.6903ZM5.08975 13.4046H12.911C14.1888 13.4046 15.2634 12.9677 16.1328 12.0937C17.0022 11.2198 17.436 10.1953 17.436 9.022C17.436 7.84871 16.9968 6.82232 16.1201 5.95026C15.2434 5.0782 14.1725 4.63938 12.911 4.63752H5.08794V13.4065L5.08975 13.4046ZM13.1597 27.8671C13.8766 27.8708 14.5863 27.7295 15.2506 27.4506C15.875 27.194 16.445 26.8165 16.9332 26.3405C17.4015 25.8775 17.7773 25.3253 18.0404 24.7154C18.5813 23.4287 18.5813 21.9709 18.0404 20.6842C17.7773 20.0743 17.4015 19.5221 16.9332 19.0591C16.445 18.5831 15.8732 18.2075 15.2488 17.9509C14.5863 17.672 13.8766 17.5306 13.1597 17.5362H5.08794V27.8671H13.1578H13.1597Z" fill="#0F2040"/>
<path d="M25.6008 9.23961H30.3102V32.888C30.3102 34.1274 30.127 35.2354 29.7605 36.2155C29.394 37.1956 28.8783 38.0275 28.2115 38.7111C27.5541 39.3911 26.7607 39.9339 25.8823 40.3045C24.9945 40.6806 24.0216 40.8696 22.9637 40.8696C22.2308 40.8696 21.6074 40.7862 21.0955 40.6194C20.8386 40.5583 20.5892 40.4657 20.355 40.3434V36.2507C20.5099 36.3229 20.6723 36.373 20.8405 36.4026C21.0105 36.436 21.1824 36.4619 21.3524 36.4767C21.5224 36.4915 21.7189 36.5008 21.9418 36.5008C22.9826 36.5008 23.8516 36.1581 24.5524 35.4725C25.2533 34.787 25.6027 33.9236 25.6008 32.8861V9.23961ZM27.9565 5.649C27.1536 5.649 26.4717 5.37665 25.9087 4.83194C25.3458 4.28724 25.0643 3.61469 25.0643 2.8106C25.0643 2.02504 25.3458 1.35991 25.9087 0.815205C26.4717 0.2705 27.1555 0 27.9584 0C28.7593 0 29.4412 0.272353 30.0061 0.817058C30.5709 1.36176 30.8524 2.0269 30.8505 2.81246C30.8505 3.59987 30.569 4.26871 30.0061 4.82083C29.4431 5.37294 28.7612 5.649 27.9584 5.649H27.9565Z" fill="#0F2040"/>
<path d="M53.5682 25.9422C53.1858 26.8846 52.6957 27.7792 52.1092 28.6112C51.5207 29.445 50.8079 30.1849 49.9968 30.8052C49.1745 31.4365 48.2241 31.9316 47.1419 32.2887C46.0615 32.6458 44.8494 32.8244 43.5092 32.8244C41.9685 32.8244 40.5262 32.5372 39.1823 31.9648C37.8569 31.4015 36.6597 30.5788 35.661 29.5462C34.6549 28.5081 33.866 27.273 33.2962 25.8428C32.7263 24.4127 32.4404 22.8242 32.4404 21.0793C32.4404 19.3491 32.7263 17.7698 33.2962 16.3415C33.866 14.9132 34.6364 13.6781 35.609 12.6382C36.578 11.6019 37.7493 10.7736 39.0542 10.2049C41.7309 9.04158 44.777 9.04158 47.4537 10.2049C48.7587 10.7736 49.9299 11.6019 50.8989 12.6382C51.8716 13.6763 52.6419 14.9113 53.2118 16.3415C53.7816 17.7717 54.0657 19.3509 54.0675 21.0793C54.0675 21.3425 54.0527 21.6039 54.0211 21.8652C53.9858 22.1229 53.9543 22.3438 53.9209 22.526C53.8875 22.7598 53.854 22.9586 53.8206 23.1242H37.3261C37.3929 23.8402 37.6064 24.5378 37.9553 25.1692C38.2987 25.806 38.7442 26.384 39.277 26.8773C39.8301 27.3835 40.4742 27.781 41.1759 28.0498C41.9203 28.3424 42.7147 28.4897 43.5166 28.486C44.9255 28.486 46.0448 28.186 46.8746 27.5878C47.7043 26.9896 48.3039 26.441 48.6733 25.9404H53.5775L53.5682 25.9422ZM43.2568 13.6726C41.7161 13.6726 40.4111 14.1917 39.3438 15.2316C38.2765 16.2697 37.6026 17.63 37.3186 19.3105H49.6923C49.425 17.6484 48.7419 16.2918 47.6431 15.2445C46.5442 14.1972 45.0814 13.6726 43.2549 13.6726H43.2568Z" fill="#0F2040"/>
<path d="M66.5128 9.3329C66.734 9.32923 66.9553 9.34574 67.1729 9.38244C67.348 9.41546 67.5121 9.44849 67.6615 9.48152C67.7943 9.51454 67.927 9.54757 68.0616 9.58059V14.1804C67.927 14.1474 67.7703 14.1143 67.5859 14.0813C67.4181 14.0483 67.2448 14.0116 67.0622 13.9694C66.8815 13.929 66.6971 13.907 66.5128 13.907C65.7549 13.9015 65.0045 14.0575 64.313 14.3657C63.6455 14.6629 63.0389 15.0794 62.5263 15.5968C62.0174 16.1124 61.6099 16.7197 61.3278 17.3876C61.0364 18.0628 60.8871 18.7912 60.8908 19.5251V32.5025H56.2939V9.58243H59.6185L60.6418 11.8943C61.0733 11.4007 61.5693 10.9659 62.1169 10.6007C62.5982 10.3017 63.2067 10.0173 63.9405 9.74389C64.6744 9.47051 65.5318 9.3329 66.5146 9.3329H66.5128Z" fill="#0F2040"/>
<path d="M75.1525 0H73.3853H70.606V32.5026H75.1525V32.4877L79.0662 25.6543L83.1587 32.5026H88.4165L81.7435 20.9128L88.0445 9.89952L83.1587 9.90324L75.1525 23.8674V0Z" fill="#0F2040"/>
<path d="M95.8906 32.5026C98.0863 32.5026 99.8662 30.6296 99.8662 28.3191C99.8662 26.0086 98.0863 24.1356 95.8906 24.1356C93.695 24.1356 91.915 26.0086 91.915 28.3191C91.915 30.6296 93.695 32.5026 95.8906 32.5026Z" fill="#2A3BCC"/>
</g>
<defs>
<clipPath id="clip0_622_2312">
<rect width="100" height="40.8696" fill="white"/>
</clipPath>
</defs>
</svg>
