<svg width="458" height="255" viewBox="0 0 458 255" fill="none" xmlns="http://www.w3.org/2000/svg">
<path d="M199.398 254.979C270.508 254.979 328.155 197.9 328.155 127.49C328.155 57.0791 270.509 7.6577e-05 199.398 6.10352e-05L199.398 254.979Z" fill="#2A3BCC"/>
<path fill-rule="evenodd" clip-rule="evenodd" d="M79.4775 190.603C73.9002 190.603 69.3789 186.082 69.3789 180.505C69.3789 174.928 73.9002 170.407 79.4775 170.407C85.0548 170.407 89.5761 174.928 89.5761 180.505C89.5761 186.082 85.0548 190.603 79.4775 190.603ZM79.4775 201.964C67.6257 201.964 58.0179 192.356 58.0179 180.505C58.0179 168.654 67.6257 159.046 79.4775 159.046C91.3293 159.046 100.937 168.654 100.937 180.505C100.937 192.356 91.3292 201.964 79.4775 201.964Z" fill="#0F2040"/>
<path fill-rule="evenodd" clip-rule="evenodd" d="M157.742 87.0969C152.164 87.0969 147.643 82.5758 147.643 76.9987C147.643 71.4216 152.164 66.9005 157.742 66.9005C163.319 66.9005 167.84 71.4217 167.84 76.9987C167.84 82.5758 163.319 87.0969 157.742 87.0969ZM157.742 98.4574C145.89 98.4574 136.282 88.85 136.282 76.9987C136.282 65.1474 145.89 55.5401 157.742 55.5401C169.593 55.5401 179.201 65.1475 179.201 76.9987C179.201 88.85 169.593 98.4574 157.742 98.4574Z" fill="#0F2040"/>
<path fill-rule="evenodd" clip-rule="evenodd" d="M136.282 103.047L103.462 135.866L70.6411 103.047L37.8206 135.866L9.01688 107.063L0.983487 115.097L37.8206 151.932L70.6411 119.113L103.462 151.932L136.282 119.113L165.086 147.916L173.119 139.883L136.282 103.047Z" fill="#0F2040"/>
<path fill-rule="evenodd" clip-rule="evenodd" d="M26.4599 68.7939L111.036 68.7939L111.036 57.4335L26.4599 57.4334L26.4599 68.7939Z" fill="#0F2040"/>
<path fill-rule="evenodd" clip-rule="evenodd" d="M127.216 175.686L175.184 223.652L183.218 215.619L135.249 167.653L127.216 175.686Z" fill="#0F2040"/>
<path fill-rule="evenodd" clip-rule="evenodd" d="M117.669 17.542L148.59 35.3932L154.27 25.5547L123.35 7.70351L117.669 17.542Z" fill="#0F2040"/>
<path fill-rule="evenodd" clip-rule="evenodd" d="M107.478 246.373L132.725 221.127L124.691 213.094L99.4449 238.34L107.478 246.373Z" fill="#0F2040"/>
<path d="M457.69 0.000106812C386.15 8.88968e-05 328.156 57.0791 328.156 127.49C328.156 197.9 386.15 254.979 457.69 254.979L457.69 0.000106812Z" fill="#2A3BCC"/>
</svg>
