<svg width="453" height="255" viewBox="0 0 453 255" fill="none" xmlns="http://www.w3.org/2000/svg">
<path d="M194.398 254.979C265.509 254.979 323.156 197.9 323.156 127.49C323.156 57.079 265.509 1.55418e-05 194.398 0L194.398 254.979Z" fill="#2A3BCC"/>
<path fill-rule="evenodd" clip-rule="evenodd" d="M2.52449 123.804L175.836 123.804L175.836 112.444L2.5245 112.444L2.52449 123.804Z" fill="#0F2040"/>
<path fill-rule="evenodd" clip-rule="evenodd" d="M8.00408 185.138L175.836 185.138L175.836 173.777L8.00409 173.777L8.00408 185.138Z" fill="#0F2040"/>
<path fill-rule="evenodd" clip-rule="evenodd" d="M42.5028 82.7764L175.836 82.7765L175.836 71.416L42.5028 71.416L42.5028 82.7764Z" fill="#0F2040"/>
<path fill-rule="evenodd" clip-rule="evenodd" d="M42.5028 220.906L175.836 220.906L175.836 209.545L42.5028 209.545L42.5028 220.906Z" fill="#0F2040"/>
<path fill-rule="evenodd" clip-rule="evenodd" d="M42.5028 49.0134L175.836 49.0134L175.836 37.653L42.5028 37.6529L42.5028 49.0134Z" fill="#0F2040"/>
<path fill-rule="evenodd" clip-rule="evenodd" d="M17.3279 49.0134L33.1787 49.0134L33.1787 37.653L17.3279 37.6529L17.3279 49.0134Z" fill="#0F2040"/>
<path fill-rule="evenodd" clip-rule="evenodd" d="M101.244 253.2L117.095 253.2L117.095 241.84L101.244 241.84L101.244 253.2Z" fill="#0F2040"/>
<path fill-rule="evenodd" clip-rule="evenodd" d="M138.54 13.5838L175.836 13.5838L175.836 2.22339L138.54 2.22338L138.54 13.5838Z" fill="#0F2040"/>
<path fill-rule="evenodd" clip-rule="evenodd" d="M127.351 253.2L175.836 253.2L175.836 241.84L127.351 241.84L127.351 253.2Z" fill="#0F2040"/>
<path d="M452.69 0.000102997C381.15 8.50821e-05 323.156 57.0791 323.156 127.49C323.156 197.9 381.15 254.979 452.69 254.979L452.69 0.000102997Z" fill="#90F494"/>
</svg>
