<svg xmlns="http://www.w3.org/2000/svg" fill="none" viewBox="0 0 128 128">
  <rect width="128" height="128" fill="#fff" rx="10"/>
  <path fill="#0F2040" d="M69 61.5a23.7 23.7 0 0 1 9.9 10.7 20 20 0 0 1 1.8 9 22.4 22.4 0 0 1-7.4 16 28 28 0 0 1-18.6 7H21.5V23.8H54a23.7 23.7 0 0 1 21.6 13.6c1.2 2.7 1.8 5.7 1.8 8.6 0 2.6-.4 4.8-1.3 6.7-1 2-2 3.5-3 4.8a18.2 18.2 0 0 1-4.1 3.9ZM33.8 57H54c3.3 0 6.1-1.1 8.4-3.3a10.2 10.2 0 0 0 0-15.1 11.7 11.7 0 0 0-8.4-3.3H33.8V57Zm20.9 35.7a14.3 14.3 0 0 0 9.7-3.8 12.3 12.3 0 0 0 0-18 14.2 14.2 0 0 0-9.8-3.8H33.9v25.6h20.9Z"/>
  <path fill="#7087FF" d="M96.2 104.1a10.3 10.3 0 0 0 0-20.7 10.4 10.4 0 0 0 0 20.7Z"/>
</svg>