<svg width="128" height="128" viewBox="0 0 128 128" fill="none" xmlns="http://www.w3.org/2000/svg">
<path d="M68.9737 61.4512C71.1608 62.673 73.132 64.2303 74.8215 66.0585C76.3046 67.6754 77.6516 69.7104 78.8578 72.1587C80.064 74.6071 80.6741 77.6159 80.6788 81.1851C80.6882 84.203 80.0311 87.1888 78.7405 89.9312C77.4404 92.6965 75.5819 95.177 73.2681 97.212C70.912 99.3066 68.157 100.988 64.9985 102.251C61.8399 103.514 58.395 104.148 54.6638 104.148H21.468V23.8529H54.0255C57.1606 23.8346 60.2629 24.4409 63.1493 25.6261C65.9277 26.7561 68.4668 28.396 70.621 30.4493C72.733 32.4704 74.4273 34.8683 75.6147 37.5142C76.8303 40.229 77.4498 43.1688 77.4263 46.1363C77.4263 48.6673 76.9711 50.8998 76.0559 52.8291C75.1407 54.7584 74.1786 56.3477 73.1648 57.5926C71.9821 59.0855 70.5647 60.3901 68.969 61.4512H68.9737ZM33.8067 56.9679H54.0302C57.3343 56.9679 60.1127 55.8884 62.3608 53.7294C64.6089 51.5704 65.7306 49.0394 65.7306 46.1409C65.7306 43.2423 64.5948 40.7067 62.328 38.5523C60.0611 36.3979 57.292 35.3139 54.0302 35.3093H33.802V56.9725L33.8067 56.9679ZM54.6732 92.6965C56.527 92.7057 58.3621 92.3566 60.0799 91.6675C61.6944 91.0336 63.1681 90.1011 64.4306 88.9252C65.6414 87.7814 66.6129 86.4171 67.2935 84.9104C68.6921 81.7317 68.6921 78.1303 67.2935 74.9516C66.6129 73.4449 65.6414 72.0806 64.4306 70.9368C63.1681 69.7609 61.6897 68.833 60.0752 68.1991C58.3621 67.5101 56.527 67.1609 54.6732 67.1747H33.802V92.6965H54.6685H54.6732Z" fill="#0F2040"/>
<path d="M96.2101 104.148C101.887 104.148 106.49 99.5205 106.49 93.8126C106.49 88.1047 101.887 83.4775 96.2101 83.4775C90.5328 83.4775 85.9304 88.1047 85.9304 93.8126C85.9304 99.5205 90.5328 104.148 96.2101 104.148Z" fill="#0F2040"/>
</svg>
