<svg width="128" height="128" viewBox="0 0 128 128" fill="none" xmlns="http://www.w3.org/2000/svg">
<g clip-path="url(#clip0_2926_1489)">
<path d="M55.5215 59.8094V45.0158C50.6549 47.2483 48.0964 52.262 46.6592 56.2482H45.1023C45.1023 56.2482 46.6592 49.5292 46.6592 40.8736V18H29V108.451H46.6592V107.805C46.6592 102.894 45.1023 97.724 45.1023 97.724H46.6592C48.08 101.673 50.6059 106.552 55.5215 108.784V94.0391C50.4208 92.5651 46.6592 86.1689 46.6592 76.9215C46.6592 67.6742 50.4752 61.2941 55.5215 59.8094Z" fill="black"/>
<path d="M67.2086 43.8433C61.3403 43.8433 57.7584 47.4045 55.5156 51.3692V66.0229C57.4699 61.8753 60.5728 59.4761 64.0567 59.4761C68.1177 59.4761 71.667 62.736 73.4743 68.2339V45.3979C71.6125 44.392 69.5276 43.8379 67.2086 43.8379V43.8433ZM64.0622 94.362C60.5456 94.362 57.459 91.9843 55.5211 87.8582V102.56C57.7747 106.493 61.4329 110 67.5461 110C69.729 110 71.7105 109.484 73.4797 108.548V85.6634C71.6833 91.129 68.1667 94.362 64.0622 94.362Z" fill="black"/>
<path d="M73.5998 43.8433H73.4746V60.1108C77.8949 62.0421 81.1393 68.2177 81.1393 76.9217C81.1393 85.6257 77.933 91.8283 73.4746 93.738V109.995C73.627 109.995 73.7795 110 73.9319 110C86.6156 110 92.2498 92.5545 92.2498 76.9217C92.2498 61.2889 86.6102 43.8433 73.5998 43.8433Z" fill="black"/>
<path d="M91.6465 49.7227V104.147C96.6764 97.7131 99.0009 86.9218 99.0009 76.8783C99.0009 66.8348 96.7036 56.1673 91.6465 49.7227Z" fill="black"/>
</g>
<defs>
<clipPath id="clip0_2926_1489">
<rect width="70" height="92" fill="white" transform="translate(29 18)"/>
</clipPath>
</defs>
</svg>
