<svg xmlns="http://www.w3.org/2000/svg" xml:space="preserve" viewBox="0 0 392 108.8">
  <path
    d="M111.3 51.3v-14h3.9l6 10.5-.1-2.1v-8.4h2.6v14h-3.4l-6.5-11.4.1 2v9.5h-2.6zm14.6-4.8c0-3.2 2.1-5.2 5-5.2s5 2 5 5.2-2.1 5.2-5 5.2c-3 0-5-2-5-5.2zm7.5 0c0-2.1-1-3.3-2.5-3.3s-2.5 1.2-2.5 3.3c0 2.1 1 3.3 2.5 3.3 1.5-.1 2.5-1.3 2.5-3.3zm4.4 4.8v-9.8h2.4v.7l-.1 1c.5-1.1 1.4-2.1 2.9-2.1l.5.1v2.4l-.7-.1c-1.5 0-2.6.8-2.6 2.9v4.8h-2.4zm7 .7h2.5c0 1.2.8 1.8 2.1 1.8s2.4-.8 2.4-2.2v-1.1l.1-1.2c-.6.9-1.5 1.6-3 1.6-2.5 0-4.4-1.8-4.4-4.9 0-3 2.1-4.9 4.3-4.9 1.7 0 2.6.7 3.2 1.7l-.1-1v-.4h2.4V51c0 3.2-2 4.7-4.9 4.7-3 0-4.6-1.5-4.6-3.7zm7.1-5.9c0-1.7-1-2.9-2.5-2.9s-2.5 1.2-2.5 2.9 1 2.9 2.5 2.9c1.4 0 2.5-1.2 2.5-2.9zm4.2.3c0-3.1 2.1-5.2 4.9-5.2 3 0 4.7 2.1 4.7 5.3v.5h-7.1c0 1.5 1 2.7 2.5 2.7 1.1 0 1.9-.6 2.1-1.6h2.5c-.2 2-1.9 3.5-4.6 3.5-3 .1-5-1.8-5-5.2zm7.1-1.1c0-1.3-.9-2.2-2.2-2.2s-2.3.9-2.4 2.2h4.6zm3.7 2.6h2.5c.1 1.2.8 1.9 2.1 1.9 1.1 0 1.8-.5 1.8-1.3 0-.7-.6-1-1.6-1.2l-1.2-.2c-2-.4-3.2-1.4-3.2-3 0-1.7 1.6-3 4-3 2.6 0 4.3 1.4 4.3 3.4h-2.4c-.1-1-.8-1.6-1.9-1.6-.9 0-1.6.4-1.6 1.1 0 .6.4.9 1.6 1.1l1.2.2c1.9.4 3.2 1.3 3.2 3 0 1.9-1.6 3.2-4.1 3.2-2.8.2-4.5-1.3-4.7-3.6zm15.2 3.4v-14h5.9c2.7 0 4.8 1 4.8 3.5 0 1.7-1.3 2.7-2.7 3.1 1.8.4 3.1 1.5 3.1 3.4 0 3-2.7 4-5.5 4h-5.6zm2.6-8.4h3c1.7 0 2.4-.7 2.4-1.8 0-1-.7-1.6-2.4-1.6h-3v3.4zm0 6.2h3.2c1.8 0 2.7-.7 2.7-2 0-1.4-.9-2-2.7-2h-3.2v4zm13.2-11.8v14h-2.4v-14h2.4zm2.6.2h2.6v2.6h-2.6v-2.6zm2.5 4v9.8h-2.4v-9.8h2.4zm2.7 9.8v-9.8h2.4v.5l-.1 1c.5-1 1.5-1.7 3-1.7 2.2 0 3.4 1.5 3.4 3.9v6.2H212v-5.8c0-1.4-.7-2.3-1.8-2.3-1.2 0-2.1 1.1-2.1 2.4v5.7h-2.4zm10.8-4.8c0-3.5 2.2-5.2 4.5-5.2 1.5 0 2.5.8 3 1.7l-.1-1v-4.7h2.4v14H224v-.4l.1-.9c-.4.7-1.3 1.7-3.1 1.7-2.6 0-4.5-1.8-4.5-5.2zm7.6-.1c0-2-1.1-3.3-2.5-3.3s-2.6 1.3-2.6 3.3c0 2 1.1 3.3 2.6 3.3s2.5-1.3 2.5-3.3zm4.2 0c0-3.1 2.1-5.2 4.9-5.2 3 0 4.7 2.1 4.7 5.3v.5h-7.1c0 1.5 1 2.7 2.5 2.7 1.1 0 1.9-.6 2.1-1.6h2.5c-.2 2-1.9 3.5-4.6 3.5-2.9.1-5-1.8-5-5.2zm7.1-1.1c0-1.3-.9-2.2-2.2-2.2s-2.3.9-2.4 2.2h4.6zm7.8 6h-2.4v-7.8h-1.9v-1.9h1.9v-1.1c0-2.3 1.3-3.5 3.1-3.5l1.3.2V39l-.7-.1c-.7 0-1.3.4-1.3 1.3v1.3h2v1.9h-2v7.9zm2.8-4.8c0-3.2 2.1-5.2 5-5.2s5 2 5 5.2-2.1 5.2-5 5.2c-3 0-5-2-5-5.2zm7.5 0c0-2.1-1-3.3-2.5-3.3s-2.5 1.2-2.5 3.3c0 2.1 1 3.3 2.5 3.3 1.5-.1 2.5-1.3 2.5-3.3zm4.4 4.8v-9.8h2.4v.7l-.1 1c.5-1.1 1.4-2.1 2.9-2.1l.5.1v2.4l-.7-.1c-1.5 0-2.6.8-2.6 2.9v4.8h-2.4zm9.6-1.3.1.9v.4h-2.4v-14h2.4V42l-.1 1c.6-1 1.6-1.7 3.1-1.7 2.4 0 4.4 2 4.4 5.2 0 3.3-1.9 5.2-4.4 5.2-1.6 0-2.6-.8-3.1-1.7zm5-3.5c0-2-1.1-3.3-2.6-3.3s-2.5 1.3-2.5 3.3c0 1.9 1.1 3.3 2.5 3.3 1.6-.1 2.6-1.4 2.6-3.3zm4.3 1.2v-6.2h2.5v5.8c0 1.4.6 2.3 1.8 2.3 1.2 0 2.1-.9 2.1-2.4v-5.8h2.4v9.8h-2.4v-.4l.1-.9c-.5.9-1.4 1.7-3 1.7-2 .1-3.5-1.3-3.5-3.9zm11.3 3.6v-9.8h2.4v.5l-.1 1c.5-1 1.5-1.7 3-1.7 2.2 0 3.4 1.5 3.4 3.9v6.2h-2.4v-5.8c0-1.4-.7-2.3-1.8-2.3-1.2 0-2.1 1.1-2.1 2.4v5.7h-2.4zm10.6-4.8c0-3.5 2.2-5.2 4.5-5.2 1.5 0 2.5.8 3 1.7l-.1-1v-4.7h2.4v14h-2.4v-.4l.1-.9c-.4.7-1.3 1.7-3.1 1.7-2.5 0-4.4-1.8-4.4-5.2zm7.6-.1c0-2-1.1-3.3-2.5-3.3s-2.6 1.3-2.6 3.3c0 2 1.1 3.3 2.6 3.3s2.5-1.3 2.5-3.3zM110.5 69.6h1.9c.1 2 1.6 3.3 3.8 3.3 2.3 0 3.6-1 3.6-2.5 0-1.3-1.1-1.9-2.8-2.3l-2.1-.5c-2.1-.5-3.9-1.7-3.9-3.9 0-2.3 2.2-3.9 5.1-3.9 3 0 5 1.6 5.2 4.2h-1.9c-.1-1.7-1.4-2.7-3.4-2.7-1.8 0-3.2.9-3.2 2.2 0 1.2.8 1.9 2.4 2.3l2.5.6c2.2.5 3.8 1.7 3.8 3.8 0 2.3-2.1 4.2-5.5 4.2-3.2 0-5.5-1.8-5.5-4.8zm12.7 9V77l.8.1c.8 0 1.4-.2 1.8-1.3l.7-2-3.9-9.3h1.9l2.4 6.2.4 1.1.4-1.1 2.1-6.2h1.8l-4.4 11.8c-.7 1.8-1.7 2.3-3.2 2.3-.2.1-.5.1-.8 0zm10.3-4.5v-9.6h1.7v1.3c.5-.8 1.7-1.6 3-1.6 2.2 0 3.6 1.4 3.6 3.9v6.1H140v-5.9c0-1.8-.6-2.7-2.1-2.7-1.7 0-2.7 1.3-2.7 2.8v5.8h-1.7zm10.3-3.1h1.7c.1 1.3.9 2.1 2.5 2.1 1.3 0 2.2-.6 2.2-1.6 0-.8-.5-1.3-1.7-1.5l-1.5-.3c-1.8-.3-2.9-1.3-2.9-2.7 0-1.6 1.6-2.8 3.7-2.8 2.3 0 3.7 1.1 3.8 3.1H150c-.1-1.2-1-1.7-2.3-1.7-1.2 0-1.9.6-1.9 1.4 0 .8.6 1.2 1.6 1.4l1.5.3c1.7.3 2.9 1.2 2.9 2.8 0 1.7-1.5 3.1-3.9 3.1-2.6-.2-4.1-1.6-4.1-3.6zm10.4 3.1v-14h1.7v5.7c.5-.9 1.7-1.6 3-1.6 2.2 0 3.6 1.4 3.6 3.9v6.1h-1.7v-5.9c0-1.8-.6-2.7-2.2-2.7s-2.6 1.3-2.6 2.8v5.8h-1.8zm10.5-4.8c0-3 1.9-5.1 4.6-5.1 2.9 0 4.5 2 4.5 5.1v.3h-7.3c0 2.2 1.3 3.5 3 3.5 1.2 0 2.3-.5 2.5-1.9h1.7c-.2 1.7-1.5 3.3-4.3 3.3-2.9-.1-4.7-1.9-4.7-5.2zm7.2-.9c0-1.7-.9-2.9-2.6-2.9-1.6 0-2.7 1.3-2.8 2.9h5.4zm4.2 5.7v-9.6h1.7v1.3c.6-.9 1.6-1.6 2.8-1.6a3 3 0 0 1 2.9 1.9c.7-1.1 1.8-1.9 3.1-1.9 1.9 0 3.4 1.2 3.4 3.9v6.1h-1.7v-5.8c0-1.8-.5-2.8-2-2.8s-2.4 1.3-2.4 2.9v5.7h-1.7v-5.7c0-1.8-.6-2.9-2-2.9-1.5 0-2.4 1.3-2.4 2.9v5.7h-1.7zm16.8 0v-9.6h1.7v1.3c.6-.9 1.6-1.6 2.8-1.6a3 3 0 0 1 2.9 1.9c.7-1.1 1.8-1.9 3.1-1.9 1.9 0 3.4 1.2 3.4 3.9v6.1h-1.7v-5.8c0-1.8-.5-2.8-2-2.8s-2.4 1.3-2.4 2.9v5.7H199v-5.7c0-1.8-.6-2.9-2-2.9-1.5 0-2.4 1.3-2.4 2.9v5.7h-1.7zm16.2-4.8c0-3 1.9-5.1 4.6-5.1 2.9 0 4.5 2 4.5 5.1v.3h-7.3c0 2.2 1.3 3.5 3 3.5 1.2 0 2.3-.5 2.5-1.9h1.7c-.2 1.7-1.5 3.3-4.3 3.3-2.9-.1-4.7-1.9-4.7-5.2zm7.2-.9c0-1.7-.9-2.9-2.6-2.9-1.6 0-2.7 1.3-2.8 2.9h5.4zm3.6.9c0-2.9 1.7-5.1 4.5-5.1 1.6 0 2.7.9 3.1 1.6v-5.7h1.7v14h-1.7v-1.4c-.5.9-1.7 1.6-3.1 1.6-2.6.1-4.5-1.7-4.5-5zm7.7 0c0-2.3-1.2-3.8-3-3.8-1.7 0-3 1.5-3 3.8s1.2 3.8 3 3.8c1.7 0 3-1.5 3-3.8zm3.9 0c0-3 1.9-5.1 4.6-5.1 2.9 0 4.5 2 4.5 5.1v.3h-7.3c0 2.2 1.3 3.5 3 3.5 1.2 0 2.3-.5 2.5-1.9h1.7c-.2 1.7-1.5 3.3-4.3 3.3-2.9-.1-4.7-1.9-4.7-5.2zm7.2-.9c0-1.7-.9-2.9-2.6-2.9-1.6 0-2.7 1.3-2.8 2.9h5.4zm3.5 2.6h1.7c.1 1.3.9 2.1 2.5 2.1 1.3 0 2.2-.6 2.2-1.6 0-.8-.5-1.3-1.7-1.5l-1.5-.3c-1.8-.3-2.9-1.3-2.9-2.7 0-1.6 1.6-2.8 3.7-2.8 2.3 0 3.7 1.1 3.8 3.1h-1.7c-.1-1.2-1-1.7-2.3-1.7-1.2 0-1.9.6-1.9 1.4 0 .8.6 1.2 1.6 1.4l1.5.3c1.7.3 2.9 1.2 2.9 2.8 0 1.7-1.5 3.1-3.9 3.1-2.5-.2-4-1.6-4-3.6zm14.5-1.7c0-3 2-5.1 4.7-5.1 2.8 0 4.7 2.1 4.7 5.1 0 3.1-2 5.1-4.7 5.1s-4.7-2-4.7-5.1zm7.7 0c0-2.3-1.2-3.8-3-3.8s-3 1.5-3 3.8 1.1 3.8 3 3.8 3-1.5 3-3.8zm4.1 4.8v-9.6h1.7v1.6a3.1 3.1 0 0 1 3-1.9h.4v1.7h-.5c-1.9 0-2.9 1-2.9 3.2v5.1h-1.7zm6.6 1h1.7c0 1.4 1 2.3 2.5 2.3 1.8 0 2.9-.9 2.9-3.1v-1.8c-.5 1-1.7 1.6-3.2 1.6-2.7 0-4.4-1.9-4.4-4.9 0-3 1.9-5 4.4-5 1.6 0 2.6.8 3.1 1.6v-1.3h1.7v9.2c0 3.4-1.6 5-4.6 5-2.4 0-4.1-1.4-4.1-3.6zm7.2-6c0-2.1-1.2-3.6-2.9-3.6s-2.9 1.5-2.9 3.6c0 2.2 1.2 3.6 2.9 3.6s2.9-1.4 2.9-3.6zm4 2.4c0-1.9 1.5-2.7 3.2-3l2.1-.3c.7-.1 1-.4 1-1 0-1.1-.8-1.7-1.9-1.7-1.5 0-2.2.8-2.3 2h-1.7c.1-1.8 1.4-3.3 3.9-3.3 2.4 0 3.8 1.4 3.8 3.6v6.3h-1.6v-1.3c-.5 1-1.5 1.6-3 1.6-2 0-3.5-1.1-3.5-2.9zm6.3-1v-1.4c-.1.2-.5.3-1.1.4l-1.4.3c-1.1.2-2 .7-2 1.7s.8 1.6 1.8 1.6c1.5 0 2.7-1 2.7-2.6zm4.5 3.6v-9.6h1.7v1.3c.5-.8 1.7-1.6 3-1.6 2.2 0 3.6 1.4 3.6 3.9v6.1h-1.7v-5.9c0-1.8-.6-2.7-2.1-2.7-1.7 0-2.7 1.3-2.7 2.8v5.8h-1.8zM308 60.6h2v2.1h-2v-2.1zm1.9 3.9v9.6h-1.7v-9.6h1.7zm2.2 6.5h1.7c.1 1.3.9 2.1 2.5 2.1 1.3 0 2.2-.6 2.2-1.6 0-.8-.5-1.3-1.7-1.5l-1.5-.3c-1.8-.3-2.9-1.3-2.9-2.7 0-1.6 1.6-2.8 3.7-2.8 2.3 0 3.7 1.1 3.8 3.1h-1.7c-.1-1.2-1-1.7-2.3-1.7-1.2 0-1.9.6-1.9 1.4 0 .8.6 1.2 1.6 1.4l1.5.3c1.7.3 2.9 1.2 2.9 2.8 0 1.7-1.5 3.1-3.9 3.1-2.5-.2-4-1.6-4-3.6zm9.8.5c0-1.9 1.5-2.7 3.2-3l2.1-.3c.7-.1 1-.4 1-1 0-1.1-.8-1.7-1.9-1.7-1.5 0-2.2.8-2.3 2h-1.7c.1-1.8 1.4-3.3 3.9-3.3 2.4 0 3.8 1.4 3.8 3.6v6.3h-1.6v-1.3c-.5 1-1.5 1.6-3 1.6-2 0-3.5-1.1-3.5-2.9zm6.2-1v-1.4c-.1.2-.5.3-1.1.4l-1.4.3c-1.1.2-2 .7-2 1.7s.8 1.6 1.8 1.6c1.6 0 2.7-1 2.7-2.6zm3.8.5h1.7c.1 1.3.9 2.1 2.5 2.1 1.3 0 2.2-.6 2.2-1.6 0-.8-.5-1.3-1.7-1.5l-1.5-.3c-1.8-.3-2.9-1.3-2.9-2.7 0-1.6 1.6-2.8 3.7-2.8 2.3 0 3.7 1.1 3.8 3.1H338c-.1-1.2-1-1.7-2.3-1.7-1.2 0-1.9.6-1.9 1.4 0 .8.6 1.2 1.6 1.4l1.5.3c1.7.3 2.9 1.2 2.9 2.8 0 1.7-1.5 3.1-3.9 3.1-2.5-.2-4-1.6-4-3.6zm10.6-6.5h1.7V76c0 1.2-.6 2.7-2.7 2.7l-1-.1V77l.5.1c.9 0 1.4-.4 1.4-1.6v-11zm-.2-1.8v-2.1h2v2.1h-2zm4.2 6.6c0-3 2-5.1 4.7-5.1 2.8 0 4.7 2.1 4.7 5.1 0 3.1-2 5.1-4.7 5.1s-4.7-2-4.7-5.1zm7.7 0c0-2.3-1.2-3.8-3-3.8s-3 1.5-3 3.8 1.1 3.8 3 3.8 3-1.5 3-3.8zm4.1 4.8v-9.6h1.7v1.3c.5-.8 1.7-1.6 3-1.6 2.2 0 3.6 1.4 3.6 3.9v6.1h-1.7v-5.9c0-1.8-.6-2.7-2.1-2.7-1.7 0-2.7 1.3-2.7 2.8v5.8h-1.8zM100.4 31.8c-2.3 2.3-5.1 3-6.7 3.3-2.4.5-4.8.5-7.2.5-6.8 0-13.2.6-19.1 1.7C50.2 40.8 37 48.5 37 58.2c0 9.5 12.9 17.6 31.1 20.9 2.6.5 5.4.9 8.3 1.2-.5 1.6-3.5 2.6-4.9 2.8A45 45 0 0 1 53 80.3a61.4 61.4 0 0 1-18-8.9c-1.9-1.4-11.7-8.7-9.3-19.1C28.6 38.2 49.2 31 59.6 28.6A121 121 0 0 1 98 25.9l5.4.6s-1 3.3-3 5.3z" />
  <path d="M72.4 70.8a12.7 12.7 0 1 1 0-25.4 12.7 12.7 0 0 1 0 25.4z" />
</svg>