<svg xmlns="http://www.w3.org/2000/svg" fill="none" viewBox="0 0 1923 1065">
  <path stroke="#000" stroke-linecap="round" stroke-linejoin="round" stroke-width="8"
    d="M1110 296c0-6.1-4.4-10.1-7.6-14.4A217.7 217.7 0 0 0 947 194c-8.8-.8-17.7-2-26.5-1.9-38.5.7-75.5 8.2-110.5 24.8-27 12.9-51 30-71.4 51.7-7.5 8-14.2 16.6-20.2 25.8-1.7 2.6-1 6-3.8 8.2-3.1 2.3-5.3 5.1-10.1 5.2-4.7 0-8.1 4.5-11.4 7.8a53.2 53.2 0 0 0-15.2 31.9 84.2 84.2 0 0 0 5.6 39m572 177c6.1-1.4 7.6-7.7 12-11.4a168.6 168.6 0 0 1 33 37.9 119 119 0 0 1 15.3 42.5c1.5 9.7 1.6 19.5.4 29.5-3.7 32.2-18 60.1-33.8 87.5a331.3 331.3 0 0 1-74.4 87.4c-6.6 5.6-13.7 10.4-20.5 15.6-1 .7-2.1 2-3 1.9-6-1-9.1 3.7-13 6.7-5 3.8-10.4 6.7-16 9.4-5.1 2.4-10 3.7-16.1 1.8-5.7-1.7-12.3.2-18.4-.8a104 104 0 0 1-80.5-60c-.2-.5-.2-1.2-.5-1.5-4-3.2-4.5-7.3-3-12 .2-.7.3-1.7-.5-2.5-4.4-4.3-4-10-4.5-15.5-.3-3.5-1.5-7-1-10.5" />
  <path stroke="#000" stroke-linecap="round" stroke-linejoin="round" stroke-width="8"
    d="M1126.5 496.5c1.2-6-3.3-9.9-6.2-13.9-17.7-25-41-43.2-69.3-55.1-5.5-2.3-10.7-5.4-17-5.7-2.2 0-4.7-2.7-4.4-5.3.7-6-2-11.1-3.6-16.5a168.9 168.9 0 0 0-35-62 167.7 167.7 0 0 0-80.5-51.4 154.3 154.3 0 0 0-83.5-.2c-24.6 7-44.7 20.2-60.5 40-2.3 3-6.1 4.9-5.2 9.6.1.6 0 2 .3 2.4 8.8 14.2 5 28.3.5 42.6-1.3 3.9-2.8 7.7-4 11.5-1 3.1-2.4 5-5.6 5.6-2.5.4-3.8 2.1-4 4.9-.4 2.7-1.1 5.4-2 8-2 5.2 2 8.8 3.6 13a93.5 93.5 0 0 0 41 46.9c13 7.8 27.4 13 42.4 16.1 10.6 2.2 21.2 3.6 32 4 5 .3 10 2 15 0m-30 247.5c-7.2 1.1-13.8 4.3-21 5.6-16 3.1-31.9 3.6-48 2-7.7-.7-15.4-1.1-23-2-8.1-1-16.3-1.4-24.5-2-.8-.2-1.8-.4-2.5 0-8.8 3.5-17-.4-25.5-2a6.2 6.2 0 0 0-5 .8c-4.7 3.1-10.4 3.8-15 7a31.5 31.5 0 0 0-13.9 25.6c-1.2 19.8 7.2 36.4 19 51.5a185 185 0 0 0 54.4 45.5c22.3 13 46.3 21.6 71.5 26.4 17.1 3.2 34.6 4.2 52 3a201 201 0 0 0 51-9.9c3.2-1 6.5-2 8.5-5" />
  <path stroke="#000" stroke-linecap="round" stroke-linejoin="round" stroke-width="9"
    d="M1523.3 543.5c3-6 16-12 19.3-18.5m0 0h-4.6c-70.7 0-141.3-.3-212 .2a81 81 0 0 0-55 23.3c-1 1-1.7 2.7-2.5 4m274-27.5-19.3-17" />
  <path stroke="#000" stroke-linecap="round" stroke-linejoin="round" stroke-width="8"
    d="M1242.5 531c1.5-4.5-.3-9 0-13.5 0-1.7.2-3.1 1.5-4.5 4.3-5 4.5-11.6 5.9-17.5a166.5 166.5 0 0 0-24.4-127 164.3 164.3 0 0 0-54-51.9c-15-8.8-31.4-14.3-48.5-17.6-2.2-.4-4 1.2-6.4 1.6-3.4-3.8-7.6-3.4-12.6-2.9-7.8.8-15.5 1.3-23 3.4-18.5 5.1-32.2 15.6-36.4 35.4a62.5 62.5 0 0 0 3.8 35.5 158 158 0 0 0 34.1 51c18.3 19.7 37.9 38.1 57.5 56.5 2 2 4.3 3 7 3.5m95 138.5c4.5 5.4 4.8 12.2 5.8 18.5 1 5.6 1.3 11.3 1.3 17-.3 37.3-20.5 62.9-55.1 72.9a93 93 0 0 1-87-17.9c-10-7.7-18.7-16.7-26-27a12 12 0 0 0-10-5.5" />
  <path stroke="#000" stroke-linecap="round" stroke-linejoin="round" stroke-width="9"
    d="M655 548.5c-3.3-4-8.4-4.9-12.5-7.5-6-3.8-13.1-5.9-16.6-13-.8-1.8-11.4-4.8-13.4-4-2.3 1.1-4.6 1-7 1H401c-7 0-14-.5-21-.8" />
  <path stroke="#000" stroke-linecap="round" stroke-linejoin="round" stroke-width="8"
    d="M1145.5 874.5c-1.3 3.6-4.3 5.4-7.5 7a284 284 0 0 1-66 22.4c-20.6 4.3-41.4 7-62.5 6-24-1-47.2-5.3-68-18.3-1.8-1.1-3.9-2-5-3.7-1.2-2-2.9-2.5-5-2.4a4 4 0 0 1-3.5-1.5c-7.2-8.4-16.3-15-23.6-23.4a226.9 226.9 0 0 1-42.5-74.3c-6 2.5-11.7 1.5-17.4 1.7-19.9.6-39.7-.3-59.5-2.1a456.8 456.8 0 0 1-102-20.4l-8-3" />
  <path stroke="#000" stroke-linecap="round" stroke-linejoin="round" stroke-width="9"
    d="M1117 301c1.5 8.2 6.7 14.6 10 22 10 21.8 17.1 44.3 21.1 68 2.5 15 3.3 30 3.3 45 0 11.9-1.2 23.7-2.4 35.5-.3 2.3 0 4.2 1.5 6" />
  <path stroke="#000" stroke-linecap="round" stroke-linejoin="round" stroke-width="8"
    d="M1179.5 854c0-2-.3-4 .5-6 6.4-14.4 1.9-27-7-38.5a94.6 94.6 0 0 0-39-28c-13-5.7-26.6-9.2-40.5-11.3-9.2-1.4-18.6-3-28-2-4.7.3-9.7-3.1-14.2 1.1-.5.5-3.3-1.3-5.3-1.3-11.3 0-22.4 1.7-33.5 2.8-8.9.9-17.7 2-26.5 3.2-8 1-16 2.4-24 3.5l-26.5 3.5c-9.8 1.3-19.6 2.8-29.5 4-4 .4-8 .7-12 .8-8 .3-16 2-24 1.2-2.5-.3-4.7.8-7 1.5m127-379c4-24.2-3.3-52-27.6-65.7-13-7.3-25-7.7-38.8 2.8C909.8 357 905 372 904 388.5c-.2 4.3-1 9 .2 13 2.4 7.6 3.8 15.5 7.1 23a155.5 155.5 0 0 0 37 50.1c4.1 3.9 10 6.5 11.2 12.9M718 378c-6 3.5-13 3.4-19.5 5-25.9 6-50.4 15.2-71 32.6a81 81 0 0 0-29.3 52.4c-2.2 17.4 1 34 12.8 48 1.7 2 3 4.2 3 7m85.5 93c-4.2 4-9.8 5.1-15 7a302 302 0 0 0-50.3 21.3 103.3 103.3 0 0 0-23.7 17.2 68.4 68.4 0 0 0-17.1 24.5c-5.1 14-2 26.3 7.1 37.5 6 7.3 13.8 12.7 22 16.9a349 349 0 0 0 52 22.1m-11-215.5 5.7 7.2c-2.8 3.6-.9 7.7 0 11.3a83.4 83.4 0 0 0 26.7 45.6c3.3 2.8 5.8 6.2 10.6 6a2 2 0 0 1 1.5.4c12.2 11 27.7 13.3 43 15.3 22.6 3 45.3 1.2 68-.2 8-.5 16.1 0 24-.5 7.3-.6 12.8 1.6 18.5 5a145 145 0 0 0 15.7 8c5 2 7.9 3.3 9.6 8.8 1.5 4.7 4.2 9.1 5.2 14.1 5.4 29.2-10 52.3-32.5 65.5-1 .5-2 .7-3 1-5.5 1.7-5.7 2.8-4.1 8 1.2 4.2.7 8.9 2.6 13m-3-202c3.2 3.3 7.7 5.5 9 10.5.2.4 1 1 1.5 1 5.6.4 8.3 4.5 11 8.5 3.6 5.6 9.3 9.4 13 15 1.4 2 3.2 3.8 6 4 1.5.2 1.5 1.8 2 3 4.2 7.6 7.8 15.7 11.2 23.6 3.5 7.9 7.5 15.5 11.1 23.2 2.1 4.5 4 10.2 8 12.8 3.2 2.3 7.3 4.1 10.6 6.5a86.6 86.6 0 0 0 40 14.6 121 121 0 0 0 24 .6c19.2-1.4 37.7-5.8 55.6-12.8 2.6-1 5.1-2.1 8-2m90-161.5c-2.5 7.9.2 14.3 4.4 21a209.3 209.3 0 0 0 28 38c7.4 7.4 16.4 12 25.6 16.5 3.4 1.7 5.4-2.5 8.4-1.5 9.8 3.6 10.4 14 15 21.6 2.8 4.6 3.2 10.5 7.5 14.5 1.3 1 1 10.2-.5 10.8-5.3 2.6-7.3 8.1-10.8 12.2a111.8 111.8 0 0 1-116.1 36c-2.8-.8-5-2-7-4.1" />
  <path stroke="#000" stroke-linecap="round" stroke-linejoin="round" stroke-width="9"
    d="M974.5 488.5c6.8 1 13.7.4 20.5.5 9.5 0 19-.2 28.5 0 13.7.5 27.3 1 41 2 12.9 1 25.7 2.6 38.5 4 5.7.7 11.4 1.5 17 2.6 1 .2 2.4.7 3 .3 3.1-2 5 .3 7.5 1.5 5.7 2.8 7.7 7.4 6.4 13-1.6 6.8 2.8 11.8 4.2 17.6a99.6 99.6 0 0 1-7.5 67.6c-10.4 22-27.3 37.7-47.2 50.8-2 1.3-3.4 3-4.9 4.6" />
  <path stroke="#000" stroke-linecap="round" stroke-linejoin="round" stroke-width="8"
    d="M724 744.5a12 12 0 0 0 7.5 6.5c13.9 4.8 27.9 8.9 42.5 11.1 10 1.6 20 2.7 30 2.7a150 150 0 0 0 42-5.8c2.4-.7 5-1 7.5-1.5M924 656c-1.2 2.9-1.4 6-1 9a65 65 0 0 1-9.5 46c-13.2 21.6-32.9 35-56 44-2.6 1-4 1.7-3 5 2.3 8.8 4.3 17.7 6.5 26.5" />
  <path stroke="#000" stroke-linecap="round" stroke-linejoin="round" stroke-width="9"
    d="M1033.5 422.5c-1.3 6 1.4 11.7 2 17.5.8 7.2 1.5 14.4 2.5 21.5 2 12.4 1.1 25 3 37.5.2 1.1 0 2.3 0 3.5-.7 14.5.6 29 1.2 43.5.8 19.2 2.6 38.5 5.9 57.5.2 1.4.9 2.8-.1 4-2.9 3.5-2.3 7 0 10.5v1c.8 13.3 10.7 21.7 17 32 1.4 2.1 4.2 1.6 6.5 1.5 11.3-.4 19 6.5 27 13" />
  <path stroke="#000" stroke-linecap="round" stroke-linejoin="round" stroke-width="8"
    d="M1212 577c-.8 6-5.7 9.7-9.2 13.9a237.6 237.6 0 0 1-56.3 49.5c-10.8 6.8-22 12.8-33 19-1.7 1-3.4 1.7-4.5 3.1-2 2.7-4.5 3.2-7.5 3-1.2 0-2.4-.3-3.5 1-5.6 6-13.4 8.8-19.5 14M722 447c7.8 10 17.5 18.2 27 26.5 22.7 19.8 47.7 36.7 71.5 55 2.9 2.2 5.6 4.2 7.2 8 1.2 2.8 3.8 5.3 7.8 4.5 2.1-.4 3.7 1 5 2 2.4 2.5 5.8 3 8.5 5 .6.4 1.7.9 2 .7 5.6-5.4 11.9-1.6 17.4-.4 5.6 1.2 11.3-.6 16.6 1.6 1.4.6 3.3-.2 5-.4m246.5-27.5c-3.7 3.2-5 7.8-7.2 12a188.3 188.3 0 0 1-22.8 35 117 117 0 0 1-40 32.5 70.2 70.2 0 0 1-17.5 5.5m-13.5 198.5c-3.8 1.3-5.4 4.7-7.4 7.5-17 22.9-38 41.2-62.1 56-7.6 4.6-15.3 9.1-23.5 12.4-2.7 1.1-5 2.4-7 4.6M755 529c1.4 3.1 4 4.7 7 6a63.3 63.3 0 0 1 31.2 30.2c4 8 9.2 16.7 8.6 26.3a30.2 30.2 0 0 1-16.2 26.1c-14.3 7.9-28.6 6.4-43 1.8-3.6-1.1-6.8-3.1-10-5-2-1-3.9-2.3-4.1-4.9M1021 590c11.9-12.8 11.5-30 3.4-44a132.6 132.6 0 0 0-30.9-33c-7-6-14-12.1-21.5-17.5m-341 153c3 8 5.6 16.2 9 24a131.4 131.4 0 0 0 35 45 158 158 0 0 0 23.5 17 8.8 8.8 0 0 1 4 5M1242 515c-5-3.3-7-9-10.4-13.6a91 91 0 0 0-28.1-25.8c-13.3-7.6-27.2-10.8-42-4.6-4.3 1.8-7.6 5.1-11.4 7.7-6.3 4.3-2.4 19.7 4 21.7 7.4 2.4 13.7 6.8 20.4 10.6 1.8 1 3.3 1.8 5.5 1 3-.8 6.1 0 9 1 15.3 5.1 30.4 11 45 18 2.1 1 4.4 2.6 7 .6.9-.6 2.2 0 3 1.3 2.9 4 6 7.7 8.9 11.3-2.2 5.5-.8 10.9.8 15.7 1.1 3.5 1 6.3-.8 9a5.7 5.7 0 0 0-.4 6.1c1.9 4.4.1 8.9-.7 13-1.3 5.9-2.2 12-5.2 17.6-1 2-2 3.8-4.1 4.9" />
  <path stroke="#000" stroke-linecap="round" stroke-linejoin="round" stroke-width="8"
    d="M828 538c-6 2.4-11.4-.1-17-1.5L765.5 526a6 6 0 0 0-3.5 0c-9 3.9-17.7-.4-26.5-1-17.3-1.2-34.4-.3-51.5 2.3-12 1.8-16.5 9.8-20.1 19.5-8.2-1-11 5.8-14.9 10.7a101 101 0 0 0-19.5 52.5c-1 9.5-.4 19 .6 28.5.2 1.9 1.6 3.7 2.4 5.5m287.5 2c4.2-3 9.2-4 14-5.5 21-6.8 40.8-16.2 60-27 3.7-2.1 6-5.4 7.3-10.3-7.2.5-14-1.1-20.8-2.2a67 67 0 0 0-11-1 102 102 0 0 0-57.5 18c-1.4 1-3 1.7-4.5 2.5m-29.5 26c-4 8.9-10.1 16.5-14 25.5-5.8 13.3-9.7 27-11 41.5-.5 4.3-1 8.6-1 13-.1 3 .4 5.8 1.5 8.5" />
  <path stroke="#000" stroke-linecap="round" stroke-linejoin="round" stroke-width="9"
    d="M795.5 575c-1.5.3-3 2-4.5 1-3.4-2.6-7.3-1.7-11-2-11.3-1-22.7-1.5-34-2.8-17-2-33.5-5.5-50-9.8-2.1-.5-4-.5-6.4.2l-5.1-5.1m344.5-139c-2.5 1.4-4.9.1-7-.6-12.3-4.3-25.3-5.8-38-8.2-8.9-1.7-18-2.3-27-2.9-14.7-1-29.3-2-44-1.8-2.2 0-4.5-.3-6.5 1" />
  <path stroke="#000" stroke-linecap="round" stroke-linejoin="round" stroke-width="8"
    d="M888 530.5c-.5-11.2-2.4-22.1-5-33a140.8 140.8 0 0 0-16.4-44c-1-1.5-1.8-3.4-3.1-3.9-5-1.5-6.6-5.8-9-9.6a85.1 85.1 0 0 0-20-21c-1-.8-2-1.6-3-1.4-8 1.5-15.3-2.5-23-2.6a109 109 0 0 0-31 5c-8.5 2.3-16.4 5.9-24.5 9m238-18c-1.7 9-3.2 18-5 27-3 14.1-5.8 28.3-10.6 42-1.3 3.8-.2 8.7-4.4 11.5a82.7 82.7 0 0 1-36 47c-2.1 1.3-3.9 4-6 4.3-3.2.3-6.4 1-9.8-2.6-5.3-5.5-13.3-6.8-20.7-8-3-.5-6-2-9-.7" />
  <path stroke="#000" stroke-linecap="round" stroke-linejoin="round" stroke-width="9"
    d="M971 491c-2.5-.4-4.7-1.4-7-2.4-1.5-.6-3.3-2-5-.6-2.8 2.4-6.2 1.9-9.5 2l-62 2c-1.5 0-3 .7-4.5 1" />
  <path stroke="#000" stroke-linecap="round" stroke-linejoin="round" stroke-width="8"
    d="M1063.5 695.5c-6.2 1.3-8.7 6.9-11.8 11.1-10.5 14-17.1 30-19.5 47.4-.6 4.7-2 9.6-.7 14.5" />
  <path stroke="#000" stroke-linecap="round" stroke-linejoin="round" stroke-width="9"
    d="M903.5 403c-1.9 1.2-4 1-6 1H874l-39 .5c-2.2 0-4 .8-6 1.5m237 246.5c-1.9 4.8-3.3 9.7 0 14.5v.5a21 21 0 0 1-1 24.5c-.7 1.1-1.3 3-.9 4 4.4 10 1.2 20 .3 30a161 161 0 0 1-8.4 35.5c-.5 1.6-.3 3.3-.5 5" />
  <path stroke="#000" stroke-linecap="round" stroke-linejoin="round" stroke-width="8"
    d="M709 308.5c.3 6.5-3.3 11.9-4.6 18a54 54 0 0 0 10.9 46.2c4.5 5.8 9.7 7.8 16.2 8.9 4.6.7 8.7 2 10.7 7.3 1.4 3.8 4.8 6.8 7.3 10.1M792 577c-1.2 3.2-3.8 5-6.5 6.5-16 8.7-33 15.3-50 22a71.5 71.5 0 0 1-14.4 4c-4.5.8-9.6 3.5-13.1 7.5" />
  <path stroke="#000" stroke-linecap="round" stroke-linejoin="round" stroke-width="9"
    d="M1011.5 605.5c1-6.3 6.3-9.7 10-14.7A110.5 110.5 0 0 0 982 568c-4.3-1.4-8.7-2.2-13-3.6-.7-.2-1.4-.6-2-.4-7.5 2.6-13.6-1.7-20-4.1-2.8-1.1-5.2-1.8-8-.4-1.8.9-3.7.5-5.5.5-17 0-33.8 1.3-50.5 3.9-4.6.7-9.3.2-13 3.6" />
  <path stroke="#000" stroke-linecap="round" stroke-linejoin="round" stroke-width="8"
    d="M840 571.5c.2 8-2.5 15.8-2.2 24A54.6 54.6 0 0 0 847 624c1.5 2.2 3 4.2 3 7M683.5 387.5a186.7 186.7 0 0 0 31 52c1.8 2.2 4 4 6.5 5.5" />
  <path stroke="#000" stroke-linecap="round" stroke-linejoin="round" stroke-width="9"
    d="M757.5 396c7 4 15 4.6 22.5 5.8 8 1.4 16.3 1.5 24.5 2.2a15 15 0 0 0 9-2" />
  <path stroke="#000" stroke-linecap="round" stroke-linejoin="round" stroke-width="8"
    d="M1177.5 513c.7 6 5.5 9.5 9 13.4a359.6 359.6 0 0 1 27 33.6c.8 1 1.5 2.2 2.5 3 4 2.9 3 7 3 11M764 379c7.7 2.7 15.9 3.5 23.5 6.4 6.9 2.6 13.8 5.2 20 9.1 1.5 1 3.9 1.7 4.3 3 1.6 4.7 5.7 5.9 9.2 6.3 8.7 1 9.7 7.4 11.5 13.7" />
  <path stroke="#000" stroke-linecap="round" stroke-linejoin="round" stroke-width="9"
    d="M859 448c-1.8 3.6-1.3 7.3-.5 11a73.6 73.6 0 0 1 2.4 23 105.8 105.8 0 0 1-18.9 52c-1.6 2.3-3 4.7-4.5 7" />
  <path stroke="#000" stroke-linecap="round" stroke-linejoin="round" stroke-width="8"
    d="M716.5 301.5c1.5.5 3 1.4 4.5 1.4 16 .5 27.2 9.1 36 21.6 1.4 2 3 3.7 4.5 5.5M690 562c-1 7 3.5 12 6.6 17.4a87.8 87.8 0 0 0 20.9 24.6c1.5 1.2 2.2 2.9 3 4.5" />
  <path stroke="#000" stroke-linecap="round" stroke-linejoin="round" stroke-width="9"
    d="M752 429.5c-6.4 2.7-11.7 8.3-19.5 7.1-.9-.1-2.1 1.1-3 2-12.7 12-25.8 23.6-35.5 38.4l-7 11.5c-.7 1.2-1.8 3-1.4 4 2.6 6.5-.7 12.4-1.8 18.5-1 5.5-2 10.9-1.8 16.5" />
  <path stroke="#000" stroke-linecap="round" stroke-linejoin="round" stroke-width="8"
    d="M960.5 566c-.2 3.7 2.8 5.6 5 7.4 8.9 7.3 17.9 14.4 27.6 20.5 3.6 2.3 6 5 6.9 9.1" />
  <path stroke="#000" stroke-linecap="round" stroke-linejoin="round" stroke-width="9"
    d="M669 525.5c-11.8-1-23.7-.2-35.5-.5-2.6 0-4.8 1-7 2" />
  <path stroke="#000" stroke-linecap="round" stroke-linejoin="round" stroke-width="8"
    d="M761 338a17 17 0 0 0-6.5 8c-3.8 9.7-8 19.4-8.4 30-.2 3.3-3.6 3.6-4.6 6M685 492c-3.3 1-6 2.8-7.5 6a93 93 0 0 0-7.7 23c-.7 4.1 1.2 6.3 3.2 9m566 3-15 28c-1 2-2.4 3.9-4.5 5m-202 43.5c1.6 4 5 6 8.5 8 3.3 1.8 6.3 4 9.5 6 3.8 2.5 7.8 4.3 12.5 2.5" />
  <path stroke="#000" stroke-linecap="round" stroke-linejoin="round" stroke-width="9"
    d="M916.5 644c-6.2 3.6-13.2 3.6-20 4-3.7.2-7.4-.3-11 1" />
  <path stroke="#000" stroke-linecap="round" stroke-linejoin="round" stroke-width="8"
    d="m891.5 562-2.8-31.5a47.5 47.5 0 0 0-26.2 9.5 9.3 9.3 0 0 0-3 5" />
  <path stroke="#000" stroke-linecap="round" stroke-linejoin="round" stroke-width="9"
    d="M920.5 543c-1.7 2.4-4.3 3.3-7 4-7.4 1.7-15 2-22.5 2.5m.5 13.5c1.2 7 2.5 14 3.4 21 .4 2.8.8 6-1.4 8.5" />
  <path stroke="#000" stroke-linecap="round" stroke-linejoin="round" stroke-width="8"
    d="M833.5 542c-.3 2.8-1.3 5.1-3.5 7-5.1 4.6-9.3 10-15 14-2.3 1.8-4.8 4-4.5 7.5" />
  <path stroke="#000" stroke-linecap="round" stroke-linejoin="round" stroke-width="9"
    d="M861 565a15.6 15.6 0 0 1-11.5 2.9c-4-.8-7 0-9.1 3.3-5.5-2.1-10.4 0-15.4.3-4.2.3-8.3.7-12.5-.4-5.6-1.3-10.2 2.3-15 4.4" />
  <path stroke="#000" stroke-linecap="round" stroke-linejoin="round" stroke-width="8"
    d="M1051.5 770c-2.3 10-6 19-14 26m-131-173.5c-9.4 3.9-15.5 11.7-22.4 18.6-1.1 1-1.4 2.9-2.1 4.4M679 530c4 6.8 4 14.7 5.9 22 .8 3.3-1.1 4.4-5 4-3.5-.2-6.6-2.7-10.4-2m581.5 18-24 7M746 416.5c-7.3 3.8-14 13.4-14 20m197.5 107c1.8 3 4.8 5 7.5 7 2.8 2 5 4.2 6 7.5" />
  <path stroke="#000" stroke-linecap="round" stroke-linejoin="round" stroke-width="15"
    d="M1045.5 611.5c-1.3-.3-3-.3-4-1-7.3-5.7-15-4.2-23-2-1.1.3-2 .3-3-.5-4-3.3-9.2-3-14-4" />
  <path stroke="#000" stroke-linecap="round" stroke-linejoin="round" stroke-width="8"
    d="M851 549c1.2 3.4-.1 6-2.5 8.5-2.5 2.6-4.2 5.6-3.5 9.5" />
</svg>