<svg xmlns="http://www.w3.org/2000/svg" fill="none" viewBox="0 0 100 41" width="100" height="41">
  <path fill="currentColor"
    d="M18.6899 15.2199a9.2452 9.2452 0 0 1 2.262 1.864c.573.655 1.094 1.479 1.56 2.47.467.99.703 2.209.705 3.653a8.5737 8.5737 0 0 1-.75 3.54 9.033 9.033 0 0 1-2.116 2.948 10.7269 10.7269 0 0 1-3.198 2.04c-1.222.511-2.554.768-3.997.768H.3179V-.0001h12.591a8.7974 8.7974 0 0 1 3.529.718 9.198 9.198 0 0 1 2.89 1.952 9.1502 9.1502 0 0 1 1.93 2.86c.47 1.099.71 2.289.701 3.49 0 1.025-.176 1.928-.53 2.71-.354.78-.726 1.424-1.118 1.928a7.1871 7.1871 0 0 1-1.623 1.561h.002v.001Zm-13.6-1.815h7.821c1.278 0 2.352-.437 3.222-1.311.87-.874 1.303-1.899 1.303-3.072s-.44-2.2-1.316-3.072c-.877-.872-1.948-1.31-3.209-1.312h-7.823v8.768l.002-.001Zm8.07 14.462a5.3239 5.3239 0 0 0 2.09-.416 5.2954 5.2954 0 0 0 1.683-1.11 5.1585 5.1585 0 0 0 1.107-1.626 5.2102 5.2102 0 0 0 0-4.03 5.1573 5.1573 0 0 0-1.107-1.626 5.2985 5.2985 0 0 0-1.684-1.108 5.2742 5.2742 0 0 0-2.09-.415h-8.07v10.331h8.071Z" />
  <path fill="currentColor"
    d="M25.5999 9.2399h4.71v23.648c0 1.24-.183 2.347-.55 3.328-.366.98-.882 1.812-1.549 2.495a7.0564 7.0564 0 0 1-2.329 1.593c-.888.377-1.86.566-2.918.566-.733 0-1.357-.084-1.868-.25a3.2046 3.2046 0 0 1-.741-.277v-4.092c.155.072.317.122.485.152.17.033.342.059.512.074.17.015.367.024.59.024 1.04 0 1.91-.343 2.61-1.029.701-.685 1.05-1.548 1.049-2.586l-.001-23.646Zm2.356-3.591c-.802 0-1.484-.272-2.047-.817-.563-.545-.845-1.217-.845-2.021 0-.786.282-1.451.845-1.996.563-.544 1.247-.815 2.05-.815.8 0 1.482.272 2.047.817a2.6607 2.6607 0 0 1 .845 1.995c0 .788-.282 1.457-.845 2.009-.563.552-1.245.828-2.048.828h-.002Zm25.612 20.293a13.3376 13.3376 0 0 1-1.459 2.67 10.0855 10.0855 0 0 1-2.112 2.193 9.5693 9.5693 0 0 1-2.855 1.484c-1.08.357-2.293.535-3.633.535-1.54 0-2.983-.287-4.327-.86a10.745 10.745 0 0 1-3.521-2.418c-1.006-1.038-1.795-2.273-2.365-3.703-.57-1.43-.856-3.019-.856-4.764 0-1.73.286-3.31.856-4.738.57-1.428 1.34-2.663 2.313-3.703a10.4068 10.4068 0 0 1 3.445-2.433 10.5438 10.5438 0 0 1 8.4 0 10.4088 10.4088 0 0 1 3.445 2.433c.973 1.038 1.743 2.273 2.313 3.704.57 1.43.854 3.009.855 4.737 0 .264-.014.525-.046.786-.035.258-.067.479-.1.661-.033.234-.067.433-.1.598h-16.495a5.2195 5.2195 0 0 0 .63 2.045 6.5874 6.5874 0 0 0 1.321 1.708 5.9805 5.9805 0 0 0 1.899 1.173c.744.292 1.539.44 2.34.436 1.41 0 2.529-.3 3.359-.898.83-.598 1.429-1.147 1.798-1.648h4.904l-.009.002Zm-10.311-12.27c-1.54 0-2.846.52-3.913 1.56-1.068 1.038-1.741 2.398-2.025 4.079h12.373c-.267-1.663-.95-3.02-2.049-4.066-1.099-1.048-2.562-1.572-4.388-1.572h.002v-.001Zm23.256-4.339a3.56 3.56 0 0 1 .66.05c.175.032.34.065.489.099l.4.099v4.6a7.735 7.735 0 0 0-.476-.1c-.168-.033-.341-.07-.524-.112a2.5197 2.5197 0 0 0-.55-.062 5.309 5.309 0 0 0-2.199.459 5.8792 5.8792 0 0 0-1.787 1.23 5.7166 5.7166 0 0 0-1.198 1.792 5.3286 5.3286 0 0 0-.437 2.137v12.977h-4.597v-22.92h3.325l1.023 2.312a7.4437 7.4437 0 0 1 1.475-1.293c.481-.3 1.09-.584 1.824-.857.733-.273 1.59-.411 2.574-.411h-.002Zm8.64-9.333h-4.547v32.503h4.547v-.015l3.913-6.834 4.093 6.849h5.257l-6.672-11.59 6.3-11.013-4.885.003-8.007 13.964.001-23.867Z" />
  <path fill="#2A3BCC"
    d="M95.89 32.503c2.196 0 3.976-1.873 3.976-4.184 0-2.31-1.78-4.183-3.975-4.183-2.196 0-3.976 1.873-3.976 4.183 0 2.31 1.779 4.184 3.975 4.184Z" />
</svg>