<svg xmlns="http://www.w3.org/2000/svg" fill="none" viewBox="0 0 458 255">
  <path fill="#2A3BCC"
    d="M199.398 254.979c71.11 0 128.757-57.079 128.757-127.489C328.155 57.0791 270.509 0 199.398 0v254.979Z" />
  <path fill="#0F2040" fill-rule="evenodd"
    d="M79.4775 190.603c-5.5773 0-10.0986-4.521-10.0986-10.098 0-5.577 4.5213-10.098 10.0986-10.098 5.5773 0 10.0986 4.521 10.0986 10.098 0 5.577-4.5213 10.098-10.0986 10.098Zm0 11.361c-11.8518 0-21.4596-9.608-21.4596-21.459 0-11.851 9.6078-21.459 21.4596-21.459 11.8518 0 21.4595 9.608 21.4595 21.459 0 11.851-9.6078 21.459-21.4595 21.459ZM157.742 87.0969c-5.578 0-10.099-4.5211-10.099-10.0982 0-5.5771 4.521-10.0982 10.099-10.0982 5.577 0 10.098 4.5212 10.098 10.0982 0 5.5771-4.521 10.0982-10.098 10.0982Zm0 11.3605c-11.852 0-21.46-9.6074-21.46-21.4587s9.608-21.4586 21.46-21.4586c11.851 0 21.459 9.6074 21.459 21.4586 0 11.8513-9.608 21.4587-21.459 21.4587Zm-21.46 4.5896-32.82 32.819-32.8209-32.819-32.8205 32.819-28.8037-28.803-8.0334 8.034 36.8371 36.835 32.8205-32.819 32.8209 32.819 32.82-32.819 28.804 28.803 8.033-8.033-36.837-36.836ZM26.4599 68.7939h84.5761V57.4335l-84.5761-.0001v11.3605ZM127.216 175.686l47.968 47.966 8.034-8.033-47.969-47.966-8.033 8.033Zm-9.547-158.144 30.921 17.8512 5.68-9.8385-30.92-17.8512-5.681 9.8385Zm-10.191 228.831 25.247-25.246-8.034-8.033-25.2461 25.246 8.0331 8.033Z"
    clip-rule="evenodd" />
  <path fill="#2A3BCC"
    d="M457.69.0001c-71.54 0-129.534 57.079-129.534 127.4899 0 70.41 57.994 127.489 129.534 127.489V.0001Z" />
</svg>