<svg id="Layer_1" data-name="Layer 1" xmlns="http://www.w3.org/2000/svg" viewBox="0 0 129.68 57.21"><defs><style>.cls-1,.cls-2,.cls-4{fill:#232931;}.cls-1,.cls-4{stroke:#232931;}.cls-3{fill:#4ecca3;}.cls-4{stroke-width:0.5px;}</style></defs><g id="Group_44" data-name="Group 44"><path id="Path_16" data-name="Path 16" class="cls-1" d="M94.86,39.65h24.25a1,1,0,0,0,1-1V13.39a1,1,0,0,0-1-1H94.86a1,1,0,0,0-1,1V38.64A1,1,0,0,0,94.86,39.65Zm24.25-26.87a.61.61,0,0,1,.61.61V38.64a.61.61,0,0,1-.61.61H94.86a.6.6,0,0,1-.6-.61V13.39a.61.61,0,0,1,.6-.61Z" transform="translate(0 0)"/><path id="Path_17" data-name="Path 17" class="cls-2" d="M113.94,17.59a.68.68,0,0,1,.69.68.69.69,0,0,1-.69.69H100a.69.69,0,0,1-.69-.69.68.68,0,0,1,.69-.68Z" transform="translate(0 0)"/><path id="Path_18" data-name="Path 18" class="cls-2" d="M113.94,21.63a.68.68,0,0,1,.69.68.69.69,0,0,1-.69.69H100a.69.69,0,0,1-.69-.69.68.68,0,0,1,.69-.68Z" transform="translate(0 0)"/><path id="Path_19" data-name="Path 19" class="cls-3" d="M107,34.45a4.32,4.32,0,1,0-4.32-4.32h0A4.32,4.32,0,0,0,107,34.45Z" transform="translate(0 0)"/><path id="Path_24" data-name="Path 24" class="cls-4" d="M126.43,8A34.53,34.53,0,0,0,111.8,1.42a34.1,34.1,0,0,0-16.15.83,34.76,34.76,0,0,0-7.54,3.27,44.05,44.05,0,0,0-6.7,5c-2.13,1.86-4.19,3.81-6.41,5.57A36,36,0,0,1,52.65,24c-.67,0-1.34,0-2-.05-.36,0-.37-.59,0-.57a35.4,35.4,0,0,0,23.1-7c2.3-1.73,4.41-3.7,6.56-5.6A49,49,0,0,1,86.88,5.6a34.78,34.78,0,0,1,38.39.87c.53.38,1,.76,1.56,1.16.29.23-.11.62-.4.4Z" transform="translate(0 0)"/><circle id="Ellipse_2" data-name="Ellipse 2" class="cls-2" cx="126.73" cy="7.83" r="2.95"/><circle id="Ellipse_3" data-name="Ellipse 3" class="cls-2" cx="16.97" cy="47.01" r="2.95"/><path id="Path_25" data-name="Path 25" class="cls-1" d="M1.51,30.2H49.65a1,1,0,0,0,1-1v-25a1,1,0,0,0-1-1H1.51a1,1,0,0,0-1,1V29.19A1,1,0,0,0,1.51,30.2ZM49.65,3.53a.61.61,0,0,1,.61.61V29.19a.6.6,0,0,1-.61.6H1.51a.61.61,0,0,1-.61-.6v-25a.61.61,0,0,1,.61-.61Z" transform="translate(0 0)"/><circle id="Ellipse_4" data-name="Ellipse 4" class="cls-3" cx="41.58" cy="12" r="4.11"/><path id="Path_26" data-name="Path 26" class="cls-2" d="M32.08,9.26a.67.67,0,0,1,.68.68.68.68,0,0,1-.68.69H6.15a.68.68,0,0,1-.68-.69.67.67,0,0,1,.68-.68H32.08Z" transform="translate(0 0)"/><path id="Path_27" data-name="Path 27" class="cls-2" d="M32.08,13.37a.68.68,0,0,1,.68.69.67.67,0,0,1-.68.68H18.16a.67.67,0,0,1-.68-.68.68.68,0,0,1,.68-.69H32.08Z" transform="translate(0 0)"/><path id="Path_28" data-name="Path 28" class="cls-2" d="M44.74,20c.52,0,.94.31.94.69s-.42.68-.94.68H6.54c-.52,0-1-.3-1-.68S6,20,6.54,20Z" transform="translate(0 0)"/><path id="Path_29" data-name="Path 29" class="cls-2" d="M44.74,24.07c.52,0,.94.31.94.68s-.42.69-.94.69H6.54c-.52,0-1-.31-1-.69s.43-.68,1-.68Z" transform="translate(0 0)"/><path id="Path_30" data-name="Path 30" class="cls-4" d="M53.52,49.75c-2.71-1.18-5.75-.15-8.31.94-1.31.56-2.62,1.15-4,1.6a22.5,22.5,0,0,1-3.52.83,24.61,24.61,0,0,1-7.22,0,24.9,24.9,0,0,1-7-2,23.61,23.61,0,0,1-6-4c-.23-.2-.45-.41-.67-.63a.28.28,0,0,1,.4-.4,22.61,22.61,0,0,0,5.88,4.15,24.63,24.63,0,0,0,14,2.33,22.33,22.33,0,0,0,3.52-.77,38.33,38.33,0,0,0,3.9-1.51c2.58-1.11,5.45-2.2,8.29-1.43a5.94,5.94,0,0,1,.95.34C54.15,49.41,53.85,49.9,53.52,49.75Z" transform="translate(0 0)"/><path id="Path_31" data-name="Path 31" class="cls-3" d="M54.57,56.72H77.32L72,47.44a1.09,1.09,0,0,0-1.49-.4,1.18,1.18,0,0,0-.4.4l-2.29,4L63.9,44.67a1.37,1.37,0,0,0-1.87-.5,1.33,1.33,0,0,0-.5.5Z" transform="translate(0 0)"/><path id="Path_32" data-name="Path 32" class="cls-1" d="M54.55,56.71H78.8a1,1,0,0,0,1-1V42.17a1,1,0,0,0-1-1H54.55a1,1,0,0,0-1,1V55.7A1,1,0,0,0,54.55,56.71ZM78.8,41.56a.61.61,0,0,1,.61.61V55.7a.61.61,0,0,1-.61.61H54.55a.6.6,0,0,1-.6-.61V42.17a.6.6,0,0,1,.6-.61Z" transform="translate(0 0)"/></g></svg>