<svg xmlns="http://www.w3.org/2000/svg" viewBox="0 0 3245.169 2583.189">
  <defs>
    <style>
      .cls-1 {
        fill: #60bc9d;
      }

      .cls-2 {
        fill: #232931;
      }
    </style>
  </defs>
  <g id="bg-bjerky-bjerk" transform="translate(-294.766 -2817.401)">
    <g id="bjerk-logo" transform="matrix(0.978, -0.208, 0.208, 0.978, 294.765, 4957.596)">
      <path id="Path_7" data-name="Path 7" class="cls-1" d="M14.374,14.063Q28.755,0,51.654,0T88.933,14.063q14.381,14.061,14.377,36.469T88.933,86.987Q74.555,101.052,51.654,101.05T14.374,86.987Q0,72.926,0,50.532T14.374,14.063Z" transform="translate(1182.782 301.857)"/>
      <path id="Path_8" data-name="Path 8" class="cls-2" d="M238.548,188.655A119.117,119.117,0,0,1,267.9,211.764q11.172,12.182,20.272,30.609t9.149,45.293a102.275,102.275,0,0,1-9.729,43.881,112.624,112.624,0,0,1-27.469,36.545,140.406,140.406,0,0,1-41.518,25.294q-23.784,9.528-51.889,9.527H0V0H163.5a120.568,120.568,0,0,1,83.353,33.111,113.341,113.341,0,0,1,25.066,35.45,103.818,103.818,0,0,1,9.1,43.253q0,19.056-6.871,33.58a116.82,116.82,0,0,1-14.522,23.894A92,92,0,0,1,238.548,188.655Zm-176.6-22.488H163.5q24.9,0,41.835-16.247t16.931-38.086q0-21.861-17.087-38.085T163.5,57.47H61.946ZM166.722,345.445a71.814,71.814,0,0,0,27.146-5.156,69.19,69.19,0,0,0,21.843-13.758,63.714,63.714,0,0,0,14.379-20.151,61.833,61.833,0,0,0,0-49.968,63.908,63.908,0,0,0-14.379-20.151,69.277,69.277,0,0,0-21.873-13.734,71.7,71.7,0,0,0-27.114-5.144H61.946V345.445Z" transform="translate(0 0)"/>
      <path id="Path_9" data-name="Path 9" class="cls-2" d="M65.457,114.943h58.765v294.2q0,23.115-6.866,41.391a88.4,88.4,0,0,1-19.314,31.054A88.136,88.136,0,0,1,68.98,501.425a92.533,92.533,0,0,1-36.414,7.031q-13.732,0-23.316-3.123A40.5,40.5,0,0,1,0,501.9V450.988a23.616,23.616,0,0,0,6.057,1.881c2.133.41,4.265.726,6.387.932s4.582.311,7.35.311q19.47,0,32.572-12.8t13.09-32.174ZM94.85,70.277A35.462,35.462,0,0,1,69.3,60.123,33.566,33.566,0,0,1,58.753,34.98,33.193,33.193,0,0,1,69.3,10.155,35.358,35.358,0,0,1,94.85,0a35.527,35.527,0,0,1,25.545,10.155A32.989,32.989,0,0,1,130.926,34.98a33.638,33.638,0,0,1-10.532,24.99A35.235,35.235,0,0,1,94.85,70.277Z" transform="translate(261.416 0.001)"/>
      <path id="Path_10" data-name="Path 10" class="cls-2" d="M268.258,208.019a165.433,165.433,0,0,1-18.532,33.426,127.4,127.4,0,0,1-26.816,27.487,121.93,121.93,0,0,1-36.245,18.581q-20.592,6.707-46.129,6.713a140.1,140.1,0,0,1-54.944-10.775,136.143,136.143,0,0,1-44.7-30.293,140.35,140.35,0,0,1-30.019-46.383Q.023,179.911,0,147.116q0-32.484,10.862-59.336A146.537,146.537,0,0,1,40.217,41.4,132.155,132.155,0,0,1,83.95,10.927a135.559,135.559,0,0,1,106.642,0A132.169,132.169,0,0,1,234.323,41.4,145.74,145.74,0,0,1,263.68,87.779q10.83,26.863,10.861,59.336a77.282,77.282,0,0,1-.6,9.844c-.442,3.223-.856,5.982-1.282,8.274q-.632,4.389-1.282,7.5H61.956a65.169,65.169,0,0,0,7.989,25.605,82.861,82.861,0,0,0,16.773,21.4,75.867,75.867,0,0,0,24.1,14.677,81.25,81.25,0,0,0,29.71,5.467q26.821,0,42.633-11.238t22.823-20.623ZM137.331,54.357q-29.357,0-49.67,19.518t-25.7,51.07H219.069q-5.1-31.237-26.016-50.912T137.331,54.357Z" transform="translate(418.4 111.809)"/>
      <path id="Path_11" data-name="Path 11" class="cls-2" d="M130.628.006a47.367,47.367,0,0,1,8.45.627q3.373.632,6.235,1.248c1.7.423,3.4.832,5.111,1.254V60.914q-2.567-.628-6.069-1.248-3.207-.623-6.7-1.406a32.294,32.294,0,0,0-7.022-.78,68.849,68.849,0,0,0-28.11,5.771A75.512,75.512,0,0,0,79.676,78.714a71.855,71.855,0,0,0-15.319,22.493,66.364,66.364,0,0,0-5.592,26.859V291.1H0V3.134H42.484l13.09,29.044A94.056,94.056,0,0,1,74.421,15.937,134.418,134.418,0,0,1,97.729,5.162Q111.783.005,130.628.006Z" transform="translate(722.283 111.809)"/>
      <path id="Path_12" data-name="Path 12" class="cls-2" d="M58.765,0H0V402.911H58.765v-.182l50.556-84.708,52.888,84.89h67.948L143.936,259.241l81.412-136.517-63.139.041L58.765,295.862Z" transform="translate(908.724 0.001)"/>
    </g>
    <g id="bjerk-logo-2" data-name="bjerk-logo" transform="matrix(0.978, -0.208, 0.208, 0.978, 770.617, 4481.746)">
      <path id="Path_7-2" data-name="Path 7" class="cls-1" d="M14.374,14.063Q28.755,0,51.654,0T88.933,14.063q14.381,14.061,14.377,36.469T88.933,86.987Q74.555,101.052,51.654,101.05T14.374,86.987Q0,72.926,0,50.532T14.374,14.063Z" transform="translate(1182.782 301.857)"/>
      <path id="Path_8-2" data-name="Path 8" class="cls-2" d="M238.548,188.655A119.117,119.117,0,0,1,267.9,211.764q11.172,12.182,20.272,30.609t9.149,45.293a102.275,102.275,0,0,1-9.729,43.881,112.624,112.624,0,0,1-27.469,36.545,140.406,140.406,0,0,1-41.518,25.294q-23.784,9.528-51.889,9.527H0V0H163.5a120.568,120.568,0,0,1,83.353,33.111,113.341,113.341,0,0,1,25.066,35.45,103.818,103.818,0,0,1,9.1,43.253q0,19.056-6.871,33.58a116.82,116.82,0,0,1-14.522,23.894A92,92,0,0,1,238.548,188.655Zm-176.6-22.488H163.5q24.9,0,41.835-16.247t16.931-38.086q0-21.861-17.087-38.085T163.5,57.47H61.946ZM166.722,345.445a71.814,71.814,0,0,0,27.146-5.156,69.19,69.19,0,0,0,21.843-13.758,63.714,63.714,0,0,0,14.379-20.151,61.833,61.833,0,0,0,0-49.968,63.908,63.908,0,0,0-14.379-20.151,69.277,69.277,0,0,0-21.873-13.734,71.7,71.7,0,0,0-27.114-5.144H61.946V345.445Z" transform="translate(0 0)"/>
      <path id="Path_9-2" data-name="Path 9" class="cls-2" d="M65.457,114.943h58.765v294.2q0,23.115-6.866,41.391a88.4,88.4,0,0,1-19.314,31.054A88.136,88.136,0,0,1,68.98,501.425a92.533,92.533,0,0,1-36.414,7.031q-13.732,0-23.316-3.123A40.5,40.5,0,0,1,0,501.9V450.988a23.616,23.616,0,0,0,6.057,1.881c2.133.41,4.265.726,6.387.932s4.582.311,7.35.311q19.47,0,32.572-12.8t13.09-32.174ZM94.85,70.277A35.462,35.462,0,0,1,69.3,60.123,33.566,33.566,0,0,1,58.753,34.98,33.193,33.193,0,0,1,69.3,10.155,35.358,35.358,0,0,1,94.85,0a35.527,35.527,0,0,1,25.545,10.155A32.989,32.989,0,0,1,130.926,34.98a33.638,33.638,0,0,1-10.532,24.99A35.235,35.235,0,0,1,94.85,70.277Z" transform="translate(261.416 0.001)"/>
      <path id="Path_10-2" data-name="Path 10" class="cls-2" d="M268.258,208.019a165.433,165.433,0,0,1-18.532,33.426,127.4,127.4,0,0,1-26.816,27.487,121.93,121.93,0,0,1-36.245,18.581q-20.592,6.707-46.129,6.713a140.1,140.1,0,0,1-54.944-10.775,136.143,136.143,0,0,1-44.7-30.293,140.35,140.35,0,0,1-30.019-46.383Q.023,179.911,0,147.116q0-32.484,10.862-59.336A146.537,146.537,0,0,1,40.217,41.4,132.155,132.155,0,0,1,83.95,10.927a135.559,135.559,0,0,1,106.642,0A132.169,132.169,0,0,1,234.323,41.4,145.74,145.74,0,0,1,263.68,87.779q10.83,26.863,10.861,59.336a77.282,77.282,0,0,1-.6,9.844c-.442,3.223-.856,5.982-1.282,8.274q-.632,4.389-1.282,7.5H61.956a65.169,65.169,0,0,0,7.989,25.605,82.861,82.861,0,0,0,16.773,21.4,75.867,75.867,0,0,0,24.1,14.677,81.25,81.25,0,0,0,29.71,5.467q26.821,0,42.633-11.238t22.823-20.623ZM137.331,54.357q-29.357,0-49.67,19.518t-25.7,51.07H219.069q-5.1-31.237-26.016-50.912T137.331,54.357Z" transform="translate(418.4 111.809)"/>
      <path id="Path_11-2" data-name="Path 11" class="cls-2" d="M130.628.006a47.367,47.367,0,0,1,8.45.627q3.373.632,6.235,1.248c1.7.423,3.4.832,5.111,1.254V60.914q-2.567-.628-6.069-1.248-3.207-.623-6.7-1.406a32.294,32.294,0,0,0-7.022-.78,68.849,68.849,0,0,0-28.11,5.771A75.512,75.512,0,0,0,79.676,78.714a71.855,71.855,0,0,0-15.319,22.493,66.364,66.364,0,0,0-5.592,26.859V291.1H0V3.134H42.484l13.09,29.044A94.056,94.056,0,0,1,74.421,15.937,134.418,134.418,0,0,1,97.729,5.162Q111.783.005,130.628.006Z" transform="translate(722.283 111.809)"/>
      <path id="Path_12-2" data-name="Path 12" class="cls-2" d="M58.765,0H0V402.911H58.765v-.182l50.556-84.708,52.888,84.89h67.948L143.936,259.241l81.412-136.517-63.139.041L58.765,295.862Z" transform="translate(908.724 0.001)"/>
    </g>
    <g id="bjerk-logo-3" data-name="bjerk-logo" transform="matrix(0.978, -0.208, 0.208, 0.978, 1246.471, 4005.893)">
      <path id="Path_7-3" data-name="Path 7" class="cls-1" d="M14.374,14.063Q28.755,0,51.654,0T88.933,14.063q14.381,14.061,14.377,36.469T88.933,86.987Q74.555,101.052,51.654,101.05T14.374,86.987Q0,72.926,0,50.532T14.374,14.063Z" transform="translate(1182.782 301.857)"/>
      <path id="Path_8-3" data-name="Path 8" class="cls-2" d="M238.548,188.655A119.117,119.117,0,0,1,267.9,211.764q11.172,12.182,20.272,30.609t9.149,45.293a102.275,102.275,0,0,1-9.729,43.881,112.624,112.624,0,0,1-27.469,36.545,140.406,140.406,0,0,1-41.518,25.294q-23.784,9.528-51.889,9.527H0V0H163.5a120.568,120.568,0,0,1,83.353,33.111,113.341,113.341,0,0,1,25.066,35.45,103.818,103.818,0,0,1,9.1,43.253q0,19.056-6.871,33.58a116.82,116.82,0,0,1-14.522,23.894A92,92,0,0,1,238.548,188.655Zm-176.6-22.488H163.5q24.9,0,41.835-16.247t16.931-38.086q0-21.861-17.087-38.085T163.5,57.47H61.946ZM166.722,345.445a71.814,71.814,0,0,0,27.146-5.156,69.19,69.19,0,0,0,21.843-13.758,63.714,63.714,0,0,0,14.379-20.151,61.833,61.833,0,0,0,0-49.968,63.908,63.908,0,0,0-14.379-20.151,69.277,69.277,0,0,0-21.873-13.734,71.7,71.7,0,0,0-27.114-5.144H61.946V345.445Z" transform="translate(0 0)"/>
      <path id="Path_9-3" data-name="Path 9" class="cls-2" d="M65.457,114.943h58.765v294.2q0,23.115-6.866,41.391a88.4,88.4,0,0,1-19.314,31.054A88.136,88.136,0,0,1,68.98,501.425a92.533,92.533,0,0,1-36.414,7.031q-13.732,0-23.316-3.123A40.5,40.5,0,0,1,0,501.9V450.988a23.616,23.616,0,0,0,6.057,1.881c2.133.41,4.265.726,6.387.932s4.582.311,7.35.311q19.47,0,32.572-12.8t13.09-32.174ZM94.85,70.277A35.462,35.462,0,0,1,69.3,60.123,33.566,33.566,0,0,1,58.753,34.98,33.193,33.193,0,0,1,69.3,10.155,35.358,35.358,0,0,1,94.85,0a35.527,35.527,0,0,1,25.545,10.155A32.989,32.989,0,0,1,130.926,34.98a33.638,33.638,0,0,1-10.532,24.99A35.235,35.235,0,0,1,94.85,70.277Z" transform="translate(261.416 0.001)"/>
      <path id="Path_10-3" data-name="Path 10" class="cls-2" d="M268.258,208.019a165.433,165.433,0,0,1-18.532,33.426,127.4,127.4,0,0,1-26.816,27.487,121.93,121.93,0,0,1-36.245,18.581q-20.592,6.707-46.129,6.713a140.1,140.1,0,0,1-54.944-10.775,136.143,136.143,0,0,1-44.7-30.293,140.35,140.35,0,0,1-30.019-46.383Q.023,179.911,0,147.116q0-32.484,10.862-59.336A146.537,146.537,0,0,1,40.217,41.4,132.155,132.155,0,0,1,83.95,10.927a135.559,135.559,0,0,1,106.642,0A132.169,132.169,0,0,1,234.323,41.4,145.74,145.74,0,0,1,263.68,87.779q10.83,26.863,10.861,59.336a77.282,77.282,0,0,1-.6,9.844c-.442,3.223-.856,5.982-1.282,8.274q-.632,4.389-1.282,7.5H61.956a65.169,65.169,0,0,0,7.989,25.605,82.861,82.861,0,0,0,16.773,21.4,75.867,75.867,0,0,0,24.1,14.677,81.25,81.25,0,0,0,29.71,5.467q26.821,0,42.633-11.238t22.823-20.623ZM137.331,54.357q-29.357,0-49.67,19.518t-25.7,51.07H219.069q-5.1-31.237-26.016-50.912T137.331,54.357Z" transform="translate(418.4 111.809)"/>
      <path id="Path_11-3" data-name="Path 11" class="cls-2" d="M130.628.006a47.367,47.367,0,0,1,8.45.627q3.373.632,6.235,1.248c1.7.423,3.4.832,5.111,1.254V60.914q-2.567-.628-6.069-1.248-3.207-.623-6.7-1.406a32.294,32.294,0,0,0-7.022-.78,68.849,68.849,0,0,0-28.11,5.771A75.512,75.512,0,0,0,79.676,78.714a71.855,71.855,0,0,0-15.319,22.493,66.364,66.364,0,0,0-5.592,26.859V291.1H0V3.134H42.484l13.09,29.044A94.056,94.056,0,0,1,74.421,15.937,134.418,134.418,0,0,1,97.729,5.162Q111.783.005,130.628.006Z" transform="translate(722.283 111.809)"/>
      <path id="Path_12-3" data-name="Path 12" class="cls-2" d="M58.765,0H0V402.911H58.765v-.182l50.556-84.708,52.888,84.89h67.948L143.936,259.241l81.412-136.517-63.139.041L58.765,295.862Z" transform="translate(908.724 0.001)"/>
    </g>
    <g id="bjerk-logo-4" data-name="bjerk-logo" transform="matrix(0.978, -0.208, 0.208, 0.978, 1722.324, 3530.039)">
      <path id="Path_7-4" data-name="Path 7" class="cls-1" d="M14.374,14.063Q28.755,0,51.654,0T88.933,14.063q14.381,14.061,14.377,36.469T88.933,86.987Q74.555,101.052,51.654,101.05T14.374,86.987Q0,72.926,0,50.532T14.374,14.063Z" transform="translate(1182.782 301.857)"/>
      <path id="Path_8-4" data-name="Path 8" class="cls-2" d="M238.548,188.655A119.117,119.117,0,0,1,267.9,211.764q11.172,12.182,20.272,30.609t9.149,45.293a102.275,102.275,0,0,1-9.729,43.881,112.624,112.624,0,0,1-27.469,36.545,140.406,140.406,0,0,1-41.518,25.294q-23.784,9.528-51.889,9.527H0V0H163.5a120.568,120.568,0,0,1,83.353,33.111,113.341,113.341,0,0,1,25.066,35.45,103.818,103.818,0,0,1,9.1,43.253q0,19.056-6.871,33.58a116.82,116.82,0,0,1-14.522,23.894A92,92,0,0,1,238.548,188.655Zm-176.6-22.488H163.5q24.9,0,41.835-16.247t16.931-38.086q0-21.861-17.087-38.085T163.5,57.47H61.946ZM166.722,345.445a71.814,71.814,0,0,0,27.146-5.156,69.19,69.19,0,0,0,21.843-13.758,63.714,63.714,0,0,0,14.379-20.151,61.833,61.833,0,0,0,0-49.968,63.908,63.908,0,0,0-14.379-20.151,69.277,69.277,0,0,0-21.873-13.734,71.7,71.7,0,0,0-27.114-5.144H61.946V345.445Z" transform="translate(0 0)"/>
      <path id="Path_9-4" data-name="Path 9" class="cls-2" d="M65.457,114.943h58.765v294.2q0,23.115-6.866,41.391a88.4,88.4,0,0,1-19.314,31.054A88.136,88.136,0,0,1,68.98,501.425a92.533,92.533,0,0,1-36.414,7.031q-13.732,0-23.316-3.123A40.5,40.5,0,0,1,0,501.9V450.988a23.616,23.616,0,0,0,6.057,1.881c2.133.41,4.265.726,6.387.932s4.582.311,7.35.311q19.47,0,32.572-12.8t13.09-32.174ZM94.85,70.277A35.462,35.462,0,0,1,69.3,60.123,33.566,33.566,0,0,1,58.753,34.98,33.193,33.193,0,0,1,69.3,10.155,35.358,35.358,0,0,1,94.85,0a35.527,35.527,0,0,1,25.545,10.155A32.989,32.989,0,0,1,130.926,34.98a33.638,33.638,0,0,1-10.532,24.99A35.235,35.235,0,0,1,94.85,70.277Z" transform="translate(261.416 0.001)"/>
      <path id="Path_10-4" data-name="Path 10" class="cls-2" d="M268.258,208.019a165.433,165.433,0,0,1-18.532,33.426,127.4,127.4,0,0,1-26.816,27.487,121.93,121.93,0,0,1-36.245,18.581q-20.592,6.707-46.129,6.713a140.1,140.1,0,0,1-54.944-10.775,136.143,136.143,0,0,1-44.7-30.293,140.35,140.35,0,0,1-30.019-46.383Q.023,179.911,0,147.116q0-32.484,10.862-59.336A146.537,146.537,0,0,1,40.217,41.4,132.155,132.155,0,0,1,83.95,10.927a135.559,135.559,0,0,1,106.642,0A132.169,132.169,0,0,1,234.323,41.4,145.74,145.74,0,0,1,263.68,87.779q10.83,26.863,10.861,59.336a77.282,77.282,0,0,1-.6,9.844c-.442,3.223-.856,5.982-1.282,8.274q-.632,4.389-1.282,7.5H61.956a65.169,65.169,0,0,0,7.989,25.605,82.861,82.861,0,0,0,16.773,21.4,75.867,75.867,0,0,0,24.1,14.677,81.25,81.25,0,0,0,29.71,5.467q26.821,0,42.633-11.238t22.823-20.623ZM137.331,54.357q-29.357,0-49.67,19.518t-25.7,51.07H219.069q-5.1-31.237-26.016-50.912T137.331,54.357Z" transform="translate(418.4 111.809)"/>
      <path id="Path_11-4" data-name="Path 11" class="cls-2" d="M130.628.006a47.367,47.367,0,0,1,8.45.627q3.373.632,6.235,1.248c1.7.423,3.4.832,5.111,1.254V60.914q-2.567-.628-6.069-1.248-3.207-.623-6.7-1.406a32.294,32.294,0,0,0-7.022-.78,68.849,68.849,0,0,0-28.11,5.771A75.512,75.512,0,0,0,79.676,78.714a71.855,71.855,0,0,0-15.319,22.493,66.364,66.364,0,0,0-5.592,26.859V291.1H0V3.134H42.484l13.09,29.044A94.056,94.056,0,0,1,74.421,15.937,134.418,134.418,0,0,1,97.729,5.162Q111.783.005,130.628.006Z" transform="translate(722.283 111.809)"/>
      <path id="Path_12-4" data-name="Path 12" class="cls-2" d="M58.765,0H0V402.911H58.765v-.182l50.556-84.708,52.888,84.89h67.948L143.936,259.241l81.412-136.517-63.139.041L58.765,295.862Z" transform="translate(908.724 0.001)"/>
    </g>
    <g id="bjerk-logo-5" data-name="bjerk-logo" transform="matrix(0.978, -0.208, 0.208, 0.978, 2198.178, 3054.187)">
      <path id="Path_7-5" data-name="Path 7" class="cls-1" d="M14.374,14.063Q28.755,0,51.654,0T88.933,14.063q14.381,14.061,14.377,36.469T88.933,86.987Q74.555,101.052,51.654,101.05T14.374,86.987Q0,72.926,0,50.532T14.374,14.063Z" transform="translate(1182.782 301.857)"/>
      <path id="Path_8-5" data-name="Path 8" class="cls-2" d="M238.548,188.655A119.117,119.117,0,0,1,267.9,211.764q11.172,12.182,20.272,30.609t9.149,45.293a102.275,102.275,0,0,1-9.729,43.881,112.624,112.624,0,0,1-27.469,36.545,140.406,140.406,0,0,1-41.518,25.294q-23.784,9.528-51.889,9.527H0V0H163.5a120.568,120.568,0,0,1,83.353,33.111,113.341,113.341,0,0,1,25.066,35.45,103.818,103.818,0,0,1,9.1,43.253q0,19.056-6.871,33.58a116.82,116.82,0,0,1-14.522,23.894A92,92,0,0,1,238.548,188.655Zm-176.6-22.488H163.5q24.9,0,41.835-16.247t16.931-38.086q0-21.861-17.087-38.085T163.5,57.47H61.946ZM166.722,345.445a71.814,71.814,0,0,0,27.146-5.156,69.19,69.19,0,0,0,21.843-13.758,63.714,63.714,0,0,0,14.379-20.151,61.833,61.833,0,0,0,0-49.968,63.908,63.908,0,0,0-14.379-20.151,69.277,69.277,0,0,0-21.873-13.734,71.7,71.7,0,0,0-27.114-5.144H61.946V345.445Z" transform="translate(0 0)"/>
      <path id="Path_9-5" data-name="Path 9" class="cls-2" d="M65.457,114.943h58.765v294.2q0,23.115-6.866,41.391a88.4,88.4,0,0,1-19.314,31.054A88.136,88.136,0,0,1,68.98,501.425a92.533,92.533,0,0,1-36.414,7.031q-13.732,0-23.316-3.123A40.5,40.5,0,0,1,0,501.9V450.988a23.616,23.616,0,0,0,6.057,1.881c2.133.41,4.265.726,6.387.932s4.582.311,7.35.311q19.47,0,32.572-12.8t13.09-32.174ZM94.85,70.277A35.462,35.462,0,0,1,69.3,60.123,33.566,33.566,0,0,1,58.753,34.98,33.193,33.193,0,0,1,69.3,10.155,35.358,35.358,0,0,1,94.85,0a35.527,35.527,0,0,1,25.545,10.155A32.989,32.989,0,0,1,130.926,34.98a33.638,33.638,0,0,1-10.532,24.99A35.235,35.235,0,0,1,94.85,70.277Z" transform="translate(261.416 0.001)"/>
      <path id="Path_10-5" data-name="Path 10" class="cls-2" d="M268.258,208.019a165.433,165.433,0,0,1-18.532,33.426,127.4,127.4,0,0,1-26.816,27.487,121.93,121.93,0,0,1-36.245,18.581q-20.592,6.707-46.129,6.713a140.1,140.1,0,0,1-54.944-10.775,136.143,136.143,0,0,1-44.7-30.293,140.35,140.35,0,0,1-30.019-46.383Q.023,179.911,0,147.116q0-32.484,10.862-59.336A146.537,146.537,0,0,1,40.217,41.4,132.155,132.155,0,0,1,83.95,10.927a135.559,135.559,0,0,1,106.642,0A132.169,132.169,0,0,1,234.323,41.4,145.74,145.74,0,0,1,263.68,87.779q10.83,26.863,10.861,59.336a77.282,77.282,0,0,1-.6,9.844c-.442,3.223-.856,5.982-1.282,8.274q-.632,4.389-1.282,7.5H61.956a65.169,65.169,0,0,0,7.989,25.605,82.861,82.861,0,0,0,16.773,21.4,75.867,75.867,0,0,0,24.1,14.677,81.25,81.25,0,0,0,29.71,5.467q26.821,0,42.633-11.238t22.823-20.623ZM137.331,54.357q-29.357,0-49.67,19.518t-25.7,51.07H219.069q-5.1-31.237-26.016-50.912T137.331,54.357Z" transform="translate(418.4 111.809)"/>
      <path id="Path_11-5" data-name="Path 11" class="cls-2" d="M130.628.006a47.367,47.367,0,0,1,8.45.627q3.373.632,6.235,1.248c1.7.423,3.4.832,5.111,1.254V60.914q-2.567-.628-6.069-1.248-3.207-.623-6.7-1.406a32.294,32.294,0,0,0-7.022-.78,68.849,68.849,0,0,0-28.11,5.771A75.512,75.512,0,0,0,79.676,78.714a71.855,71.855,0,0,0-15.319,22.493,66.364,66.364,0,0,0-5.592,26.859V291.1H0V3.134H42.484l13.09,29.044A94.056,94.056,0,0,1,74.421,15.937,134.418,134.418,0,0,1,97.729,5.162Q111.783.005,130.628.006Z" transform="translate(722.283 111.809)"/>
      <path id="Path_12-5" data-name="Path 12" class="cls-2" d="M58.765,0H0V402.911H58.765v-.182l50.556-84.708,52.888,84.89h67.948L143.936,259.241l81.412-136.517-63.139.041L58.765,295.862Z" transform="translate(908.724 0.001)"/>
    </g>
  </g>
</svg>
