<svg xmlns="http://www.w3.org/2000/svg" width="100%" height="100%" viewBox="0 0 396.338 328.121">
  <g id="undraw_map_1r69" transform="translate(0.254)">
    <ellipse id="Ellipse_9" data-name="Ellipse 9" cx="8.574" cy="20.814" rx="8.574" ry="20.814" transform="translate(351.873 298.685) rotate(-45)" fill="#4ecca3" opacity="0.1"/>
    <ellipse id="Ellipse_10" data-name="Ellipse 10" cx="4.602" cy="6.026" rx="4.602" ry="6.026" transform="translate(369.522 296.647)" fill="#232931"/>
    <ellipse id="Ellipse_11" data-name="Ellipse 11" cx="4.602" cy="6.026" rx="4.602" ry="6.026" transform="translate(369.522 289.283)" fill="#232931"/>
    <ellipse id="Ellipse_12" data-name="Ellipse 12" cx="4.602" cy="6.026" rx="4.602" ry="6.026" transform="translate(369.522 281.919)" fill="#232931"/>
    <ellipse id="Ellipse_13" data-name="Ellipse 13" cx="4.602" cy="6.026" rx="4.602" ry="6.026" transform="translate(369.522 274.555)" fill="#232931"/>
    <ellipse id="Ellipse_14" data-name="Ellipse 14" cx="4.602" cy="6.026" rx="4.602" ry="6.026" transform="translate(369.522 267.191)" fill="#232931"/>
    <ellipse id="Ellipse_15" data-name="Ellipse 15" cx="4.602" cy="6.026" rx="4.602" ry="6.026" transform="translate(369.522 259.826)" fill="#3f3d56"/>
    <ellipse id="Ellipse_16" data-name="Ellipse 16" cx="4.602" cy="6.026" rx="4.602" ry="6.026" transform="translate(369.522 252.462)" fill="#3f3d56"/>
    <path id="Path_225" data-name="Path 225" d="M998.458,510.8a21.931,21.931,0,0,0,1.716-2.522l-12.095-1.986,13.081.094a22.106,22.106,0,0,0,.429-17.469l-17.546,9.106,16.174-11.9A22.05,22.05,0,1,0,963.8,510.8a21.945,21.945,0,0,0-2.513,4.019l15.7,8.149L960.26,517.35a22.067,22.067,0,0,0,3.556,20.7,22.045,22.045,0,1,0,34.655,0,22.05,22.05,0,0,0,0-27.261Z" transform="translate(-607.105 -302.708)" fill="#4ecca3"/>
    <path id="Path_226" data-name="Path 226" d="M959.1,589.677a21.942,21.942,0,0,0,4.718,13.63,22.045,22.045,0,1,0,34.655,0C1001.427,599.559,959.1,587.2,959.1,589.677Z" transform="translate(-607.119 -367.954)" opacity="0.1"/>
    <path id="Path_227" data-name="Path 227" d="M402.082,0V308.807L297.43,294.224,170.215,320.177l-1.025.21L67.97,292.508V24.018L173.05,0,287.995,24.018l4.37-.922Z" transform="translate(-38.963)" fill="#232931"/>
    <path id="Path_228" data-name="Path 228" d="M407.912,39.32v276.3l-93.633-13.047L200.454,325.794l-.918.184-90.566-24.94V60.808L202.993,39.32,305.834,60.808l3.912-.823Z" transform="translate(-62.378 -22.456)" fill="#fff"/>
    <path id="Path_229" data-name="Path 229" d="M433.575,294.224,306.36,320.177,309.2,0,424.14,24.018l4.37-.922Z" transform="translate(-175.108)" fill="#eee" opacity="0.595"/>
    <g id="Group_64" data-name="Group 64" transform="translate(46.592 59.188)">
      <path id="Path_230" data-name="Path 230" d="M573.35,138l.049,89.854h35.193V190.969h60.274l7.079-9.624" transform="translate(-377.003 -138)" fill="none" stroke="#eee" stroke-miterlimit="10" stroke-width="3"/>
      <path id="Path_231" data-name="Path 231" d="M88.97,199.36H219.833l8.09-3.86h3.236v86.637h56.633l2.427,7.72v39.03h43.688v48.251" transform="translate(-88.565 -170.838)" fill="none" stroke="#eee" stroke-miterlimit="10" stroke-width="3"/>
      <line id="Line_1" data-name="Line 1" y1="95.001" transform="translate(159.879 111.299)" fill="none" stroke="#eee" stroke-miterlimit="10" stroke-width="3"/>
      <line id="Line_2" data-name="Line 2" x1="139.063" transform="translate(159.879 180.849)" fill="none" stroke="#eee" stroke-miterlimit="10" stroke-width="3"/>
      <line id="Line_3" data-name="Line 3" y2="206.3" transform="translate(264.113)" fill="none" stroke="#eee" stroke-miterlimit="10" stroke-width="3"/>
      <line id="Line_4" data-name="Line 4" x2="298.942" transform="translate(0 162.612)" fill="none" stroke="#eee" stroke-miterlimit="10" stroke-width="3"/>
      <line id="Line_5" data-name="Line 5" y1="206.3" transform="translate(36.383)" fill="none" stroke="#eee" stroke-miterlimit="10" stroke-width="3"/>
      <line id="Line_6" data-name="Line 6" y2="206.3" transform="translate(105.872)" fill="none" stroke="#eee" stroke-miterlimit="10" stroke-width="3"/>
      <line id="Line_7" data-name="Line 7" x2="231.184" y2="0.858" transform="translate(0.405 52.111)" fill="none" stroke="#eee" stroke-miterlimit="10" stroke-width="3"/>
      <line id="Line_8" data-name="Line 8" y2="205.927" transform="translate(67.689 0.373)" fill="none" stroke="#eee" stroke-miterlimit="10" stroke-width="3"/>
      <path id="Path_232" data-name="Path 232" d="M87.97,370.82H193.842l54.008,62.756" transform="translate(-87.97 -270.964)" fill="none" stroke="#eee" stroke-miterlimit="10" stroke-width="3"/>
      <line id="Line_9" data-name="Line 9" y2="111.299" transform="translate(171.578)" fill="none" stroke="#eee" stroke-miterlimit="10" stroke-width="3"/>
      <line id="Line_10" data-name="Line 10" x2="139.063" transform="translate(159.879 131.234)" fill="none" stroke="#eee" stroke-miterlimit="10" stroke-width="3"/>
    </g>
    <path id="Path_233" data-name="Path 233" d="M528.289,416.586H484.97V397.714l40.96-.214,2.573,7.291Z" transform="translate(-277.112 -227.013)" fill="#4ecca3"/>
    <path id="Path_234" data-name="Path 234" d="M642.5,287.15a23.709,23.709,0,0,0-23.709,23.709c0,13.094,23.709,55.637,23.709,55.637s23.709-42.525,23.709-55.637A23.71,23.71,0,0,0,642.5,287.15Zm0,33.823a10.431,10.431,0,1,1,10.431-10.431A10.431,10.431,0,0,1,642.5,320.973Z" transform="translate(-412.768 -195.366)" fill="#4ecca3"/>
    <path id="Path_235" data-name="Path 235" d="M642.5,287.15a23.709,23.709,0,0,0-23.709,23.709c0,13.094,23.709,55.637,23.709,55.637s23.709-42.525,23.709-55.637A23.71,23.71,0,0,0,642.5,287.15Zm0,33.823a10.431,10.431,0,1,1,10.431-10.431A10.431,10.431,0,0,1,642.5,320.973Z" transform="translate(-412.768 -195.366)" opacity="0.1"/>
    <path id="Path_236" data-name="Path 236" d="M642.5,295.15a23.709,23.709,0,0,0-23.709,23.709c0,13.094,23.709,55.637,23.709,55.637s23.709-42.525,23.709-55.637A23.71,23.71,0,0,0,642.5,295.15Zm0,33.823a10.431,10.431,0,1,1,10.431-10.431A10.431,10.431,0,0,1,642.5,328.973Z" transform="translate(-412.768 -199.935)" fill="#4ecca3"/>
    <ellipse id="Ellipse_17" data-name="Ellipse 17" cx="14.347" cy="5.91" rx="14.347" ry="5.91" transform="translate(203.845 314.808) rotate(-23.3)" fill="#4ecca3" opacity="0.1"/>
    <ellipse id="Ellipse_18" data-name="Ellipse 18" cx="3.174" cy="4.152" rx="3.174" ry="4.152" transform="translate(216.015 308.073)" fill="#393e46"/>
    <ellipse id="Ellipse_19" data-name="Ellipse 19" cx="3.174" cy="4.152" rx="3.174" ry="4.152" transform="translate(216.015 302.995)" fill="#393e46"/>
    <ellipse id="Ellipse_20" data-name="Ellipse 20" cx="3.174" cy="4.152" rx="3.174" ry="4.152" transform="translate(216.015 297.921)" fill="#393e46"/>
    <ellipse id="Ellipse_21" data-name="Ellipse 21" cx="3.174" cy="4.152" rx="3.174" ry="4.152" transform="translate(216.015 292.847)" fill="#393e46"/>
    <ellipse id="Ellipse_22" data-name="Ellipse 22" cx="3.174" cy="4.152" rx="3.174" ry="4.152" transform="translate(216.015 287.769)" fill="#393e46"/>
    <ellipse id="Ellipse_23" data-name="Ellipse 23" cx="3.174" cy="4.152" rx="3.174" ry="4.152" transform="translate(216.015 282.695)" fill="#3f3d56"/>
    <ellipse id="Ellipse_24" data-name="Ellipse 24" cx="3.174" cy="4.152" rx="3.174" ry="4.152" transform="translate(216.015 277.621)" fill="#3f3d56"/>
    <path id="Path_237" data-name="Path 237" d="M617.468,616.378a15.491,15.491,0,0,1-1.184-1.716l8.338-1.372-9.007.069a15.243,15.243,0,0,1-.292-12.039l12.095,6.253-11.151-8.2a15.2,15.2,0,1,1,25.095,17.006,15.247,15.247,0,0,1,1.716,2.771l-10.812,5.623,11.537-3.86a15.2,15.2,0,0,1-2.449,14.269,15.2,15.2,0,1,1-23.885,0,15.2,15.2,0,0,1,0-18.79Z" transform="translate(-410.155 -369.341)" fill="#4ecca3"/>
    <path id="Path_238" data-name="Path 238" d="M644.6,670.707a15.132,15.132,0,0,1-3.251,9.4,15.2,15.2,0,1,1-23.885,0C615.431,677.531,644.6,669.017,644.6,670.707Z" transform="translate(-410.155 -414.29)" opacity="0.1"/>
    <ellipse id="Ellipse_25" data-name="Ellipse 25" cx="8.574" cy="20.814" rx="8.574" ry="20.814" transform="translate(-0.254 289.249) rotate(-45)" fill="#4ecca3" opacity="0.1"/>
    <ellipse id="Ellipse_26" data-name="Ellipse 26" cx="4.602" cy="6.026" rx="4.602" ry="6.026" transform="translate(17.397 287.212)" fill="#232931"/>
    <ellipse id="Ellipse_27" data-name="Ellipse 27" cx="4.602" cy="6.026" rx="4.602" ry="6.026" transform="translate(17.397 279.847)" fill="#232931"/>
    <ellipse id="Ellipse_28" data-name="Ellipse 28" cx="4.602" cy="6.026" rx="4.602" ry="6.026" transform="translate(17.397 272.483)" fill="#232931"/>
    <ellipse id="Ellipse_29" data-name="Ellipse 29" cx="4.602" cy="6.026" rx="4.602" ry="6.026" transform="translate(17.397 265.119)" fill="#232931"/>
    <ellipse id="Ellipse_30" data-name="Ellipse 30" cx="4.602" cy="6.026" rx="4.602" ry="6.026" transform="translate(17.397 257.755)" fill="#232931"/>
    <ellipse id="Ellipse_31" data-name="Ellipse 31" cx="4.602" cy="6.026" rx="4.602" ry="6.026" transform="translate(17.397 250.391)" fill="#3f3d56"/>
    <ellipse id="Ellipse_32" data-name="Ellipse 32" cx="4.602" cy="6.026" rx="4.602" ry="6.026" transform="translate(17.397 243.026)" fill="#3f3d56"/>
    <path id="Path_239" data-name="Path 239" d="M177.458,488.8a21.928,21.928,0,0,0,1.716-2.522l-12.095-1.986,13.081.094a22.105,22.105,0,0,0,.429-17.469l-17.546,9.105,16.174-11.9A22.05,22.05,0,1,0,142.8,488.8a21.94,21.94,0,0,0-2.513,4.019l15.7,8.149L139.26,495.35a22.067,22.067,0,0,0,3.556,20.7,22.045,22.045,0,1,0,34.655,0,22.05,22.05,0,0,0,0-27.261Z" transform="translate(-138.23 -290.144)" fill="#4ecca3"/>
    <path id="Path_240" data-name="Path 240" d="M138.1,567.677a21.943,21.943,0,0,0,4.718,13.63,22.045,22.045,0,1,0,34.655,0C180.427,577.559,138.1,565.2,138.1,567.677Z" transform="translate(-138.245 -355.39)" opacity="0.1"/>
  </g>
</svg>
