<?xml version="1.0" encoding="utf-8"?>
<!-- Generator: Adobe Illustrator 17.1.0, SVG Export Plug-In . SVG Version: 6.00 Build 0)  -->
<!DOCTYPE svg PUBLIC "-//W3C//DTD SVG 1.1//EN" "http://www.w3.org/Graphics/SVG/1.1/DTD/svg11.dtd">
<svg version="1.1" id="Layer_1" xmlns="http://www.w3.org/2000/svg" xmlns:xlink="http://www.w3.org/1999/xlink" x="0px" y="0px"
	 viewBox="0 0 156.8 123.6" enable-background="new 0 0 156.8 123.6" xml:space="preserve">
<g>
	<g transform="translate(6991.677 -3386.867)">
		<g transform="matrix(0.978, -0.208, 0.208, 0.978, 294.765, 4957.596)">
			<polygon fill="#010101" points="-6737.1,-2946.1 -6752.4,-2946.1 -6752.4,-2915.7 -6737.1,-2912.5 			"/>
			<polygon fill="#010101" points="-6710.2,-2914.2 -6714.2,-2907.6 -6699.6,-2904.5 -6693.8,-2914.2 			"/>
		</g>
		<g transform="matrix(0.978, -0.208, 0.208, 0.978, 770.617, 4481.746)">
			<path fill="#010101" d="M-7349.5-2572.6c3.9-1.5,7.6-3.8,10.8-6.6c3-2.6,5.4-5.9,7.1-9.5c1.7-3.6,2.5-7.5,2.5-11.4
				c0-4.7-0.8-8.6-2.4-11.8s-3.3-5.8-5.3-7.9c-2.2-2.4-4.8-4.4-7.6-6c2.1-1.4,3.9-3.1,5.5-5c1.5-1.9,2.8-4,3.8-6.2
				c1.2-2.5,1.8-5.4,1.8-8.7c0-3.9-0.8-7.7-2.4-11.2c-1.6-3.5-3.8-6.6-6.5-9.2c-5.8-5.5-13.6-8.6-21.6-8.6h-4.3l-3.2,14.9h7.4
				c4.3,0,7.9,1.4,10.8,4.2c3,2.8,4.4,6.1,4.4,9.9c0,3.8-1.5,7.1-4.4,9.9c-2.9,2.8-6.6,4.2-10.9,4.2h-13.4l-2.8,13.3h17.1
				c2.4,0,4.8,0.4,7,1.3c2.1,0.8,4,2,5.7,3.6c1.6,1.5,2.8,3.3,3.7,5.2c1.8,4.1,1.8,8.8,0,13c-0.9,2-2.2,3.7-3.7,5.2
				c-1.6,1.5-3.6,2.7-5.7,3.6c-2.2,0.9-4.6,1.4-7,1.3h-24.2l-3.2,14.9h27.3C-7358.1-2570.1-7353.6-2571-7349.5-2572.6z"/>
			<path fill="#010101" d="M-7307.1-2672.1c-1.8-1.7-4.2-2.7-6.6-2.6c-2.5-0.1-4.9,0.9-6.6,2.6c-1.8,1.7-2.8,4-2.7,6.4
				c-0.1,2.5,0.9,4.8,2.7,6.5c1.8,1.7,4.2,2.7,6.6,2.6c2.5,0,4.9-0.9,6.6-2.7c1.8-1.7,2.8-4,2.7-6.5
				C-7304.3-2668.1-7305.3-2670.4-7307.1-2672.1z"/>
			<path fill="#010101" d="M-7307.9-2557.8c1.2-3.2,1.8-6.7,1.8-10.7v-76.4h-15.3l0,76.4c0,3.4-1.1,6.1-3.4,8.4
				c-2.3,2.2-5.1,3.3-8.5,3.3c-0.7,0-1.4,0-1.9-0.1c-0.6-0.1-1.1-0.1-1.7-0.2c-0.5-0.1-1.1-0.3-1.6-0.5v3.9l24.3,5.2
				c0.4-0.4,0.8-0.7,1.2-1.1C-7310.7-2552-7309-2554.8-7307.9-2557.8z"/>
			<path fill="#010101" d="M-7250-2586.3c-2.7,1.9-6.4,2.9-11.1,2.9c-2.6,0-5.3-0.5-7.7-1.4c-2.3-0.9-4.4-2.2-6.3-3.8
				c-1.7-1.6-3.2-3.5-4.4-5.6c-1.1-2-1.9-4.3-2.1-6.6h54.4c0.1-0.5,0.2-1.2,0.3-1.9c0.1-0.6,0.2-1.3,0.3-2.1
				c0.1-0.8,0.2-1.7,0.2-2.6c0-5.6-0.9-10.8-2.8-15.4c-1.8-4.5-4.3-8.5-7.6-12c-3.2-3.4-7.1-6.1-11.4-7.9c-8.8-3.8-18.8-3.8-27.7,0
				c-4.3,1.8-8.1,4.5-11.4,7.9c-3.3,3.5-5.9,7.6-7.6,12c-1.9,4.6-2.8,9.8-2.8,15.4c0,5.7,0.9,10.8,2.8,15.5c1.8,4.5,4.4,8.6,7.8,12
				c3.3,3.4,7.3,6,11.6,7.9c4.5,1.9,9.4,2.8,14.3,2.8c4.4,0,8.4-0.6,12-1.7c3.4-1.1,6.6-2.7,9.4-4.8c2.7-2,5-4.4,7-7.1
				c1.9-2.7,3.5-5.6,4.8-8.7l-16.2,0C-7245.3-2590.1-7247.3-2588.3-7250-2586.3z M-7281.5-2613.3c0.9-5.5,3.2-9.9,6.7-13.3
				c3.5-3.4,7.8-5.1,12.9-5.1c6,0,10.8,1.7,14.5,5.1c3.6,3.4,5.9,7.8,6.8,13.2H-7281.5z"/>
			<polygon fill="#010101" points="-7218.7,-2644.9 -7218.7,-2623.3 -7214.1,-2644.9 			"/>
		</g>
	</g>
</g>
</svg>
