<svg xmlns="http://www.w3.org/2000/svg" viewBox="2981.73 338.394 788.27 501.606"><defs><style>.a{fill:#eee;}.b,.h{fill:#3f3f3f;}.c{fill:#fff;}.d{fill:#393e46;}.e,.g{fill:none;}.e,.h{stroke:#3f3f3f;stroke-miterlimit:10;stroke-width:2px;}.f{fill:#4ecca3;}</style></defs><g transform="translate(2981.752 336.76)"><g transform="translate(147.517 332.847)"><path class="a" d="M73.1,225.666c9.615,38.663,28.23,85.305,46.232,84.691s-5.319-57.484-7.569-66.485,7.569-6.751,7.569-6.751c20.866,7.364,31.913-33.549,31.913-33.549L106.24,164.5Z" transform="translate(-71.054 -161.022)"/><path class="b" d="M120.174,314.181c-19.434,0-37.845-46.233-47.869-86.123l-.2-.818L106.877,162.8l47.869,41.527-.409,1.227c-.2,1.023-7.364,26.8-21.275,33.958a16.282,16.282,0,0,1-13.092,1.023c-1.227-.2-3.682-.409-4.705.614-.818.818-.614,2.455-.2,3.682.409,1.432,1.432,4.705,2.864,8.592,7.774,22.707,15.547,47.869,9.41,57.075a7.384,7.384,0,0,1-6.546,3.478A1.583,1.583,0,0,1,120.174,314.181ZM76.4,227.853c14.32,57.279,32.936,82.646,43.982,82.237a3.686,3.686,0,0,0,3.273-1.841c5.523-8.183-5.319-39.891-9.819-53.392-1.432-4.091-2.455-7.16-2.864-8.8-.818-3.273-.409-5.932,1.227-7.569,2.864-2.864,8.183-1.841,8.592-1.637h.2a11.541,11.541,0,0,0,10.024-.818c10.842-5.728,17.388-25.162,19.025-30.276L108.1,169.346Z" transform="translate(-72.1 -162.8)"/></g><g transform="translate(364.359 32.933)"><path class="c" d="M179.6,78.783s3.478-41.527,2.864-48.892,1.227-15.547,6.955-12.07,38.459,32.322,32.936,85.919" transform="translate(-176.531 -15.35)"/><path class="d" d="M184.032,78.807c.818-10.433,1.637-21.071,2.25-31.5q.614-8.285.614-16.57c0-5.523-1.432-13.092,4.5-8.592,24.344,18.411,31.913,54.62,29.458,83.055,0,.818,5.728.2,5.932-1.637,1.841-22.093-1.841-44.391-13.3-63.621-4.5-7.364-11.66-19.229-20.252-22.707-13.706-5.728-12.07,13.706-12.274,21.684-.614,13.706-1.637,27.617-2.864,41.323,0,1.023,5.728.409,5.932-1.432Z" transform="translate(-178.1 -16.192)"/></g><g transform="translate(-0.022 31.306)"><path class="c" d="M272.666,206.232l-169.178-2.864s-46.028-8.592-40.709-53.392c0,0-.614-16.161,21.889-32.117s27-12.07,17.184-22.3-67.3-25.367-93.692,33.754S36.8,242.441,100.01,241.827c0,0,12.683,129.083-29.253,122.332,0,0-1.227,86.123.614,101.057,1.637,14.934,12.683,29.253,18.411,9.819s19.025-56.87,17.184-78.145c0,0,67.1-7.364,74.463-77.531,0,0,133.992,150.972,232.185,33.345,0,0,25.162-29.867,37.845-85.51,0,0-23.525-17.8-20.048-54.006s6.342-101.261-47.664-127.242c0,0-20.048-12.274-51.756-6.546L311.943,28.258s-4.5-16.57-12.07-10.842-13.3,52.779-15.547,86.737C284.326,104.152,272.257,142,272.666,206.232Z" transform="translate(1.501 -14.544)"/><path class="d" d="M275.168,205.243c-43.778-.818-87.351-1.432-131.128-2.25-10.024-.2-20.048-.409-30.276-.409a55.108,55.108,0,0,1-9-.409c-24.753-5.523-41.937-28.435-37.436-54.211,3.682-21.071,24.548-29.253,39.686-40.709,6.546-4.91,2.455-9.819-3.273-14.115-16.57-12.479-44.6-10.024-62.189-1.432C11.274,106.846-6.319,145.918,2.069,178.649c9.41,36,45.005,59.325,80.191,64.644,4.091.614,15.343,0,16.365,1.637,1.227,2.046.614,7.569.614,9.615.818,13.092,1.227,25.98.818,39.073-.409,14.934-.614,73.031-26.185,69.758-1.227-.2-4.705.2-4.705,2.046-.409,32.731-2.455,66.28.409,99.011.614,6.955,2.659,19.229,10.433,22.3,7.774,2.864,12.07-5.114,14.115-11.047,8.183-24.548,18.616-52.37,17.184-78.554-1.023.818-2.25,1.637-3.273,2.455,41.732-4.91,72.826-38.663,77.736-79.577-1.841.409-3.887,1.023-5.728,1.432,23.73,26.8,54.62,49.915,87.146,64.644,24.344,11.047,51.551,17.184,78.145,12.479,28.844-5.114,54.211-22.5,72.213-45.005,19.639-24.344,31.094-55.847,38.05-85.919,0-.409,0-.614-.2-.818-16.365-12.683-21.275-35.186-19.639-54.824,1.841-21.684,2.659-43.573-2.25-65.053-10.638-47.664-51.756-76.1-99.829-68.326.818.409,1.637.614,2.659,1.023l-15.956-40.5c-2.864-7.16-6.137-24.139-15.752-23.73-5.932.2-8.592,5.523-10.433,10.433-4.091,11.456-5.523,24.139-7.16,36-2.455,18.207-3.069,36.413-7.16,54.211-6.751,29.867-9,60.757-9,91.442,0,2.659,5.932,1.432,5.932-.614,0-26.185,1.637-52.574,6.342-78.35,1.841-10.433,5.114-20.661,5.932-31.3,1.841-23.321,3.069-48.892,10.638-71.19,1.227-3.682,2.455-8.183,6.342-4.5,2.25,1.841,2.864,5.932,3.887,8.592,1.432,3.478,2.864,7.16,4.091,10.638l15.956,40.5c.409,1.023,1.637,1.023,2.659,1.023,24.548-3.887,48.278,1.432,67.3,17.593,18.411,15.752,27,39.277,29.867,62.8a209.416,209.416,0,0,1,1.023,33.958c-.409,10.433-2.25,20.866-1.432,31.3a61.766,61.766,0,0,0,11.251,31.3,53.271,53.271,0,0,0,6.137,7.365c3.069,3.068,2.659,1.637,2.25,5.728-1.637,15.752-10.024,33.549-16.57,47.664a211.641,211.641,0,0,1-14.32,25.776,124,124,0,0,1-40.914,38.254c-40.914,23.525-87.964,11.047-126.219-11.66-23.934-14.115-46.846-32.322-65.257-52.983-1.227-1.432-5.523-.409-5.728,1.432-4.5,37.641-31.913,70.985-71.19,75.486-1.227.2-3.478,1.023-3.273,2.455,1.227,23.321-7.774,47.051-14.524,68.94-1.432,4.5-3.069,16.57-8.8,13.911-4.091-1.841-5.728-12.274-6.137-16.161a133.448,133.448,0,0,1-.614-15.752c-.614-28.23-.2-56.665.2-84.9-1.637.614-3.273,1.432-4.705,2.046,28.026,3.682,32.731-34.163,34.572-54.006,2.25-23.321,1.637-47.46-.614-70.781,0-.818-1.227-1.023-1.841-1.023-31.5-.2-63.825-13.3-82.85-39.277-19.639-26.594-17.593-60.552.818-86.942C35.618,93.958,60.575,84.139,85.328,90.276c6.342,1.637,13.5,4.091,17.593,9.819,3.069,4.3,1.227,4.91-3.069,7.569a170.833,170.833,0,0,0-19.025,12.683c-16.365,12.888-24.139,31.3-18,51.756,4.91,16.161,19.229,27.208,34.777,32.322,6.137,2.046,11.66,1.637,18,1.841,17.593.2,34.981.614,52.574.818,34.981.614,69.962,1.227,104.739,1.841C275.372,208.926,279.259,205.243,275.168,205.243Z" transform="translate(0.022 -15.396)"/></g><g transform="translate(335.72 395.403)"><path class="c" d="M210.611,194.4s-5.523,68.735-6.342,80.8-13.5,12.888-17.388,5.319c-3.682-7.569-21.684-33.549-21.48-70.372Z" transform="translate(-162.742 -192.312)"/><path class="b" d="M209.105,195.877c-1.841,23.321-3.887,46.437-5.523,69.758-.2,3.887.409,10.024-1.227,13.5-5.932,13.911-13.5-2.659-15.956-7.364-10.228-18.82-16.161-39.277-16.366-60.757-.818.614-1.637,1.432-2.455,2.046,15.138-5.319,30.072-10.433,45.21-15.752,3.478-1.227,2.659-4.91-1.023-3.682-15.138,5.319-30.072,10.433-45.21,15.752-.818.2-2.455,1.023-2.455,2.046.2,23.321,6.955,44.8,18.207,65.053,2.864,5.114,5.114,10.842,11.66,11.865a13.037,13.037,0,0,0,13.706-7.16c2.455-5.523,1.841-13.706,2.25-19.434.614-9,1.432-18.207,2.046-27.208l3.069-39.277C215.242,192.4,209.31,193.422,209.105,195.877Z" transform="translate(-164.1 -193.379)"/></g><g transform="translate(287.802 336.428)"><path class="c" d="M194.595,206.114c-.818,3.068-9,75.486-10.638,90.624-1.432,15.138-1.432,27.208-10.638,24.957s-19.639-17.388-24.957-46.846-7.569-85.305-5.319-109.649" transform="translate(-139.108 -163.871)"/><path class="b" d="M193.3,207.2c-3.478,16.161-4.091,33.345-6.137,49.915-1.227,10.842-2.455,21.48-3.682,32.322-.409,2.864-.614,5.728-.818,8.592-.409,3.682,0,21.071-4.3,22.912-9,3.887-18.411-20.661-20.252-25.98-4.91-14.524-6.955-29.867-8.387-45.005-2.659-27.821-4.5-56.665-2.046-84.487.2-1.841-5.728-.614-5.932,1.023-2.046,23.525-.818,47.46.818,70.781,1.841,24.753,3.069,54.211,17.184,75.486,6.342,9.41,22.093,18,26.389,2.046,2.455-8.8,2.25-18.82,3.273-28.026,1.023-9.41,2.046-19.025,3.273-28.435,2.046-17.184,2.864-35.186,6.342-52.165.409-1.636-5.523-.614-5.728,1.023Z" transform="translate(-140.676 -164.55)"/></g><g transform="translate(178.202 281.092)"><path class="b" d="M87.714,137.5c1.227,5.114,2.659,10.228,3.682,15.547S93.442,163.48,94.055,169c.614,5.319,1.637,10.638,1.023,16.161-.614,5.319-1.637,10.842-4.3,15.752h-.614a143.28,143.28,0,0,1-1.227-15.956c-.409-5.114.409-10.433.2-15.547-.2-5.319-.409-10.433-.818-15.752l-.614-7.978c-.2-2.659-.614-5.319-.614-7.978h.614Z" transform="translate(-87.1 -137.5)"/></g><path class="e" d="M76.3,206.123s22.912-5.932,36.618,8.387" transform="translate(79.809 214.076)"/><g transform="translate(168.178 221.358)"><path class="d" d="M188.167,109.937s-16.161,48.892-46.232,44.187S82.2,108.3,82.2,108.3Z" transform="translate(-82.2 -108.3)"/></g><path class="b" d="M188.628,79.613c0,1.432,24.957-10.024,33.754-3.887,0,0-3.069-11.66-16.979-13.092C196.2,61.815,187.81,68.77,188.628,79.613Z" transform="translate(197.211 65.236)"/><path class="b" d="M193.459,78.706S172.593,75.433,155,83.82c0,0,3.273-9.41,10.228-14.933C176.071,60.5,191.822,64.8,193.459,78.706Z" transform="translate(162.104 67.37)"/><g transform="translate(334.255 159.578)"><path class="b" d="M163.826,98.557a19.367,19.367,0,0,1-.409-5.932,27.66,27.66,0,0,1,1.023-5.932,16.749,16.749,0,0,1,2.864-5.728l1.227-1.227a7.176,7.176,0,0,1,1.637-1.023l1.841-.614h2.046a8.549,8.549,0,0,1,6.137,3.478,18.794,18.794,0,0,1,3.273,5.523,29.459,29.459,0,0,1,1.841,11.865c-1.432-3.682-3.069-7.16-4.705-10.433-1.841-3.069-4.3-5.932-6.955-6.137a4.1,4.1,0,0,0-3.478,1.432,17.44,17.44,0,0,0-2.864,4.3,53.28,53.28,0,0,0-2.046,5.114C164.849,94.875,164.235,96.716,163.826,98.557Z" transform="translate(-163.384 -78.1)"/></g><g transform="translate(396.886 150.986)"><path class="b" d="M194.614,93.539a22.477,22.477,0,0,1,0-10.433,14.869,14.869,0,0,1,2.25-5.319,8.04,8.04,0,0,1,5.114-3.682,5.663,5.663,0,0,0,1.841-.2c.614,0,1.227.2,1.637.2a13.042,13.042,0,0,1,2.864,1.637,14.014,14.014,0,0,1,3.273,4.705,25.615,25.615,0,0,1,2.25,10.228c-1.637-3.069-3.273-6.137-4.91-8.592a15.708,15.708,0,0,0-3.069-3.273,3.575,3.575,0,0,0-3.069-.818c-2.046.409-3.887,2.864-5.114,5.933A75.192,75.192,0,0,0,194.614,93.539Z" transform="translate(-194 -73.9)"/></g><g transform="translate(315.439 173.472)"><path class="c" d="M219.12,94.91S193.14,97.365,182.5,99c-10.842,1.637-24.753,10.228-26.389,28.435s6.137,25.367,13.092,30.072c11.047,7.569,33.549,22.3,26.389,31.708-6.955,9.41-18.411,2.455-28.435,14.524-6.751,7.978-12.888,17.8-.818,43.164,11.865,25.367,16.775,34.368,11.456,61.371l-2.25,15.752s84.078,2.25,114.354-129.287a58.812,58.812,0,0,1-20.457-48.278,608.148,608.148,0,0,0,.2-60.961S234.667,95.524,219.12,94.91Z" transform="translate(-152.402 -84.256)"/><path class="b" d="M222.131,94.319c-15.752,1.432-35.186.818-49.71,8.183-18.82,9.819-25.366,38.459-8.592,53.392,8.8,7.774,19.639,12.683,27.412,21.684,5.114,5.932,6.342,11.865-1.841,15.752-4.91,2.25-10.228,2.455-15.138,4.91-22.3,11.047-15.956,35.39-7.569,53.392,6.342,13.5,12.683,26.8,12.07,41.937-.409,10.433-2.864,21.275-4.5,31.708,0,.409,1.023.409,1.023.409,16.365.409,33.754-6.546,47.46-14.934,40.914-24.753,61.166-71.6,71.8-116.195,0-.2,0-.409-.2-.409-12.07-9.41-19.229-25.367-20.252-40.3s1.023-30.276.818-45.21q0-11.66-.614-23.321c0-.818-2.864-.2-3.273-.2-15.547,4.3-32.322,9.206-48.483,9-1.227,0-6.751,2.455-3.887,2.455,17.593.2,35.8-4.91,52.779-9.615a18.72,18.72,0,0,1-3.273-.2c.409,8.8.614,17.8.614,26.594,0,16.365-3.273,34.368.409,50.528a62.189,62.189,0,0,0,12.683,25.776c1.227,1.637,4.91,4.091,5.728,5.728,1.637,3.478-2.25,12.479-3.478,16.775-11.66,40.1-33.345,81.827-72.008,101.875-8.8,4.5-18.411,7.978-28.23,9-.818,0-4.3.818-4.91.409.614.409,3.273-15.752,3.887-18.616,2.046-12.683,1.841-24.344-2.455-36.413-5.114-13.706-14.115-26.389-16.161-41.118-1.637-12.07,4.091-25.367,16.365-29.253,6.546-2.25,17.184-2.046,20.048-10.024,3.478-9.615-11.456-19.434-17.593-23.934-10.228-7.569-20.866-13.092-22.707-27-2.455-20.048,9.206-34.572,29.049-37.027,9.819-1.227,19.843-2.25,29.867-3.273C221.108,96.569,226.018,93.909,222.131,94.319Z" transform="translate(-154.186 -84.892)"/></g><g transform="translate(368.992 214.869)"><path class="c" d="M181.5,112.242s50.733,32.117,57.688,30.276c6.751-1.841,7.978-19.639.614-27.412a90.7,90.7,0,0,0-9.819-9.206" transform="translate(-179.178 -104.321)"/><path class="b" d="M181.051,114.276c16.57,10.433,33.754,22.3,51.96,29.253,6.546,2.455,11.865,1.432,14.115-5.932,4.3-13.706-4.705-24.139-14.524-32.117-1.637-1.227-5.523,1.023-3.478,2.659,4.91,3.887,10.433,8.387,12.683,14.32,1.432,3.273,3.887,18-2.046,19.434-4.91,1.227-16.57-7.16-20.252-9.206-12.07-6.546-23.73-13.706-35.39-20.866-1.432-1.227-5.319,1.227-3.068,2.455Z" transform="translate(-180.365 -105.128)"/></g><g transform="translate(506.125 1.634)"><path class="f" d="M247.4,150.448s52.37-15.343,65.666-53.188S341.706-8.3,433.966,1.931,509.861,76.8,474.88,95.215c-34.777,18.411-96.352,0-121.923,9.206S273.176,158.631,247.4,150.448Z" transform="translate(-247.4 -0.892)"/></g><g transform="translate(556.519 171.276)"><path class="f" d="M273.5,120.681s32.731,8.8,79.986-18.411,108.626-21.889,130.106,9.819,19.434,64.439,0,75.69-69.758,36.822-123.969-17.8C321.369,131.932,273.5,120.681,273.5,120.681Z" transform="translate(-270.501 -82.873)"/><path class="g" d="M273.4,123.467c23.525,6.137,51.756-2.864,72.622-13.092,22.3-10.842,42.141-21.275,67.712-22.5,19.843-1.023,41.323,2.455,57.484,14.524,17.388,12.888,28.64,39.073,26.389,60.552-1.841,17.593-13.911,25.571-28.844,32.117-14.729,6.342-30.89,9.206-46.846,6.955-24.957-3.682-43.778-19.025-61.575-35.8-22.707-21.48-52.574-39.277-83.259-46.437-2.659-.614-7.364,2.864-3.682,3.682,35.595,8.387,64.439,30.276,90.828,54.415,28.23,25.776,64.644,36.209,101.057,22.707,10.842-4.091,24.344-9.41,31.3-19.025,12.479-17.388,6.751-41.937-2.455-59.325C475.715,87.258,434.8,79.485,398.388,85.826c-28.844,4.91-51.551,22.912-79.168,30.89-13.092,3.682-28.844,6.751-42.55,3.069C274.419,119.171,269.714,122.649,273.4,123.467Z" transform="translate(-272.034 -83.819)"/></g><g transform="translate(495.048 265.533)"><path class="f" d="M243.4,130.6s100.443,17.593,123.969,81.214-7.16,95.329-28.64,102.489-62.6-2.046-67.712-42.55C266.107,231.248,297.406,174.787,243.4,130.6Z" transform="translate(-240.506 -129.157)"/><path class="g" d="M243.038,132.77c53.392,9.41,112.717,38.459,127.446,94.511,7.978,30.276,3.682,78.145-33.754,87.351-16.161,3.887-34.981-1.841-46.846-13.092-14.115-13.706-15.956-33.14-14.32-51.756,1.637-20.048,5.932-39.891,4.091-60.143-2.046-24.139-13.5-43.982-31.913-59.325-1.432-1.227-6.955,1.023-5.523,2.25,19.639,16.57,30.89,38.05,31.913,63.825.818,20.661-4.091,40.914-4.91,61.575-.818,19.025,4.091,38.05,20.252,49.915,11.865,8.8,27.617,12.274,42.346,10.433,29.253-3.887,47.255-31.5,48.687-59.325,2.25-44.8-22.707-80.8-60.143-102.284a228.014,228.014,0,0,0-73.44-26.8C245.289,129.7,239.97,132.361,243.038,132.77Z" transform="translate(-241.985 -129.895)"/></g><path class="b" d="M234.5,85.105c15.138-10.433,30.072-20.866,45.21-31.3,3.273-2.25-1.432-4.5-3.887-2.659-15.138,10.433-30.072,20.866-45.21,31.3-3.478,2.25,1.432,4.3,3.887,2.659Z" transform="translate(239.914 52.584)"/><path class="b" d="M243.9,114.363c46.232-11.865,92.67-23.525,138.9-35.39,3.682-1.023,2.659-4.705-1.023-3.682-46.233,11.865-92.67,23.525-138.9,35.39-3.682.818-2.659,4.5,1.023,3.682Z" transform="translate(251.588 78.355)"/><path class="b" d="M246.579,119.406c19.434,6.342,38.663,12.479,58.1,18.82,1.637.614,6.955-2.046,4.705-2.659-19.434-6.342-38.663-12.479-58.1-18.82-1.637-.614-6.955,2.046-4.705,2.659Z" transform="translate(257.296 121.795)"/><g transform="translate(374.677 161.166)"><path class="c" d="M187.869,100.911s33.14-4.091,58.3-19.434c0,0,15.752-6.546,16.979,5.932s-20.252,50.938-53.6,47.664c0,0-14.115-.2-24.753-5.319" transform="translate(-181.411 -77.952)"/><path class="b" d="M189.191,103.882a183.476,183.476,0,0,0,32.936-7.774,174.377,174.377,0,0,0,24.548-10.638c6.342-3.273,15.138-4.3,15.138,5.523.2,11.865-11.251,25.571-19.639,32.731-14.934,12.888-36,13.092-53.6,5.523-2.046-.818-7.365,2.046-4.705,3.069,16.365,6.955,36.618,8.592,52.779,0,13.911-7.569,26.8-22.5,30.481-38.05,3.273-13.706-8.183-18.207-19.639-13.706-11.865,4.705-22.3,11.047-34.777,14.524A175.665,175.665,0,0,1,189.805,100c-3.069.409-4.705,4.3-.614,3.887Z" transform="translate(-183.144 -78.877)"/></g><path class="h" d="M213.517,82.79s-1.637,14.32,18,14.115c0,0,5.319-11.66-1.841-15.752S213.517,82.79,213.517,82.79Z" transform="translate(223.26 83.13)"/><path class="b" d="M116.191,268.01c-14.729.614-29.662-29.662-39.891-61.78,1.023-.2,23.116-5.728,36.618,8.387h0C119.669,234.256,129.9,267.4,116.191,268.01Z" transform="translate(79.809 214.172)"/><path class="h" d="M189.1,107.027s31.3,26.594,36,24.344c10.638-5.114-3.273-25.571-3.273-25.571S205.875,109.891,189.1,107.027Z" transform="translate(197.762 110.443)"/><g transform="translate(669.171 211.17)"><g transform="translate(0 0)"><path class="c" d="M.708,22A94.565,94.565,0,0,1,9.03,5.709,3.6,3.6,0,0,1,6.2,3.762c-.354-.708,0-1.062.885-1.062C9.915,2.522,13.81.4,17.351.043c3.187-.354,6.02,1.416,6.02,6.728a9.165,9.165,0,0,1-1.948,4.957,18.736,18.736,0,0,1-6.551,5.134,4.849,4.849,0,0,1,2.479,4.072,5.958,5.958,0,0,1-1.77,4.072,16.488,16.488,0,0,1-8.144,4.249,7.94,7.94,0,0,1-1.948.177A4.206,4.206,0,0,1,3.364,28.9C1.416,28.017,0,26.247,0,24.653A15.116,15.116,0,0,1,.708,22Zm13.279-2.125c0-.885-.885-1.593-2.833-1.77-1.771.354-3.541.531-4.426.177A48.847,48.847,0,0,0,3.9,24.83c-.354,1.239,0,1.77.885,1.593A14.808,14.808,0,0,0,13.1,22,4.2,4.2,0,0,0,13.987,19.873ZM8.5,15.093c7.436-1.948,12.216-6.9,12.216-9.915a1.587,1.587,0,0,0-1.593-1.593c-1.239,0-3.187.708-6.02,1.77a10.12,10.12,0,0,1-1.416,4.426C11.154,10.666,10.446,11.729,8.5,15.093Z" transform="matrix(0.996, 0.087, -0.087, 0.996, 2.565, 0)"/><path class="c" d="M19.121,15.071c-1.239,2.3-2.479,4.957-3.541,7.259a20.388,20.388,0,0,0,7.082-6.9c.531-.708,1.239-.885,1.593.177a4.058,4.058,0,0,1-.708,2.833c-1.77,3.01-5.311,5.134-9.384,6.9C11.685,31.182,8.321,38.618,4.6,40.212a2.528,2.528,0,0,1-3.187-1.062A7.49,7.49,0,0,1,0,35.077,9.138,9.138,0,0,1,.354,33.13c1.239-3.9,5.311-6.728,9.738-8.5,2.833-7.082,6.9-15.4,9.384-19.121.531-.885,1.239-.885,1.77-.354a2.822,2.822,0,0,1,.708,2.125,6.744,6.744,0,0,1-.708,3.01C20.892,11.353,20.006,13.123,19.121,15.071ZM4.6,32.067c-1.771,2.479-2.3,4.957-1.771,5.489.354.531,1.593-1.239,3.364-4.426.885-1.593,1.948-3.718,3.187-5.843A13.709,13.709,0,0,0,4.6,32.067ZM25.141,1.615a2.381,2.381,0,0,1,.354,1.416,3.146,3.146,0,0,1-.708,1.77,2.076,2.076,0,0,1-3.364-.708A2.856,2.856,0,0,1,20.892,2.5,3.713,3.713,0,0,1,21.6.553C22.839-.51,24.433.022,25.141,1.615Z" transform="matrix(0.996, 0.087, -0.087, 0.996, 7.154, 6.466)"/><path class="c" d="M30.807,17.528c-1.062,2.833-4.6,4.78-7.259,4.78-2.833,0-4.426-1.948-4.426-4.78a6.952,6.952,0,0,1,.531-2.479,18.983,18.983,0,0,1,4.426-7.082,8.211,8.211,0,0,1-3.364.708C17,16.466,12.039,21.954,6.551,22.131,2.3,22.131,0,19.475,0,15.757a13.247,13.247,0,0,1,1.416-5.311c2.3-4.6,6.2-7.259,8.675-7.259a5.169,5.169,0,0,1,1.593.354,9.454,9.454,0,0,1,2.833,2.3,3.335,3.335,0,0,1,.354,1.416,8.836,8.836,0,0,1-1.948,4.78A6.63,6.63,0,0,1,7.79,14.872,5.711,5.711,0,0,1,4.6,13.81a7.338,7.338,0,0,0-.354,2.656c0,2.125.885,3.541,2.125,3.541,4.6,0,9.384-6.551,11.685-12.216A2.247,2.247,0,0,1,16.82,5.843c0-2.479,3.01-5.666,4.6-5.843.885,0,1.239.531,1.239,1.593a14.463,14.463,0,0,1-.885,3.9,11.434,11.434,0,0,0,3.9-1.948c.708-.531,1.416-.708,1.948,0a5.9,5.9,0,0,1,1.416,3.187,2.862,2.862,0,0,1-.708,1.77c-1.948,2.3-4.249,5.311-4.957,7.79a7.528,7.528,0,0,0-.354,1.948c0,1.239.354,1.948,1.062,1.948,1.593,0,4.249-2.833,5.666-6.02.354-.885,1.062-1.062,1.593,0A14.3,14.3,0,0,1,30.807,17.528ZM5.134,12.571a2.517,2.517,0,0,0,1.062.354c1.239,0,2.479-1.239,3.364-2.479,1.239-1.593,2.3-3.9,1.948-4.249-.885-.708-3.9,1.948-5.843,5.666C5.312,12.216,5.134,12.393,5.134,12.571Z" transform="matrix(0.996, 0.087, -0.087, 0.996, 29.459, 9.506)"/><path class="c" d="M10.977,13.057c.885-.531,1.593-.885,2.3-1.239,2.125-.708,3.364,0,4.249,2.125a4.714,4.714,0,0,1,.531,2.125,4.953,4.953,0,0,1-1.593,3.364,15.065,15.065,0,0,1-6.02,3.541c.177,3.364,1.239,5.843,2.656,5.843,1.593,0,4.072-3.187,5.311-5.843.531-1.062,1.062-1.239,1.593,0a3.625,3.625,0,0,1-.531,2.833c-.885,1.593-3.187,4.957-7.082,4.78-3.364,0-6.2-2.656-6.2-9.03a76.413,76.413,0,0,0-3.9,8.321.868.868,0,0,1-1.593.177A2.586,2.586,0,0,1,0,27.929a11.944,11.944,0,0,1,.531-3.01C2.656,19.077,9.207,6.152,13.1.664c.708-.885,1.416-.885,1.948,0a2.991,2.991,0,0,1,.531,1.77C15.757,4.736,13.633,8.1,10.977,13.057Zm0,2.656a18.237,18.237,0,0,0-4.249,5.134,33.519,33.519,0,0,0,6.02-3.187c1.77-1.416,2.656-3.01,2.3-3.541S13.1,14.12,10.977,15.713Z" transform="matrix(0.996, 0.087, -0.087, 0.996, 58.094, 3.169)"/></g></g><g transform="translate(546.368 342.525)"><path class="c" d="M279.83,164.239A88.192,88.192,0,0,1,296.439,170a3.211,3.211,0,0,1,1.525-2.881c.508-.339,1.017-.169,1.186.678.508,2.542,3.22,6.1,3.9,9.321.678,3.051-.508,5.932-5.423,6.61a8.8,8.8,0,0,1-4.915-1.186,16.089,16.089,0,0,1-5.762-5.593,4.767,4.767,0,0,1-3.559,2.881,5.648,5.648,0,0,1-4.068-1.186,16.281,16.281,0,0,1-5.084-7.118c-.169-.508-.339-1.356-.508-1.864a4,4,0,0,1,.17-2.034c.678-1.864,2.2-3.559,3.559-3.729C277.627,163.9,278.813,164.069,279.83,164.239Zm3.9,12.372c.847-.169,1.356-1.017,1.186-2.881a15.513,15.513,0,0,1-.847-4.237,35.509,35.509,0,0,0-6.61-1.864c-1.186-.17-1.695.169-1.356,1.017a13.469,13.469,0,0,0,5.423,7.288A3.245,3.245,0,0,0,283.728,176.611Zm3.729-5.932c2.881,6.779,8.135,10.677,11.016,10.169a1.476,1.476,0,0,0,1.186-1.695c-.17-1.186-1.017-2.881-2.373-5.593a9.735,9.735,0,0,1-4.407-.678C292.033,172.544,291.016,172.2,287.457,170.679Z" transform="translate(-257.918 -163.9)"/><path class="c" d="M290.351,183.453c-2.373-.847-5.084-1.695-7.457-2.373a23.943,23.943,0,0,0,7.627,5.932c.847.339,1.017,1.017.169,1.525a4.224,4.224,0,0,1-2.712-.339c-3.051-1.186-5.593-4.407-7.8-7.966-5.932-1.525-13.389-3.9-15.423-7.118a2.231,2.231,0,0,1,.508-3.051A8.607,8.607,0,0,1,269,168.2a9.726,9.726,0,0,1,2.034.169c3.9.678,7.118,4.068,9.321,8.135a163.111,163.111,0,0,1,19.321,6.271c1.017.508,1.017,1.017.508,1.695a2.854,2.854,0,0,1-1.864,1.017,5.854,5.854,0,0,1-2.881-.339C294.079,184.64,292.215,184.131,290.351,183.453Zm-17.965-11.525c-2.712-1.186-4.915-1.525-5.423-1.017s1.356,1.356,4.745,2.712c1.695.678,3.729,1.356,6.1,2.2A25.221,25.221,0,0,0,272.386,171.929Zm31.524,15.423a2.254,2.254,0,0,1-1.356.508,2.426,2.426,0,0,1-1.864-.508,1.906,1.906,0,0,1,.169-3.22,6.021,6.021,0,0,1,1.525-.678,1.913,1.913,0,0,1,1.864.508c1.356.847,1.017,2.542-.339,3.39Z" transform="translate(-264.371 -160.912)"/><path class="c" d="M283.713,208.646a8.151,8.151,0,0,1-5.593-6.1,4.214,4.214,0,0,1,3.9-4.915,5.825,5.825,0,0,1,2.373.169,18.542,18.542,0,0,1,7.288,3.22,8.685,8.685,0,0,1-1.186-3.051c-7.966-2.542-13.9-6.44-14.745-11.694-.678-3.9,1.695-6.61,5.084-6.949a13.654,13.654,0,0,1,5.084.508c4.745,1.695,7.627,4.745,7.966,7.288a4.691,4.691,0,0,1-.17,1.525,7.768,7.768,0,0,1-1.864,3.051,1.925,1.925,0,0,1-1.356.508,7.848,7.848,0,0,1-4.745-1.186,6.77,6.77,0,0,1-3.39-4.407,5.607,5.607,0,0,1,.508-3.22,6.4,6.4,0,0,0-2.542,0c-2.034.339-3.22,1.186-3.051,2.373.678,4.407,7.457,7.966,13.05,9.491a2.5,2.5,0,0,1,1.695-1.525c2.373-.339,5.932,2.2,6.1,3.559.169.847-.339,1.356-1.356,1.525a10.369,10.369,0,0,1-3.729-.339,12.957,12.957,0,0,0,2.373,3.559c.508.678.847,1.186.339,1.864a5.473,5.473,0,0,1-2.881,1.695,2.227,2.227,0,0,1-1.695-.508,28.133,28.133,0,0,0-7.966-3.729,3.482,3.482,0,0,0-1.864,0c-1.186.169-1.864.678-1.695,1.186.169,1.525,3.22,3.729,6.44,4.576.847.339,1.186.847.169,1.525A5.426,5.426,0,0,1,283.713,208.646Zm1.356-24.914a2.149,2.149,0,0,0-.17,1.017c.17,1.186,1.525,2.034,2.881,2.881,1.695,1.017,4.068,1.695,4.237,1.186.508-.847-2.373-3.39-6.1-4.745C285.408,183.733,285.239,183.733,285.069,183.733Z" transform="translate(-256.547 -153.226)"/><path class="c" d="M295.947,203.481a15.9,15.9,0,0,1,1.525,2.034c1.017,1.864.508,3.051-1.356,4.407a4.351,4.351,0,0,1-2.034.847,4.646,4.646,0,0,1-3.39-1.017,13.713,13.713,0,0,1-4.237-5.254c-3.22.678-5.423,2.034-5.254,3.39.17,1.525,3.559,3.39,6.271,4.237,1.186.339,1.356.847.17,1.525a3.484,3.484,0,0,1-2.881-.169c-1.695-.678-5.084-2.373-5.593-6.1-.339-3.22,1.695-6.1,7.8-6.949a75.89,75.89,0,0,0-8.474-2.542c-.678-.169-1.017-.847-.339-1.525a2.854,2.854,0,0,1,1.864-1.017,6.515,6.515,0,0,1,3.051.169c5.762,1.186,18.812,5.593,24.575,8.644,1.017.508,1.017,1.186.169,1.864a5.075,5.075,0,0,1-1.695.678C304.591,206.87,301.031,205.515,295.947,203.481Zm-2.542.508a13.972,13.972,0,0,0-5.423-3.22,25.076,25.076,0,0,0,3.729,5.254c1.695,1.525,3.22,2.034,3.729,1.695C295.947,207.209,295.269,205.684,293.4,203.989Z" transform="translate(-255.053 -142.129)"/></g><g transform="matrix(0.999, 0.035, -0.035, 0.999, 630.888, 20.229)"><path class="c" d="M.236,28.962A90.084,90.084,0,0,1,6.169,8.71,4.493,4.493,0,0,1,2.487,7.073c-.409-.614-.2-1.227.818-1.432C6.373,4.823,10.465,1.55,14.351.322c3.478-1.023,7.16.2,8.183,6.342A8.976,8.976,0,0,1,21.307,12.6a22.2,22.2,0,0,1-6.342,7.364,5.745,5.745,0,0,1,3.682,4.091,8.217,8.217,0,0,1-1.023,5.114c-1.637,2.659-5.523,5.319-8.183,6.546-.614.2-1.432.409-2.046.614a4.968,4.968,0,0,1-2.455,0A6.467,6.467,0,0,1,.236,32.235C-.173,31.621.032,30.189.236,28.962Zm14.524-5.523c-.2-1.023-1.227-1.637-3.682-1.432a14.145,14.145,0,0,1-4.91,1.227,48.45,48.45,0,0,0-1.841,7.978c-.2,1.637.409,2.046,1.432,1.637a17.214,17.214,0,0,0,8.387-6.955A2.971,2.971,0,0,0,14.761,23.439ZM7.4,19.143C15.374,15.256,19.67,8.71,19.057,5.232A1.782,1.782,0,0,0,17.011,3.8c-1.432.2-3.273,1.432-6.546,3.273a10.87,10.87,0,0,1-.614,5.319C9.442,13.619,9.033,15.051,7.4,19.143Z" transform="translate(0 13.016)"/><path class="c" d="M17.479,18.141c-.818,2.864-1.841,6.342-2.455,9.206a24.622,24.622,0,0,0,6.546-9.41c.409-1.023,1.227-1.227,1.841-.2a4.634,4.634,0,0,1-.2,3.273c-1.227,3.887-4.91,7.16-9,9.819-1.637,7.16-3.887,16.365-7.569,19.025-1.023.614-2.25.818-3.887-.409a10.222,10.222,0,0,1-2.659-4.3,9.7,9.7,0,0,1,0-2.455c.614-4.705,4.5-8.8,9.206-11.865,1.841-8.8,4.5-19.025,6.546-23.73.409-1.227,1.227-1.432,2.046-.818a3.445,3.445,0,0,1,1.227,2.25,6.829,6.829,0,0,1-.2,3.478A35.654,35.654,0,0,1,17.479,18.141ZM4.8,40.439c-1.432,3.273-1.432,5.932-.818,6.751.614.614,1.637-1.841,2.864-5.728.614-2.046,1.432-4.705,2.25-7.364A14.626,14.626,0,0,0,4.8,40.439ZM21.366,1.367A5.125,5.125,0,0,1,22.184,2.8a2.841,2.841,0,0,1-.409,2.25c-.614,1.227-2.659,1.432-3.887,0a3.676,3.676,0,0,1-.818-1.841,2.841,2.841,0,0,1,.409-2.25c.818-1.432,2.864-1.227,3.887.409Z" transform="translate(9.146 17.699)"/><path class="c" d="M35.6,17.223c-.614,3.478-4.091,6.342-7.16,6.955-3.273.614-5.523-1.227-6.137-4.3a6.742,6.742,0,0,1,0-2.864,27.293,27.293,0,0,1,3.478-9A9.736,9.736,0,0,1,22.1,9.654c-2.455,9.615-6.955,16.979-13.092,18.411C4.3,29.088,1.031,26.429.213,22.337A13.816,13.816,0,0,1,.622,16c1.637-5.728,5.319-9.41,8.387-10.024a2.838,2.838,0,0,1,1.841,0,12.419,12.419,0,0,1,3.682,2.046,4.112,4.112,0,0,1,.818,1.637,9.953,9.953,0,0,1-1.227,5.932c-1.227,2.25-2.864,3.887-5.114,4.3a6.555,6.555,0,0,1-3.887-.409,7.538,7.538,0,0,0,.2,3.069C5.736,25,6.964,26.224,8.4,26.019,13.51,25,17.6,16.609,19.033,9.654a2.668,2.668,0,0,1-1.841-2.046c-.614-2.659,2.25-7.16,3.887-7.569,1.023-.2,1.637.409,1.841,1.432a17.929,17.929,0,0,1-.2,4.5A13.373,13.373,0,0,0,26.807,2.9c.818-.614,1.432-1.227,2.25-.409S31.1,4.54,31.307,5.767A2.519,2.519,0,0,1,30.9,7.813c-1.637,3.069-3.682,6.955-4.091,9.819v2.25c.2,1.432.818,2.046,1.637,2.046,1.841-.409,4.3-4.091,5.114-7.978.2-1.023,1.023-1.432,1.841-.409A7.038,7.038,0,0,1,35.6,17.223Zm-30.072,0a1.3,1.3,0,0,0,1.227,0c1.432-.2,2.455-2.046,3.273-3.682,1.023-2.046,1.841-4.91,1.227-5.319C10.237,7.608,7.168,11.29,5.941,16,5.532,16.814,5.532,17.018,5.532,17.223Z" transform="translate(30.504 14.936)"/><path class="c" d="M9.359,15.384a9.615,9.615,0,0,1,2.455-1.841c2.25-1.227,3.682-.818,5.319,1.432a3.388,3.388,0,0,1,1.023,2.455,5.372,5.372,0,0,1-1.023,4.091A20.178,20.178,0,0,1,11,26.84c1.023,3.887,2.659,6.546,4.3,6.137,1.841-.409,3.887-4.5,4.705-7.774.409-1.432,1.023-1.637,1.841-.409a3.96,3.96,0,0,1,0,3.478c-.614,2.046-2.659,6.137-6.955,6.955-3.887.614-7.569-1.637-9-9-.818,2.659-1.637,6.137-2.659,10.433a1.1,1.1,0,0,1-1.841.614,3.445,3.445,0,0,1-1.227-2.25,10.82,10.82,0,0,1,0-3.682c1.023-7.16,5.728-23.116,9-30.276C9.768-.163,10.586-.368,11.4.655A3.676,3.676,0,0,1,12.223,2.5C12.837,4.746,11.2,9.247,9.359,15.384Zm.614,3.069A20.842,20.842,0,0,0,6.29,25.2a25.834,25.834,0,0,0,6.137-4.91c1.841-2.046,2.25-4.091,1.841-4.5C13.655,15.179,12.018,16.2,9.973,18.452Z" transform="translate(63.294)"/></g></g></svg>