<svg xmlns="http://www.w3.org/2000/svg" viewBox="3166.3 -847.541 340.184 459.039"><defs><style>.a{fill:#eee;}.b{fill:#53d9ad;}.c{fill:#2c343e;}.d{fill:#232931;}</style></defs><g transform="translate(1990 -2101)"><ellipse class="a" cx="103.389" cy="103.389" rx="103.389" ry="103.389" transform="translate(1309.706 1505.72)"/><ellipse class="b" cx="36.687" cy="36.686" rx="36.687" ry="36.686" transform="translate(1309.706 1355.639)"/><ellipse class="c" cx="66.703" cy="66.703" rx="66.703" ry="66.703" transform="translate(1176.3 1439.017)"/><g transform="matrix(0.996, 0.087, -0.087, 0.996, 118.592, -104.21)"><path class="d" d="M23.616,18.677a11.791,11.791,0,0,1,2.906,2.288,12.913,12.913,0,0,1,2.007,3.03,10.108,10.108,0,0,1,.906,4.484,10.123,10.123,0,0,1-.963,4.344,11.149,11.149,0,0,1-2.719,3.618,13.9,13.9,0,0,1-4.11,2.5,13.688,13.688,0,0,1-5.137.943H0V0H16.186a11.936,11.936,0,0,1,8.252,3.278,11.22,11.22,0,0,1,2.482,3.509,10.277,10.277,0,0,1,.9,4.282,7.693,7.693,0,0,1-.68,3.324A11.565,11.565,0,0,1,25.7,16.76,9.109,9.109,0,0,1,23.616,18.677ZM6.133,16.45H16.186a5.751,5.751,0,0,0,4.142-1.608A5.063,5.063,0,0,0,20.312,7.3,5.789,5.789,0,0,0,16.186,5.69H6.133ZM16.505,34.2a7.11,7.11,0,0,0,2.687-.51,6.85,6.85,0,0,0,2.162-1.362,6.307,6.307,0,0,0,1.424-1.995,6.121,6.121,0,0,0,0-4.947,6.327,6.327,0,0,0-1.424-1.995,6.857,6.857,0,0,0-2.165-1.36,7.1,7.1,0,0,0-2.684-.509H6.133V34.2Z" transform="matrix(0.799, 0.602, -0.602, 0.799, 1219.674, 1256.147)"/><path class="d" d="M6.48,11.379H12.3V40.5a11.593,11.593,0,0,1-.68,4.1,8.754,8.754,0,0,1-1.912,3.074A8.724,8.724,0,0,1,6.829,49.64a9.16,9.16,0,0,1-3.6.7,7.514,7.514,0,0,1-2.308-.309A4.01,4.01,0,0,1,0,49.687v-5.04a2.337,2.337,0,0,0,.6.186c.211.041.422.072.632.092s.454.031.728.031a4.431,4.431,0,0,0,3.225-1.267A4.264,4.264,0,0,0,6.48,40.5ZM9.39,6.957A3.51,3.51,0,0,1,6.86,5.952,3.323,3.323,0,0,1,5.816,3.463,3.286,3.286,0,0,1,6.86,1.005,3.5,3.5,0,0,1,9.39,0a3.517,3.517,0,0,1,2.529,1.005,3.265,3.265,0,0,1,1.043,2.458,3.33,3.33,0,0,1-1.043,2.474A3.488,3.488,0,0,1,9.39,6.957Z" transform="matrix(0.799, 0.602, -0.602, 0.799, 1240.343, 1271.722)"/><path class="d" d="M26.557,20.594A16.385,16.385,0,0,1,24.722,23.9a12.613,12.613,0,0,1-2.655,2.721,12.07,12.07,0,0,1-3.588,1.84,14.712,14.712,0,0,1-4.567.665,13.869,13.869,0,0,1-5.439-1.067,13.479,13.479,0,0,1-4.425-3A13.893,13.893,0,0,1,1.077,20.47,15.665,15.665,0,0,1,0,14.564,15.527,15.527,0,0,1,1.075,8.69,14.508,14.508,0,0,1,3.981,4.1a13.082,13.082,0,0,1,4.33-3.016,13.42,13.42,0,0,1,10.557,0A13.084,13.084,0,0,1,23.2,4.1,14.427,14.427,0,0,1,26.1,8.69a15.614,15.614,0,0,1,1.075,5.874,7.7,7.7,0,0,1-.059.975c-.044.319-.085.592-.127.819q-.063.434-.127.742H6.134a6.45,6.45,0,0,0,.791,2.535,8.2,8.2,0,0,0,1.66,2.118,7.512,7.512,0,0,0,2.386,1.453,8.043,8.043,0,0,0,2.941.541,7.154,7.154,0,0,0,4.221-1.113,10.252,10.252,0,0,0,2.259-2.042ZM13.6,5.381A6.831,6.831,0,0,0,8.678,7.313a8.854,8.854,0,0,0-2.545,5.056H21.688a8.6,8.6,0,0,0-2.575-5.04A7.726,7.726,0,0,0,13.6,5.381Z" transform="matrix(0.799, 0.602, -0.602, 0.799, 1246.093, 1289.915)"/><path class="d" d="M12.932,0a4.7,4.7,0,0,1,.837.062q.334.063.617.124l.506.124V6.03q-.254-.062-.6-.124c-.212-.041-.432-.088-.664-.139a3.194,3.194,0,0,0-.7-.077,6.815,6.815,0,0,0-2.783.571A7.477,7.477,0,0,0,7.887,7.793a7.117,7.117,0,0,0-1.516,2.227,6.57,6.57,0,0,0-.553,2.659v16.14H0V.31H4.206L5.5,3.186A9.305,9.305,0,0,1,7.367,1.578,13.313,13.313,0,0,1,9.675.511,9.446,9.446,0,0,1,12.932,0Z" transform="matrix(0.799, 0.602, -0.602, 0.799, 1270.12, 1308.02)"/><path class="d" d="M5.818,0H0V39.888H5.818V39.87l5.005-8.386,5.236,8.4h6.727L14.25,25.664l8.06-13.515-6.251,0L5.818,29.29Z" transform="matrix(0.799, 0.602, -0.602, 0.799, 1291.522, 1310.288)"/></g></g></svg>