<svg xmlns="http://www.w3.org/2000/svg" viewBox="6166.648 1587.544 187.555 176.456"><defs><style>.a,.c{fill:#393e46;}.a{font-size:17px;font-family:HouseSlant-Regular, House Slant;}.b{fill:#4ecca3;}</style></defs><g transform="translate(6166.667 1587.545)"><g transform="translate(100.932 13.103)"><text class="a" transform="translate(7.484 18.405) rotate(-2.498)"><tspan x="0" y="0">We got</tspan></text><text class="a" transform="translate(0.715 41.719) rotate(-2.498)"><tspan x="0" y="0">you, bro.</tspan></text></g><path class="b" d="M46.593,216.261a45.471,45.471,0,1,1,1.082,0Z" transform="translate(0 -39.806)"/><g transform="translate(79.359 -0.001)"><path class="c" d="M225.461,33C223.161,9.2,195.026-.068,174.6,0c-12.986.068-26.309,3.179-37.469,9.942-8.792,5.343-16.841,13.391-19.14,23.739a26.769,26.769,0,0,0,2.1,17.585c.879,1.758,2.705,3.585,2.908,5.614.2,2.232-.406,4.937-.541,7.169-.271,5-.338,10.01-.271,15.015a1.719,1.719,0,0,0,2.57,1.488c5.208-3.585,11.295-7.575,17.382-9.333,2.976-.879,5.816.676,8.792,1.42a71.306,71.306,0,0,0,8.454,1.488A76.915,76.915,0,0,0,194.349,70c15.623-5.749,32.329-18.667,31.111-37-.135-2.164-3.517-2.164-3.382,0,1.217,18.87-17.99,30.976-33.884,35.44a72.829,72.829,0,0,1-35.169,1.15c-2.57-.541-5-1.353-7.507-2.1-2.435-.744-4.464.541-6.763,1.556a92.718,92.718,0,0,0-15.623,8.657c.879.473,1.691.947,2.57,1.488-.135-7.44.338-14.744.744-22.184.135-2.908-2.164-4.734-3.382-7.3a23.035,23.035,0,0,1-2.3-9.942c-.068-9.874,6.358-18.329,13.932-24.01,18.464-13.8,46.938-16.435,67.7-6.56,9.672,4.6,18.6,12.647,19.681,23.942C222.282,35.169,225.664,35.169,225.461,33Z" transform="translate(-117.347 0.001)"/></g><path class="c" d="M50.021,173.851c-2.57,0-1.758,2.435-4.4,8.522a13.251,13.251,0,0,1-8.725,7.372c-5.072,2.435-15.42-.812-17.923-2.841s-2.841-4.87-3.855-7.643-2.841-6.763-4.261-10.618,2.841-3.449,2.841-3.449H31.625c3.923,0,13.391,3.449,18.4,3.449s14.541-3.449,18.4-3.449H86.34s4.261-.406,2.841,3.449-3.246,7.845-4.261,10.618-1.42,5.614-3.855,7.643-12.783,5.275-17.923,2.841a13.251,13.251,0,0,1-8.725-7.372C51.779,176.286,52.591,173.851,50.021,173.851Z" transform="translate(-3.428 -53.464)"/><path class="c" d="M76.354,230.119a31.083,31.083,0,0,0,22.387-14.2c2.841-4.464-3.72-9.672-6.56-5.072a22.791,22.791,0,0,1-16.773,11.024c-5.275.676-4.4,8.928.947,8.251Z" transform="translate(-23.268 -67.664)"/></g></svg>