<svg id="Group_119" data-name="Group 119" xmlns="http://www.w3.org/2000/svg" viewBox="0 0 1306.247 574.539">
  <defs>
    <style>
      .cls-1 {
        fill: #6bddb9;
      }

      .cls-2 {
        fill: #399a7a;
      }

      .cls-3 {
        fill: #fff;
      }
    </style>
  </defs>
  <path id="Path_84" data-name="Path 84" class="cls-1" d="M0,405.067s169.114-25.386,249.378-129.542C306.5,201.607,389.373,88.492,513.688,63.852c62.718-12.32,143.728,33.6,186.287,113.863,13.44,25.386,131.035-51.518,264.31,80.264,119.836,118.342,341.961,147.461,341.961,147.461Z" transform="translate(0 169.099)"/>
  <g id="Group_118" data-name="Group 118" transform="translate(469.263 0)">
    <path id="Path_85" data-name="Path 85" class="cls-2" d="M235.5,271.4s-11.573-28-48.532-57.491c-42.185-33.6-41.065-88.1-41.065-88.1l14.933,13.066S152.249,112,174.274,85.117c0,0,3.36,11.2,7.093,12.693,0,0,6.72-31.359,29.119-54.5,0,0,2.613,14.186,5.973,16.053,0,0,14.186-40.692,39.2-59.358l.747,26.879s8.96-7.093,10.826-13.066c0,0,19.413,32.852,14.186,92.21,0,0,11.946-5.973,14.933-13.44,0,0,30.239,33.972,24.266,80.637,0,0,10.08.373,13.44-4.107,0,0-4.48,23.519-38.825,39.2C275.071,217.272,244.832,242.658,235.5,271.4Z" transform="translate(-70.491 0)"/>
    <path id="Path_86" data-name="Path 86" class="cls-2" d="M214.177,143.99s16.426-29.119-2.987-64.958c0,0-2.613,12.32-5.6,15.306,0,0-6.72-26.879-57.491-41.439,0,0,16.8,25.386,10.826,28s-28.372-7.093-33.225-7.093c0,0,44.425,27.252,14.559,47.412l13.813,9.333-11.2,10.08s10.826,12.693,30.612,20.906c15.306,6.346,44.052,7.093,61.971,2.24C235.083,163.776,222.763,150.71,214.177,143.99Z" transform="translate(-125.7 144.586)"/>
    <path id="Path_87" data-name="Path 87" class="cls-3" d="M141.4,70.6s58.238,43.678,86.237,88.1l-4.853,10.826C222.784,169.9,188.438,112.412,141.4,70.6Z" transform="translate(-82.789 192.964)"/>
    <path id="Path_88" data-name="Path 88" class="cls-3" d="M188.078,18s-25.386,47.038-20.159,101.916,13.813,87.357,9.333,101.543c0,0,3.36-7.093,5.6-11.573,1.493-2.987,4.48-7.466,4.48-7.466s-6.346-43.678-10.826-83.624S177.625,57.945,188.078,18Z" transform="translate(-12.245 49.198)"/>
    <path id="Path_89" data-name="Path 89" class="cls-3" d="M213.233,67.3c0,22.026-2.613,31.359-8.213,49.278-7.84,24.639-12.693,40.319-16.8,68.318-7.84,54.131-7.84,98.93-4.48,165.381a134.177,134.177,0,0,0-24.639,4.48c-1.867-23.892-6.346-89.6,24.266-200.473,7.093-26.132,14.933-41.439,20.159-67.944,0,0,2.24-8.213,5.6-13.44C212.113,67.673,213.233,67.3,213.233,67.3Z" transform="translate(-38.146 183.944)"/>
    <path id="Path_90" data-name="Path 90" class="cls-2" d="M140.4,182.954s110.876-89.6,152.315,0" transform="translate(-85.522 391.212)"/>
    <path id="Path_91" data-name="Path 91" class="cls-2" d="M175.9,136.351c1.867-18.293,14.933-44.8,34.719-51.518C231.9,77.366,257.284,81.1,274.083,58.7c-3.36,7.466-2.613,15.679-7.093,25.759-2.613,5.973-6.72,19.786-25.012,29.119-17.173,8.586-35.465,7.093-51.145,12.32A37.727,37.727,0,0,0,175.9,136.351Z" transform="translate(11.507 160.439)"/>
    <path id="Path_92" data-name="Path 92" class="cls-3" d="M250.87,70.6s-69.437,30.986-84.37,89.6V140.784C166.5,140.411,181.433,94.119,250.87,70.6Z" transform="translate(-14.185 192.964)"/>
    <g id="Group_117" data-name="Group 117" transform="translate(89.597 142.982)">
      <rect id="Rectangle_34" data-name="Rectangle 34" class="cls-1" width="24.266" height="7.84" transform="translate(38.452 338.975)"/>
      <rect id="Rectangle_35" data-name="Rectangle 35" class="cls-1" width="24.266" height="2.613" transform="translate(33.226 353.161)"/>
      <rect id="Rectangle_36" data-name="Rectangle 36" class="cls-1" width="32.106" height="3.733" transform="translate(13.44 378.92)"/>
      <rect id="Rectangle_37" data-name="Rectangle 37" class="cls-1" width="24.266" height="13.066" transform="translate(21.279 267.297)"/>
      <rect id="Rectangle_38" data-name="Rectangle 38" class="cls-1" width="24.266" height="4.48" transform="translate(31.732 285.216)"/>
      <rect id="Rectangle_39" data-name="Rectangle 39" class="cls-1" width="24.266" height="2.613" transform="translate(50.772 234.072)"/>
      <rect id="Rectangle_40" data-name="Rectangle 40" class="cls-1" width="24.266" height="2.613" transform="translate(61.225 146.715)"/>
      <rect id="Rectangle_41" data-name="Rectangle 41" class="cls-2" width="24.266" height="2.613" transform="translate(57.491 45.172)"/>
      <rect id="Rectangle_42" data-name="Rectangle 42" class="cls-2" width="24.266" height="2.613" transform="translate(45.545)"/>
      <rect id="Rectangle_43" data-name="Rectangle 43" class="cls-2" width="24.266" height="2.613" transform="translate(55.251 85.49)"/>
      <rect id="Rectangle_44" data-name="Rectangle 44" class="cls-1" width="24.266" height="2.613" transform="translate(0 174.34)"/>
      <rect id="Rectangle_45" data-name="Rectangle 45" class="cls-1" width="24.266" height="4.853" transform="translate(54.505 138.502)"/>
      <rect id="Rectangle_46" data-name="Rectangle 46" class="cls-2" width="24.266" height="4.853" transform="translate(74.291 52.265)"/>
      <rect id="Rectangle_47" data-name="Rectangle 47" class="cls-1" width="24.266" height="4.853" transform="translate(17.546 166.127)"/>
      <rect id="Rectangle_48" data-name="Rectangle 48" class="cls-1" width="24.266" height="4.853" transform="translate(53.385 182.553)"/>
      <rect id="Rectangle_49" data-name="Rectangle 49" class="cls-1" width="15.306" height="4.107" transform="translate(87.357 156.794)"/>
      <rect id="Rectangle_50" data-name="Rectangle 50" class="cls-1" width="15.306" height="4.48" transform="translate(30.239 198.606)"/>
    </g>
  </g>
</svg>
