<svg xmlns="http://www.w3.org/2000/svg" viewBox="-1455.295 -387.563 124 50.126"><defs><style>.a{fill:#60bc9d;}.b{fill:#fff;}</style></defs><path class="a" d="M2481.886,1013.386a5.354,5.354,0,1,1-1.386,3.6A4.863,4.863,0,0,1,2481.886,1013.386Z" transform="translate(-3821.756 -1369.804)"/><path class="b" d="M529.2,515.4a11.5,11.5,0,0,1,2.83,2.278,12.868,12.868,0,0,1,1.955,3.018,11.087,11.087,0,0,1-.061,8.79,11.086,11.086,0,0,1-2.646,3.6,13.489,13.489,0,0,1-4,2.494,13.076,13.076,0,0,1-5,.939H506.2V496.807h15.764a11.241,11.241,0,0,1,4.418.877A11.524,11.524,0,0,1,530,500.071a11.18,11.18,0,0,1,2.417,3.495,10.432,10.432,0,0,1,.877,4.265,7.806,7.806,0,0,1-.663,3.31,11.546,11.546,0,0,1-1.4,2.355A8.927,8.927,0,0,1,529.2,515.4Zm-17.027-2.217h9.791a5.535,5.535,0,0,0,4.034-1.6,5.118,5.118,0,0,0-.015-7.509,5.555,5.555,0,0,0-4.018-1.6h-9.791Zm10.1,17.675a6.782,6.782,0,0,0,2.617-.509A6.65,6.65,0,0,0,527,529a6.159,6.159,0,0,0,0-8.9,6.662,6.662,0,0,0-2.109-1.355,6.791,6.791,0,0,0-2.617-.508h-10.1v12.624Z" transform="translate(-1961.495 -884.37)"/><path class="b" d="M948.861,508.17h5.666v29a11.773,11.773,0,0,1-.662,4.08A8.753,8.753,0,0,1,952,544.316a8.486,8.486,0,0,1-2.8,1.955,8.75,8.75,0,0,1-3.51.693,7.173,7.173,0,0,1-2.249-.308,3.886,3.886,0,0,1-.892-.339V541.3a2.218,2.218,0,0,0,.584.185q.308.058.616.092c.206.02.442.031.709.031a4.314,4.314,0,0,0,4.4-4.434Zm2.834-4.4a3.381,3.381,0,0,1-2.464-1,3.342,3.342,0,0,1-1.017-2.479,3.308,3.308,0,0,1,1.017-2.447,3.533,3.533,0,0,1,4.927,0,3.282,3.282,0,0,1,1.015,2.447,3.464,3.464,0,0,1-3.478,3.478Z" transform="translate(-2372.641 -884.401)"/><path class="b" d="M1230.473,708.08a16.4,16.4,0,0,1-1.787,3.292,12.428,12.428,0,0,1-2.585,2.71,11.655,11.655,0,0,1-3.495,1.832,14.046,14.046,0,0,1-4.448.663,13.136,13.136,0,0,1-9.606-4.049,13.874,13.874,0,0,1-2.9-4.572,16.951,16.951,0,0,1,0-11.731,14.488,14.488,0,0,1,2.83-4.572,12.763,12.763,0,0,1,18.718,0,14.419,14.419,0,0,1,2.83,4.572,15.918,15.918,0,0,1,1.051,5.852,7.815,7.815,0,0,1-.058.97c-.043.318-.083.59-.124.816q-.062.431-.124.739h-20.2a6.543,6.543,0,0,0,.77,2.525,8.174,8.174,0,0,0,1.617,2.109,7.3,7.3,0,0,0,2.324,1.448,7.694,7.694,0,0,0,2.864.539,6.85,6.85,0,0,0,4.11-1.108,10.1,10.1,0,0,0,2.2-2.033Zm-12.623-15.149a6.574,6.574,0,0,0-4.789,1.925,8.893,8.893,0,0,0-2.479,5.034h15.148a8.631,8.631,0,0,0-2.509-5.019A7.418,7.418,0,0,0,1217.85,692.932Z" transform="translate(-2619.564 -1064.114)"/><path class="b" d="M1724.425,687.631a4.48,4.48,0,0,1,.815.062q.324.061.6.122c.163.042.327.083.492.124v5.7q-.247-.061-.585-.122c-.206-.042-.421-.087-.646-.139a3.075,3.075,0,0,0-.677-.077,6.512,6.512,0,0,0-2.71.57,7.239,7.239,0,0,0-2.2,1.526,7.1,7.1,0,0,0-1.478,2.217,6.672,6.672,0,0,0-.539,2.648v16.073h-5.666V687.941h4.1l1.262,2.864a9.123,9.123,0,0,1,1.817-1.6,12.8,12.8,0,0,1,2.247-1.062A9.062,9.062,0,0,1,1724.425,687.631Z" transform="translate(-3097.486 -1064.171)"/><path class="b" d="M2028.7,496.81h-5.666v39.719h5.666v-.018l4.875-8.351,5.1,8.369h6.551l-8.313-14.163,7.849-13.459-6.088,0-9.974,17.065Z" transform="translate(-3390.71 -884.373)"/></svg>