<?xml version="1.0" encoding="utf-8"?>
<!-- Generator: Adobe Illustrator 25.1.0, SVG Export Plug-In . SVG Version: 6.00 Build 0)  -->
<svg version="1.1" id="Layer_1" xmlns="http://www.w3.org/2000/svg" xmlns:xlink="http://www.w3.org/1999/xlink" x="0px" y="0px"
	 viewBox="0 0 376.4 149.7" style="enable-background:new 0 0 376.4 149.7;" xml:space="preserve">
<style type="text/css">
	.st0{fill:#232931;}
	.st1{fill:#0FCFA2;}
</style>
<g id="Group_55" transform="translate(-2475.559 -6150.352)">
	<g id="Group_51" transform="translate(2475.559 6150.352)">
		<g>
			<rect x="25.7" y="10.9" class="st0" width="54.5" height="3.7"/>
			<rect x="97" y="10.9" class="st0" width="54.5" height="3.7"/>
			<rect x="200.6" y="36" class="st0" width="54.5" height="3.7"/>
			<rect x="273.1" y="36" class="st0" width="54.5" height="3.7"/>
			<rect x="169.4" y="10.9" class="st0" width="158.1" height="3.7"/>
			<rect x="25.7" y="36" class="st0" width="158.1" height="3.7"/>
			<rect x="25.7" y="61.1" class="st0" width="158.1" height="3.7"/>
			<rect x="217.3" y="61.1" class="st0" width="110.2" height="3.7"/>
			<rect x="25.7" y="85.7" class="st0" width="54.5" height="3.7"/>
			<rect x="97" y="85.7" class="st0" width="54.5" height="3.7"/>
			<rect x="200.6" y="110.8" class="st0" width="54.5" height="3.7"/>
			<rect x="273.1" y="110.8" class="st0" width="54.5" height="3.7"/>
			<rect x="169.4" y="85.7" class="st0" width="158.1" height="3.7"/>
			<rect x="25.7" y="110.8" class="st0" width="158.1" height="3.7"/>
			<rect x="25.7" y="135.8" class="st0" width="158.1" height="3.7"/>
			<rect x="217.3" y="135.8" class="st0" width="110.2" height="3.7"/>
		</g>
		<path id="Path_221" class="st1" d="M11.4,22.9L0,11.4L11.4,0l2.3,2.3l-9.2,9.2l9.2,9.2L11.4,22.9z"/>
		<path id="Path_222" class="st1" d="M364.9,149.7l-2.3-2.3l9.2-9.2l-9.2-9.2l2.3-2.3l11.4,11.4L364.9,149.7z"/>
		
			<rect id="Rectangle_72" x="339.4" y="136.3" transform="matrix(0.2901 -0.957 0.957 0.2901 117.2104 433.8867)" class="st0" width="23.4" height="3.2"/>
	</g>
</g>
</svg>
