<?xml version="1.0" encoding="utf-8"?>
<!-- Generator: Adobe Illustrator 25.1.0, SVG Export Plug-In . SVG Version: 6.00 Build 0)  -->
<svg version="1.1" id="Layer_1" xmlns="http://www.w3.org/2000/svg" xmlns:xlink="http://www.w3.org/1999/xlink" x="0px" y="0px"
	 viewBox="0 0 120.4 47.9" style="enable-background:new 0 0 120.4 47.9;" xml:space="preserve">
<style type="text/css">
	.st0{fill:#232931;}
</style>
<g>
	<rect x="7.3" y="2.9" class="st0" width="17" height="1.8"/>
	<rect x="31" y="2.9" class="st0" width="17" height="1.8"/>
	<rect x="64.6" y="11.2" class="st0" width="17" height="1.8"/>
	<rect x="89.2" y="11.2" class="st0" width="17" height="1.8"/>
	<rect x="58.3" y="2.9" class="st0" width="47.9" height="1.8"/>
	<rect x="7.3" y="11.2" class="st0" width="47.9" height="1.8"/>
	<rect x="7.3" y="19.2" class="st0" width="57.9" height="1.8"/>
	<rect x="72.6" y="19.2" class="st0" width="33.6" height="1.8"/>
	<rect x="7.3" y="27.1" class="st0" width="17" height="1.8"/>
	<rect x="31" y="27.1" class="st0" width="17" height="1.8"/>
	<rect x="64.6" y="35.2" class="st0" width="17" height="1.8"/>
	<rect x="89.2" y="35.2" class="st0" width="17" height="1.8"/>
	<rect x="54.3" y="27.1" class="st0" width="51.9" height="1.8"/>
	<rect x="7.3" y="35.2" class="st0" width="47.9" height="1.8"/>
	<rect x="7.3" y="43.4" class="st0" width="47.9" height="1.8"/>
	<rect x="72.6" y="43.4" class="st0" width="33.6" height="1.8"/>
	<polygon class="st0" points="3.4,0 0,3.4 3.4,6.8 4.1,6.2 1.4,3.4 4.1,0.7 	"/>
	<polygon class="st0" points="117,41.1 116.3,41.8 119.1,44.5 116.3,47.2 117,47.9 120.4,44.5 	"/>
	<rect x="109.4" y="43.9" transform="matrix(0.29 -0.957 0.957 0.29 37.6528 139.5404)" class="st0" width="7" height="1"/>
</g>
</svg>
