<svg xmlns="http://www.w3.org/2000/svg" fill="none" viewBox="0 0 1200 627">
  <defs/>
  <g clip-path="url(#clip0)">
    <path fill="url(#paint0_linear)" d="M0 0h1200v627H0z"/>
    <g style="mix-blend-mode:hue">
      <mask id="a" width="784" height="787" x="207" y="-326" maskUnits="userSpaceOnUse">
        <path fill="#fff" d="M937.7 384c9.8-1.1 19 1.7 27.7 8.6a36.6 36.6 0 0114.8 25c1 9.8-1.8 19-8.7 27.8a36.6 36.6 0 01-25 14.7c-9.8 1.1-19-1.8-27.7-8.6a36.7 36.7 0 01-14.7-25c-1.2-9.8 1.7-19 8.6-27.8a36.7 36.7 0 0125-14.7zM442-108.2a86.9 86.9 0 013.4 53.7c-2.2 9.9-7.4 20-15.7 30.5C422.7-15.2 414-8 404-3A83.5 83.5 0 01371.4 6a101.7 101.7 0 01-69.2-22l-95-75.2 186-234.5 93 73.8a86.9 86.9 0 0132.2 56.9c1.4 10.7.7 21.6-2 32a78.6 78.6 0 01-14.8 29.3 58.8 58.8 0 01-19.4 16.4 87 87 0 01-19.3 7.3c-6.9 1.7-14 2.3-21 1.8zM351.7-201l57.8 45.8a41.7 41.7 0 0031.3 9.5 38.4 38.4 0 0035-44.4 42 42 0 00-16.2-28.3L402-264.3 351.8-201zM328.7-49.4a51.2 51.2 0 0036.6 11.1 47.3 47.3 0 0032-17.4 46.9 46.9 0 003.5-53c-3.3-5.9-7.7-11-13-15.2L328-171.2l-59 74.5 59.6 47.3z"/>
        <path fill="#fff" d="M534.9-125.9l33.5 26.5L432.6 72c-7.1 9-14.8 16-23 21a64 64 0 01-75-4.6A54 54 0 01319 69.8l23.5-29.6a17 17 0 002.6 3.8 49.1 49.1 0 007.3 7 32.4 32.4 0 0046.8-5.6L534.8-126zm37.3-12.7c-5.7-4.5-9-10.4-9.8-17.5-.9-7 1-13.5 5.6-19.4a25 25 0 0117.4-9.6c7.2-.8 13.6 1 19.3 5.6 5.7 4.5 9 10.3 9.8 17.4 1 7.1-.9 13.5-5.4 19.2-4.6 5.7-10.4 9-17.6 9.8-7.1.8-13.6-1-19.3-5.5zM645.2 155.8c-8.2 4.7-17 8.4-26 11a88 88 0 01-57.2-1.7c-9.8-3.5-19.6-9.1-29.3-16.8A99.9 99.9 0 01499.2 39 119.9 119.9 0 01520.6-.8c10-12.6 21.1-22.4 33.5-29.6 12.4-7.1 25.1-11.7 38.2-13.7a96 96 0 01110.5 87.6c1 13.1-.6 26.6-4.7 40.2a119.4 119.4 0 01-26 45 142 142 0 01-8.8 8L544 42c-3.6 5.6-6.1 12-7.2 18.5a55 55 0 006.6 39.5 58 58 0 0014.4 16.6c10.2 8 20 12.3 29.4 12.7 9.5.4 17-.2 22.6-1.7l35.4 28zM641.6 7.2a49.6 49.6 0 00-37.3-11A67 67 0 00566 14.3l89.4 71a65 65 0 008.7-41.4 56 56 0 00-22.6-36.7zM835.9 109.8a33.7 33.7 0 017.5 7.7l2.3 3-26.7 33.7-2.8-3.5-3.2-3.8a23 23 0 00-3.7-3.7 49 49 0 00-18.6-9.3 54.8 54.8 0 00-39.3 4.9c-6 3.2-11.3 7.7-15.5 13l-75.3 95-33.4-26.6L760 52.6l24.2 19.2-6 22.8c6-1.1 12.2-1.4 18.3-1 5.3.7 11.3 2 18.3 4.3a68 68 0 0121 11.9zM952.7 96.4l-13-10.3L919.2 70 733.4 304.4l33.5 26.5 68-26.5-9.1 73.2 38.7 30.7 17.2-122.5L990.9 243l-36-28.5-138.7 54L952.7 96.4z"/>
      </mask>
      <g mask="url(#a)">
        <path fill="url(#paint1_linear)" d="M0 1h1200v626H0z"/>
      </g>
    </g>
    <g style="mix-blend-mode:hue">
      <mask id="b" width="777" height="800" x="963" y="-9" maskUnits="userSpaceOnUse">
        <path fill="#fff" d="M1020 68.4c-9.8.9-19-2.2-27.5-9.3a36.6 36.6 0 01-14.2-25.4c-.9-9.8 2.2-19 9.3-27.5A36.6 36.6 0 011013-7.9c9.8-1 19 2.2 27.5 9.3a36.7 36.7 0 0114.1 25.3c1 9.8-2.2 19-9.3 27.5a36.7 36.7 0 01-25.3 14.2zM1115.3 345c-1.6-1.4-3-2.8-4.4-4.4l-3-3.6-2.2-3 27.5-33 2.8 3.5 3 3.9a49.1 49.1 0 0022 13.5 54.8 54.8 0 0039.4-4 50.2 50.2 0 0015.9-12.7l77.5-93 32.8 27.2L1189.8 404 1166 384l6.5-22.7c-6 1-12.2 1.2-18.2.5a96.8 96.8 0 01-18.2-4.6 67.9 67.9 0 01-20.8-12.4zM998.2 355.5l12.7 10.6 20.1 16.7 191.4-230-32.8-27.3-68.6 25 10.8-73.1-38-31.6-20 122.1L963.4 208l35.3 29.3 140-50.7-140.5 168.9z"/>
      </mask>
      <g mask="url(#b)">
        <path fill="url(#paint2_linear)" stroke="#000" stroke-width="111" d="M-55.5-54.5h1311v737h-1311z"/>
      </g>
    </g>
    <g style="mix-blend-mode:hue">
      <mask id="c" width="844" height="801" x="-363" y="-226" maskUnits="userSpaceOnUse">
        <path fill="#fff" d="M367.7 484c9.8-1.1 19 1.7 27.7 8.6a36.6 36.6 0 0114.8 25c1.1 9.8-1.8 19-8.7 27.8a36.6 36.6 0 01-25 14.7c-9.8 1.1-19-1.8-27.7-8.6a36.7 36.7 0 01-14.7-25c-1.2-9.8 1.7-19 8.6-27.8a36.7 36.7 0 0125-14.7zM-35.1-25.9L-1.6.6-137.4 172c-7.1 9-14.8 16-23 21s-16.7 8.1-25.3 9.3a64 64 0 01-49.7-13.9 54 54 0 01-15.5-18.5l23.4-29.6c.7 1.3 1.6 2.6 2.6 3.8a49 49 0 007.3 7 32.4 32.4 0 0046.8-5.6L-35.2-26zM2.2-38.6c-5.7-4.5-9-10.4-9.8-17.5-.9-7 1-13.5 5.6-19.4A25 25 0 0115.4-85c7.2-.8 13.6 1 19.3 5.6 5.7 4.5 9 10.3 9.8 17.4 1 7.1-.9 13.5-5.4 19.2-4.5 5.7-10.4 9-17.6 9.8-7.1.8-13.6-1-19.3-5.5zM75.2 255.8c-8.2 4.7-17 8.4-26 11A88 88 0 01-8 265.2c-9.8-3.5-19.6-9.1-29.3-16.8A99.9 99.9 0 01-70.8 139a119.9 119.9 0 0121.4-39.7c10-12.6 21.2-22.4 33.5-29.6 12.4-7.1 25.1-11.7 38.2-13.7a96 96 0 01110.5 87.6c1 13.1-.6 26.6-4.7 40.2a119.4 119.4 0 01-26 45 140.3 140.3 0 01-8.8 8L-26 142c-3.6 5.6-6.1 12-7.2 18.5a55 55 0 006.6 39.5 58 58 0 0014.4 16.6c10.2 8 20 12.3 29.4 12.7 9.5.4 17-.2 22.6-1.7l35.4 28zm-3.6-148.6a49.6 49.6 0 00-37.3-11A67 67 0 00-4 114.3l89.4 71a65 65 0 008.7-41.4 56 56 0 00-22.6-36.7zM265.9 209.8a33.7 33.7 0 017.5 7.7l2.3 3-26.7 33.7-2.8-3.5-3.2-3.8a23 23 0 00-3.6-3.7 49 49 0 00-18.7-9.3 54.8 54.8 0 00-39.3 4.9c-6 3.2-11.3 7.7-15.5 13l-75.3 95-33.4-26.6L190 152.6l24.1 19.2-6 22.8c6.1-1.1 12.2-1.4 18.3-1 5.3.7 11.3 2 18.3 4.3a68 68 0 0121 11.9zM382.7 196.4l-13-10.3-20.4-16.2-186 234.5 33.5 26.5 68-26.5-9.1 73.2 38.7 30.7 17.2-122.5L420.9 343l-36-28.5-138.7 54 136.5-172.2z"/>
      </mask>
      <g mask="url(#c)">
        <path fill="url(#paint3_linear)" d="M0 1h1200v626H0z"/>
      </g>
    </g>
    <g style="mix-blend-mode:hue">
      <mask id="d" width="838" height="814" x="332" y="77" maskUnits="userSpaceOnUse">
        <path fill="#fff" d="M450 168.4c-9.8.9-19-2.2-27.5-9.3a36.6 36.6 0 01-14.2-25.4c-.9-9.8 2.2-19 9.3-27.5A36.6 36.6 0 01443 92.1c9.8-1 19 2.2 27.5 9.3 8.5 7 13.2 15.5 14.1 25.3 1 9.8-2.2 19-9.3 27.5a36.7 36.7 0 01-25.3 14.2zM934 672.2a86.9 86.9 0 01-2.2-53.8c2.4-9.8 7.9-19.8 16.4-30a77.4 77.4 0 0126.3-20.6 83.5 83.5 0 0132.7-8.1 101.7 101.7 0 0168.7 23.5l93.1 77.5-191.4 230-91.3-76a86.9 86.9 0 01-30.8-57.6 84.2 84.2 0 012.8-31.9c3-10.6 8.3-20.5 15.4-29 6-7.2 12.7-12.5 19.8-15.9a87.1 87.1 0 0119.5-6.9c6.9-1.5 14-2 21-1.2zm88 94.9l-56.8-47.2a41.7 41.7 0 00-31-10.2 38.4 38.4 0 00-36.2 43.6 42 42 0 0015.6 28.6l56.7 47.2 51.6-62zm26.6-151a51.1 51.1 0 00-36.4-12 47.4 47.4 0 00-32.4 16.6 46.9 46.9 0 00-4.8 52.9c3.2 6 7.5 11.3 12.7 15.5l58.6 48.7 60.8-73-58.5-48.8z"/>
        <path fill="#fff" d="M840.6 687.6l-32.8-27.3 139.8-168A88.7 88.7 0 01971 472a64 64 0 0174.9 6.3 54.1 54.1 0 0115 19l-24.2 29c-.6-1.4-1.4-2.7-2.4-3.9a49.3 49.3 0 00-7.1-7 32.4 32.4 0 00-46.9 4.5L840.6 687.5zM803 699.5a25.5 25.5 0 019.4 17.7c.7 7-1.3 13.5-6 19.2a25 25 0 01-17.7 9.3c-7.2.6-13.5-1.4-19.1-6a25.5 25.5 0 01-9.5-17.8 24.8 24.8 0 016-19 25.3 25.3 0 0117.7-9.4c7.2-.7 13.6 1.3 19.2 6zM737 403.4c8.3-4.4 17.1-8 26.2-10.4a88 88 0 0157.1 3c9.8 3.8 19.5 9.7 29 17.6a99.9 99.9 0 0130.9 110.2 119.9 119.9 0 01-22.3 39.1 118.8 118.8 0 01-34.3 28.8 109.2 109.2 0 01-38.4 12.9 96 96 0 01-108.4-90.3c-.7-13.1 1.2-26.5 5.6-40a119.4 119.4 0 0127.2-44.4 140.6 140.6 0 018.9-7.8l117 97.4a49.2 49.2 0 007.7-18.4 55 55 0 00-5.7-39.6 58 58 0 00-14-16.9 51.7 51.7 0 00-29.2-13.4c-9.4-.6-17-.2-22.5 1.2l-34.8-29zm.1 148.6c11 9.1 23.3 13.1 37 12a67 67 0 0038.7-17.2l-87.8-73a65 65 0 00-9.7 41 56 56 0 0021.8 37.2zM545.3 445a33.7 33.7 0 01-7.3-8l-2.3-3 27.5-33 2.8 3.5 3 3.9a23 23 0 003.6 3.7 49 49 0 0018.5 9.8 54.8 54.8 0 0039.3-4 50.2 50.2 0 0015.9-12.7l77.5-93 32.8 27.2L619.8 504 596 484l6.5-22.7c-6 1-12.2 1.2-18.2.6a96.6 96.6 0 01-18.2-4.7 68 68 0 01-20.8-12.4zM428.2 455.5l12.7 10.6 20.1 16.7 191.4-230-32.8-27.3-68.6 25 10.8-73.1-38-31.6-20 122.1L393.4 308l35.3 29.3 140-50.7-140.5 168.9z"/>
      </mask>
      <g mask="url(#d)">
        <path fill="url(#paint4_linear)" stroke="#000" stroke-width="111" d="M-55.5-54.5h1311v737h-1311z"/>
      </g>
    </g>
    <path stroke="#4ECCA3" stroke-width="6" d="M767 348.1h0c2-2 3-4.5 3-8 0-3.3-1-5.9-3-7.9h0c-2-1.9-4.5-3-8-3-3.4 0-6 1.1-7.9 3 0 0 0 0 0 0s0 0 0 0c-2 2-3 4.6-3 8 0 3.4 1 6 3 8H767zm0 0c-2 2-4.5 3-8 3m8-3l-8 3m0 0c-3.4 0-6-1-7.9-3l8 3z"/>
    <path fill="#fff" d="M490.4 295a32.3 32.3 0 0113.4 14.8c1.6 3.4 2.4 7.6 2.4 12.5 0 4.2-.9 8.3-2.6 12.1a31 31 0 01-7.4 10.1 37.7 37.7 0 01-25.2 9.6h-45V243h44.1a31.5 31.5 0 0122.5 9.1c2.9 2.8 5.2 6.1 6.8 9.8 1.6 3.8 2.5 7.8 2.4 12 0 3.4-.6 6.5-1.8 9.2a32.3 32.3 0 01-4 6.6 25 25 0 01-5.6 5.3zm-47.7-6.2h27.4c4.5 0 8.3-1.5 11.3-4.5a14.3 14.3 0 000-21c-3.1-3-6.9-4.4-11.3-4.4h-27.4v30zm28.3 49.5a19 19 0 0013.2-5.2 17.6 17.6 0 005.3-12.5 17.4 17.4 0 00-11.2-16.2 19 19 0 00-7.3-1.4h-28.3v35.3H471z"/>
    <path fill="#fff" d="M514.2 274.7H530v81.1c0 4.3-.6 8-1.8 11.5a24.5 24.5 0 01-13 14 24.5 24.5 0 01-18.7.1v-14l1.7.5a18.1 18.1 0 003.7.3 12 12 0 0012.3-12.4v-81.1zm8-12.3c-2.8 0-5-1-7-2.8a9.4 9.4 0 01-2.8-7c0-2.6 1-5 2.8-6.8a9.4 9.4 0 017-2.8c2.6 0 5 1 6.8 2.8a9.2 9.2 0 012.9 6.8c0 2.7-1 5-2.9 7a9.4 9.4 0 01-6.9 2.8zM611.3 331.2a46 46 0 01-5 9.2 34.8 34.8 0 01-17 12.7 39.3 39.3 0 01-39.4-9.4 38.8 38.8 0 01-8-12.8c-2-5-3-10.5-3-16.5s1-11.4 3-16.4c1.9-4.9 4.5-9.2 7.8-12.7a35.7 35.7 0 0152.4 0c3.3 3.5 6 7.8 8 12.7a44.4 44.4 0 012 23.5h-56.5c.2 2.4 1 4.9 2.2 7a20.4 20.4 0 0011 10c2.5 1 5.3 1.5 8 1.5 4.8 0 8.7-1 11.5-3.1 2.9-2 4.9-4 6.2-5.7h16.8zm-35.4-42.4c-5.2 0-9.7 1.8-13.4 5.4-3.6 3.6-6 8.3-6.9 14H598c-1-5.6-3.3-10.3-7-14a20.8 20.8 0 00-15-5.4zM656.1 273.8a12.5 12.5 0 014 .6l1.4.3v16l-1.7-.4a67 67 0 01-3.7-.6c-2.6 0-5.2.5-7.6 1.6a20.4 20.4 0 00-10.3 10.4c-1 2.4-1.5 5-1.5 7.5v45H621v-79.5h11.4l3.6 8a25.5 25.5 0 0120.2-8.9zM687 243H671.2v111.1H687l13.7-23.4 14.2 23.4h18.4L710 314.5l22-37.7h-17l-28 47.8V243z"/>
  </g>
  <defs>
    <linearGradient id="paint0_linear" x1="0" x2="1232.5" y1="627" y2="554.8" gradientUnits="userSpaceOnUse">
      <stop stop-color="#12F4D8"/>
      <stop offset=".5" stop-color="#0183F6"/>
      <stop offset="1" stop-color="#BE93DE"/>
    </linearGradient>
    <linearGradient id="paint1_linear" x1="600" x2="600" y1="1" y2="627" gradientUnits="userSpaceOnUse">
      <stop stop-color="#D36CDF"/>
      <stop offset=".7" stop-color="#015BE4"/>
    </linearGradient>
    <linearGradient id="paint2_linear" x1="600" x2="600" y1="1" y2="627" gradientUnits="userSpaceOnUse">
      <stop stop-color="#D36CDF"/>
      <stop offset="1" stop-color="#015BE4"/>
    </linearGradient>
    <linearGradient id="paint3_linear" x1="600" x2="600" y1="1" y2="627" gradientUnits="userSpaceOnUse">
      <stop stop-color="#D36CDF"/>
      <stop offset=".7" stop-color="#015BE4"/>
    </linearGradient>
    <linearGradient id="paint4_linear" x1="600" x2="600" y1="1" y2="627" gradientUnits="userSpaceOnUse">
      <stop stop-color="#D36CDF"/>
      <stop offset="1" stop-color="#015BE4"/>
    </linearGradient>
    <clipPath id="clip0">
      <path fill="#fff" d="M0 0h1200v627H0z"/>
    </clipPath>
  </defs>
</svg>
