<svg width="1200" height="630" viewBox="0 0 1200 630" fill="none" xmlns="http://www.w3.org/2000/svg">
<rect width="1200" height="630" fill="#90F494"/>
<path d="M116.118 242.272C111.211 242.272 107.329 241.184 104.47 239.008C101.654 236.875 100.161 233.824 99.99 229.856H109.078C109.249 231.179 109.91 232.331 111.062 233.312C112.257 234.293 113.963 234.784 116.182 234.784C117.974 234.784 119.361 234.443 120.342 233.76C121.323 233.035 121.814 232.117 121.814 231.008C121.814 230.112 121.43 229.387 120.662 228.832C119.937 228.235 118.955 227.701 117.718 227.232C116.523 226.763 115.201 226.315 113.75 225.888C112.214 225.419 110.635 224.885 109.014 224.288C107.435 223.691 105.963 222.965 104.598 222.112C103.275 221.259 102.187 220.192 101.334 218.912C100.523 217.632 100.118 216.075 100.118 214.24C100.118 212.064 100.63 210.165 101.654 208.544C102.678 206.923 104.001 205.621 105.622 204.64C107.243 203.616 108.929 202.955 110.678 202.656L117.398 206.112C115.649 206.325 114.155 206.773 112.918 207.456C111.723 208.096 110.827 208.843 110.23 209.696C109.633 210.549 109.334 211.424 109.334 212.32C109.334 213.515 109.739 214.496 110.55 215.264C111.361 215.989 112.427 216.608 113.75 217.12C115.115 217.632 116.566 218.123 118.102 218.592C119.595 219.061 121.089 219.595 122.582 220.192C124.075 220.747 125.441 221.451 126.678 222.304C127.958 223.115 128.961 224.16 129.686 225.44C130.454 226.677 130.838 228.235 130.838 230.112C130.838 233.824 129.537 236.768 126.934 238.944C124.331 241.163 120.726 242.272 116.118 242.272ZM121.366 225.632L116.502 220.704C119.233 220.149 121.238 219.253 122.518 218.016C123.841 216.779 124.502 215.392 124.502 213.856C124.502 212.832 124.097 211.979 123.286 211.296C122.518 210.613 121.473 210.016 120.15 209.504C118.827 208.992 117.398 208.501 115.862 208.032C114.326 207.52 112.747 206.965 111.126 206.368C109.505 205.728 108.011 204.96 106.646 204.064C105.323 203.168 104.235 202.08 103.382 200.8C102.571 199.477 102.166 197.856 102.166 195.936C102.166 193.717 102.763 191.755 103.958 190.048C105.153 188.299 106.795 186.933 108.886 185.952C111.019 184.928 113.451 184.416 116.182 184.416C120.662 184.416 124.203 185.419 126.806 187.424C129.409 189.429 130.731 192.288 130.774 196H121.878C121.835 194.72 121.345 193.696 120.406 192.928C119.467 192.16 118.059 191.776 116.182 191.776C114.561 191.776 113.345 192.139 112.534 192.864C111.766 193.547 111.382 194.443 111.382 195.552C111.382 196.405 111.745 197.152 112.47 197.792C113.238 198.389 114.241 198.923 115.478 199.392C116.715 199.819 118.059 200.267 119.51 200.736C121.131 201.205 122.774 201.76 124.438 202.4C126.102 202.997 127.638 203.744 129.046 204.64C130.454 205.493 131.585 206.603 132.438 207.968C133.291 209.291 133.718 210.933 133.718 212.896C133.718 214.987 133.27 216.843 132.374 218.464C131.478 220.043 130.113 221.429 128.278 222.624C126.486 223.819 124.182 224.821 121.366 225.632Z" fill="black"/>
</svg>
