<svg xmlns="http://www.w3.org/2000/svg" xmlns:xlink="http://www.w3.org/1999/xlink" width="460.291" height="328.448" viewBox="0 0 460.291 328.448">
  <defs>
    <linearGradient id="linear-gradient" x1="0.91" y1="-0.221" x2="0.91" y2="0.779" gradientUnits="objectBoundingBox">
      <stop offset="0" stop-color="gray" stop-opacity="0.251"/>
      <stop offset="0.54" stop-color="gray" stop-opacity="0.122"/>
      <stop offset="1" stop-color="gray" stop-opacity="0.102"/>
    </linearGradient>
    <linearGradient id="linear-gradient-2" x1="0.422" y1="-3.62" x2="1.422" y2="-3.62" xlink:href="#linear-gradient"/>
    <linearGradient id="linear-gradient-3" x1="0.576" y1="0.481" x2="0.576" y2="1.481" xlink:href="#linear-gradient"/>
    <linearGradient id="linear-gradient-4" x1="-32.511" y1="3.771" x2="-32.511" y2="4.771" xlink:href="#linear-gradient"/>
  </defs>
  <g id="Group_77" data-name="Group 77" transform="translate(0 0.006)">
    <path id="Path_278" data-name="Path 278" d="M432.78,189.4c-16.183,22.205-10.842,53.9-1.488,79.153,3.133,8.453,6.692,17.394,5.068,26.591-1.984,11.243-11.309,19.667-21,24.255-17.671,8.362-38.545,7.027-54.352-3.509-13.641-9.094-23.243-24.206-37.148-32.866-23.272-14.488-53.484-8.015-79.384,3.046-18.324,7.825-38.4,17.9-56.253,10.677-12.566-5.084-21.027-18.026-25.479-31.861-2.149-6.68-3.654-13.93-7.936-19.159a29.3,29.3,0,0,0-9.371-7.085c-31.576-16.534-72.192-6.2-102.8-24.648C21.961,201.539,9.1,177.362,3.753,151.945S-.269,99.7,1.86,73.325c1.513-18.741,3.906-38.768,15.174-53.5C28.951,4.258,48.924-1.93,66.785.509s33.874,12.359,47.883,24.2c17.522,14.773,33.643,33.32,55.435,38.93,14.843,3.819,30.613,1.116,46.043-.079,25.793-1.992,51.5.3,77.041,2.893,24.454,2.48,49.077,5.25,72.237,13.38,16.389,5.754,29.381,16.629,44.812,24.061,10.057,4.844,21.122,5.969,30.588,12.227,11.681,7.709,22.238,21.366,18.812,37.756C456.4,169.459,441.378,177.618,432.78,189.4Z" transform="translate(0 0)" fill="#4ecca3" opacity="0.1" style="isolation: isolate"/>
    <g id="Group_74" data-name="Group 74" transform="translate(329.052 147.896)" opacity="0.5">
      <path id="Path_279" data-name="Path 279" d="M854.99,537.189s1.364-40.409,23.226-63.243a61.254,61.254,0,0,0,16.8-34.92,103.035,103.035,0,0,0,.513-18.836" transform="translate(-828.031 -394.403)" fill="none" stroke="#232931" stroke-miterlimit="10" stroke-width="2"/>
      <path id="Path_280" data-name="Path 280" d="M962.508,369.129c-1.5,4.514-14,14.881-14,14.881s-3.832-15.794-2.336-20.3a8.607,8.607,0,0,1,16.34,5.419h0Z" transform="translate(-881.317 -357.806)" fill="#4ecca3"/>
      <path id="Path_281" data-name="Path 281" d="M970.641,434.444c-3.72,2.976-19.841,4.886-19.841,4.886s5.374-15.34,9.094-18.311A8.606,8.606,0,1,1,971.194,434Q970.926,434.234,970.641,434.444Z" transform="translate(-884.238 -393.649)" fill="#4ecca3"/>
      <path id="Path_282" data-name="Path 282" d="M935.307,535.061c-4.7.694-19.6-5.787-19.6-5.787s12.376-10.532,17.08-11.227a8.608,8.608,0,1,1,2.517,17.03h0Z" transform="translate(-863.652 -451.756)" fill="#4ecca3"/>
      <path id="Path_283" data-name="Path 283" d="M889.786,607.253c-4.518,1.48-20.3-2.406-20.3-2.406s10.421-12.471,14.939-13.951a8.608,8.608,0,1,1,5.374,16.356Z" transform="translate(-836.538 -494.294)" fill="#4ecca3"/>
      <path id="Path_284" data-name="Path 284" d="M907.232,438.81c2.195,4.216,16.207,12.471,16.207,12.471s1.273-16.2-.922-20.42a8.606,8.606,0,1,0-15.269,7.945Z" transform="translate(-858.118 -397.944)" fill="#4ecca3"/>
      <path id="Path_285" data-name="Path 285" d="M854.019,520.379c3.356,3.369,19.18,7.056,19.18,7.056s-3.633-15.84-6.986-19.208a8.606,8.606,0,0,0-12.194,12.148h0Z" transform="translate(-825.989 -444.564)" fill="#4ecca3"/>
      <path id="Path_286" data-name="Path 286" d="M816.828,610.631c2.736,3.885,17.712,10.2,17.712,10.2s-.9-16.224-3.642-20.114a8.606,8.606,0,0,0-14.382,9.456q.156.237.328.464Z" transform="translate(-804.63 -498.032)" fill="#4ecca3"/>
      <path id="Path_287" data-name="Path 287" d="M838.251,571.967s-12.4-18.039-10.226-35.011a33.169,33.169,0,0,0-3.919-20.61,55.784,55.784,0,0,0-5.837-8.366" transform="translate(-806.489 -445.905)" fill="none" stroke="#232931" stroke-miterlimit="10" stroke-width="2"/>
      <path id="Path_288" data-name="Path 288" d="M808.539,477.525c.8,2.447-1.31,10.987-1.31,10.987s-6.75-5.646-7.548-8.089a4.659,4.659,0,1,1,8.858-2.893Z" transform="translate(-795.449 -426.156)" fill="#a9e3d0"/>
      <path id="Path_289" data-name="Path 289" d="M836.93,500.761c-.657,2.48-7.072,8.511-7.072,8.511s-2.6-8.408-1.939-10.9a4.661,4.661,0,0,1,9.011,2.385Z" transform="translate(-812.087 -438.236)" fill="#a9e3d0"/>
      <path id="Path_290" data-name="Path 290" d="M852.65,554.032c-1.823,1.815-10.4,3.778-10.4,3.778s2-8.569,3.828-10.383a4.662,4.662,0,0,1,6.572,6.614Z" transform="translate(-820.557 -468.251)" fill="#a9e3d0"/>
      <path id="Path_291" data-name="Path 291" d="M857.431,600.443c-1.492,2.1-9.631,5.473-9.631,5.473s.525-8.784,2.017-10.879a4.66,4.66,0,1,1,7.6,5.4h0Z" transform="translate(-823.813 -495.826)" fill="#a9e3d0"/>
      <path id="Path_292" data-name="Path 292" d="M806.931,525.587c2.311,1.133,11.061.223,11.061.223s-4.659-7.465-6.969-8.594a4.659,4.659,0,0,0-4.092,8.37Z" transform="translate(-798.304 -451.045)" fill="#a9e3d0"/>
      <path id="Path_293" data-name="Path 293" d="M810.01,578.261c2.546.389,10.623-3.1,10.623-3.1s-6.68-5.729-9.222-6.1a4.66,4.66,0,1,0-1.4,9.214Z" transform="translate(-799.321 -481.708)" fill="#a9e3d0"/>
      <path id="Path_294" data-name="Path 294" d="M823.039,629.59c2.443.827,11-1.24,11-1.24s-5.613-6.775-8.056-7.589a4.661,4.661,0,0,0-2.939,8.846Z" transform="translate(-807.415 -511.928)" fill="#a9e3d0"/>
      <path id="Path_302" data-name="Path 302" d="M798.587,704.769h35.271l8.821-53.789H789.77Z" transform="translate(-789.77 -529.796)" fill="#232931"/>
      <path id="Path_303" data-name="Path 303" d="M796.52,650.98l8.238,50.264h29.679l-.579,3.526H798.587L789.77,650.98Z" transform="translate(-789.77 -529.796)" opacity="0.1" style="isolation: isolate"/>
    </g>
    <rect id="Rectangle_122" data-name="Rectangle 122" width="258.759" height="312.205" transform="translate(83.2 16.237)" fill="#232931"/>
    <rect id="Rectangle_123" data-name="Rectangle 123" width="252.145" height="304.227" transform="translate(86.506 20.23)" fill="#fff"/>
    <rect id="Rectangle_124" data-name="Rectangle 124" width="101.685" height="4.96" transform="translate(184.471 54.538)" fill="#393e46"/>
    <rect id="Rectangle_125" data-name="Rectangle 125" width="101.685" height="4.96" transform="translate(184.471 70.246)" fill="#393e46"/>
    <rect id="Rectangle_126" data-name="Rectangle 126" width="52.909" height="4.96" transform="translate(208.859 85.953)" fill="#4ecca3"/>
    <rect id="Rectangle_127" data-name="Rectangle 127" width="101.685" height="4.96" transform="translate(184.471 154.156)" fill="#393e46" opacity="0.5" style="isolation: isolate"/>
    <rect id="Rectangle_128" data-name="Rectangle 128" width="101.685" height="4.96" transform="translate(184.471 169.864)" fill="#393e46" opacity="0.5" style="isolation: isolate"/>
    <rect id="Rectangle_129" data-name="Rectangle 129" width="52.909" height="4.96" transform="translate(208.859 185.571)" fill="#4ecca3" opacity="0.5" style="isolation: isolate"/>
    <rect id="Rectangle_130" data-name="Rectangle 130" width="101.685" height="4.96" transform="translate(184.471 253.774)" fill="#393e46" opacity="0.5" style="isolation: isolate"/>
    <rect id="Rectangle_131" data-name="Rectangle 131" width="101.685" height="4.96" transform="translate(184.471 269.482)" fill="#393e46" opacity="0.5" style="isolation: isolate"/>
    <rect id="Rectangle_132" data-name="Rectangle 132" width="52.909" height="4.96" transform="translate(208.859 285.189)" fill="#4ecca3" opacity="0.5" style="isolation: isolate"/>
    <g id="Group_75" data-name="Group 75" transform="translate(100.146 144.232)" opacity="0.5">
      <path id="Path_304" data-name="Path 304" d="M298.494,377.048a27.974,27.974,0,0,1-6.767,18.291c-.215.252-.438.5-.665.744q-.169.19-.347.372a27.6,27.6,0,0,1-3,2.724l-.074.054a27.454,27.454,0,0,1-5.332,3.274h0a27.691,27.691,0,0,1-2.993,1.2l-.376.12c-.231.079-.471.149-.707.215l-.1.029a28.242,28.242,0,0,1-15.521,0h-.041c-.413-.12-.827-.244-1.207-.38l-.351-.124a27.256,27.256,0,0,1-3.885-1.72l-.079-.041a28.207,28.207,0,0,1-5.506-3.9l-.136-.128a26.266,26.266,0,0,1-2.4-2.48c-.1-.112-.194-.227-.289-.343-.182-.215-.355-.438-.529-.661a28.108,28.108,0,1,1,50.3-17.245Z" transform="translate(-242.277 -348.94)" fill="#eee"/>
      <path id="Path_305" data-name="Path 305" d="M299.192,395.317l-2.133-.959a8.451,8.451,0,0,0,.041-.976,7.638,7.638,0,0,0,0-.827c-.211-2.174-1.6-4.067-2.575-6.056a17.2,17.2,0,0,1-1.682-5.787c-.26-2.48,0-5.051-.909-7.382a13.321,13.321,0,0,0-3.77-4.84,19.136,19.136,0,0,0-6.056-3.84,10.71,10.71,0,0,0-7.213-.194,15.563,15.563,0,0,0-5.2,3.753,17.471,17.471,0,0,0-2.935,3.34,14.444,14.444,0,0,0-1.653,5.051,77.3,77.3,0,0,0-1.017,8.441c-.161,2.36-.413,5.039-2.431,6.485-.984.707-2.368,1.1-2.819,2.174a2.224,2.224,0,0,0-.149,1.013,3.715,3.715,0,0,0,.062.856c.029.165.062.327.1.492a36.243,36.243,0,0,0-1.455,4.415c-.3,1.116-.579,2.211-.827,3.274h1.025l3.852.091h.054l4.134.1h.021l3.852.091h.1l1.112.079h.364l15.406.355h.083l1.025.025h.36l3.084.07h0l4.547.1h.033l3.423.083h1.066l-.182-3.588C300.685,395.66,299.192,395.317,299.192,395.317Zm-17.307-.438c0,3.042-3.257,6.767-3.257,6.767l-3.278-4.464.12-.174,3.158,4.3s3.257-3.72,3.257-6.767a3.563,3.563,0,0,1,.26-.446l.074.232A4.386,4.386,0,0,0,281.885,394.879Zm5.01,11.938a2.484,2.484,0,0,0-.029-.463c-.029-.153-.025-.289-.045-.438s-.037-.293-.058-.442-.05-.293-.079-.442-.058-.293-.091-.442a.692.692,0,0,0-.033-.149q-.068-.291-.149-.583c-.054-.194-.087-.314-.136-.467a.635.635,0,0,0-.066-.207c-.025-.066-.07-.223-.107-.335l-.074-.215c-.033-.1-.066-.194-.1-.289-.062-.174-.128-.343-.194-.517s-.136-.343-.207-.513c-.141-.347-.293-.69-.446-1.038-.6-1.339-1.273-2.658-1.893-3.964a21.111,21.111,0,0,1-.885-2.1l-.079.1a4.389,4.389,0,0,0-.335.558c0,3.042-3.257,6.767-3.257,6.767l-3.278-4.464-2.869,4.134a3.345,3.345,0,0,0-1.149,1.91c-.091.269-.178.566-.26.876-.058.211-.112.413-.161.649-.029.112-.054.223-.079.339l-.074.351v.054c-.05.24-.1.488-.145.74s-.1.541-.145.827q-.05.269-.087.533c-.058.343-.107.69-.157,1.038-.029.2-.058.413-.083.6l-.1.769c.211.632.446,1.24.69,1.877a2.951,2.951,0,0,1,.269,1.062,30.123,30.123,0,0,0,15.521,0,.143.143,0,0,1,0-.037,4.323,4.323,0,0,1-.1-1.054h0a27.247,27.247,0,0,1,.413-2.96,10.131,10.131,0,0,0,.079-1.455v-.174c-.012-.157-.017-.3-.021-.434Zm0,0a2.484,2.484,0,0,0-.029-.463c-.029-.153-.025-.289-.045-.438s-.037-.293-.058-.442-.05-.293-.079-.442-.058-.293-.091-.442a.692.692,0,0,0-.033-.149q-.068-.291-.149-.583c-.054-.194-.087-.314-.136-.467a.635.635,0,0,0-.066-.207c-.025-.066-.07-.223-.107-.335l-.074-.215c-.033-.1-.066-.194-.1-.289-.062-.174-.128-.343-.194-.517s-.136-.343-.207-.513c-.141-.347-.293-.69-.446-1.038-.6-1.339-1.273-2.658-1.893-3.964a21.111,21.111,0,0,1-.885-2.1l-.079.1a4.389,4.389,0,0,0-.335.558c0,3.042-3.257,6.767-3.257,6.767l-3.278-4.464-2.869,4.134a3.345,3.345,0,0,0-1.149,1.91c-.091.269-.178.566-.26.876-.058.211-.112.413-.161.649-.029.112-.054.223-.079.339l-.074.351v.054c-.05.24-.1.488-.145.74s-.1.541-.145.827q-.05.269-.087.533c-.058.343-.107.69-.157,1.038-.029.2-.058.413-.083.6l-.1.769c.211.632.446,1.24.69,1.877a2.951,2.951,0,0,1,.269,1.062,30.123,30.123,0,0,0,15.521,0,.143.143,0,0,1,0-.037,4.323,4.323,0,0,1-.1-1.054h0a27.247,27.247,0,0,1,.413-2.96,10.131,10.131,0,0,0,.079-1.455v-.174c-.012-.157-.017-.3-.021-.434Zm0,0a2.484,2.484,0,0,0-.029-.463c-.029-.153-.025-.289-.045-.438s-.037-.293-.058-.442-.05-.293-.079-.442-.058-.293-.091-.442a.692.692,0,0,0-.033-.149q-.068-.291-.149-.583c-.054-.194-.087-.314-.136-.467a.635.635,0,0,0-.066-.207c-.025-.066-.07-.223-.107-.335l-.074-.215c-.033-.1-.066-.194-.1-.289-.062-.174-.128-.343-.194-.517s-.136-.343-.207-.513c-.141-.347-.293-.69-.446-1.038-.6-1.339-1.273-2.658-1.893-3.964a21.111,21.111,0,0,1-.885-2.1l-.079.1a4.389,4.389,0,0,0-.335.558c0,3.042-3.257,6.767-3.257,6.767l-3.278-4.464-2.869,4.134a3.345,3.345,0,0,0-1.149,1.91c-.091.269-.178.566-.26.876-.058.211-.112.413-.161.649-.029.112-.054.223-.079.339l-.074.351v.054c-.05.24-.1.488-.145.74s-.1.541-.145.827q-.05.269-.087.533c-.058.343-.107.69-.157,1.038-.029.2-.058.413-.083.6l-.1.769c.211.632.446,1.24.69,1.877a2.951,2.951,0,0,1,.269,1.062,30.123,30.123,0,0,0,15.521,0,.143.143,0,0,1,0-.037,4.323,4.323,0,0,1-.1-1.054h0a27.247,27.247,0,0,1,.413-2.96,10.131,10.131,0,0,0,.079-1.455v-.174c-.012-.157-.017-.3-.021-.434Zm0,0a2.484,2.484,0,0,0-.029-.463c-.029-.153-.025-.289-.045-.438s-.037-.293-.058-.442-.05-.293-.079-.442-.058-.293-.091-.442a.692.692,0,0,0-.033-.149q-.068-.291-.149-.583c-.054-.194-.087-.314-.136-.467a.635.635,0,0,0-.066-.207c-.025-.066-.07-.223-.107-.335l-.074-.215c-.033-.1-.066-.194-.1-.289-.062-.174-.128-.343-.194-.517s-.136-.343-.207-.513c-.141-.347-.293-.69-.446-1.038-.6-1.339-1.273-2.658-1.893-3.964a21.111,21.111,0,0,1-.885-2.1l-.079.1a4.389,4.389,0,0,0-.335.558c0,3.042-3.257,6.767-3.257,6.767l-3.278-4.464-2.869,4.134a3.345,3.345,0,0,0-1.149,1.91c-.091.269-.178.566-.26.876-.058.211-.112.413-.161.649-.029.112-.054.223-.079.339l-.074.351v.054c-.05.24-.1.488-.145.74s-.1.541-.145.827q-.05.269-.087.533c-.058.343-.107.69-.157,1.038-.029.2-.058.413-.083.6l-.1.769c.211.632.446,1.24.69,1.877a2.951,2.951,0,0,1,.269,1.062,30.123,30.123,0,0,0,15.521,0,.143.143,0,0,1,0-.037,4.323,4.323,0,0,1-.1-1.054h0a27.247,27.247,0,0,1,.413-2.96,10.131,10.131,0,0,0,.079-1.455v-.174c-.012-.157-.017-.3-.021-.434Z" transform="translate(-250.668 -357.727)" fill="url(#linear-gradient)"/>
      <rect id="Rectangle_133" data-name="Rectangle 133" width="19.014" height="12.814" transform="translate(17.362 20.259)" fill="#493545"/>
      <path id="Path_306" data-name="Path 306" d="M306.161,415.209l-7.957,11.21-8.317-.723s-10.85.719-3.617-7.593c3.476-4,4.613-7.329,4.857-9.706a7.516,7.516,0,0,0-.517-4.034l9.04-1.083a6.744,6.744,0,0,0-.149,3.774C300.635,411.75,306.161,415.209,306.161,415.209Z" transform="translate(-266.627 -380.818)" fill="#c77485"/>
      <path id="Path_307" data-name="Path 307" d="M309.181,407.03a9.035,9.035,0,0,1-8.375,1.347,7.516,7.516,0,0,0-.517-4.034l9.04-1.083A6.745,6.745,0,0,0,309.181,407.03Z" transform="translate(-276.31 -380.807)" opacity="0.1" style="isolation: isolate"/>
      <circle id="Ellipse_40" data-name="Ellipse 40" cx="9.04" cy="9.04" r="9.04" transform="translate(18.379 9.615)" fill="#c77485"/>
      <path id="Path_308" data-name="Path 308" d="M302.449,428.331l-.211-.827-.182-.727-.269-1.075-.05-.2-.041-.165s.215-.649-1.2-.438l-.265.045c-.223.045-.484.107-.781.19l-.269.083-.355.112h0a7.748,7.748,0,0,0-3,1.81,6.775,6.775,0,0,0-1,1.215c-.029.041-.05.079-.074.112a3.894,3.894,0,0,0-.26.48c0,3.257-3.257,7.234-3.257,7.234l-3.179-4.592-.062-.091-.756-1.1-.269-.355-.091-.124-1.653-2.22-.413-.554-.136-.186-.2-.269-.475-.632-1.86,1.087-2.48,1.447L278.2,438v.26l.045.777.3,5.109v.07l-.529,2.116.079.041a27.257,27.257,0,0,0,3.885,1.72l.351.124c.413.136.8.26,1.207.38a1.487,1.487,0,0,1,.033.186V448.6a28.242,28.242,0,0,0,15.521,0l.1-.029c.236-.066.475-.136.707-.215l.376-.12a27.7,27.7,0,0,0,2.993-1.2l.347-7.4.248-5.336V434Z" transform="translate(-263.245 -393.477)" opacity="0.1" style="isolation: isolate"/>
      <path id="Path_309" data-name="Path 309" d="M299.6,442.595a2.854,2.854,0,0,0-.029-.5c-.029-.165-.025-.31-.045-.467s-.037-.314-.058-.471-.05-.314-.079-.471-.058-.314-.091-.471a.711.711,0,0,0-.033-.157c-.045-.207-.1-.413-.149-.624s-.087-.335-.136-.5a.705.705,0,0,0-.066-.219c-.025-.07-.07-.24-.107-.36l-.074-.231c-.033-.1-.066-.207-.1-.31-.062-.186-.128-.368-.194-.554s-.136-.368-.207-.55c-.141-.372-.293-.74-.446-1.108-.6-1.43-1.273-2.84-1.893-4.237a23.465,23.465,0,0,1-.885-2.244l-.079.112a4.748,4.748,0,0,0-.335.6c0,3.253-3.257,7.234-3.257,7.234l-3.278-4.774-2.869,4.41a3.6,3.6,0,0,0-1.149,2.042c-.091.289-.178.6-.26.938-.058.223-.112.459-.161.694-.029.12-.054.24-.079.364l-.074.376v.058c-.05.256-.1.521-.145.789s-.1.579-.145.872q-.05.285-.087.57c-.058.368-.107.74-.157,1.108-.029.215-.058.413-.083.641l-.1.827c.211.678.446,1.348.69,2a3.329,3.329,0,0,1,.269,1.137,28.242,28.242,0,0,0,15.521,0,.17.17,0,0,1,0-.041,4.925,4.925,0,0,1-.1-1.128h0a31.046,31.046,0,0,1,.413-3.162,11.556,11.556,0,0,0,.079-1.554v-.186C299.61,442.892,299.606,442.744,299.6,442.595Zm0,0a2.854,2.854,0,0,0-.029-.5c-.029-.165-.025-.31-.045-.467s-.037-.314-.058-.471-.05-.314-.079-.471-.058-.314-.091-.471a.711.711,0,0,0-.033-.157c-.045-.207-.1-.413-.149-.624s-.087-.335-.136-.5a.705.705,0,0,0-.066-.219c-.025-.07-.07-.24-.107-.36l-.074-.231c-.033-.1-.066-.207-.1-.31-.062-.186-.128-.368-.194-.554s-.136-.368-.207-.55c-.141-.372-.293-.74-.446-1.108-.6-1.43-1.273-2.84-1.893-4.237a23.465,23.465,0,0,1-.885-2.244l-.079.112a4.748,4.748,0,0,0-.335.6c0,3.253-3.257,7.234-3.257,7.234l-3.278-4.774-2.869,4.41a3.6,3.6,0,0,0-1.149,2.042c-.091.289-.178.6-.26.938-.058.223-.112.459-.161.694-.029.12-.054.24-.079.364l-.074.376v.058c-.05.256-.1.521-.145.789s-.1.579-.145.872q-.05.285-.087.57c-.058.368-.107.74-.157,1.108-.029.215-.058.413-.083.641l-.1.827c.211.678.446,1.348.69,2a3.329,3.329,0,0,1,.269,1.137,28.242,28.242,0,0,0,15.521,0,.17.17,0,0,1,0-.041,4.925,4.925,0,0,1-.1-1.128h0a31.046,31.046,0,0,1,.413-3.162,11.556,11.556,0,0,0,.079-1.554v-.186C299.61,442.892,299.606,442.744,299.6,442.595Zm0,0a2.854,2.854,0,0,0-.029-.5c-.029-.165-.025-.31-.045-.467s-.037-.314-.058-.471-.05-.314-.079-.471-.058-.314-.091-.471a.711.711,0,0,0-.033-.157c-.045-.207-.1-.413-.149-.624s-.087-.335-.136-.5a.705.705,0,0,0-.066-.219c-.025-.07-.07-.24-.107-.36l-.074-.231c-.033-.1-.066-.207-.1-.31-.062-.186-.128-.368-.194-.554s-.136-.368-.207-.55c-.141-.372-.293-.74-.446-1.108-.6-1.43-1.273-2.84-1.893-4.237a23.465,23.465,0,0,1-.885-2.244l-.079.112a4.748,4.748,0,0,0-.335.6c0,3.253-3.257,7.234-3.257,7.234l-3.278-4.774-2.869,4.41a3.6,3.6,0,0,0-1.149,2.042c-.091.289-.178.6-.26.938-.058.223-.112.459-.161.694-.029.12-.054.24-.079.364l-.074.376v.058c-.05.256-.1.521-.145.789s-.1.579-.145.872q-.05.285-.087.57c-.058.368-.107.74-.157,1.108-.029.215-.058.413-.083.641l-.1.827c.211.678.446,1.348.69,2a3.329,3.329,0,0,1,.269,1.137,28.242,28.242,0,0,0,15.521,0,.17.17,0,0,1,0-.041,4.925,4.925,0,0,1-.1-1.128h0a31.046,31.046,0,0,1,.413-3.162,11.556,11.556,0,0,0,.079-1.554v-.186C299.61,442.892,299.606,442.744,299.6,442.595Zm4.382-7.759-1.476-5.89-.252-1.009-.07-.277h0l-.36-1.438a.291.291,0,0,0,0-.037h0A.332.332,0,0,0,301.8,426c-.054-.107-.19-.219-.508-.248a2.548,2.548,0,0,0-.364,0h0a6.306,6.306,0,0,0-1.062.2c-.169.046-.351.1-.546.157l-.355.112h-.033a7.893,7.893,0,0,0-2.6,1.447A7.025,7.025,0,0,0,295,429.128l-.079.112a4.752,4.752,0,0,0-.335.6c0,3.253-3.257,7.234-3.257,7.234l-3.278-4.774-.186-.269-.033-.046-.475-.7L287,430.8l-.1-.124-1.695-2.261h0l-.537-.732v-.025l-.186-.252-.355-.471-1.24.723-3.1,1.806-1.43,9.3v.1l.041.678.306,5.179v.293l-.467,1.864a27.254,27.254,0,0,0,3.886,1.72l.351.124c.413.136.8.26,1.207.38a1.481,1.481,0,0,1,.033.186v-.178a28.243,28.243,0,0,0,15.521,0l.1-.029c.236-.066.475-.136.707-.215l.376-.12a27.7,27.7,0,0,0,2.993-1.2h0l.343-7.391.248-5.279Zm-20.329,14.273a1.486,1.486,0,0,1,.033.186v-.178Zm15.947-6.514a2.854,2.854,0,0,0-.029-.5c-.029-.165-.025-.31-.045-.467s-.037-.314-.058-.471-.05-.314-.079-.471-.058-.314-.091-.471a.711.711,0,0,0-.033-.157c-.045-.207-.1-.413-.149-.624s-.087-.335-.136-.5a.705.705,0,0,0-.066-.219c-.025-.07-.07-.24-.107-.36l-.074-.231c-.033-.1-.066-.207-.1-.31-.062-.186-.128-.368-.194-.554s-.136-.368-.207-.55c-.141-.372-.293-.74-.446-1.108-.6-1.43-1.273-2.84-1.893-4.237a23.465,23.465,0,0,1-.885-2.244l-.079.112a4.748,4.748,0,0,0-.335.6c0,3.253-3.257,7.234-3.257,7.234l-3.278-4.774-2.869,4.41a3.6,3.6,0,0,0-1.149,2.042c-.091.289-.178.6-.26.938-.058.223-.112.459-.161.694-.029.12-.054.24-.079.364l-.074.376v.058c-.05.256-.1.521-.145.789s-.1.579-.145.872q-.05.285-.087.57c-.058.368-.107.74-.157,1.108-.029.215-.058.413-.083.641l-.1.827c.211.678.446,1.348.69,2a3.329,3.329,0,0,1,.269,1.137,28.242,28.242,0,0,0,15.521,0,.17.17,0,0,1,0-.041,4.925,4.925,0,0,1-.1-1.128h0a31.046,31.046,0,0,1,.413-3.162,11.556,11.556,0,0,0,.079-1.554v-.186C299.61,442.892,299.606,442.744,299.6,442.595Zm0,0a2.854,2.854,0,0,0-.029-.5c-.029-.165-.025-.31-.045-.467s-.037-.314-.058-.471-.05-.314-.079-.471-.058-.314-.091-.471a.711.711,0,0,0-.033-.157c-.045-.207-.1-.413-.149-.624s-.087-.335-.136-.5a.705.705,0,0,0-.066-.219c-.025-.07-.07-.24-.107-.36l-.074-.231c-.033-.1-.066-.207-.1-.31-.062-.186-.128-.368-.194-.554s-.136-.368-.207-.55c-.141-.372-.293-.74-.446-1.108-.6-1.43-1.273-2.84-1.893-4.237a23.465,23.465,0,0,1-.885-2.244l-.079.112a4.748,4.748,0,0,0-.335.6c0,3.253-3.257,7.234-3.257,7.234l-3.278-4.774-2.869,4.41a3.6,3.6,0,0,0-1.149,2.042c-.091.289-.178.6-.26.938-.058.223-.112.459-.161.694-.029.12-.054.24-.079.364l-.074.376v.058c-.05.256-.1.521-.145.789s-.1.579-.145.872q-.05.285-.087.57c-.058.368-.107.74-.157,1.108-.029.215-.058.413-.083.641l-.1.827c.211.678.446,1.348.69,2a3.329,3.329,0,0,1,.269,1.137,28.242,28.242,0,0,0,15.521,0,.17.17,0,0,1,0-.041,4.925,4.925,0,0,1-.1-1.128h0a31.046,31.046,0,0,1,.413-3.162,11.556,11.556,0,0,0,.079-1.554v-.186C299.61,442.892,299.606,442.744,299.6,442.595Zm0,0a2.854,2.854,0,0,0-.029-.5c-.029-.165-.025-.31-.045-.467s-.037-.314-.058-.471-.05-.314-.079-.471-.058-.314-.091-.471a.711.711,0,0,0-.033-.157c-.045-.207-.1-.413-.149-.624s-.087-.335-.136-.5a.705.705,0,0,0-.066-.219c-.025-.07-.07-.24-.107-.36l-.074-.231c-.033-.1-.066-.207-.1-.31-.062-.186-.128-.368-.194-.554s-.136-.368-.207-.55c-.141-.372-.293-.74-.446-1.108-.6-1.43-1.273-2.84-1.893-4.237a23.465,23.465,0,0,1-.885-2.244l-.079.112a4.748,4.748,0,0,0-.335.6c0,3.253-3.257,7.234-3.257,7.234l-3.278-4.774-2.869,4.41a3.6,3.6,0,0,0-1.149,2.042c-.091.289-.178.6-.26.938-.058.223-.112.459-.161.694-.029.12-.054.24-.079.364l-.074.376v.058c-.05.256-.1.521-.145.789s-.1.579-.145.872q-.05.285-.087.57c-.058.368-.107.74-.157,1.108-.029.215-.058.413-.083.641l-.1.827c.211.678.446,1.348.69,2a3.329,3.329,0,0,1,.269,1.137,28.242,28.242,0,0,0,15.521,0,.17.17,0,0,1,0-.041,4.925,4.925,0,0,1-.1-1.128h0a31.046,31.046,0,0,1,.413-3.162,11.556,11.556,0,0,0,.079-1.554v-.186C299.61,442.892,299.606,442.744,299.6,442.595Zm0,0a2.854,2.854,0,0,0-.029-.5c-.029-.165-.025-.31-.045-.467s-.037-.314-.058-.471-.05-.314-.079-.471-.058-.314-.091-.471a.711.711,0,0,0-.033-.157c-.045-.207-.1-.413-.149-.624s-.087-.335-.136-.5a.705.705,0,0,0-.066-.219c-.025-.07-.07-.24-.107-.36l-.074-.231c-.033-.1-.066-.207-.1-.31-.062-.186-.128-.368-.194-.554s-.136-.368-.207-.55c-.141-.372-.293-.74-.446-1.108-.6-1.43-1.273-2.84-1.893-4.237a23.465,23.465,0,0,1-.885-2.244l-.079.112a4.748,4.748,0,0,0-.335.6c0,3.253-3.257,7.234-3.257,7.234l-3.278-4.774-2.869,4.41a3.6,3.6,0,0,0-1.149,2.042c-.091.289-.178.6-.26.938-.058.223-.112.459-.161.694-.029.12-.054.24-.079.364l-.074.376v.058c-.05.256-.1.521-.145.789s-.1.579-.145.872q-.05.285-.087.57c-.058.368-.107.74-.157,1.108-.029.215-.058.413-.083.641l-.1.827c.211.678.446,1.348.69,2a3.329,3.329,0,0,1,.269,1.137,28.242,28.242,0,0,0,15.521,0,.17.17,0,0,1,0-.041,4.925,4.925,0,0,1-.1-1.128h0a31.046,31.046,0,0,1,.413-3.162,11.556,11.556,0,0,0,.079-1.554v-.186C299.61,442.892,299.606,442.744,299.6,442.595Zm0,0a2.854,2.854,0,0,0-.029-.5c-.029-.165-.025-.31-.045-.467s-.037-.314-.058-.471-.05-.314-.079-.471-.058-.314-.091-.471a.711.711,0,0,0-.033-.157c-.045-.207-.1-.413-.149-.624s-.087-.335-.136-.5a.705.705,0,0,0-.066-.219c-.025-.07-.07-.24-.107-.36l-.074-.231c-.033-.1-.066-.207-.1-.31-.062-.186-.128-.368-.194-.554s-.136-.368-.207-.55c-.141-.372-.293-.74-.446-1.108-.6-1.43-1.273-2.84-1.893-4.237a23.465,23.465,0,0,1-.885-2.244l-.079.112a4.748,4.748,0,0,0-.335.6c0,3.253-3.257,7.234-3.257,7.234l-3.278-4.774-2.869,4.41a3.6,3.6,0,0,0-1.149,2.042c-.091.289-.178.6-.26.938-.058.223-.112.459-.161.694-.029.12-.054.24-.079.364l-.074.376v.058c-.05.256-.1.521-.145.789s-.1.579-.145.872q-.05.285-.087.57c-.058.368-.107.74-.157,1.108-.029.215-.058.413-.083.641l-.1.827c.211.678.446,1.348.69,2a3.329,3.329,0,0,1,.269,1.137,28.242,28.242,0,0,0,15.521,0,.17.17,0,0,1,0-.041,4.925,4.925,0,0,1-.1-1.128h0a31.046,31.046,0,0,1,.413-3.162,11.556,11.556,0,0,0,.079-1.554v-.186C299.61,442.892,299.606,442.744,299.6,442.595Zm0,0a2.854,2.854,0,0,0-.029-.5c-.029-.165-.025-.31-.045-.467s-.037-.314-.058-.471-.05-.314-.079-.471-.058-.314-.091-.471a.711.711,0,0,0-.033-.157c-.045-.207-.1-.413-.149-.624s-.087-.335-.136-.5a.705.705,0,0,0-.066-.219c-.025-.07-.07-.24-.107-.36l-.074-.231c-.033-.1-.066-.207-.1-.31-.062-.186-.128-.368-.194-.554s-.136-.368-.207-.55c-.141-.372-.293-.74-.446-1.108-.6-1.43-1.273-2.84-1.893-4.237a23.465,23.465,0,0,1-.885-2.244l-.079.112a4.748,4.748,0,0,0-.335.6c0,3.253-3.257,7.234-3.257,7.234l-3.278-4.774-2.869,4.41a3.6,3.6,0,0,0-1.149,2.042c-.091.289-.178.6-.26.938-.058.223-.112.459-.161.694-.029.12-.054.24-.079.364l-.074.376v.058c-.05.256-.1.521-.145.789s-.1.579-.145.872q-.05.285-.087.57c-.058.368-.107.74-.157,1.108-.029.215-.058.413-.083.641l-.1.827c.211.678.446,1.348.69,2a3.329,3.329,0,0,1,.269,1.137,28.242,28.242,0,0,0,15.521,0,.17.17,0,0,1,0-.041,4.925,4.925,0,0,1-.1-1.128h0a31.046,31.046,0,0,1,.413-3.162,11.556,11.556,0,0,0,.079-1.554v-.186C299.61,442.892,299.606,442.744,299.6,442.595Zm0,0a2.854,2.854,0,0,0-.029-.5c-.029-.165-.025-.31-.045-.467s-.037-.314-.058-.471-.05-.314-.079-.471-.058-.314-.091-.471a.711.711,0,0,0-.033-.157c-.045-.207-.1-.413-.149-.624s-.087-.335-.136-.5a.705.705,0,0,0-.066-.219c-.025-.07-.07-.24-.107-.36l-.074-.231c-.033-.1-.066-.207-.1-.31-.062-.186-.128-.368-.194-.554s-.136-.368-.207-.55c-.141-.372-.293-.74-.446-1.108-.6-1.43-1.273-2.84-1.893-4.237a23.465,23.465,0,0,1-.885-2.244l-.079.112a4.748,4.748,0,0,0-.335.6c0,3.253-3.257,7.234-3.257,7.234l-3.278-4.774-2.869,4.41a3.6,3.6,0,0,0-1.149,2.042c-.091.289-.178.6-.26.938-.058.223-.112.459-.161.694-.029.12-.054.24-.079.364l-.074.376v.058c-.05.256-.1.521-.145.789s-.1.579-.145.872q-.05.285-.087.57c-.058.368-.107.74-.157,1.108-.029.215-.058.413-.083.641l-.1.827c.211.678.446,1.348.69,2a3.329,3.329,0,0,1,.269,1.137,28.242,28.242,0,0,0,15.521,0,.17.17,0,0,1,0-.041,4.925,4.925,0,0,1-.1-1.128h0a31.046,31.046,0,0,1,.413-3.162,11.556,11.556,0,0,0,.079-1.554v-.186C299.61,442.892,299.606,442.744,299.6,442.595Zm0,0a2.854,2.854,0,0,0-.029-.5c-.029-.165-.025-.31-.045-.467s-.037-.314-.058-.471-.05-.314-.079-.471-.058-.314-.091-.471a.711.711,0,0,0-.033-.157c-.045-.207-.1-.413-.149-.624s-.087-.335-.136-.5a.705.705,0,0,0-.066-.219c-.025-.07-.07-.24-.107-.36l-.074-.231c-.033-.1-.066-.207-.1-.31-.062-.186-.128-.368-.194-.554s-.136-.368-.207-.55c-.141-.372-.293-.74-.446-1.108-.6-1.43-1.273-2.84-1.893-4.237a23.465,23.465,0,0,1-.885-2.244l-.079.112a4.748,4.748,0,0,0-.335.6c0,3.253-3.257,7.234-3.257,7.234l-3.278-4.774-2.869,4.41a3.6,3.6,0,0,0-1.149,2.042c-.091.289-.178.6-.26.938-.058.223-.112.459-.161.694-.029.12-.054.24-.079.364l-.074.376v.058c-.05.256-.1.521-.145.789s-.1.579-.145.872q-.05.285-.087.57c-.058.368-.107.74-.157,1.108-.029.215-.058.413-.083.641l-.1.827c.211.678.446,1.348.69,2a3.329,3.329,0,0,1,.269,1.137,28.242,28.242,0,0,0,15.521,0,.17.17,0,0,1,0-.041,4.925,4.925,0,0,1-.1-1.128h0a31.046,31.046,0,0,1,.413-3.162,11.556,11.556,0,0,0,.079-1.554v-.186C299.61,442.892,299.606,442.744,299.6,442.595Z" transform="translate(-263.374 -393.997)" fill="#fff"/>
      <path id="Path_310" data-name="Path 310" d="M276.546,432.163l-.277-.037a10.028,10.028,0,0,1-1.24-.248l-.153-.041c-1.009-.285-2.112-.8-2.36-1.7a1.606,1.606,0,0,1,.025-.88,7.545,7.545,0,0,1,.562-1.422v-.025a1.987,1.987,0,0,1,.1-.186A4.133,4.133,0,0,1,274.7,426l-.5.078h0l-4.2.682-6.51,1.05s-1.157-.232-2.732,4.109a.669.669,0,0,1-.054.161c-.38,1.062-.781,2.389-1.195,4.047-.285,1.149-.546,2.278-.785,3.373-.07.331-.141.657-.207.98a26.262,26.262,0,0,0,2.4,2.48l.136.128a28.207,28.207,0,0,0,5.506,3.9l.079.041a27.252,27.252,0,0,0,3.885,1.72l.351.124c.074-.765.157-1.612.256-2.48a.706.706,0,0,1,.033-.26l.1-.827c.025-.211.054-.413.083-.641.05-.368.1-.74.157-1.108q.037-.285.087-.57c.045-.293.1-.587.145-.872s.1-.533.145-.79v-.058l.074-.376c.025-.124.05-.244.079-.364.05-.236.1-.471.161-.694.083-.335.169-.649.26-.938a3.533,3.533,0,0,1,1.149-2.042l2.869-4.41.12-.186.054-.083Z" transform="translate(-251.806 -394.147)" opacity="0.1" style="isolation: isolate"/>
      <path id="Path_311" data-name="Path 311" d="M275.892,432.183l-3.046,4.679a3.5,3.5,0,0,0-1.128,1.98c-.1.306-.19.641-.281.992a49.435,49.435,0,0,0-.934,5.411.642.642,0,0,1-.033.248c-.141,1.149-.256,2.278-.351,3.274a27.257,27.257,0,0,1-3.885-1.72l-.079-.041a28.209,28.209,0,0,1-5.506-3.9l-.136-.128a26.262,26.262,0,0,1-2.4-2.48c-.1-.112-.194-.227-.289-.343.045-.215.091-.413.141-.645.236-1.1.5-2.22.781-3.365a40.732,40.732,0,0,1,1.405-4.63,1.271,1.271,0,0,1,.054-.132c1.463-3.766,2.517-3.555,2.517-3.555l6.874-1.108,4.34-.7-.136.079h0a4.4,4.4,0,0,0-1.195,1.273l-.12.2c-.05.079-.1.165-.145.252a7.308,7.308,0,0,0-.57,1.447,1.521,1.521,0,0,0,.1,1.182,3.937,3.937,0,0,0,2.55,1.48l.161.041A10.3,10.3,0,0,0,275.892,432.183Z" transform="translate(-251.395 -394.159)" fill="#4ecca3"/>
      <path id="Path_312" data-name="Path 312" d="M341.132,439.041l-.169-3.671c.723-5.787-.723-6.147-.723-6.147l-1.72-.827h-.046l-6.915-3.352-.269-.132-.083-.037h0l-.9-.438h0l-.57-.277-1.066-.517-.36-.174V424.9c0,.413.037.9.07,1.459.074,1.414.211,3.307.455,5.539.136,1.294.31,2.707.525,4.224.128.9.219,1.79.277,2.662a46.813,46.813,0,0,1-.273,8.8l.376-.12a27.7,27.7,0,0,0,2.993-1.2h0A27.457,27.457,0,0,0,338.065,443l.074-.054a27.59,27.59,0,0,0,3-2.724Z" transform="translate(-292.748 -392.663)" opacity="0.1" style="isolation: isolate"/>
      <path id="Path_313" data-name="Path 313" d="M342,439.012l-.169-3.679c.723-5.787-.723-6.147-.723-6.147l-2.067-1H339l-6.936-3.365-.318-.153-.062-.029-.508-.248-.674-.327-1.331-.645v.587h0v.728c0,.413.037.955.074,1.571.07,1.319.194,3.046.413,5.1.149,1.41.335,2.976.579,4.663q.19,1.352.273,2.674a46.789,46.789,0,0,1-.256,8.68,27.7,27.7,0,0,0,2.993-1.2h0a27.454,27.454,0,0,0,5.332-3.274l.074-.054a27.589,27.589,0,0,0,3-2.724q.182-.182.347-.372Z" transform="translate(-293.252 -392.633)" fill="#4ecca3"/>
      <path id="Path_314" data-name="Path 314" d="M279.661,368.026a6.013,6.013,0,0,0-.566,2.067c-.442,1.616-2.195,2.629-2.6,4.258-.236.951.037,1.959-.124,2.927-.294,1.782-1.922,2.989-2.831,4.547a6.135,6.135,0,0,0-.376,5.332,8.51,8.51,0,0,1,.525,1.348,4.923,4.923,0,0,1-.128,2.067c-.31,1.472-.628,3.092.083,4.419a4.229,4.229,0,0,0,3.1,1.984,12.031,12.031,0,0,0,3.79-.174,10.967,10.967,0,0,0,3.96-1.157l-4.477-10.805a9.019,9.019,0,0,1-.909-3.4,7.475,7.475,0,0,1,.558-2.538,22,22,0,0,1,3.72-6.428c.649.752.6,1.9,1.141,2.732a4.315,4.315,0,0,0,1.844,1.376,61.081,61.081,0,0,0,6.527,2.728.856.856,0,0,1,.637,1.273l-1.686,6.961c-.372,1.534-.7,3.307.256,4.547s3.108,1.827,3.121,3.427a5.426,5.426,0,0,0,0,.761c.112.748,1,1.108,1.757,1.145a5.237,5.237,0,0,0,5.254-4.286c.413-2.736-1.4-5.258-2.154-7.924-1.273-4.485.413-9.747-2.087-13.686-2.025-3.2-5.717-4.063-9.222-4.46C286.312,366.773,281.393,365.74,279.661,368.026Z" transform="translate(-260.142 -359.287)" opacity="0.1" style="isolation: isolate"/>
      <path id="Path_315" data-name="Path 315" d="M279.661,367.026a6.013,6.013,0,0,0-.566,2.067c-.442,1.616-2.195,2.629-2.6,4.258-.236.951.037,1.959-.124,2.927-.294,1.782-1.922,2.989-2.831,4.547a6.134,6.134,0,0,0-.376,5.332,8.51,8.51,0,0,1,.525,1.348,4.923,4.923,0,0,1-.128,2.067c-.31,1.472-.628,3.092.083,4.419a4.229,4.229,0,0,0,3.1,1.984,12.032,12.032,0,0,0,3.79-.174,10.968,10.968,0,0,0,3.96-1.157l-4.477-10.805a9.019,9.019,0,0,1-.909-3.4,7.475,7.475,0,0,1,.558-2.538,22,22,0,0,1,3.72-6.428c.649.752.6,1.9,1.141,2.732a4.316,4.316,0,0,0,1.844,1.376,61.087,61.087,0,0,0,6.527,2.728.856.856,0,0,1,.637,1.273l-1.686,6.961c-.372,1.534-.7,3.307.256,4.547s3.108,1.827,3.121,3.427a5.425,5.425,0,0,0,0,.761c.112.748,1,1.108,1.757,1.145a5.237,5.237,0,0,0,5.254-4.286c.413-2.736-1.4-5.258-2.154-7.924-1.273-4.485.413-9.747-2.087-13.686-2.025-3.2-5.717-4.063-9.222-4.46C286.312,365.773,281.393,364.74,279.661,367.026Z" transform="translate(-260.142 -358.701)" fill="#493545"/>
    </g>
    <g id="Group_76" data-name="Group 76" transform="translate(100.146 243.849)" opacity="0.5">
      <path id="Path_316" data-name="Path 316" d="M298.494,618.048a27.974,27.974,0,0,1-6.767,18.291c-.215.252-.438.5-.665.744q-.169.19-.347.372a27.587,27.587,0,0,1-3,2.724l-.074.054a27.452,27.452,0,0,1-5.332,3.274h0a27.722,27.722,0,0,1-2.993,1.2l-.376.12c-.231.079-.471.149-.707.215l-.1.029a28.242,28.242,0,0,1-15.521,0h-.041c-.413-.12-.827-.244-1.207-.38l-.351-.124a27.25,27.25,0,0,1-3.885-1.72l-.079-.041a28.207,28.207,0,0,1-5.506-3.9l-.136-.128a26.27,26.27,0,0,1-2.4-2.48c-.1-.112-.194-.227-.289-.343-.182-.215-.355-.438-.529-.661a28.108,28.108,0,1,1,50.3-17.245Z" transform="translate(-242.277 -589.94)" fill="#eee"/>
      <path id="Path_317" data-name="Path 317" d="M300.131,643.805l-.17-3.72c.723-5.882-.723-6.25-.723-6.25l-2.067-1.017-.041-.021-6.936-3.418-.318-.157-.041-.169s.136-.413-.55-.484a2.516,2.516,0,0,1-.174-1.054,4.52,4.52,0,0,1,1.137-2.067,8.49,8.49,0,0,0,1.36-6.022,14.163,14.163,0,0,0-2.307-5.82l-.132-.194a6.994,6.994,0,0,0,.244-1.827c0-4.758-4.811-8.614-10.747-8.614-5.374,0-9.85,3.179-10.627,7.325a3.784,3.784,0,0,0-.327.513c-1.091,2.042.6,3.567.649,5.6.037,1.406-.905,2.608-1.653,3.8s-1.3,2.774-.533,3.948c.252.389.632.682.86,1.087.8,1.41-.529,3.026-1.013,4.572a4.4,4.4,0,0,0-.132.55l-3.191.521s-1.054-.215-2.517,3.613a1.245,1.245,0,0,0-.054.136,41.949,41.949,0,0,0-1.405,4.708q-.428,1.749-.781,3.418c-.05.219-.1.438-.141.657.1.116.19.236.289.347a26.493,26.493,0,0,0,2.4,2.53l.136.132a28.211,28.211,0,0,0,5.506,3.964l.079.041a27,27,0,0,0,3.885,1.749l.351.124c.413.141.8.265,1.207.389a1.555,1.555,0,0,1,.033.19V652.7a27.8,27.8,0,0,0,15.521,0l.1-.029c.236-.066.475-.141.707-.219l.376-.12a27.392,27.392,0,0,0,2.993-1.219h0a27.406,27.406,0,0,0,5.332-3.327l.074-.054a27.749,27.749,0,0,0,3-2.77q.182-.182.347-.376Z" transform="translate(-251.383 -597.584)" fill="url(#linear-gradient-2)"/>
      <path id="Path_318" data-name="Path 318" d="M279.722,626.912c.037,1.385-.905,2.567-1.653,3.72s-1.3,2.728-.533,3.881c.252.38.632.674.86,1.071.8,1.385-.529,2.976-1.013,4.5a5.646,5.646,0,0,0,1.265,5.146,13.694,13.694,0,0,0,4.431,3.237,39.549,39.549,0,0,0,10.962,3.9,10.494,10.494,0,0,0,6.01-.269,6.391,6.391,0,0,0,3.609-7.027c-.475-2.174-2.067-3.923-2.893-5.977a2.8,2.8,0,0,1-.273-1.294,4.37,4.37,0,0,1,1.137-2.025,8.267,8.267,0,0,0,1.339-5.882,13.807,13.807,0,0,0-2.307-5.729,6.277,6.277,0,0,0-1.653-1.819,7.254,7.254,0,0,0-3.092-.934c-4.489-.628-9.139-1.314-13.665-1.546-1.43-.074-2.48.207-3.187,1.546C277.986,623.407,279.668,624.907,279.722,626.912Z" transform="translate(-262.744 -607.488)" fill="#444176"/>
      <path id="Path_319" data-name="Path 319" d="M309.527,655.288,301.008,667.4l-8.317-.723s-.273,2.893-3.617-7.593c-1.868-5.865,1.93-3.828,2.678-5.452s2.067-3.059,2.178-4.258a7.516,7.516,0,0,0-.517-4.034l9.04-1.083a6.745,6.745,0,0,0-.149,3.774C303.438,652.738,309.527,655.288,309.527,655.288Z" transform="translate(-269.431 -621.807)" fill="#c77485"/>
      <ellipse id="Ellipse_41" data-name="Ellipse 41" cx="10.747" cy="8.474" rx="10.747" ry="8.474" transform="translate(16.535 6.205)" fill="#444176"/>
      <path id="Path_320" data-name="Path 320" d="M309.181,648.03a9.035,9.035,0,0,1-8.375,1.347,7.516,7.516,0,0,0-.517-4.034l9.04-1.083A6.745,6.745,0,0,0,309.181,648.03Z" transform="translate(-276.31 -621.807)" opacity="0.1" style="isolation: isolate"/>
      <circle id="Ellipse_42" data-name="Ellipse 42" cx="9.04" cy="9.04" r="9.04" transform="translate(18.379 9.615)" fill="#c77485"/>
      <path id="Path_321" data-name="Path 321" d="M302.449,669.331l-.211-.827-.182-.727-.269-1.075-.05-.2-.041-.165s.215-.649-1.2-.438l-.265.045c-.223.046-.484.108-.781.19l-.269.083-.355.112h0a7.754,7.754,0,0,0-3,1.81,6.779,6.779,0,0,0-1,1.215c-.029.041-.05.079-.074.112a3.916,3.916,0,0,0-.26.479c0,3.257-3.257,7.234-3.257,7.234l-3.179-4.592-.062-.091-.756-1.1-.269-.355-.091-.124-1.653-2.22-.413-.554-.136-.186-.2-.269-.475-.632-1.86,1.087-2.48,1.447L278.2,679v.26l.045.777.3,5.109v.07l-.529,2.116.079.041a27.253,27.253,0,0,0,3.885,1.72l.351.124c.413.136.8.26,1.207.38a1.486,1.486,0,0,1,.033.186V689.6a28.241,28.241,0,0,0,15.521,0l.1-.029c.236-.066.475-.136.707-.215l.376-.12a27.7,27.7,0,0,0,2.993-1.2l.347-7.4.248-5.336V675Z" transform="translate(-263.245 -634.477)" opacity="0.1" style="isolation: isolate"/>
      <path id="Path_322" data-name="Path 322" d="M299.6,683.595a2.855,2.855,0,0,0-.029-.5c-.029-.165-.025-.31-.045-.467s-.037-.314-.058-.471-.05-.314-.079-.471-.058-.314-.091-.471a.71.71,0,0,0-.033-.157c-.045-.207-.1-.413-.149-.624s-.087-.335-.136-.5a.7.7,0,0,0-.066-.219c-.025-.07-.07-.24-.107-.36l-.074-.231c-.033-.1-.066-.207-.1-.31-.062-.186-.128-.368-.194-.554s-.136-.368-.207-.55c-.141-.372-.293-.74-.446-1.108-.6-1.43-1.273-2.84-1.893-4.237a23.509,23.509,0,0,1-.885-2.244l-.079.112a4.749,4.749,0,0,0-.335.6c0,3.253-3.257,7.234-3.257,7.234l-3.278-4.774-2.869,4.41a3.6,3.6,0,0,0-1.149,2.042c-.091.289-.178.6-.26.938-.058.223-.112.459-.161.694-.029.12-.054.24-.079.364l-.074.376v.058c-.05.256-.1.521-.145.79s-.1.579-.145.872q-.05.285-.087.57c-.058.368-.107.74-.157,1.108-.029.215-.058.413-.083.641l-.1.827c.211.678.446,1.348.69,2a3.329,3.329,0,0,1,.269,1.137,28.248,28.248,0,0,0,15.521,0,.169.169,0,0,1,0-.041,4.926,4.926,0,0,1-.1-1.129h0a31.047,31.047,0,0,1,.413-3.162,11.556,11.556,0,0,0,.079-1.554v-.186C299.61,683.893,299.606,683.744,299.6,683.595Zm0,0a2.855,2.855,0,0,0-.029-.5c-.029-.165-.025-.31-.045-.467s-.037-.314-.058-.471-.05-.314-.079-.471-.058-.314-.091-.471a.71.71,0,0,0-.033-.157c-.045-.207-.1-.413-.149-.624s-.087-.335-.136-.5a.7.7,0,0,0-.066-.219c-.025-.07-.07-.24-.107-.36l-.074-.231c-.033-.1-.066-.207-.1-.31-.062-.186-.128-.368-.194-.554s-.136-.368-.207-.55c-.141-.372-.293-.74-.446-1.108-.6-1.43-1.273-2.84-1.893-4.237a23.509,23.509,0,0,1-.885-2.244l-.079.112a4.749,4.749,0,0,0-.335.6c0,3.253-3.257,7.234-3.257,7.234l-3.278-4.774-2.869,4.41a3.6,3.6,0,0,0-1.149,2.042c-.091.289-.178.6-.26.938-.058.223-.112.459-.161.694-.029.12-.054.24-.079.364l-.074.376v.058c-.05.256-.1.521-.145.79s-.1.579-.145.872q-.05.285-.087.57c-.058.368-.107.74-.157,1.108-.029.215-.058.413-.083.641l-.1.827c.211.678.446,1.348.69,2a3.329,3.329,0,0,1,.269,1.137,28.248,28.248,0,0,0,15.521,0,.169.169,0,0,1,0-.041,4.926,4.926,0,0,1-.1-1.129h0a31.047,31.047,0,0,1,.413-3.162,11.556,11.556,0,0,0,.079-1.554v-.186C299.61,683.893,299.606,683.744,299.6,683.595Zm0,0a2.855,2.855,0,0,0-.029-.5c-.029-.165-.025-.31-.045-.467s-.037-.314-.058-.471-.05-.314-.079-.471-.058-.314-.091-.471a.71.71,0,0,0-.033-.157c-.045-.207-.1-.413-.149-.624s-.087-.335-.136-.5a.7.7,0,0,0-.066-.219c-.025-.07-.07-.24-.107-.36l-.074-.231c-.033-.1-.066-.207-.1-.31-.062-.186-.128-.368-.194-.554s-.136-.368-.207-.55c-.141-.372-.293-.74-.446-1.108-.6-1.43-1.273-2.84-1.893-4.237a23.509,23.509,0,0,1-.885-2.244l-.079.112a4.749,4.749,0,0,0-.335.6c0,3.253-3.257,7.234-3.257,7.234l-3.278-4.774-2.869,4.41a3.6,3.6,0,0,0-1.149,2.042c-.091.289-.178.6-.26.938-.058.223-.112.459-.161.694-.029.12-.054.24-.079.364l-.074.376v.058c-.05.256-.1.521-.145.79s-.1.579-.145.872q-.05.285-.087.57c-.058.368-.107.74-.157,1.108-.029.215-.058.413-.083.641l-.1.827c.211.678.446,1.348.69,2a3.329,3.329,0,0,1,.269,1.137,28.248,28.248,0,0,0,15.521,0,.169.169,0,0,1,0-.041,4.926,4.926,0,0,1-.1-1.129h0a31.047,31.047,0,0,1,.413-3.162,11.556,11.556,0,0,0,.079-1.554v-.186C299.61,683.893,299.606,683.744,299.6,683.595Zm4.382-7.759-1.476-5.89-.252-1.009-.07-.277h0l-.36-1.438a.291.291,0,0,0,0-.037h0A.331.331,0,0,0,301.8,667c-.054-.107-.19-.219-.508-.248a2.548,2.548,0,0,0-.364,0h0a6.315,6.315,0,0,0-1.062.2c-.169.046-.351.1-.546.157l-.355.112h-.033a7.892,7.892,0,0,0-2.6,1.447A7.026,7.026,0,0,0,295,670.128l-.079.112a4.75,4.75,0,0,0-.335.6c0,3.253-3.257,7.234-3.257,7.234l-3.278-4.774-.186-.269-.033-.045-.475-.7L287,671.8l-.1-.124-1.695-2.261h0l-.537-.732v-.025l-.186-.252-.355-.471-1.24.723-3.1,1.806-1.43,9.3v.1l.041.678.306,5.179v.293l-.467,1.864a27.253,27.253,0,0,0,3.886,1.719l.351.124c.413.136.8.26,1.207.38a1.481,1.481,0,0,1,.033.186v-.178a28.242,28.242,0,0,0,15.521,0l.1-.029c.236-.066.475-.136.707-.215l.376-.12a27.683,27.683,0,0,0,2.993-1.2h0l.343-7.391.248-5.279Zm-20.329,14.273a1.486,1.486,0,0,1,.033.186v-.178Zm15.947-6.514a2.855,2.855,0,0,0-.029-.5c-.029-.165-.025-.31-.045-.467s-.037-.314-.058-.471-.05-.314-.079-.471-.058-.314-.091-.471a.71.71,0,0,0-.033-.157c-.045-.207-.1-.413-.149-.624s-.087-.335-.136-.5a.7.7,0,0,0-.066-.219c-.025-.07-.07-.24-.107-.36l-.074-.231c-.033-.1-.066-.207-.1-.31-.062-.186-.128-.368-.194-.554s-.136-.368-.207-.55c-.141-.372-.293-.74-.446-1.108-.6-1.43-1.273-2.84-1.893-4.237a23.509,23.509,0,0,1-.885-2.244l-.079.112a4.749,4.749,0,0,0-.335.6c0,3.253-3.257,7.234-3.257,7.234l-3.278-4.774-2.869,4.41a3.6,3.6,0,0,0-1.149,2.042c-.091.289-.178.6-.26.938-.058.223-.112.459-.161.694-.029.12-.054.24-.079.364l-.074.376v.058c-.05.256-.1.521-.145.79s-.1.579-.145.872q-.05.285-.087.57c-.058.368-.107.74-.157,1.108-.029.215-.058.413-.083.641l-.1.827c.211.678.446,1.348.69,2a3.329,3.329,0,0,1,.269,1.137,28.248,28.248,0,0,0,15.521,0,.169.169,0,0,1,0-.041,4.926,4.926,0,0,1-.1-1.129h0a31.047,31.047,0,0,1,.413-3.162,11.556,11.556,0,0,0,.079-1.554v-.186C299.61,683.893,299.606,683.744,299.6,683.595Zm0,0a2.855,2.855,0,0,0-.029-.5c-.029-.165-.025-.31-.045-.467s-.037-.314-.058-.471-.05-.314-.079-.471-.058-.314-.091-.471a.71.71,0,0,0-.033-.157c-.045-.207-.1-.413-.149-.624s-.087-.335-.136-.5a.7.7,0,0,0-.066-.219c-.025-.07-.07-.24-.107-.36l-.074-.231c-.033-.1-.066-.207-.1-.31-.062-.186-.128-.368-.194-.554s-.136-.368-.207-.55c-.141-.372-.293-.74-.446-1.108-.6-1.43-1.273-2.84-1.893-4.237a23.509,23.509,0,0,1-.885-2.244l-.079.112a4.749,4.749,0,0,0-.335.6c0,3.253-3.257,7.234-3.257,7.234l-3.278-4.774-2.869,4.41a3.6,3.6,0,0,0-1.149,2.042c-.091.289-.178.6-.26.938-.058.223-.112.459-.161.694-.029.12-.054.24-.079.364l-.074.376v.058c-.05.256-.1.521-.145.79s-.1.579-.145.872q-.05.285-.087.57c-.058.368-.107.74-.157,1.108-.029.215-.058.413-.083.641l-.1.827c.211.678.446,1.348.69,2a3.329,3.329,0,0,1,.269,1.137,28.248,28.248,0,0,0,15.521,0,.169.169,0,0,1,0-.041,4.926,4.926,0,0,1-.1-1.129h0a31.047,31.047,0,0,1,.413-3.162,11.556,11.556,0,0,0,.079-1.554v-.186C299.61,683.893,299.606,683.744,299.6,683.595Zm0,0a2.855,2.855,0,0,0-.029-.5c-.029-.165-.025-.31-.045-.467s-.037-.314-.058-.471-.05-.314-.079-.471-.058-.314-.091-.471a.71.71,0,0,0-.033-.157c-.045-.207-.1-.413-.149-.624s-.087-.335-.136-.5a.7.7,0,0,0-.066-.219c-.025-.07-.07-.24-.107-.36l-.074-.231c-.033-.1-.066-.207-.1-.31-.062-.186-.128-.368-.194-.554s-.136-.368-.207-.55c-.141-.372-.293-.74-.446-1.108-.6-1.43-1.273-2.84-1.893-4.237a23.509,23.509,0,0,1-.885-2.244l-.079.112a4.749,4.749,0,0,0-.335.6c0,3.253-3.257,7.234-3.257,7.234l-3.278-4.774-2.869,4.41a3.6,3.6,0,0,0-1.149,2.042c-.091.289-.178.6-.26.938-.058.223-.112.459-.161.694-.029.12-.054.24-.079.364l-.074.376v.058c-.05.256-.1.521-.145.79s-.1.579-.145.872q-.05.285-.087.57c-.058.368-.107.74-.157,1.108-.029.215-.058.413-.083.641l-.1.827c.211.678.446,1.348.69,2a3.329,3.329,0,0,1,.269,1.137,28.248,28.248,0,0,0,15.521,0,.169.169,0,0,1,0-.041,4.926,4.926,0,0,1-.1-1.129h0a31.047,31.047,0,0,1,.413-3.162,11.556,11.556,0,0,0,.079-1.554v-.186C299.61,683.893,299.606,683.744,299.6,683.595Zm0,0a2.855,2.855,0,0,0-.029-.5c-.029-.165-.025-.31-.045-.467s-.037-.314-.058-.471-.05-.314-.079-.471-.058-.314-.091-.471a.71.71,0,0,0-.033-.157c-.045-.207-.1-.413-.149-.624s-.087-.335-.136-.5a.7.7,0,0,0-.066-.219c-.025-.07-.07-.24-.107-.36l-.074-.231c-.033-.1-.066-.207-.1-.31-.062-.186-.128-.368-.194-.554s-.136-.368-.207-.55c-.141-.372-.293-.74-.446-1.108-.6-1.43-1.273-2.84-1.893-4.237a23.509,23.509,0,0,1-.885-2.244l-.079.112a4.749,4.749,0,0,0-.335.6c0,3.253-3.257,7.234-3.257,7.234l-3.278-4.774-2.869,4.41a3.6,3.6,0,0,0-1.149,2.042c-.091.289-.178.6-.26.938-.058.223-.112.459-.161.694-.029.12-.054.24-.079.364l-.074.376v.058c-.05.256-.1.521-.145.79s-.1.579-.145.872q-.05.285-.087.57c-.058.368-.107.74-.157,1.108-.029.215-.058.413-.083.641l-.1.827c.211.678.446,1.348.69,2a3.329,3.329,0,0,1,.269,1.137,28.248,28.248,0,0,0,15.521,0,.169.169,0,0,1,0-.041,4.926,4.926,0,0,1-.1-1.129h0a31.047,31.047,0,0,1,.413-3.162,11.556,11.556,0,0,0,.079-1.554v-.186C299.61,683.893,299.606,683.744,299.6,683.595Zm0,0a2.855,2.855,0,0,0-.029-.5c-.029-.165-.025-.31-.045-.467s-.037-.314-.058-.471-.05-.314-.079-.471-.058-.314-.091-.471a.71.71,0,0,0-.033-.157c-.045-.207-.1-.413-.149-.624s-.087-.335-.136-.5a.7.7,0,0,0-.066-.219c-.025-.07-.07-.24-.107-.36l-.074-.231c-.033-.1-.066-.207-.1-.31-.062-.186-.128-.368-.194-.554s-.136-.368-.207-.55c-.141-.372-.293-.74-.446-1.108-.6-1.43-1.273-2.84-1.893-4.237a23.509,23.509,0,0,1-.885-2.244l-.079.112a4.749,4.749,0,0,0-.335.6c0,3.253-3.257,7.234-3.257,7.234l-3.278-4.774-2.869,4.41a3.6,3.6,0,0,0-1.149,2.042c-.091.289-.178.6-.26.938-.058.223-.112.459-.161.694-.029.12-.054.24-.079.364l-.074.376v.058c-.05.256-.1.521-.145.79s-.1.579-.145.872q-.05.285-.087.57c-.058.368-.107.74-.157,1.108-.029.215-.058.413-.083.641l-.1.827c.211.678.446,1.348.69,2a3.329,3.329,0,0,1,.269,1.137,28.248,28.248,0,0,0,15.521,0,.169.169,0,0,1,0-.041,4.926,4.926,0,0,1-.1-1.129h0a31.047,31.047,0,0,1,.413-3.162,11.556,11.556,0,0,0,.079-1.554v-.186C299.61,683.893,299.606,683.744,299.6,683.595Zm0,0a2.855,2.855,0,0,0-.029-.5c-.029-.165-.025-.31-.045-.467s-.037-.314-.058-.471-.05-.314-.079-.471-.058-.314-.091-.471a.71.71,0,0,0-.033-.157c-.045-.207-.1-.413-.149-.624s-.087-.335-.136-.5a.7.7,0,0,0-.066-.219c-.025-.07-.07-.24-.107-.36l-.074-.231c-.033-.1-.066-.207-.1-.31-.062-.186-.128-.368-.194-.554s-.136-.368-.207-.55c-.141-.372-.293-.74-.446-1.108-.6-1.43-1.273-2.84-1.893-4.237a23.509,23.509,0,0,1-.885-2.244l-.079.112a4.749,4.749,0,0,0-.335.6c0,3.253-3.257,7.234-3.257,7.234l-3.278-4.774-2.869,4.41a3.6,3.6,0,0,0-1.149,2.042c-.091.289-.178.6-.26.938-.058.223-.112.459-.161.694-.029.12-.054.24-.079.364l-.074.376v.058c-.05.256-.1.521-.145.79s-.1.579-.145.872q-.05.285-.087.57c-.058.368-.107.74-.157,1.108-.029.215-.058.413-.083.641l-.1.827c.211.678.446,1.348.69,2a3.329,3.329,0,0,1,.269,1.137,28.248,28.248,0,0,0,15.521,0,.169.169,0,0,1,0-.041,4.926,4.926,0,0,1-.1-1.129h0a31.047,31.047,0,0,1,.413-3.162,11.556,11.556,0,0,0,.079-1.554v-.186C299.61,683.893,299.606,683.744,299.6,683.595Zm0,0a2.855,2.855,0,0,0-.029-.5c-.029-.165-.025-.31-.045-.467s-.037-.314-.058-.471-.05-.314-.079-.471-.058-.314-.091-.471a.71.71,0,0,0-.033-.157c-.045-.207-.1-.413-.149-.624s-.087-.335-.136-.5a.7.7,0,0,0-.066-.219c-.025-.07-.07-.24-.107-.36l-.074-.231c-.033-.1-.066-.207-.1-.31-.062-.186-.128-.368-.194-.554s-.136-.368-.207-.55c-.141-.372-.293-.74-.446-1.108-.6-1.43-1.273-2.84-1.893-4.237a23.509,23.509,0,0,1-.885-2.244l-.079.112a4.749,4.749,0,0,0-.335.6c0,3.253-3.257,7.234-3.257,7.234l-3.278-4.774-2.869,4.41a3.6,3.6,0,0,0-1.149,2.042c-.091.289-.178.6-.26.938-.058.223-.112.459-.161.694-.029.12-.054.24-.079.364l-.074.376v.058c-.05.256-.1.521-.145.79s-.1.579-.145.872q-.05.285-.087.57c-.058.368-.107.74-.157,1.108-.029.215-.058.413-.083.641l-.1.827c.211.678.446,1.348.69,2a3.329,3.329,0,0,1,.269,1.137,28.248,28.248,0,0,0,15.521,0,.169.169,0,0,1,0-.041,4.926,4.926,0,0,1-.1-1.129h0a31.047,31.047,0,0,1,.413-3.162,11.556,11.556,0,0,0,.079-1.554v-.186C299.61,683.893,299.606,683.744,299.6,683.595Zm0,0a2.855,2.855,0,0,0-.029-.5c-.029-.165-.025-.31-.045-.467s-.037-.314-.058-.471-.05-.314-.079-.471-.058-.314-.091-.471a.71.71,0,0,0-.033-.157c-.045-.207-.1-.413-.149-.624s-.087-.335-.136-.5a.7.7,0,0,0-.066-.219c-.025-.07-.07-.24-.107-.36l-.074-.231c-.033-.1-.066-.207-.1-.31-.062-.186-.128-.368-.194-.554s-.136-.368-.207-.55c-.141-.372-.293-.74-.446-1.108-.6-1.43-1.273-2.84-1.893-4.237a23.509,23.509,0,0,1-.885-2.244l-.079.112a4.749,4.749,0,0,0-.335.6c0,3.253-3.257,7.234-3.257,7.234l-3.278-4.774-2.869,4.41a3.6,3.6,0,0,0-1.149,2.042c-.091.289-.178.6-.26.938-.058.223-.112.459-.161.694-.029.12-.054.24-.079.364l-.074.376v.058c-.05.256-.1.521-.145.79s-.1.579-.145.872q-.05.285-.087.57c-.058.368-.107.74-.157,1.108-.029.215-.058.413-.083.641l-.1.827c.211.678.446,1.348.69,2a3.329,3.329,0,0,1,.269,1.137,28.248,28.248,0,0,0,15.521,0,.169.169,0,0,1,0-.041,4.926,4.926,0,0,1-.1-1.129h0a31.047,31.047,0,0,1,.413-3.162,11.556,11.556,0,0,0,.079-1.554v-.186C299.61,683.893,299.606,683.744,299.6,683.595Z" transform="translate(-263.374 -634.997)" fill="#444176"/>
      <path id="Path_323" data-name="Path 323" d="M276.546,673.163l-.277-.037a10.039,10.039,0,0,1-1.24-.248l-.153-.041c-1.009-.285-2.112-.8-2.36-1.7a1.606,1.606,0,0,1,.025-.88,7.547,7.547,0,0,1,.562-1.422v-.025a2,2,0,0,1,.1-.186A4.133,4.133,0,0,1,274.7,667l-.5.079h0l-4.2.682-6.51,1.05s-1.157-.231-2.732,4.109a.67.67,0,0,1-.054.161c-.38,1.062-.781,2.389-1.195,4.047-.285,1.149-.546,2.278-.785,3.373-.07.331-.141.657-.207.98a26.255,26.255,0,0,0,2.4,2.48l.136.128a28.209,28.209,0,0,0,5.506,3.9l.079.041a27.259,27.259,0,0,0,3.885,1.72l.351.124c.074-.765.157-1.612.256-2.48a.706.706,0,0,1,.033-.26l.1-.827c.025-.211.054-.413.083-.641.05-.368.1-.74.157-1.108q.037-.285.087-.57c.045-.293.1-.587.145-.872s.1-.533.145-.79v-.058l.074-.376c.025-.124.05-.244.079-.364.05-.236.1-.471.161-.694.083-.335.169-.649.26-.938a3.534,3.534,0,0,1,1.149-2.042l2.869-4.41.12-.186.054-.083Z" transform="translate(-251.806 -635.147)" opacity="0.1" style="isolation: isolate"/>
      <path id="Path_324" data-name="Path 324" d="M275.892,673.183l-3.046,4.679a3.5,3.5,0,0,0-1.128,1.98c-.1.306-.19.641-.281.992a49.435,49.435,0,0,0-.934,5.411.643.643,0,0,1-.033.248c-.141,1.149-.256,2.278-.351,3.274a27.253,27.253,0,0,1-3.885-1.719l-.079-.041a28.207,28.207,0,0,1-5.506-3.9l-.136-.128a26.273,26.273,0,0,1-2.4-2.48c-.1-.112-.194-.227-.289-.343.045-.215.091-.413.141-.645.236-1.1.5-2.22.781-3.365a40.729,40.729,0,0,1,1.405-4.63,1.263,1.263,0,0,1,.054-.132c1.463-3.766,2.517-3.555,2.517-3.555l6.874-1.108,4.34-.7-.136.078h0a4.4,4.4,0,0,0-1.195,1.273l-.12.2c-.05.079-.1.165-.145.252a7.309,7.309,0,0,0-.57,1.447,1.521,1.521,0,0,0,.1,1.182,3.937,3.937,0,0,0,2.55,1.48l.161.041A10.287,10.287,0,0,0,275.892,673.183Z" transform="translate(-251.395 -635.159)" fill="#4ecca3"/>
      <path id="Path_325" data-name="Path 325" d="M341.132,680.041l-.169-3.671c.723-5.787-.723-6.146-.723-6.146l-1.72-.827h-.046l-6.915-3.352-.269-.132-.083-.037h0l-.9-.438h0l-.57-.277-1.066-.517-.36-.174V665.9c0,.413.037.9.07,1.459.074,1.414.211,3.307.455,5.539.136,1.294.31,2.707.525,4.224.128.9.219,1.79.277,2.662a46.812,46.812,0,0,1-.273,8.8l.376-.12a27.684,27.684,0,0,0,2.993-1.2h0A27.458,27.458,0,0,0,338.065,684l.074-.054a27.584,27.584,0,0,0,3-2.724Z" transform="translate(-292.748 -633.663)" opacity="0.1" style="isolation: isolate"/>
      <path id="Path_326" data-name="Path 326" d="M342,680.012l-.169-3.679c.723-5.787-.723-6.146-.723-6.146l-2.067-1H339l-6.936-3.365-.318-.153-.062-.029-.508-.248-.674-.327-1.331-.645v.587h0v.727c0,.413.037.955.074,1.571.07,1.319.194,3.046.413,5.1.149,1.41.335,2.976.579,4.663q.19,1.352.273,2.674a46.789,46.789,0,0,1-.256,8.68,27.7,27.7,0,0,0,2.993-1.2h0a27.448,27.448,0,0,0,5.332-3.274l.074-.054a27.593,27.593,0,0,0,3-2.724q.182-.182.347-.372Z" transform="translate(-293.252 -633.633)" fill="#4ecca3"/>
      <path id="Path_327" data-name="Path 327" d="M293.607,617.98a10.344,10.344,0,0,1,3.869-.413A12.673,12.673,0,0,1,300.431,619a7.647,7.647,0,0,0,3.051.806,1.794,1.794,0,0,0,1.12-.219,1.736,1.736,0,0,0,.5-1.7,9.776,9.776,0,0,0-2.48-4.646,9.1,9.1,0,0,0-1.554-1.575,8.209,8.209,0,0,0-5.287-1.2,13.245,13.245,0,0,0-6.056,1.554c-1.24.711-4.084,2.951-3.1,4.572C287.667,618.286,291.982,618.257,293.607,617.98Z" transform="translate(-268.176 -601.971)" opacity="0.1" style="isolation: isolate"/>
      <path id="Path_328" data-name="Path 328" d="M293.607,616.98a10.344,10.344,0,0,1,3.869-.413A12.67,12.67,0,0,1,300.431,618a7.647,7.647,0,0,0,3.051.806,1.794,1.794,0,0,0,1.12-.219,1.736,1.736,0,0,0,.5-1.7,9.776,9.776,0,0,0-2.48-4.646,9.1,9.1,0,0,0-1.554-1.575,8.209,8.209,0,0,0-5.287-1.2,13.245,13.245,0,0,0-6.056,1.554c-1.24.711-4.084,2.951-3.1,4.572C287.667,617.286,291.982,617.257,293.607,616.98Z" transform="translate(-268.176 -601.384)" fill="#444176"/>
    </g>
    <path id="Path_329" data-name="Path 329" d="M693.511,499.269s-9.548.657-12.181-1.319a25.213,25.213,0,0,0,11.884,4.94Z" transform="translate(-399.701 -292.125)" opacity="0.1" style="isolation: isolate"/>
    <path id="Path_330" data-name="Path 330" d="M384.274,222.683,271.429,131.745a7.059,7.059,0,0,0-5-2.067h-4.795a61.176,61.176,0,1,0-10.594,10.594v4.791a7.059,7.059,0,0,0,2.067,5L365.95,241a7.027,7.027,0,0,0,9.937.041l.041-.041,8.317-8.308A7.1,7.1,0,0,0,384.274,222.683Zm-170.909-93a37.673,37.673,0,1,1,37.673-37.673h0a37.652,37.652,0,0,1-37.623,37.681h-.05Z" transform="translate(-89.302 -18.11)" fill="url(#linear-gradient-3)"/>
    <path id="Path_331" data-name="Path 331" d="M386.274,220.683,273.429,129.745a7.059,7.059,0,0,0-5-2.067h-4.795a61.176,61.176,0,1,0-10.594,10.594v4.791a7.059,7.059,0,0,0,2.067,5L367.95,239a7.027,7.027,0,0,0,9.937.041l.041-.041,8.317-8.308A7.1,7.1,0,0,0,386.274,220.683Zm-170.909-93a37.673,37.673,0,1,1,37.673-37.673h0a37.652,37.652,0,0,1-37.623,37.681h-.05Z" transform="translate(-90.475 -16.937)" fill="#4ecca3"/>
    <path id="Path_332" data-name="Path 332" d="M237.58,136.057a27.976,27.976,0,0,0,5.613,16.856c.368.492.752.967,1.153,1.434.215.252.438.5.666.744q.169.19.347.372a27.6,27.6,0,0,0,3,2.724l.074.054a27.454,27.454,0,0,0,5.332,3.274h0a27.692,27.692,0,0,0,2.993,1.2l.376.12c.231.079.471.149.707.215l.1.029c.12.033.24.07.364.1a28,28,0,0,0,7.37.98c.413,0,.847,0,1.269-.029a27.788,27.788,0,0,0,6.519-1.066h.041c.393-.116.781-.236,1.166-.368h.041l.351-.124a27.257,27.257,0,0,0,3.886-1.72l.078-.041c.136-.074.273-.149.413-.227a28.042,28.042,0,0,0,5.1-3.671l.136-.128a26.268,26.268,0,0,0,2.4-2.48l.087-.1c.07-.079.136-.157.2-.24.182-.215.355-.438.529-.661a28.108,28.108,0,1,0-50.313-17.241Z" transform="translate(-139.376 -63.335)" fill="#393e46"/>
    <path id="Path_333" data-name="Path 333" d="M255.308,154s6.1-.517,8.891-4.394c2.724-3.774,4.576-3.819,4.667-3.819h0c.07-.5.12-.984.153-1.43v-.062a.828.828,0,0,1-.384.169c-.546.083-1.025-.434-1.3-.984a7.672,7.672,0,0,0-.827-1.629c-.674-.777-1.777-.781-2.579-1.372a3.546,3.546,0,0,1-1.24-2.364,6.538,6.538,0,0,1-.05-1.033,11.442,11.442,0,0,1,.174-2.2,9.075,9.075,0,0,1,1.3-3.848c.765-1.079,2.261-1.31,3.005-2.331,3.485-4.778,5.969-3.261,8.966-4.865a4.8,4.8,0,0,1,1.918-.7c1.2-.07,2.278.79,3.245,1.608A9.26,9.26,0,0,1,282.9,126.4a8.97,8.97,0,0,1,1.306,5.018,7.52,7.52,0,0,1-.19,1.963c-.24.951-.889.889-1.6.674a8.589,8.589,0,0,1-2.918,10.78v.434a.738.738,0,0,0,0,.1,19.576,19.576,0,0,0,.066,1.976c.07.037,6.754,3.828,7.511,5.626s3.559,3.1,3.559,3.1,3.079,1.653,4.547,6.845l-.087.1a26.5,26.5,0,0,1-2.4,2.53l-.136.132a28.035,28.035,0,0,1-5.1,3.72c-.132.079-.269.157-.413.231l-.079.041a27.007,27.007,0,0,1-3.885,1.748l-.351.128h-.041c-.384.136-.773.256-1.166.372h-.041A27.364,27.364,0,0,1,274.959,173c-.413.021-.827.029-1.269.029a27.56,27.56,0,0,1-7.349-.955c-.124-.029-.244-.066-.364-.1l-.1-.029c-.236-.066-.475-.141-.707-.219l-.376-.12a27.417,27.417,0,0,1-3.005-1.224h0a27.407,27.407,0,0,1-5.332-3.327l-.074-.054a27.737,27.737,0,0,1-3-2.769q-.178-.182-.347-.38c-.227-.248-.451-.5-.666-.756-.413-.475-.785-.959-1.153-1.459C253.431,153.148,255.308,154,255.308,154Z" transform="translate(-147.378 -72.237)" fill="url(#linear-gradient-4)"/>
    <path id="Path_334" data-name="Path 334" d="M297.31,180.34l8.891-6.858s-5.956,1.277-5.787-8.242a.749.749,0,0,1,0-.1,24.359,24.359,0,0,1,.207-2.84c1.525-12.7-10.669-1.525-10.669-1.525a18.19,18.19,0,0,1,0,3.381v.091a23.618,23.618,0,0,1-2.538,8.974C284.1,179.575,297.31,180.34,297.31,180.34Z" transform="translate(-168.298 -91.658)" fill="#fdc2cc"/>
    <path id="Path_335" data-name="Path 335" d="M295.435,162.4c1.509,1.467,2.431,4.134,4.7,4.134a8.329,8.329,0,0,0,4.617-1.385,24.352,24.352,0,0,1,.207-2.84c1.525-12.7-10.669-1.525-10.669-1.525S295.6,160.329,295.435,162.4Z" transform="translate(-172.645 -91.658)" opacity="0.1" style="isolation: isolate"/>
    <circle id="Ellipse_43" data-name="Ellipse 43" cx="8.383" cy="8.383" r="8.383" transform="translate(119.107 57.692)" fill="#fdc2cc"/>
    <path id="Path_336" data-name="Path 336" d="M299.122,129.343a9.2,9.2,0,0,0-1.653-1.62c-.967-.806-2.042-1.653-3.245-1.579a4.856,4.856,0,0,0-1.918.686c-3,1.579-5.481.087-8.966,4.782-.744,1-2.236,1.24-3.005,2.294a8.794,8.794,0,0,0-1.3,3.786,9.28,9.28,0,0,0-.128,2.769,3.467,3.467,0,0,0,1.24,2.323c.8.583,1.906.587,2.579,1.352a7.5,7.5,0,0,1,.827,1.6c.273.537.752,1.046,1.3.967a1.338,1.338,0,0,0,.951-1.24,7.608,7.608,0,0,0-.1-1.765,4.222,4.222,0,0,1,.645-2.976c.413-.541,1.033-.864,1.443-1.414.984-1.327.537-3.555,1.616-4.787a2.558,2.558,0,0,1,2.48-.69,10.573,10.573,0,0,1,2.48,1.066,18.406,18.406,0,0,0,3.394,1.31c.984.269,2.125.914,2.459-.413A8.736,8.736,0,0,0,299.122,129.343Z" transform="translate(-163.592 -74.003)" opacity="0.1" style="isolation: isolate"/>
    <path id="Path_337" data-name="Path 337" d="M299.122,128.343a9.2,9.2,0,0,0-1.653-1.62c-.967-.806-2.042-1.653-3.245-1.579a4.856,4.856,0,0,0-1.918.686c-3,1.579-5.481.087-8.966,4.782-.744,1-2.236,1.24-3.005,2.294a8.794,8.794,0,0,0-1.3,3.786,9.28,9.28,0,0,0-.128,2.769,3.467,3.467,0,0,0,1.24,2.323c.8.583,1.906.587,2.579,1.352a7.5,7.5,0,0,1,.827,1.6c.273.537.752,1.046,1.3.967a1.338,1.338,0,0,0,.951-1.24,7.608,7.608,0,0,0-.1-1.765,4.222,4.222,0,0,1,.645-2.976c.413-.541,1.033-.864,1.443-1.414.984-1.327.537-3.555,1.616-4.787a2.558,2.558,0,0,1,2.48-.69,10.573,10.573,0,0,1,2.48,1.066,18.406,18.406,0,0,0,3.394,1.31c.984.269,2.125.913,2.459-.413A8.736,8.736,0,0,0,299.122,128.343Z" transform="translate(-163.592 -73.416)" fill="#865a61"/>
    <path id="Path_338" data-name="Path 338" d="M284.923,202.153l-.165,6.345a28,28,0,0,0,7.37.98c.413,0,.847,0,1.269-.029a27.784,27.784,0,0,0,6.519-1.066h.041c.393-.116.781-.236,1.166-.368h.041l.351-.124a27.257,27.257,0,0,0,3.885-1.72l.079-.041c.136-.074.273-.149.413-.227l-.641-8.552,1.021-5.865-5.589-3.807a9.865,9.865,0,0,1-1.05,1.273,7.024,7.024,0,0,1-1.91,1.414c-4.01,1.976-8.573-1.166-10.842-3.108l-.517-.459c-.587-.533-.922-.9-.922-.9l-2.794,4.315Z" transform="translate(-165.816 -109.061)" opacity="0.1" style="isolation: isolate"/>
    <path id="Path_339" data-name="Path 339" d="M284.923,203.153l-.165,6.345a28.006,28.006,0,0,0,7.37.98c.413,0,.847,0,1.269-.029a27.783,27.783,0,0,0,6.519-1.066h.041c.393-.116.781-.236,1.166-.368h.041l.351-.124a27.255,27.255,0,0,0,3.885-1.72l.079-.041c.136-.074.273-.149.413-.227l-.641-8.552,1.021-5.865-5.589-3.807a9.864,9.864,0,0,1-1.05,1.273,7.024,7.024,0,0,1-1.91,1.414c-4.01,1.976-8.573-1.166-10.842-3.108l-.517-.459c-.587-.533-.922-.9-.922-.9l-2.794,4.315Z" transform="translate(-165.816 -109.648)" fill="#53526b"/>
    <path id="Path_340" data-name="Path 340" d="M251.16,194.6c.368.492.752.967,1.153,1.434.215.252.438.5.665.744q.169.19.347.372a27.59,27.59,0,0,0,3,2.724l.074.054a27.455,27.455,0,0,0,5.332,3.274h0a27.691,27.691,0,0,0,2.993,1.2l.376.12c.232.079.471.149.707.215l.1.029c.12.033.24.07.364.1a28,28,0,0,0,7.37.98c.413,0,.847,0,1.269-.029.322-5.274.413-9.507-.091-10.594a17.018,17.018,0,0,0-1.021-1.827c-2.042-3.282-5.787-8.217-5.584-8.842a6.513,6.513,0,0,0,.169-.93c.219-1.629.438-4.609.438-4.609h0c-.091,0-1.943.045-4.667,3.757-2.794,3.811-8.891,4.32-8.891,4.32S253.4,186.26,251.16,194.6Z" transform="translate(-147.342 -105.019)" fill="#4ecca3"/>
    <path id="Path_341" data-name="Path 341" d="M320.9,201.239s.306,2.435.707,5.345h.041l.351-.124a27.254,27.254,0,0,0,3.886-1.72l.079-.041c.136-.074.273-.149.413-.227a28.045,28.045,0,0,0,5.1-3.671l.136-.128a26.261,26.261,0,0,0,2.4-2.48l.087-.1c-1.476-5.121-4.547-6.734-4.547-6.734s-2.794-1.273-3.559-3.051-7.515-5.535-7.515-5.535v.029c0,.318-.107,3.232-.269,6.163-.1,1.906-.231,3.819-.38,5.035a5.88,5.88,0,0,1-.215,1.166C317.095,196.415,320.9,201.239,320.9,201.239Z" transform="translate(-186.302 -107.225)" fill="#4ecca3"/>
  </g>
</svg>
