<svg xmlns="http://www.w3.org/2000/svg" width="107.711" height="58.004" viewBox="0 0 107.711 58.004">
  <g id="Group_47" data-name="Group 47" transform="translate(-152 -81.327)">
    <g id="Group_36" data-name="Group 36" transform="translate(152 81.327)">
      <path id="Path_64" data-name="Path 64" d="M70.465,283.556h-25.1v-5.024a39.992,39.992,0,0,1,13.1,0A39.064,39.064,0,0,1,70.465,283.556Z" transform="translate(-45.292 -245.138)" fill="#0fcfa2"/>
      <path id="Path_214" data-name="Path 214" d="M70.465,283.556h-25.1v-5.024a39.992,39.992,0,0,1,13.1,0A39.064,39.064,0,0,1,70.465,283.556Z" transform="translate(-45.292 -277.973)" fill="#0fcfa2"/>
      <path id="Path_65" data-name="Path 65" d="M163.24,375.811v20.552h81.518V375.811Zm31.793,17.1H168.551v-2.9h26.483Zm44.414-5.379h-70.9v-2.9h70.9Zm0-5.379h-70.9v-2.9h70.9Z" transform="translate(-163.24 -338.359)" fill="#232931"/>
      <path id="Path_67" data-name="Path 67" d="M163.24,201.574v20.552h81.518V201.574Zm31.793,17.1H168.551v-2.9h26.483Zm15.311-5.379H168.551v-2.9h41.794Zm29.1-5.379h-70.9v-2.9h70.9Z" transform="translate(-163.24 -196.95)" fill="#232931"/>
      <path id="Path_70" data-name="Path 70" d="M550.375,173.769H538.789V162.183h7.862v.276h-7.586v11.035H550.1v-5.517h.276Z" transform="translate(-445.754 -153.145)" fill="#3f3d56" stroke="#20252b" stroke-width="1"/>
      <path id="Path_72" data-name="Path 72" d="M550.375,348.006H538.789V336.42h7.862v.276h-7.586v11.035H550.1v-5.517h.276Z" transform="translate(-445.754 -294.554)" fill="#3f3d56" stroke="#20252b" stroke-width="1"/>
      <path id="Path_216" data-name="Path 216" d="M392.328,147.088l2.262,2.881,8.086-8.183" transform="translate(-295.677 -132.948)" fill="none" stroke="#0fcfa2" stroke-width="2"/>
    </g>
  </g>
</svg>
