<svg xmlns="http://www.w3.org/2000/svg" width="322.519" height="174.451" viewBox="0 0 322.519 174.451">
  <g id="Group_47" data-name="Group 47" transform="translate(-152 -81.327)">
    <g id="Group_36" data-name="Group 36" transform="translate(152 81.327)">
      <path id="Path_64" data-name="Path 64" d="M120.862,294.763h-75.5V279.652s20.535-3.778,39.41,0S120.862,294.763,120.862,294.763Z" transform="translate(-45.154 -179.219)" fill="#0fcfa2"/>
      <path id="Path_214" data-name="Path 214" d="M120.862,294.763h-75.5V279.652s20.535-3.778,39.41,0S120.862,294.763,120.862,294.763Z" transform="translate(-45.154 -277.973)" fill="#0fcfa2"/>
      <path id="Path_65" data-name="Path 65" d="M163.24,375.811v61.811H408.41V375.811Zm95.62,51.44H179.212V418.54h79.649Zm133.578-16.179H179.212v-8.712H392.439Zm0-16.179H179.212v-8.712H392.439Z" transform="translate(-163.24 -263.171)" fill="#232931"/>
      <path id="Path_67" data-name="Path 67" d="M163.24,201.574v61.811H408.41V201.574Zm95.62,51.44H179.212V244.3h79.649Zm46.047-16.179h-125.7v-8.712h125.7Zm87.531-16.179H179.212v-8.712H392.439Z" transform="translate(-163.24 -187.666)" fill="#232931"/>
      <path id="Path_70" data-name="Path 70" d="M573.636,197.03H538.789V162.183h23.646v.83H539.619V196.2h33.187V179.606h.83Z" transform="translate(-258.98 -135)" fill="#3f3d56" stroke="#20252b" stroke-width="1"/>
      <path id="Path_72" data-name="Path 72" d="M573.636,371.267H538.789V336.42h23.646v.83H539.619v33.187h33.187V353.843h.83Z" transform="translate(-258.98 -210.505)" fill="#3f3d56" stroke="#20252b" stroke-width="1"/>
      <path id="Path_216" data-name="Path 216" d="M392.328,157.732l6.8,8.664,24.32-24.61" transform="translate(-101.644 -115.206)" fill="none" stroke="#0fcfa2" stroke-width="2"/>
    </g>
  </g>
</svg>
