<svg id="Layer_1" data-name="Layer 1" xmlns="http://www.w3.org/2000/svg" viewBox="0 0 79.07 79.07"><defs><style>.cls-1{fill:#eee;}</style></defs><path class="cls-1" d="M39.54,0A39.54,39.54,0,1,0,79.07,39.54,39.54,39.54,0,0,0,39.54,0Zm7.93,66.94c-1.37.28-1.85-.57-1.85-1.28,0-.88,0-3.79,0-7.42a6.57,6.57,0,0,0-1.8-5c6-.66,12.23-2.95,12.23-13.36a10.59,10.59,0,0,0-2.76-7.28,10,10,0,0,0-.26-7.17s-2.25-.73-7.33,2.77a25,25,0,0,0-13.4,0C27.21,24.68,25,25.41,25,25.41a9.74,9.74,0,0,0-.24,7.18A10.57,10.57,0,0,0,22,39.86c0,10.39,6.25,12.72,12.2,13.4a5.84,5.84,0,0,0-1.69,3.62l-.12.07a5.68,5.68,0,0,1-7.69-2.32,5.64,5.64,0,0,0-4.11-2.8s-2.61,0-.19,1.65a7.13,7.13,0,0,1,3,4s1.58,5.27,9,3.63c0,2.26,0,4,0,4.61s-.49,1.56-1.83,1.31a27.16,27.16,0,0,1,8.48-52.83,27.11,27.11,0,0,1,8.4,52.78Z"/></svg>