<svg xmlns="http://www.w3.org/2000/svg" width="129.683" height="57.212" viewBox="0 0 129.683 57.212">
  <g id="Group_44" data-name="Group 44" transform="translate(-807.298 -1521.638)">
    <path id="Path_16" data-name="Path 16" d="M349.75,359.793H374a1.011,1.011,0,0,0,1.01-1.01V333.531a1.011,1.011,0,0,0-1.01-1.01H349.75a1.011,1.011,0,0,0-1.01,1.01v25.252A1.011,1.011,0,0,0,349.75,359.793ZM374,332.925a.607.607,0,0,1,.606.606v25.252a.607.607,0,0,1-.606.606H349.75a.607.607,0,0,1-.606-.606V333.531a.607.607,0,0,1,.606-.606Z" transform="translate(552.41 1201.497)" fill="#232931" stroke="#232931" stroke-width="1"/>
    <path id="Path_17" data-name="Path 17" d="M387.319,355.263a.686.686,0,1,1,0,1.372H373.406a.686.686,0,1,1,0-1.372Z" transform="translate(533.921 1183.962)" fill="#232931"/>
    <path id="Path_18" data-name="Path 18" d="M387.319,372.911a.686.686,0,1,1,0,1.372H373.406a.686.686,0,1,1,0-1.372Z" transform="translate(533.921 1170.354)" fill="#232931"/>
    <path id="Path_19" data-name="Path 19" d="M391.56,399.81a4.317,4.317,0,1,0-4.317-4.317A4.317,4.317,0,0,0,391.56,399.81Z" transform="translate(522.723 1156.273)" fill="#4ecca3"/>
    <path id="Path_24" data-name="Path 24" d="M395.055,287.337a34.564,34.564,0,0,0-14.633-6.615,34.064,34.064,0,0,0-16.149.83,34.447,34.447,0,0,0-7.536,3.265,43.85,43.85,0,0,0-6.7,5c-2.129,1.866-4.189,3.815-6.412,5.572a35.92,35.92,0,0,1-22.349,7.862q-1.007,0-2.012-.055c-.363-.02-.366-.588,0-.568a35.341,35.341,0,0,0,23.1-6.981c2.3-1.723,4.407-3.693,6.555-5.6A50.7,50.7,0,0,1,355.5,284.9a34.772,34.772,0,0,1,38.39.875c.533.371,1.054.758,1.566,1.157.288.224-.116.623-.4.4Z" transform="translate(538.674 1242.337)" fill="#232931" stroke="#232931" stroke-width="0.5"/>
    <ellipse id="Ellipse_2" data-name="Ellipse 2" cx="2.951" cy="2.951" rx="2.951" ry="2.951" transform="translate(931.08 1526.517)" fill="#232931"/>
    <ellipse id="Ellipse_3" data-name="Ellipse 3" cx="2.951" cy="2.951" rx="2.951" ry="2.951" transform="translate(821.314 1565.692)" fill="#232931"/>
    <path id="Path_25" data-name="Path 25" d="M653.08,319.18h48.143a1.011,1.011,0,0,0,1.01-1.01V293.12a1.011,1.011,0,0,0-1.01-1.01H653.08a1.011,1.011,0,0,0-1.01,1.01v25.05A1.012,1.012,0,0,0,653.08,319.18Zm48.143-26.666a.607.607,0,0,1,.606.606v25.05a.607.607,0,0,1-.606.606H653.08a.607.607,0,0,1-.606-.606V293.12a.607.607,0,0,1,.606-.606Z" transform="translate(155.728 1232.654)" fill="#232931" stroke="#232931" stroke-width="1"/>
    <ellipse id="Ellipse_4" data-name="Ellipse 4" cx="4.115" cy="4.115" rx="4.115" ry="4.115" transform="translate(844.764 1529.523)" fill="#4ecca3"/>
    <path id="Path_26" data-name="Path 26" d="M756.86,318.883a.686.686,0,0,1,0,1.372H730.936a.686.686,0,1,1,0-1.372Z" transform="translate(82.515 1212.012)" fill="#232931"/>
    <path id="Path_27" data-name="Path 27" d="M744.85,336.856a.686.686,0,1,1,0,1.372H730.936a.686.686,0,1,1,0-1.372Z" transform="translate(94.525 1198.154)" fill="#232931"/>
    <path id="Path_28" data-name="Path 28" d="M712.966,365.589c.522,0,.946.308.946.686s-.425.686-.946.686h-38.2c-.522,0-.946-.308-.946-.686s.425-.686.946-.686Z" transform="translate(139.07 1176)" fill="#232931"/>
    <path id="Path_29" data-name="Path 29" d="M712.966,383.562c.522,0,.946.308.946.686s-.425.686-.946.686h-38.2c-.522,0-.946-.308-.946-.686s.425-.686.946-.686Z" transform="translate(139.07 1162.143)" fill="#232931"/>
    <path id="Path_30" data-name="Path 30" d="M674.472,483.353c-2.716-1.178-5.749-.151-8.309.935-1.318.559-2.623,1.156-3.987,1.6a22.733,22.733,0,0,1-3.516.833,24.843,24.843,0,0,1-7.222.044,25.214,25.214,0,0,1-6.969-2.027,23.568,23.568,0,0,1-6.032-3.944q-.343-.31-.672-.634c-.261-.256.14-.658.4-.4a22.9,22.9,0,0,0,5.884,4.154,24.648,24.648,0,0,0,6.836,2.2,24.143,24.143,0,0,0,7.2.124,22.672,22.672,0,0,0,3.527-.767,37.329,37.329,0,0,0,3.893-1.512c2.584-1.11,5.455-2.2,8.294-1.431a6.914,6.914,0,0,1,.953.34C675.093,483.008,674.8,483.5,674.472,483.353Z" transform="translate(186.35 1088.037)" fill="#232931" stroke="#232931" stroke-width="0.5"/>
    <path id="Path_31" data-name="Path 31" d="M535.661,483.282h22.745l-5.353-9.271a1.093,1.093,0,0,0-1.893,0l-2.287,3.961-3.888-6.734a1.369,1.369,0,0,0-2.37,0Z" transform="translate(326.209 1095.071)" fill="#4ecca3"/>
    <path id="Path_32" data-name="Path 32" d="M525.8,473.762h24.247a1.011,1.011,0,0,0,1.01-1.01V459.219a1.011,1.011,0,0,0-1.01-1.01H525.8a1.011,1.011,0,0,0-1.01,1.01v13.533A1.011,1.011,0,0,0,525.8,473.762Zm24.247-15.149a.607.607,0,0,1,.606.606v13.533a.607.607,0,0,1-.606.606H525.8a.607.607,0,0,1-.606-.606V459.219a.607.607,0,0,1,.606-.606Z" transform="translate(336.052 1104.588)" fill="#232931" stroke="#232931" stroke-width="1"/>
  </g>
</svg>
