<svg xmlns="http://www.w3.org/2000/svg" fill="none" viewBox="0 0 2446 1428">
  <circle cx="1223" cy="714" r="122.6" fill="#7087FF"/>
  <circle cx="1223" cy="230.6" r="119.1" fill="#fff" stroke="#7087FF" stroke-width="7"/>
  <path fill="#7087FF" d="M1225.5 391.2a3.5 3.5 0 0 0-5 0l-22.3 22.3a3.5 3.5 0 1 0 5 5l19.8-19.8 19.8 19.8a3.5 3.5 0 1 0 5-5l-22.3-22.3Zm1 159.7V393.7h-7V551h7Z"/>
  <circle cx="1564.8" cy="372.2" r="119.1" fill="#fff" stroke="#7087FF" stroke-width="7" transform="rotate(45 1564.8 372.2)"/>
  <path fill="#7087FF" d="M1334.8 598.7c0 2 1.6 3.5 3.5 3.5h31.5a3.5 3.5 0 1 0 0-7h-28v-28a3.5 3.5 0 1 0-7 0v31.5ZM1453 487.5c0-2-1.6-3.5-3.5-3.5H1418a3.5 3.5 0 1 0 0 7h28v28a3.5 3.5 0 1 0 7 0v-31.5Zm-112.2 113.7L1452 490l-5-5-111.2 111.2 5 5Z"/>
  <circle cx="1706.4" cy="714" r="119.1" fill="#fff" stroke="#7087FF" stroke-width="7" transform="rotate(90 1706.4 714)"/>
  <path fill="#7087FF" d="M1383.6 711.5a3.5 3.5 0 0 0 0 5l22.3 22.3a3.5 3.5 0 1 0 5-5L1391 714l19.8-19.8a3.5 3.5 0 1 0-5-5l-22.2 22.3Zm162.2 5a3.5 3.5 0 0 0 0-5l-22.3-22.2a3.5 3.5 0 1 0-5 4.9l19.8 19.8-19.8 19.8a3.5 3.5 0 1 0 5 5l22.3-22.3Zm-159.7 1h157.2v-7H1386v7Z"/>
  <circle cx="1223" cy="1197.4" r="119.1" fill="#fff" stroke="#7087FF" stroke-width="7"/>
  <path fill="#7087FF" d="M1225.5 874.6a3.5 3.5 0 0 0-5 0l-22.3 22.3a3.5 3.5 0 1 0 5 5L1223 882l19.8 19.8a3.5 3.5 0 1 0 5-5l-22.3-22.2Zm-6 2.5v157.2h7V877h-7Z"/>
  <circle cx="881.2" cy="1055.8" r="119.1" fill="#fff" stroke="#7087FF" stroke-width="7" transform="rotate(45 881.2 1055.8)"/>
  <path fill="#7087FF" d="M993 940.5c0 2 1.6 3.5 3.5 3.5h31.5a3.5 3.5 0 1 0 0-7h-28v-28a3.5 3.5 0 1 0-7 0v31.5Zm112.2-113.7L994 938l5 5 111.2-111.2-5-5Z"/>
  <circle cx="739.6" cy="714" r="119.1" fill="#fff" stroke="#7087FF" stroke-width="7" transform="rotate(90 739.6 714)"/>
  <path fill="#7087FF" d="M900.2 711.5a3.5 3.5 0 0 0 0 5l22.3 22.3a3.5 3.5 0 1 0 5-5L907.7 714l19.8-19.8a3.5 3.5 0 0 0-5-5l-22.3 22.3Zm159.7-1H902.7v7H1060v-7Z"/>
</svg>