<svg xmlns="http://www.w3.org/2000/svg" fill="none" viewBox="0 0 152 29">
  <path fill="currentColor" d="m37.818 22.576-3.725-1.272a.202.202 0 0 0-.131.02.184.184 0 0 0-.083.105c-.41 1.289-1.57 2.705-3.815 2.705s-4.473-1.72-4.473-4.783c0-3.064 2.104-4.783 4.439-4.783 1.943 0 3.012 1.092 3.51 2.276.018.07.108.124.178.107l3.851-1.343c.071-.036.107-.125.071-.197-.928-2.633-3.458-5.069-7.7-5.069-4.92 0-8.699 3.78-8.699 9.009 0 5.23 3.85 9.009 8.823 9.009 4.403 0 7.042-2.813 7.843-5.606a.124.124 0 0 0-.001-.11.111.111 0 0 0-.036-.044.12.12 0 0 0-.052-.024Zm58.447-5.069-2.405-.5c-.945-.198-1.534-.662-1.534-1.487 0-.984.946-1.702 2.139-1.702 1.676 0 2.388.95 2.692 1.846.017.107.107.143.178.107l3.423-1.343c.071-.036.107-.107.09-.178-.625-1.756-2.406-3.904-6.418-3.904-3.637 0-6.31 2.507-6.31 5.569 0 2.346 1.48 4.406 4.741 5.105l2.228.537c1.32.286 1.818.823 1.818 1.594 0 .877-.712 1.684-2.228 1.684-1.925 0-2.906-1.164-3.067-2.417 0-.09-.07-.144-.196-.125l-3.601.806a.194.194 0 0 0-.143.178c.284 1.917 2.085 5.086 7.041 5.086 4.457 0 6.578-2.83 6.578-5.605 0-2.471-1.694-4.568-5.027-5.247l.001-.004Zm27.309-7.163c-4.367 0-8.325 3.51-8.325 8.938 0 5.732 4.083 9.08 8.716 9.08 3.458 0 5.9-1.685 7.113-3.977.036-.09 0-.179-.071-.215l-3.404-1.487c-.071-.017-.161 0-.197.071-.642.986-1.747 1.648-3.404 1.648-2.299 0-4.172-1.611-4.279-3.833h11.979c.071 0 .143-.09.143-.144.036-.232.071-.788.071-1.289 0-5.444-3.137-8.794-8.342-8.794v.002Zm3.832 7.075h-7.576c.107-1.54 1.426-3.313 3.797-3.313 2.603 0 3.708 1.63 3.779 3.313Zm23.922-14.58h-4.279c-.071 0-.124.071-.124.144v9.582c-.464-.913-1.854-2.114-4.777-2.114-4.76 0-8.075 3.887-8.075 8.865 0 4.979 3.404 8.938 8.218 8.938 2.245 0 3.975-1.038 4.723-2.383l.018 1.827c0 .07.053.125.143.125h4.153a.15.15 0 0 0 .055-.01.13.13 0 0 0 .046-.032.15.15 0 0 0 .042-.102V2.98c0-.07-.071-.144-.143-.144v.002Zm-8.503 21.33c-2.388 0-4.171-1.808-4.171-4.853 0-3.044 1.836-4.817 4.171-4.817s4.207 1.755 4.207 4.783c0 3.027-1.872 4.89-4.207 4.89v-.002Zm-29.661-.249c-.303.037-.82.09-1.229.09-1.319 0-2.014-.483-2.014-1.987v-7.092h3.261c.07 0 .143-.071.143-.144v-3.78c0-.053-.071-.124-.143-.124h-3.261V5.922a.15.15 0 0 0-.042-.102.14.14 0 0 0-.102-.042h-4.189c-.107 0-.16.071-.16.144l-.017 4.96h-2.906c-.09 0-.143.072-.143.126v3.779a.136.136 0 0 0 .041.102.133.133 0 0 0 .047.031c.017.007.036.01.055.01h2.906v7.899c0 3.296 2.031 5.248 5.329 5.248 1.266 0 2.067-.215 2.495-.358a.198.198 0 0 0 .09-.179v-3.49c0-.09-.071-.162-.161-.125v-.004ZM77.995 10.415c-2.513 0-4.35 1.11-5.115 2.31V2.98a.138.138 0 0 0-.088-.133.149.149 0 0 0-.055-.01h-4.225a.154.154 0 0 0-.143.143v24.7a.14.14 0 0 0 .088.133c.017.007.036.01.055.01h4.153c.09 0 .143-.053.143-.143v-1.917c.891 1.45 2.673 2.49 5.008 2.49 4.83 0 8.004-3.85 8.004-8.972s-2.87-8.865-7.826-8.865h.001ZM77.05 24.17c-2.335 0-4.278-1.792-4.278-4.854 0-3.061 1.943-4.853 4.278-4.853 2.335 0 4.153 1.738 4.153 4.853 0 3.116-1.818 4.854-4.153 4.854ZM64.323 10.88h-4.296c-.09 0-.143.071-.143.125V27.68c0 .09.053.143.143.143h4.296a.137.137 0 0 0 .102-.042.14.14 0 0 0 .041-.101V11.006c0-.054-.07-.125-.143-.125Zm-2.158-8.454c-1.55 0-2.852 1.272-2.852 2.847s1.283 2.812 2.833 2.812c1.694 0 3.013-1.47 2.78-3.135-.16-1.415-1.336-2.507-2.762-2.524h.001Zm-12.494 7.988c-1.604 0-3.494.554-4.563 1.845V2.983c0-.071-.071-.144-.143-.144h-4.296a.137.137 0 0 0-.102.042.138.138 0 0 0-.042.102V27.68c0 .09.054.143.144.143h4.296a.137.137 0 0 0 .102-.042.14.14 0 0 0 .04-.101v-9.834c-.036-1.863 1.053-3.384 3.155-3.384 2.21 0 3.12 1.577 3.12 3.457v9.76a.14.14 0 0 0 .088.133.15.15 0 0 0 .055.011h4.26c.09 0 .143-.053.143-.143V17.149c0-3.726-1.961-6.734-6.257-6.734ZM3.914 14.858a.647.647 0 0 0-.658.662c0 .171.063.338.177.466.143.161.552.52.802.735a.637.637 0 0 0 .41.143.647.647 0 0 0 .66-.662.724.724 0 0 0-.25-.52 9.467 9.467 0 0 1-.678-.608c-.125-.124-.321-.214-.464-.214l.001-.002Zm2.175 1.755a.573.573 0 0 0-.588.591c0 .251.143.43.338.537.124.071.374.161.552.232.124.054.143.054.178.054.427 0 .624-.305.624-.573a.654.654 0 0 0-.357-.574c-.445-.178-.357-.161-.481-.215a.7.7 0 0 0-.268-.054l.002.002Zm2.175.806c-.338-.054-.642.144-.642.5 0 .13.043.257.124.36a.55.55 0 0 0 .323.197c.13.03.26.048.391.054.304 0 .535-.215.535-.52a.57.57 0 0 0-.445-.537c-.107-.018-.231-.037-.284-.054h-.002Zm-2.835-3.457a.61.61 0 0 0-.625.627c0 .215.107.413.197.501.107.107.802.645.945.735.12.067.255.104.391.107a.613.613 0 0 0 .606-.608.723.723 0 0 0-.285-.574 6.368 6.368 0 0 1-.784-.608.648.648 0 0 0-.445-.178v-.002Zm4.492 3.69a.488.488 0 0 0-.498.5c0 .286.214.5.498.5a.488.488 0 0 0 .498-.5c0-.286-.213-.5-.498-.5Zm-1.854-2.169c-.464-.107-.748.125-.748.501 0 .305.177.52.41.591.392.125.535.161.642.161.303 0 .57-.232.57-.573 0-.269-.16-.466-.444-.555-.499-.144-.392-.125-.428-.125h-.002Zm1.854.342a.488.488 0 0 0-.498.5c0 .286.214.501.498.501a.488.488 0 0 0 .498-.5.488.488 0 0 0-.498-.501Zm-2.96-2.956a.599.599 0 0 0-.587.608.7.7 0 0 0 .23.483c.25.215 1.106.716 1.64.877a.588.588 0 0 0 .614-.135.594.594 0 0 0 .172-.42.637.637 0 0 0-.41-.59c-.465-.179-1-.466-1.267-.681a.591.591 0 0 0-.391-.144v.002Zm2.96 1.128a.488.488 0 0 0-.498.5c0 .286.214.501.498.501a.488.488 0 0 0 .498-.5.487.487 0 0 0-.498-.501ZM9.938.637C4.804.637.955 4.594.955 9.467c0 1.953.624 4.173 1.302 4.997.16.198.338.34.605.34.41 0 .713-.305.713-.716a.847.847 0 0 0-.107-.376c-.16-.232.107-.393.23-.178a.785.785 0 0 0 .642.359.69.69 0 0 0 .678-.681.787.787 0 0 0-.107-.394c-.177-.286.107-.393.214-.215a.772.772 0 0 0 .642.377.698.698 0 0 0 .695-.698.766.766 0 0 0-.09-.36 4.397 4.397 0 0 1-.57-2.221c0-2.561 1.763-4.407 4.117-4.407 1.925 0 3.458 1.236 3.958 3.062l4.617-1.504C17.371 3.163 14.054.637 9.938.637Zm5.99 13.503a.647.647 0 0 0 .659-.662.704.704 0 0 0-.178-.466c-.143-.16-.552-.52-.802-.734a.634.634 0 0 0-.41-.144.647.647 0 0 0-.66.662.73.73 0 0 0 .25.52c.215.16.589.52.679.608.124.125.32.215.464.215l-.002.001Zm-2.175-1.755a.573.573 0 0 0 .588-.59c0-.252-.143-.43-.338-.538-.124-.071-.374-.161-.552-.232-.124-.054-.143-.054-.177-.054-.428 0-.625.305-.625.574 0 .286.197.5.357.573.445.179.357.161.482.215a.7.7 0 0 0 .267.054l-.002-.002Zm-2.175-.806c.338.054.642-.144.642-.5a.558.558 0 0 0-.447-.556 2 2 0 0 0-.391-.054c-.304 0-.535.215-.535.52a.57.57 0 0 0 .445.537c.107.017.231.036.285.053h.002Zm2.836 3.457a.61.61 0 0 0 .624-.627.759.759 0 0 0-.197-.5 13.317 13.317 0 0 0-.945-.736.847.847 0 0 0-.391-.107.613.613 0 0 0-.606.608c0 .232.125.466.285.574.231.144.57.412.785.608a.648.648 0 0 0 .445.179v.001ZM9.92 11.347a.488.488 0 0 0 .498-.5.487.487 0 0 0-.498-.501.488.488 0 0 0-.498.5c0 .286.214.501.498.501Zm1.854 2.166c.464.108.748-.125.748-.5 0-.306-.177-.52-.41-.591-.391-.125-.534-.162-.641-.162a.564.564 0 0 0-.571.574c0 .268.16.466.445.554.498.144.391.125.427.125h.002Zm-1.854-.34a.488.488 0 0 0 .498-.5.488.488 0 0 0-.498-.501.488.488 0 0 0-.498.5c0 .287.214.502.498.502Zm2.96 2.955a.6.6 0 0 0 .588-.608.697.697 0 0 0-.231-.484c-.25-.215-1.106-.715-1.64-.877a.758.758 0 0 0-.197-.036.59.59 0 0 0-.418.172.593.593 0 0 0-.17.419c0 .305.214.52.41.59.464.18.999.467 1.266.682a.592.592 0 0 0 .391.144v-.002ZM9.92 15a.488.488 0 0 0 .498-.5.488.488 0 0 0-.498-.502.488.488 0 0 0-.498.501c0 .286.214.5.498.5Zm-.016 13.36c5.134 0 8.983-3.957 8.983-8.83 0-1.953-.624-4.172-1.3-4.997-.16-.198-.338-.34-.605-.34a.694.694 0 0 0-.713.716c0 .125.054.286.107.376.16.232-.107.393-.23.178a.785.785 0 0 0-.642-.358.69.69 0 0 0-.678.68c0 .14.038.274.107.394.177.286-.107.393-.214.215a.772.772 0 0 0-.642-.376.698.698 0 0 0-.695.698c0 .125.037.269.09.359.392.698.57 1.415.57 2.221 0 2.561-1.763 4.407-4.117 4.407-1.925 0-3.458-1.236-3.958-3.064L1.35 22.144c1.123 3.69 4.44 6.216 8.556 6.216l-.002.002Z"/>
</svg>