<svg width="1375" height="227" viewBox="0 0 1375 227" fill="none" xmlns="http://www.w3.org/2000/svg">
<path d="M107.423 226.999C41.967 226.999 0 179.205 0 112.355C0 44.2556 45.412 0.209779 106.483 0.209779C151.269 0.209779 183.84 25.2003 183.84 54.8766C183.84 67.6842 177.577 78.93 163.17 78.93C150.016 78.93 142.5 69.8709 142.5 57.3756C142.5 52.3775 143.126 46.7547 143.126 40.507C143.126 27.0746 131.225 13.9546 103.038 13.9546C62.6373 13.9546 31.945 45.8175 31.945 101.109C31.945 156.713 63.5768 195.761 114 195.761C153.461 195.761 171 172.332 181.022 172.332C183.527 172.332 185.093 173.582 185.093 177.33C185.093 185.452 177.89 196.698 169.747 204.82C156.593 217.315 135.923 226.999 107.423 226.999Z" fill="black"/>
<path d="M241.288 226.999C216.233 226.999 202.14 212.942 202.14 192.325C202.14 163.898 228.761 141.094 291.085 136.721V107.357C291.085 90.1757 284.821 80.8043 269.788 80.8043C237.53 80.8043 238.783 119.227 218.112 119.227C209.03 119.227 202.766 113.917 202.766 104.233C202.766 88.3014 226.881 68.9338 270.101 68.9338C304.552 68.9338 319.898 82.3662 319.898 107.044V203.258C319.898 208.881 322.09 210.755 325.222 210.755C327.414 210.755 330.233 209.818 332.425 209.818C334.618 209.818 335.87 211.067 335.87 213.254C335.87 219.814 325.222 226.999 312.381 226.999C292.964 226.999 291.085 210.443 291.085 203.258C278.87 219.189 260.079 226.999 241.288 226.999ZM257.261 204.82C269.788 204.82 279.497 200.446 291.085 190.138V148.591C245.986 153.902 232.832 169.521 232.832 184.827C232.832 196.698 240.975 204.82 257.261 204.82Z" fill="black"/>
<path d="M437.859 68.9338C451.639 68.9338 460.408 77.0557 460.408 87.989C460.408 97.6729 453.518 104.233 443.496 104.233C431.282 104.233 427.837 94.549 415.623 94.549C403.722 94.549 395.579 103.608 395.579 119.852V203.883C395.579 210.443 409.672 210.443 409.672 218.252C409.672 220.751 407.48 223.25 403.408 223.25H358.936C354.865 223.25 352.672 220.751 352.672 218.252C352.672 210.755 366.766 210.755 366.766 203.883V112.355C366.766 98.9224 349.227 102.671 349.227 94.549C349.227 92.05 350.793 89.8633 353.925 87.989L384.304 70.808C389.628 67.6842 395.579 69.2461 395.579 76.4309V96.111C404.348 79.5547 420.321 68.9338 437.859 68.9338Z" fill="black"/>
<path d="M596.801 187.326C596.801 198.885 614.653 195.448 614.653 204.82C614.653 207.631 613.087 209.818 609.642 211.38L579.263 225.437C572.373 228.561 567.988 226.374 567.988 219.814V207.631C557.34 222.001 538.862 226.999 522.889 226.999C487.499 226.999 460.565 203.258 460.565 156.401C460.565 107.044 490.318 72.6823 536.983 72.6823C547.631 72.6823 557.653 74.2442 567.988 79.5547V43.0061C567.988 31.448 550.137 34.2594 550.137 24.8879C550.137 22.3889 551.389 20.2022 555.461 18.0156L585.527 2.08408C592.104 -1.35213 596.801 0.522157 596.801 6.7698V187.326ZM536.043 206.382C545.439 206.382 554.521 203.883 567.988 195.448V117.665C567.988 94.549 554.521 85.8024 535.104 85.8024C508.483 85.8024 491.571 102.671 491.571 143.905C491.571 187.951 510.675 206.382 536.043 206.382Z" fill="black"/>
<path d="M702.078 226.999C687.359 226.999 676.084 223.25 664.183 214.191C660.738 211.692 657.919 212.005 655.414 215.128L648.837 223.875C645.078 228.561 639.754 227.624 639.754 221.376V43.3185C639.754 31.1356 622.216 34.8841 622.216 25.5127C622.216 23.326 623.155 21.4517 627.227 18.9527L657.293 1.77169C663.87 -1.97688 668.567 0.522158 668.567 6.45743V87.3643C681.095 78.3052 696.441 72.6823 714.919 72.6823C752.815 72.6823 774.738 96.4234 774.738 139.532C774.738 200.446 741.227 226.999 702.078 226.999ZM702.705 213.879C724.628 213.879 742.166 198.572 742.166 148.903C742.166 107.669 726.82 90.8005 698.007 90.8005C687.672 90.8005 678.903 92.9871 668.567 98.61V138.126V177.643C668.567 201.071 681.721 213.879 702.705 213.879Z" fill="black"/>
<path d="M1004.73 226.999C979.67 226.999 965.577 212.942 965.577 192.325C965.577 163.898 992.198 141.094 1054.52 136.721V107.357C1054.52 90.1757 1048.26 80.8043 1033.22 80.8043C1000.97 80.8043 1002.22 119.227 981.549 119.227C972.467 119.227 966.203 113.917 966.203 104.233C966.203 88.3014 990.318 68.9338 1033.54 68.9338C1067.99 68.9338 1083.33 82.3662 1083.33 107.044V203.258C1083.33 208.881 1085.53 210.755 1088.66 210.755C1090.85 210.755 1093.67 209.818 1095.86 209.818C1098.05 209.818 1099.31 211.067 1099.31 213.254C1099.31 219.814 1088.66 226.999 1075.82 226.999C1056.4 226.999 1054.52 210.443 1054.52 203.258C1042.31 219.189 1023.52 226.999 1004.73 226.999ZM1020.7 204.82C1033.23 204.82 1042.93 200.446 1054.52 190.138V148.591C1009.42 153.902 996.269 169.521 996.269 184.827C996.269 196.698 1004.41 204.82 1020.7 204.82Z" fill="black"/>
<path d="M1201.3 68.9338C1215.08 68.9338 1223.85 77.0557 1223.85 87.989C1223.85 97.6729 1216.96 104.233 1206.93 104.233C1194.72 104.233 1191.27 94.549 1179.06 94.549C1167.16 94.549 1159.02 103.608 1159.02 119.852V203.883C1159.02 210.443 1173.11 210.443 1173.11 218.252C1173.11 220.751 1170.92 223.25 1166.85 223.25H1122.37C1118.3 223.25 1116.11 220.751 1116.11 218.252C1116.11 210.755 1130.2 210.755 1130.2 203.883V112.355C1130.2 98.9224 1112.66 102.671 1112.66 94.549C1112.66 92.05 1114.23 89.8633 1117.36 87.989L1147.74 70.808C1153.07 67.6842 1159.02 69.2461 1159.02 76.4309V96.111C1167.78 79.5547 1183.76 68.9338 1201.3 68.9338Z" fill="black"/>
<path d="M1357.15 187.326C1357.15 198.885 1375 195.448 1375 204.82C1375 207.631 1373.43 209.818 1369.99 211.38L1339.61 225.437C1332.72 228.561 1328.34 226.374 1328.34 219.814V207.631C1317.69 222.001 1299.21 226.999 1283.24 226.999C1247.85 226.999 1220.91 203.258 1220.91 156.401C1220.91 107.044 1250.67 72.6823 1297.33 72.6823C1307.98 72.6823 1318 74.2442 1328.34 79.5547V43.0061C1328.34 31.448 1310.48 34.2594 1310.48 24.8879C1310.48 22.3889 1311.74 20.2022 1315.81 18.0156L1345.87 2.08408C1352.45 -1.35213 1357.15 0.522157 1357.15 6.7698V187.326ZM1296.39 206.382C1305.79 206.382 1314.87 203.883 1328.34 195.448V117.665C1328.34 94.549 1314.87 85.8024 1295.45 85.8024C1268.83 85.8024 1251.92 102.671 1251.92 143.905C1251.92 187.951 1271.02 206.382 1296.39 206.382Z" fill="black"/>
<path d="M871.014 227C827.481 227 793.657 196.074 793.657 147.967C793.657 99.8607 827.481 69.2473 871.014 69.2473C914.547 69.2473 948.371 99.8607 948.371 147.967C948.371 196.074 914.547 227 871.014 227ZM871.014 213.255C897.009 213.255 914.234 194.825 914.234 156.089V139.846C914.234 101.11 897.009 82.992 871.014 82.992C845.02 82.992 827.794 101.11 827.794 139.846V156.402C827.794 194.825 845.02 213.255 871.014 213.255Z" fill="black"/>
</svg>
